<?xml version="1.0" encoding="utf-8"?><svg xmlns="http://www.w3.org/2000/svg" xmlns:xlink="http://www.w3.org/1999/xlink"><symbol viewBox="0 0 116 116" id="api" xmlns="http://www.w3.org/2000/svg"><g transform="translate(2 2)" fill="none" fill-rule="evenodd"><circle stroke="#AF53FF" stroke-width="2" cx="56" cy="56" r="55"/><path d="M55.99 104v-2C30.92 102 10.533 81.944 10 57H8c.533 26.049 21.815 47 47.99 47zm0-96v2c25.405 0 46 20.595 46 46 0 .334-.004.668-.01 1.001h2c.006-.333.01-.667.01-1.001 0-26.51-21.49-48-48-48z" fill="#AF53FF"/><path d="M33.715 68l2.52-5.61h11.7l2.52 5.61h2.34l-9.6-21h-2.19l-9.6 21h2.31zm13.41-7.41h-10.08l5.04-11.28 5.04 11.28zM57.995 68v-6.63h5.64c2.68 0 4.78-.635 6.3-1.905 1.52-1.27 2.28-3.025 2.28-5.265 0-2.24-.76-4-2.28-5.28-1.52-1.28-3.62-1.92-6.3-1.92h-7.86v21h2.22zm0-8.58v-10.5h5.58c2.08 0 3.67.455 4.77 1.365 1.1.91 1.65 2.215 1.65 3.915 0 1.66-.55 2.945-1.65 3.855-1.1.91-2.69 1.365-4.77 1.365h-5.58zM78.735 68V47h-2.22v21h2.22z" fill="#AF53FF" fill-rule="nonzero"/></g></symbol><symbol viewBox="0 0 48 38" id="arrow" xmlns="http://www.w3.org/2000/svg"><defs><path id="aba" d="M4.071 5.036L1.243 2.207A1 1 0 0 1 2.657.793l4.242 4.243-4.242 4.242a1 1 0 0 1-1.414-1.414L4.07 5.036z"/></defs><g fill="none" fill-rule="evenodd" transform="translate(6 14)"><mask id="abb" fill="#fff"><use xlink:href="#aba"/></mask><use fill="#FFF" fill-opacity="0" xlink:href="#aba"/><g fill="#B063F5" mask="url(#abb)"><path d="M-6-14h48v38H-6z"/></g></g></symbol><symbol viewBox="0 0 7 10" id="arrow-right" xmlns="http://www.w3.org/2000/svg"><path d="M4.071 5.036L1.243 2.207A1 1 0 1 1 2.657.793l4.242 4.243-4.242 4.242a1 1 0 0 1-1.414-1.414L4.07 5.036z" fill="#268EFF"/></symbol><symbol viewBox="0 0 28 20" id="card" xmlns="http://www.w3.org/2000/svg"><path d="M24.003 0A3.999 3.999 0 0 1 28 4v12a4 4 0 0 1-3.997 4H3.997A3.999 3.999 0 0 1 0 16V4a4 4 0 0 1 3.997-4h20.006zM26 8.999H2v7.007a2 2 0 0 0 1.855 1.989l.15.005h19.99A2 2 0 0 0 26 16.006V8.999zM22.9 14a.7.7 0 0 1 .7.7v.6a.7.7 0 0 1-.7.7h-3.6a.7.7 0 0 1-.7-.7v-.6a.7.7 0 0 1 .7-.7h3.6zm1.095-12H4.005A2 2 0 0 0 2 3.994V6h24V3.994a2 2 0 0 0-1.855-1.989L23.995 2z" fill="#F20C92"/></symbol><symbol viewBox="0 0 33 33" id="check" xmlns="http://www.w3.org/2000/svg"><defs><path d="M16.5 0C25.613 0 33 7.387 33 16.5S25.613 33 16.5 33 0 25.613 0 16.5 7.387 0 16.5 0zm0 2C8.492 2 2 8.492 2 16.5S8.492 31 16.5 31 31 24.508 31 16.5 24.508 2 16.5 2zm7.425 9.318a1.5 1.5 0 0 1 0 2.121l-9.546 9.546-5.304-5.303a1.5 1.5 0 1 1 2.122-2.121l3.182 3.182 7.424-7.425a1.5 1.5 0 0 1 2.122 0z" id="aea"/></defs><g fill-rule="evenodd"><path d="M16.5 0C25.613 0 33 7.387 33 16.5S25.613 33 16.5 33 0 25.613 0 16.5 7.387 0 16.5 0zm0 2C8.492 2 2 8.492 2 16.5S8.492 31 16.5 31 31 24.508 31 16.5 24.508 2 16.5 2zm7.425 9.318a1.5 1.5 0 0 1 0 2.121l-9.546 9.546-5.304-5.303a1.5 1.5 0 1 1 2.122-2.121l3.182 3.182 7.424-7.425a1.5 1.5 0 0 1 2.122 0z" fill="none"/><mask id="aeb" fill="#fff"><use xlink:href="#aea"/></mask><g mask="url(#aeb)" fill="#50bd5c" fill-rule="nonzero"><path d="M-2-2h37v37H-2z"/></g></g></symbol><symbol viewBox="0 0 33 33" id="check-1" xmlns="http://www.w3.org/2000/svg"><mask id="afa" fill="#fff"><path d="M16.5 0C25.613 0 33 7.387 33 16.5S25.613 33 16.5 33 0 25.613 0 16.5 7.387 0 16.5 0zm0 2C8.492 2 2 8.492 2 16.5S8.492 31 16.5 31 31 24.508 31 16.5 24.508 2 16.5 2zm7.425 9.318a1.501 1.501 0 0 1 0 2.121l-9.546 9.546-5.304-5.303a1.501 1.501 0 0 1 2.122-2.121l3.182 3.182 7.424-7.425a1.5 1.5 0 0 1 2.122 0z" fill-rule="evenodd"/></mask><g fill="none" fill-rule="evenodd"><path d="M16.5 0C25.613 0 33 7.387 33 16.5S25.613 33 16.5 33 0 25.613 0 16.5 7.387 0 16.5 0zm0 2C8.492 2 2 8.492 2 16.5S8.492 31 16.5 31 31 24.508 31 16.5 24.508 2 16.5 2zm7.425 9.318a1.501 1.501 0 0 1 0 2.121l-9.546 9.546-5.304-5.303a1.501 1.501 0 0 1 2.122-2.121l3.182 3.182 7.424-7.425a1.5 1.5 0 0 1 2.122 0z"/><g fill="#50bd5c" fill-rule="nonzero" mask="url(#afa)"><path d="M-2-2h37v37H-2z"/></g></g></symbol><symbol viewBox="0 0 14 10" id="check-list" xmlns="http://www.w3.org/2000/svg"><path d="M4.886 7.448l7-7a.7.7 0 0 1 .99.99l-7.99 7.99L1.138 5.68a.7.7 0 0 1 .99-.99l2.758 2.758z" fill="#B063F5"/></symbol><symbol viewBox="0 0 116 116" id="cms" xmlns="http://www.w3.org/2000/svg"><g transform="translate(2 2)" fill="none" fill-rule="evenodd"><circle stroke="#3EC3EE" stroke-width="2" cx="56" cy="56" r="55"/><path d="M55.99 104v-2C30.92 102 10.533 81.944 10 57H8c.533 26.049 21.815 47 47.99 47zm0-96v2c25.405 0 46 20.595 46 46 0 .334-.004.668-.01 1.001h2c.006-.333.01-.667.01-1.001 0-26.51-21.49-48-48-48z" fill="#3EC3EE"/><path d="M33.705 68.18c1.56 0 3.005-.265 4.335-.795s2.455-1.295 3.375-2.295l-1.41-1.41c-1.62 1.68-3.69 2.52-6.21 2.52-1.66 0-3.17-.38-4.53-1.14a8.33 8.33 0 0 1-3.195-3.12c-.77-1.32-1.155-2.8-1.155-4.44 0-1.64.385-3.12 1.155-4.44a8.33 8.33 0 0 1 3.195-3.12c1.36-.76 2.87-1.14 4.53-1.14 2.5 0 4.57.83 6.21 2.49l1.41-1.41c-.92-1-2.04-1.76-3.36-2.28-1.32-.52-2.76-.78-4.32-.78-2.08 0-3.96.46-5.64 1.38-1.68.92-2.995 2.195-3.945 3.825-.95 1.63-1.425 3.455-1.425 5.475 0 2.02.475 3.845 1.425 5.475.95 1.63 2.26 2.905 3.93 3.825 1.67.92 3.545 1.38 5.625 1.38zm14.58-.18V51.29l8.25 14.04h1.05l8.25-14.13V68h2.13V47h-1.83l-9.03 15.57L47.985 47h-1.83v21h2.13zm32.31.18c1.72 0 3.17-.255 4.35-.765 1.18-.51 2.055-1.2 2.625-2.07a5.17 5.17 0 0 0 .855-2.895c0-1.28-.33-2.295-.99-3.045a6.13 6.13 0 0 0-2.415-1.68c-.95-.37-2.195-.745-3.735-1.125-1.3-.32-2.335-.615-3.105-.885s-1.41-.66-1.92-1.17c-.51-.51-.765-1.185-.765-2.025 0-1.12.465-2.035 1.395-2.745.93-.71 2.315-1.065 4.155-1.065.96 0 1.94.145 2.94.435 1 .29 1.94.725 2.82 1.305l.75-1.77c-.84-.58-1.835-1.035-2.985-1.365a12.718 12.718 0 0 0-3.525-.495c-1.72 0-3.16.26-4.32.78-1.16.52-2.02 1.215-2.58 2.085-.56.87-.84 1.835-.84 2.895 0 1.3.335 2.33 1.005 3.09a6.206 6.206 0 0 0 2.415 1.695c.94.37 2.2.755 3.78 1.155 1.32.32 2.35.615 3.09.885.74.27 1.365.655 1.875 1.155s.765 1.17.765 2.01c0 1.1-.47 1.995-1.41 2.685s-2.35 1.035-4.23 1.035c-1.34 0-2.64-.235-3.9-.705-1.26-.47-2.27-1.085-3.03-1.845l-.87 1.71c.78.82 1.885 1.48 3.315 1.98s2.925.75 4.485.75z" fill="#3EC3EE" fill-rule="nonzero"/></g></symbol><symbol viewBox="0 0 116 17" id="comment" xmlns="http://www.w3.org/2000/svg"><defs><path d="M16.005 0A2 2 0 0 1 18 2.006v9.988A2 2 0 0 1 16.005 14H9.762L6.05 17l-3.788-3h-.267A2 2 0 0 1 0 11.994V2.006A2 2 0 0 1 1.995 0h14.01zm-.006 1H2.001A1 1 0 0 0 1 2.002v9.996C1 12.544 1.448 13 2 13h.8l3.25 2.6L9.2 13H16a1 1 0 0 0 1-1.002V2.002C17 1.456 16.552 1 16 1h-.001zM5.3 5.8a1.3 1.3 0 1 1 0 2.6 1.3 1.3 0 0 1 0-2.6zm3.7 0a1.3 1.3 0 1 1 0 2.6 1.3 1.3 0 0 1 0-2.6zm3.7 0a1.3 1.3 0 1 1 0 2.6 1.3 1.3 0 0 1 0-2.6z" id="aia"/></defs><g fill="none" fill-rule="evenodd"><text transform="translate(33 -2)" fill="#000" fill-opacity=".6" font-family="Helvetica" font-size="13"><tspan x="0" y="13">Комментарий</tspan></text><path d="M16.005 0A2 2 0 0 1 18 2.006v9.988A2 2 0 0 1 16.005 14H9.762L6.05 17l-3.788-3h-.267A2 2 0 0 1 0 11.994V2.006A2 2 0 0 1 1.995 0h14.01zm-.006 1H2.001A1 1 0 0 0 1 2.002v9.996C1 12.544 1.448 13 2 13h.8l3.25 2.6L9.2 13H16a1 1 0 0 0 1-1.002V2.002C17 1.456 16.552 1 16 1h-.001zM5.3 5.8a1.3 1.3 0 1 1 0 2.6 1.3 1.3 0 0 1 0-2.6zm3.7 0a1.3 1.3 0 1 1 0 2.6 1.3 1.3 0 0 1 0-2.6zm3.7 0a1.3 1.3 0 1 1 0 2.6 1.3 1.3 0 0 1 0-2.6z"/><mask id="aib" fill="#fff"><use xlink:href="#aia"/></mask><g mask="url(#aib)" fill="#B063F5" fill-rule="nonzero"><path d="M-15-11h48v38h-48z"/></g></g></symbol><symbol viewBox="0 0 12 12" id="cross" xmlns="http://www.w3.org/2000/svg"><defs><path id="aja" d="M6.707 6l4.95 4.95-.707.707L6 6.707l-4.95 4.95-.707-.707L5.293 6 .343 1.05 1.05.343 6 5.293l4.95-4.95.707.707z"/></defs><g fill="none" fill-rule="evenodd"><path d="M6.707 6l4.95 4.95-.707.707L6 6.707l-4.95 4.95-.707-.707L5.293 6 .343 1.05 1.05.343 6 5.293l4.95-4.95.707.707z"/><mask id="ajb" fill="#fff"><use xlink:href="#aja"/></mask><g mask="url(#ajb)" fill="#000" fill-opacity=".9" fill-rule="nonzero"><path d="M-18-13h48v38h-48z"/></g></g></symbol><symbol viewBox="0 0 116 116" id="email" xmlns="http://www.w3.org/2000/svg"><g transform="translate(2 2)" fill="none" fill-rule="evenodd"><circle stroke="#50BD5C" stroke-width="2" cx="56" cy="56" r="55"/><path d="M55.99 104v-2C30.92 102 10.533 81.944 10 57H8c.533 26.049 21.815 47 47.99 47zm0-96v2c25.405 0 46 20.595 46 46 0 .334-.004.668-.01 1.001h2c.006-.333.01-.667.01-1.001 0-26.51-21.49-48-48-48z" fill="#50BD5C"/><path d="M34.755 67v-1.728H23.388v-7.02h9.774v-1.701h-9.774v-6.723H34.35V48.1H21.39V67h13.365zm4.437 0V51.961l7.425 12.636h.945l7.425-12.717V67h1.917V48.1h-1.647L47.13 62.113 38.922 48.1h-1.647V67h1.917zm20.746 0l2.268-5.049h10.53L75.004 67h2.106l-8.64-18.9h-1.971L57.859 67h2.079zm12.069-6.669h-9.072l4.536-10.152 4.536 10.152zM80.062 67V48.1h-1.998V67h1.998zm16.56 0v-1.728H86.04V48.1h-2V67h12.582z" fill="#50BD5C" fill-rule="nonzero"/></g></symbol><symbol viewBox="0 0 124 14" id="email-w-label" xmlns="http://www.w3.org/2000/svg"><defs><path d="M14 0a2 2 0 0 1 2 2v10a2 2 0 0 1-2 2H2a2 2 0 0 1-2-2V2a2 2 0 0 1 2-2h12zm.983 2L8.329 7.712a.508.508 0 0 1-.658 0L1.017 2A1 1 0 0 0 1 2.184v9.833c0 .542.448.983 1 .983h12c.552 0 1-.44 1-.983V2.184c0-.063-.006-.124-.017-.184z" id="ala"/></defs><g fill="none" fill-rule="evenodd"><text transform="translate(33 -3)" fill="#000" fill-opacity=".6" font-family="Helvetica" font-size="13"><tspan x="0" y="13">Email для чека</tspan></text><mask id="alb" fill="#fff"><use xlink:href="#ala"/></mask><use fill="#AF53FF" xlink:href="#ala"/><g mask="url(#alb)" fill="#B063F5" fill-rule="nonzero"><path d="M8 8h48v38H8z"/></g></g></symbol><symbol viewBox="0 0 18 14" id="forward-arrow" xmlns="http://www.w3.org/2000/svg"><defs><path d="M14.653 7.5l-4.95-4.95a1 1 0 0 1 1.414-1.414L17.481 7.5l-6.364 6.364a1 1 0 0 1-1.414-1.415l4.95-4.95V7.5zM10 6.5a1 1 0 0 1 0 2H1a1 1 0 0 1 0-2h9z" id="ama"/></defs><g fill="none" fill-rule="evenodd"><path d="M14.653 7l-4.95-4.95A1 1 0 0 1 11.117.636L17.481 7l-6.364 6.364a1 1 0 0 1-1.414-1.415l4.95-4.95V7zM10 6a1 1 0 0 1 0 2H1a1 1 0 0 1 0-2h9z"/><g transform="translate(0 -.5)"><mask id="amb" fill="#fff"><use xlink:href="#ama"/></mask><g mask="url(#amb)" fill="#268EFF" fill-rule="nonzero"><path d="M-15-12h48v38h-48z"/></g></g></g></symbol><symbol viewBox="0 0 116 116" id="http" xmlns="http://www.w3.org/2000/svg"><g transform="translate(2 2)" fill="none" fill-rule="evenodd"><circle stroke="#AF53FF" stroke-width="2" cx="56" cy="56" r="55"/><path d="M56 104v-2c25.07 0 45.457-20.056 45.99-45h2c-.533 26.049-21.815 47-47.99 47zm0-96v2c-25.405 0-46 20.595-46 46 0 .334.004.668.01 1.001h-2A48.94 48.94 0 0 1 8 56C8 29.49 29.49 8 56 8z" fill="#AF53FF"/><path d="M23.617 68v-9.69h13.14V68h2.19V47h-2.19v9.36h-13.14V47h-2.22v21h2.22zm27.064 0V48.92h7.38V47h-16.98v1.92h7.38V68h2.22zm16.114 0V48.92h7.38V47h-16.98v1.92h7.38V68h2.22zm11.734 0v-6.63h5.64c2.68 0 4.78-.635 6.3-1.905 1.52-1.27 2.28-3.025 2.28-5.265 0-2.24-.76-4-2.28-5.28-1.52-1.28-3.62-1.92-6.3-1.92h-7.86v21h2.22zm0-8.58v-10.5h5.58c2.08 0 3.67.455 4.77 1.365 1.1.91 1.65 2.215 1.65 3.915 0 1.66-.55 2.945-1.65 3.855-1.1.91-2.69 1.365-4.77 1.365h-5.58z" fill="#AF53FF" fill-rule="nonzero"/></g></symbol><symbol viewBox="0 0 370 130" id="img-fields" xmlns="http://www.w3.org/2000/svg"><mask id="aoa" fill="#fff"><path d="M14 0a2 2 0 0 1 2 2v10a2 2 0 0 1-2 2H2a2 2 0 0 1-2-2V2a2 2 0 0 1 2-2zm.983 1.813L8.329 7.622a.502.502 0 0 1-.658 0L1.017 1.813A1.04 1.04 0 0 0 1 2v10a1 1 0 0 0 1 1h12a1 1 0 0 0 1-1V2c0-.064-.006-.126-.017-.187z" fill-rule="evenodd"/></mask><mask id="aob" fill="#fff"><path d="M16.005 0A2 2 0 0 1 18 2.006v9.988A2 2 0 0 1 16.005 14H9.762L6.05 17l-3.788-3h-.267A2 2 0 0 1 0 11.994V2.006A2 2 0 0 1 1.995 0zm-.006 1H2.001A1 1 0 0 0 1 2.002v9.996C1 12.544 1.448 13 2 13h.8l3.25 2.6L9.2 13H16a1 1 0 0 0 1-1.002V2.002C17 1.456 16.552 1 16 1zM5.3 5.8a1.3 1.3 0 1 1 0 2.6 1.3 1.3 0 0 1 0-2.6zm3.7 0a1.3 1.3 0 1 1 0 2.6 1.3 1.3 0 0 1 0-2.6zm3.7 0a1.3 1.3 0 1 1 0 2.6 1.3 1.3 0 0 1 0-2.6z" fill-rule="evenodd"/></mask><mask id="aoc" fill="#fff"><path d="M9 9l5.992 3.424A2 2 0 0 1 16 14.161v.339a1.5 1.5 0 0 1-1.5 1.5h-13A1.5 1.5 0 0 1 0 14.5v-.34a2 2 0 0 1 1.008-1.736L7 9zm-.2 1H7.2l-5.533 3.057A1 1 0 0 0 2 15h12a1 1 0 0 0 .331-1.944zM8 0c2.21 0 4 1.79 4 4s-1.79 4-4 4-4-1.79-4-4 1.79-4 4-4zm0 1a3 3 0 1 0 0 6 3 3 0 0 0 0-6z" fill-rule="evenodd"/></mask><g fill="none" fill-rule="evenodd" transform="translate(-8 -8)"><path d="M0 0h210v54H0z"/><rect fill="#000" fill-opacity=".06" fill-rule="nonzero" height="38" rx="19" width="194" x="8" y="8"/><text fill="#000" fill-opacity=".6" font-family="Helvetica" font-size="13" transform="translate(56 17)"><tspan x="0" y="13">Email для чека</tspan></text><path d="M38 20a2 2 0 0 1 2 2v10a2 2 0 0 1-2 2H26a2 2 0 0 1-2-2V22a2 2 0 0 1 2-2zm.983 1.813l-6.654 5.809a.502.502 0 0 1-.658 0l-6.654-5.809A1.04 1.04 0 0 0 25 22v10a1 1 0 0 0 1 1h12a1 1 0 0 0 1-1V22c0-.064-.006-.126-.017-.187z"/><g fill="#b063f5" fill-rule="nonzero" mask="url(#aoa)" transform="translate(24 20)"><path d="M-16-12h48v38h-48z"/></g><g transform="translate(176 46)"><path d="M0 0h210v54H0z"/><rect fill="#000" fill-opacity=".06" fill-rule="nonzero" height="38" rx="19" width="194" x="8" y="8"/><text fill="#000" fill-opacity=".6" font-family="Helvetica" font-size="13" transform="translate(56 17)"><tspan x="0" y="13">Комментарий</tspan></text><path d="M39.005 19A2 2 0 0 1 41 21.006v9.988A2 2 0 0 1 39.005 33h-6.243l-3.712 3-3.788-3h-.267A2 2 0 0 1 23 30.994v-9.988A2 2 0 0 1 24.995 19zm-.006 1H25.001A1 1 0 0 0 24 21.002v9.996c0 .546.448 1.002 1 1.002h.8l3.25 2.6L32.2 32H39a1 1 0 0 0 1-1.002v-9.996c0-.546-.448-1.002-1-1.002zM28.3 24.8a1.3 1.3 0 1 1 0 2.6 1.3 1.3 0 0 1 0-2.6zm3.7 0a1.3 1.3 0 1 1 0 2.6 1.3 1.3 0 0 1 0-2.6zm3.7 0a1.3 1.3 0 1 1 0 2.6 1.3 1.3 0 0 1 0-2.6z"/><g fill="#b063f5" fill-rule="nonzero" mask="url(#aob)" transform="translate(23 19)"><path d="M-15-11h48v38h-48z"/></g></g><g transform="translate(0 92)"><path d="M0 0h210v54H0z"/><rect fill="#000" fill-opacity=".06" fill-rule="nonzero" height="38" rx="19" width="194" x="8" y="8"/><text fill="#000" fill-opacity=".6" font-family="Helvetica" font-size="13" transform="translate(56 17)"><tspan x="0" y="13">Ваше имя</tspan></text><path d="M33 28l5.992 3.424A2 2 0 0 1 40 33.161v.339a1.5 1.5 0 0 1-1.5 1.5h-13a1.5 1.5 0 0 1-1.5-1.5v-.34a2 2 0 0 1 1.008-1.736L31 28zm-.2 1h-1.6l-5.533 3.057A1 1 0 0 0 26 34h12a1 1 0 0 0 .331-1.944zM32 19c2.21 0 4 1.79 4 4s-1.79 4-4 4-4-1.79-4-4 1.79-4 4-4zm0 1a3 3 0 1 0 0 6 3 3 0 0 0 0-6z"/><g fill="#b063f5" fill-rule="nonzero" mask="url(#aoc)" transform="translate(24 19)"><path d="M-16-11h48v38h-48z"/></g></g></g></symbol><symbol viewBox="0 0 386 210" id="img-payment-card" xmlns="http://www.w3.org/2000/svg"><mask id="apa" fill="#fff"><path d="M2.133 12C.955 12 0 11.105 0 10V2C0 .895.955 0 2.133 0h11.734C15.045 0 16 .895 16 2v8c0 1.105-.955 2-2.133 2zm12.8-10c0-.552-.478-1-1.066-1H2.133c-.588 0-1.066.448-1.066 1v1h13.866zM1.067 6v4c0 .552.478 1 1.066 1h11.734c.588 0 1.066-.448 1.066-1V6z" fill-rule="evenodd"/></mask><mask id="apb" fill="#fff"><path d="M5.128 0h313.744c1.783 0 2.43.186 3.082.534.652.349 1.163.86 1.512 1.512.348.652.534 1.299.534 3.082v31.744c0 1.783-.186 2.43-.534 3.082a3.637 3.637 0 0 1-1.512 1.512c-.652.348-1.299.534-3.082.534H5.128c-1.783 0-2.43-.186-3.082-.534a3.637 3.637 0 0 1-1.512-1.512C.186 39.302 0 38.655 0 36.872V5.128c0-1.783.186-2.43.534-3.082A3.637 3.637 0 0 1 2.046.534C2.698.186 3.345 0 5.128 0z" fill-rule="evenodd"/></mask><mask id="apc" fill="#fff"><path d="M5.128 0h313.744c1.783 0 2.43.186 3.082.534.652.349 1.163.86 1.512 1.512.348.652.534 1.299.534 3.082v31.744c0 1.783-.186 2.43-.534 3.082a3.637 3.637 0 0 1-1.512 1.512c-.652.348-1.299.534-3.082.534H5.128c-1.783 0-2.43-.186-3.082-.534a3.637 3.637 0 0 1-1.512-1.512C.186 39.302 0 38.655 0 36.872V5.128c0-1.783.186-2.43.534-3.082A3.637 3.637 0 0 1 2.046.534C2.698.186 3.345 0 5.128 0z" fill-rule="evenodd"/></mask><mask id="apd" fill="#fff"><path d="M9 0a9 9 0 1 1-.001 18.001A9 9 0 0 1 9 0zm0 1a8 8 0 1 0 0 16A8 8 0 0 0 9 1zm.004 11c.584 0 .996.416.996 1.004 0 .58-.412.996-.996.996C8.419 14 8 13.584 8 13.004 8 12.416 8.419 12 9.004 12zM9.5 4l-.085 6.5h-.83L8.5 4z" fill-rule="evenodd"/></mask><g fill="none" fill-rule="evenodd"><path d="M50 0h286c27.614 0 50 22.386 50 50v110c0 27.614-22.386 50-50 50H50c-27.614 0-50-22.386-50-50V50C0 22.386 22.386 0 50 0z" fill="#000" fill-rule="nonzero"/><path d="M50 .5C22.662.5.5 22.662.5 50v110c0 27.338 22.162 49.5 49.5 49.5h286c27.338 0 49.5-22.162 49.5-49.5V50C385.5 22.662 363.338.5 336 .5z" fill="#fff" fill-rule="nonzero" stroke="#d9d9d9"/><path d="M23 26h340v92H23z"/><g transform="translate(31 72)"><rect height="37" rx="4" stroke="#000" stroke-opacity=".2" width="323" x=".5" y=".5"/><path d="M294.3 13l-2.74 12h-3.312l2.74-12h3.313zm18.025 0L315 25h-3.064l-.4-1.793h-4.25L306.593 25h-3.478l4.971-11.12c.238-.534.775-.88 1.41-.88h2.828zm-2.342 3.488l-1.744 4.54h2.748zm-6.695 4.675c.015-3.19-4.673-3.366-4.64-4.792.01-.433.447-.894 1.404-1.012.474-.059 1.783-.104 3.266.54l.583-2.563a9.38 9.38 0 0 0-3.1-.536c-3.274 0-5.58 1.644-5.598 3.996-.022 1.742 1.645 2.712 2.9 3.29 1.291.593 1.724.973 1.719 1.503-.01.812-1.03 1.17-1.983 1.183-1.666.025-2.632-.425-3.403-.764l-.6 2.65c.774.335 2.203.628 3.685.642 3.48 0 5.757-1.622 5.767-4.137zM289.567 13l-5.368 12h-3.502l-2.642-9.577c-.16-.59-.3-.806-.787-1.054-.796-.405-2.111-.785-3.268-1.021l.078-.348h5.638c.718 0 1.364.448 1.527 1.223l1.395 6.944L286.087 13z" fill="#1a6bc8" fill-rule="nonzero"/><path d="M284 1h40v36h-40z"/><path d="M284 1h40v36h-40z"/><text fill="#000" fill-opacity=".8" font-family="Helvetica" font-size="16" transform="translate(48 10)"><tspan x="0" y="15">4242 4242 4242 4240</tspan></text><path d="M18.133 25C16.955 25 16 24.105 16 23v-8c0-1.105.955-2 2.133-2h11.734c1.178 0 2.133.895 2.133 2v8c0 1.105-.955 2-2.133 2zm12.8-10c0-.552-.478-1-1.066-1H18.133c-.588 0-1.066.448-1.066 1v1h13.866zm-13.866 4v4c0 .552.478 1 1.066 1h11.734c.588 0 1.066-.448 1.066-1v-4z"/><g fill="#b063f5" fill-rule="nonzero" mask="url(#apa)" transform="translate(16 13)"><path d="M-16-13h48v38h-48z"/></g></g><text fill="#000" fill-opacity=".6" font-family="Helvetica" font-size="14" transform="translate(33 49)"><tspan x="0" y="14">Номер карты</tspan></text><path d="M23 110h340v58H23z"/><g fill="#000" fill-opacity=".06" fill-rule="nonzero" mask="url(#apb)" transform="translate(31 118)"><path d="M0 0h324v42H0z"/></g><g fill="#fff" fill-opacity="0" fill-rule="nonzero" mask="url(#apc)" transform="translate(31 118)"><path d="M0 0h324v42H0z" fill="none"/></g><text fill="#000" fill-opacity=".6" font-family="Helvetica" font-size="14" transform="translate(79 130)"><tspan x="0" y="14">Неверный номер карты</tspan></text><path d="M55 130a9 9 0 1 1-.001 18.001A9 9 0 0 1 55 130zm0 1a8 8 0 1 0 0 16 8 8 0 0 0 0-16zm.004 11c.584 0 .996.416.996 1.004 0 .58-.412.996-.996.996-.585 0-1.004-.416-1.004-.996 0-.588.419-1.004 1.004-1.004zm.496-8l-.085 6.5h-.83L54.5 134z"/><g fill="#000" fill-opacity=".5" fill-rule="nonzero" mask="url(#apd)" transform="translate(46 130)"><path d="M-15-10h48v38h-48z"/></g></g></symbol><symbol viewBox="0 0 386 100" id="img-payment-tab" xmlns="http://www.w3.org/2000/svg"><g fill="none"><rect fill="#000" height="100" rx="50" width="386"/><rect fill="#fff" height="99" rx="49.5" stroke="#d9d9d9" width="385" x=".5" y=".5"/><path d="M199 37c2.21 0 4 1.787 4 4.006v17.988A4.003 4.003 0 0 1 199 63h-12c-2.21 0-4-1.787-4-4.006V41.006A4.003 4.003 0 0 1 187 37zm-6 21.5a1.5 1.5 0 1 0 .001 3.001A1.5 1.5 0 0 0 193 58.5zm6.006-19.5h-12.012c-1.1 0-1.994.893-1.994 1.995V57h16V40.995A1.995 1.995 0 0 0 199.006 39z" fill="#af53ff"/><path d="M78.003 40A3.999 3.999 0 0 1 82 44v12a4 4 0 0 1-3.997 4H57.997A3.999 3.999 0 0 1 54 56V44a4 4 0 0 1 3.997-4zM80 48.999H56v7.007a2 2 0 0 0 1.855 1.989l.15.005h19.99A2 2 0 0 0 80 56.006zM76.9 54a.7.7 0 0 1 .7.7v.6a.7.7 0 0 1-.7.7h-3.6a.7.7 0 0 1-.7-.7v-.6a.7.7 0 0 1 .7-.7zm1.095-12h-19.99A2 2 0 0 0 56 43.994V46h24v-2.006a2 2 0 0 0-1.855-1.989z" fill="#f20c92"/><path d="M326.994 40A4.003 4.003 0 0 1 331 44v12c0 2.21-1.787 4-4.006 4h-17.988A4.003 4.003 0 0 1 305 56V44c0-2.21 1.787-4 4.006-4zm.015 2H308.99c-1.1 0-1.99.893-1.99 1.994v12.012c0 1.1.891 1.994 1.991 1.994h18.018A1.992 1.992 0 0 0 329 56.006V54h-5.998a4 4 0 0 1 0-8H329v-2.006c0-1.05-.812-1.912-1.843-1.989L327.01 42zM323 48a2 2 0 1 0-.001 3.999A2 2 0 0 0 323 48z" fill="#0a79fa"/></g></symbol><symbol viewBox="0 0 122 120" id="kassa" xmlns="http://www.w3.org/2000/svg"><g fill="none" fill-rule="evenodd"><path stroke="#0A79FA" stroke-width="2" d="M42 29v7h1a3 3 0 1 1 0 6H20c-1.657 0-3-1.343-3-3.037l.008-.186A3 3 0 0 1 20 36h1v-7h-2.82A8.18 8.18 0 0 0 10 37.18V49l-.015.174L3 88.654v17.086a9.26 9.26 0 0 0 9.26 9.26h97.48a9.26 9.26 0 0 0 9.26-9.26V88.655l-6.985-39.48L112 49V37.194l-.003-.252A8.181 8.181 0 0 0 103.82 29L91 28.999V22h10.38a.62.62 0 0 0 .62-.62V5.62a.62.62 0 0 0-.62-.62H62.62a.62.62 0 0 0-.62.62v15.76c0 .342.278.62.62.62H73v6.999L42 29z"/><path fill="#0A79FA" d="M119 89v2H3v-2h116zm-6-40v2H9v-2h104zM93 28v2H71v-2h22zm0-7v2H71v-2h22z"/><path stroke="#0A79FA" stroke-width="2" d="M21.62 19a.62.62 0 0 0-.62.62v21.76c0 .342.278.62.62.62h19.76a.62.62 0 0 0 .62-.62V19.62a.62.62 0 0 0-.62-.62H21.62z"/><path fill="#0A79FA" d="M29 74a1 1 0 0 1 0 2h-7a1 1 0 0 1 0-2h7zm14 0a1 1 0 0 1 0 2h-7a1 1 0 0 1 0-2h7zm29 0a1 1 0 0 1 0 2h-7a1 1 0 0 1 0-2h7zm14 0a1 1 0 0 1 0 2h-7a1 1 0 0 1 0-2h7zm14 0a1 1 0 0 1 0 2h-7a1 1 0 0 1 0-2h7zM29 64a1 1 0 0 1 0 2h-7a1 1 0 0 1 0-2h7zm14 0a1 1 0 0 1 0 2h-7a1 1 0 0 1 0-2h7zm29 0a1 1 0 0 1 0 2h-7a1 1 0 0 1 0-2h7zm14 0a1 1 0 0 1 0 2h-7a1 1 0 0 1 0-2h7zm14 0a1 1 0 0 1 0 2h-7a1 1 0 0 1 0-2h7zm-54 38h30a1 1 0 0 1 0 2H46a1 1 0 0 1 0-2zm-8-68a1 1 0 0 1 0 2H25a1 1 0 0 1 0-2h13zm0-4a1 1 0 0 1 0 2H25a1 1 0 0 1 0-2h13zm0-4a1 1 0 0 1 0 2H25a1 1 0 0 1 0-2h13z"/></g></symbol><symbol viewBox="0 0 190 60" id="logo-bitrix" xmlns="http://www.w3.org/2000/svg"><g fill="none"><path fill="#231F20" d="M74.873 29.033a2.677 2.677 0 1 0 0 5.354 2.677 2.677 0 0 0 0-5.354zm108.911-1.964c1.755 0 3.039.982 3.88 1.964V24.29c-1.379-.934-3.04-1.309-4.484-1.309-4.437 0-8.292 3.177-8.292 8.643 0 5.233 3.504 8.644 8.36 8.644 1.402 0 2.943-.212 4.416-1.215V34.4c-.841.867-2.17 1.779-3.88 1.779-2.614 0-4.18-1.938-4.18-4.416 0-2.687 1.659-4.695 4.18-4.695zm-8.394-3.62h-5.373l-4.93 6.867V23.45h-4.576l.001 16.35h4.576v-7.032l4.74 7.032h5.726l-6.378-8.433 6.214-7.917zm-28.398 9.811v-9.81h-4.414V39.8h4.484l6.33-9.811V39.8h4.415V23.45h-4.485l-6.33 9.81zm-13.265-2.454h-1.306v-3.759h1.306c1.962 0 2.241 1.05 2.241 1.868 0 .7-.21 1.891-2.241 1.891zm1.003-7.356h-6.89V39.8h4.58v-5.399h2.31c4.626 0 5.958-3.22 5.958-5.486 0-2.243-1.309-5.465-5.958-5.465zm-20.53 3.922h3.595V39.8h4.58V27.372h3.596V23.45h-11.77v3.922zm-12.684 5.888v-9.81h-4.413V39.8h4.485l6.328-9.811V39.8h4.415V23.45h-4.483l-6.332 9.81zm-13.64 3.268h-1.961v-3.432h1.961c1.45 0 2.29.42 2.29 1.707 0 1.306-.864 1.725-2.29 1.725zm.445-6.703h-2.406v-2.453h7.497V23.45H81.337V39.8h6.984c1.19 0 6.423.046 6.423-5.068 0-4.93-5.185-4.907-6.423-4.907zm-32.607 1.799c0 5.233 3.504 8.644 8.362 8.644 1.403 0 2.944-.212 4.416-1.215V34.4c-.844.867-2.175 1.779-3.879 1.779-2.617 0-4.18-1.938-4.18-4.416 0-2.687 1.657-4.695 4.18-4.695 1.751 0 3.035.982 3.879 1.964V24.29c-1.381-.934-3.038-1.309-4.486-1.309-4.439 0-8.292 3.177-8.292 8.643zM46.13 27.21h2.501V39.8h4.228V23.45H46.13v3.76z"/><path fill="#D91935" d="M19.976 12c-1.34 0-2.642.15-3.897.43v17.56c0 2.152 1.755 3.907 3.907 3.907s3.906-1.755 3.906-3.906a3.917 3.917 0 0 0-3.646-3.9v-3.126c3.752.136 6.771 3.24 6.771 7.026 0 3.871-3.158 7.032-7.03 7.032-3.875 0-7.033-3.16-7.033-7.033V13.423c-.443.188-.877.397-1.302.622V29.99c0 4.59 3.745 8.332 8.334 8.332 4.59 0 8.333-3.743 8.333-8.331 0-4.503-3.602-8.191-8.073-8.33v-3.126c6.192.14 11.197 5.232 11.197 11.456 0 6.311-5.147 11.457-11.457 11.457-6.311 0-11.46-5.146-11.46-11.458V16.119A17.936 17.936 0 0 0 2 29.976c0 9.928 8.048 17.978 17.977 17.978 9.93 0 17.976-8.05 17.976-17.978S29.907 12 19.976 12"/></g></symbol><symbol viewBox="0 0 140 60" id="logo-ecwid" xmlns="http://www.w3.org/2000/svg"><g fill="none"><path fill="#0087CD" d="M36.045 38.534a8.418 8.418 0 0 1-8.43 8.43H10.84a8.418 8.418 0 0 1-8.43-8.43V21.757a8.418 8.418 0 0 1 8.43-8.43h16.777a8.418 8.418 0 0 1 8.43 8.43v16.777z"/><g fill="#FFF" transform="translate(6.092 19.547)"><path d="M22.424 13.094c.819-2.537 2.292-8.102 2.783-10.148.409-1.718.573-2.373-.246-2.373-.655 0-2.455.736-2.864 2.128-.573 2.291-1.8 7.12-2.292 8.838-.573 1.883-1.718 2.292-3.273 2.292-1.146 0-1.8-.082-1.964-.737-.082-.245-.246-.327-.41-.327h-1.882c-.246 0-.41.164-.41.327-.163.737-.818.737-1.963.737-.982 0-2.456-.164-2.947-1.964-.409-1.228-1.309-4.42-1.8-6.138-.491-1.719-1.964-1.8-2.7-1.8-.82 0-.901.163-.41 1.8.491 1.637 1.637 5.401 2.373 7.856.737 2.456 3.11 3.274 4.665 3.274h2.62c.736 0 1.145-.164 1.39-.327a.395.395 0 0 1 .573 0c.246.163.737.409 1.473.409h2.537c1.965-.082 3.929-1.391 4.747-3.847z"/><circle cx="9.248" cy="5.729" r="1.228"/><circle cx="13.258" cy="5.729" r="1.228"/><circle cx="17.35" cy="5.729" r="1.228"/><circle cx="9.248" cy="10.148" r="1.228"/><circle cx="13.258" cy="10.148" r="1.228"/><circle cx="17.35" cy="10.148" r="1.228"/><path d="M2.946 17.596c-1.391 0-2.455 1.145-2.455 2.455s1.146 2.455 2.455 2.455c1.31 0 2.455-1.146 2.455-2.455 0-1.31-1.145-2.455-2.455-2.455zm0 3.437a.91.91 0 0 1-.9-.9c0-.491.41-.9.9-.9.491 0 .9.409.9.9-.081.49-.409.9-.9.9zm20.46-3.437c-1.391 0-2.455 1.145-2.455 2.455s1.146 2.455 2.455 2.455c1.31 0 2.455-1.146 2.455-2.455 0-1.31-1.063-2.455-2.455-2.455zm0 3.437a.91.91 0 0 1-.9-.9c0-.491.41-.9.9-.9.491 0 .9.409.9.9 0 .49-.409.9-.9.9z"/></g><g fill="#0087CD" transform="translate(45.375 15.455)"><path d="M36.255 20.46c-.573 0-1.31 0-1.555.491-.9 1.637-3.028 2.21-4.747 2.21-3.437 0-6.056-2.783-6.056-6.302 0-3.437 2.62-6.302 6.056-6.302 1.555 0 3.52.328 4.747 2.128.328.491.982.41 1.637.41.818 0 .655-.983.327-1.556-1.718-2.618-4.583-3.191-6.629-3.191-4.665 0-8.511 3.846-8.511 8.511 0 4.665 3.846 8.511 8.511 8.511 3.028 0 5.647-1.309 6.793-3.437.082-.573.327-1.473-.573-1.473zM69.073 8.839c-.573 0-1.146.245-1.146.9v14.24c0 .573.491.819 1.146.819.573 0 1.146-.164 1.146-.819V9.74c-.082-.655-.573-.9-1.146-.9z"/><circle cx="69.073" cy="4.01" r="1.637"/><path d="M90.433.491c-.573 0-.573.246-.573.818v9.821c-1.227-2.046-3.682-2.782-5.81-2.782-4.665 0-8.512 3.764-8.512 8.511 0 4.665 3.765 8.511 8.512 8.511 1.8 0 4.665-.9 5.81-2.946v1.391c0 .573-.082.819.573.819.655 0 1.637-.819 1.637-2.7V2.782c0-1.72-.982-2.292-1.637-2.292zm-.573 16.777c0 4.42-4.01 5.893-5.81 5.893-3.438 0-6.056-2.783-6.056-6.302 0-3.52 2.618-6.302 6.056-6.302 2.046 0 5.81 1.228 5.81 5.73v.981zM61.953 8.921c-.082 0-1.146 0-1.391.818-.328.737-1.883 5.647-3.683 10.803-.082.164-.164.327-.164.49l-3.765-9.247c-.163-.41-.409-.737-.736-.9a1.544 1.544 0 0 0-.655-.164c-.245 0-.49.082-.655.164-.327.163-.572.49-.736.9l-3.765 9.248c-.082-.164-.163-.327-.163-.491-1.883-5.156-3.438-10.066-3.683-10.803-.328-.818-1.391-.818-1.391-.818-.573 0-.819.163-.737.49v.246c.082.327 2.373 8.102 4.91 14.24.164.41.41.982 1.146.982.491 0 .819-.327.982-.654l4.01-9.985c.082-.082.164-.164.246-.164.082 0 .164.082.245.164l4.01 9.985c.164.327.492.654.983.654.736 0 .982-.573 1.145-.982 2.456-6.056 4.829-13.913 4.91-14.24v-.245c-.327-.328-.572-.491-1.063-.491zm-52.95-.573c-4.665 0-8.676 3.846-8.676 8.511 0 4.665 3.929 8.511 8.675 8.511 3.028 0 5.811-1.309 6.957-3.437.327-.573.49-1.473-.41-1.473-.572 0-1.309 0-1.554.491-.9 1.637-3.274 2.21-4.993 2.21-3.11 0-5.647-2.292-6.138-5.238h13.75c.572 0 1.063-.491 1.063-1.146 0-4.747-4.092-8.43-8.675-8.43zm-6.139 7.365c.491-2.946 3.11-5.156 6.22-5.156 2.946 0 5.647 2.128 6.138 5.156H2.864z"/></g></g></symbol><symbol viewBox="0 0 152 60" id="logo-joomla" xmlns="http://www.w3.org/2000/svg"><g fill="none"><path fill="#86BE3C" d="M7.625 30.193l-.574-.573a6.613 6.613 0 0 1-1.657-6.578 3.992 3.992 0 1 1 4.823-4.54 6.605 6.605 0 0 1 6.19 1.761l.229.23-2.946 2.944-.229-.23a2.448 2.448 0 0 0-3.461.001 2.454 2.454 0 0 0-.006 3.467l.577.575 2.946 2.943 3.116 3.114-2.943 2.946-3.12-3.115-2.945-2.945"/><path fill="#E4B645" d="M10.92 26.9l3.118-3.116 2.946-2.943.575-.573a6.613 6.613 0 0 1 6.546-1.671 3.992 3.992 0 1 1 4.48 4.509 6.614 6.614 0 0 1-1.678 6.509l-.23.23-2.944-2.946.228-.228a2.444 2.444 0 1 0-3.458-3.458l-.575.574-2.946 2.945-3.116 3.113-2.946-2.944"/><path fill="#C33734" d="M24.184 41.763a6.611 6.611 0 0 1-6.625-1.644l-.225-.225 2.943-2.947.226.227a2.444 2.444 0 1 0 3.458-3.458l-.576-.576-2.944-2.947-3.11-3.113 2.946-2.944 3.108 3.112 2.943 2.945.579.58a6.607 6.607 0 0 1 1.751 6.242 3.993 3.993 0 1 1-4.474 4.748"/><path fill="#748EC4" d="M23.036 33.489l-3.108 3.11-2.944 2.947-.577.577a6.607 6.607 0 0 1-6.276 1.74 3.993 3.993 0 1 1-4.813-4.781 6.608 6.608 0 0 1 1.733-6.315l.225-.224 2.946 2.944-.228.226a2.452 2.452 0 0 0 3.467 3.466l.577-.578 2.944-2.945 3.11-3.113 2.944 2.946"/><path fill="#000" d="M47.048 21.046v12.489c0 1.104-.336 2.04-.996 2.78-.807.902-2.012 1.36-3.581 1.36l-1.407-.104-4.238-.696-.704 1.594 4.306.665c.804.123 1.553.186 2.226.186 2.33 0 4.088-.655 5.228-1.944.917-1.054 1.382-2.43 1.382-4.093V21.046h-2.216m17.295 15.655c-1.302.741-2.883 1.116-4.7 1.116-1.859 0-3.45-.368-4.737-1.092-1.566-.876-2.326-2.11-2.326-3.771 0-1.637.782-2.906 2.326-3.77 1.287-.725 2.878-1.093 4.737-1.093 1.843 0 3.429.368 4.726 1.093 1.53.871 2.302 2.14 2.302 3.77 0 1.614-.783 2.875-2.328 3.747zm1.303-8.759c-1.689-.922-3.707-1.389-6.003-1.389-2.276 0-4.3.467-6.002 1.388-2.151 1.17-3.243 2.86-3.243 5.02 0 2.16 1.092 3.845 3.243 5.006 1.703.922 3.721 1.388 6.002 1.388 2.286 0 4.304-.463 5.993-1.376 2.131-1.162 3.217-2.85 3.217-5.019 0-2.167-1.08-3.855-3.207-5.018m18.303 8.759c-1.303.741-2.883 1.116-4.7 1.116-1.86 0-3.45-.368-4.737-1.092-1.566-.876-2.327-2.11-2.327-3.771 0-1.637.782-2.906 2.327-3.77 1.287-.725 2.878-1.093 4.736-1.093 1.838 0 3.429.368 4.726 1.093 1.524.871 2.302 2.14 2.302 3.77 0 1.614-.783 2.875-2.327 3.747zm1.302-8.759c-1.688-.922-3.707-1.389-6.003-1.389-2.275 0-4.299.467-6.003 1.388-2.152 1.17-3.243 2.86-3.243 5.02 0 2.16 1.091 3.845 3.243 5.006 1.704.922 3.722 1.388 6.003 1.388 2.286 0 4.3-.463 5.988-1.376 2.136-1.162 3.218-2.85 3.218-5.019 0-2.168-1.076-3.855-3.203-5.018m27.05-.312c-1.205-.713-2.75-1.077-4.587-1.077-2.337 0-4.232.735-5.648 2.163-1.37-1.428-3.259-2.163-5.632-2.163-1.916 0-3.476.404-4.68 1.172v-.993h-2.111V39.14h2.11v-8.49c.145-.612.546-1.175 1.2-1.64.865-.61 2.008-.919 3.403-.919 1.226 0 2.286.253 3.141.751 1.025.585 1.519 1.402 1.519 2.5v7.799h2.075v-7.798c0-1.1.494-1.923 1.513-2.513.865-.49 1.936-.739 3.177-.739 1.24 0 2.306.253 3.166.752 1.02.584 1.514 1.401 1.514 2.5v7.798h2.105v-7.508c0-1.766-.761-3.114-2.265-4.003m3.97-6.584v18.095h2.105V21.046h-2.105m5.992 11.908c0-1.645.783-2.917 2.317-3.783 1.292-.716 2.894-1.08 4.763-1.08 2.311 0 4.118.564 5.374 1.677 1.107.983 1.669 2.265 1.669 3.806v1.47c-.886.978-2.178 1.75-3.846 2.29-.979.321-2.055.483-3.197.483-1.9 0-3.512-.355-4.773-1.056-1.555-.868-2.307-2.113-2.307-3.807zm14.123-6.222v2.124c-1.808-1.514-4.186-2.303-7.11-2.303-2.369 0-4.397.452-6.045 1.34-2.09 1.138-3.15 2.843-3.15 5.067 0 2.194 1.086 3.886 3.228 5.031 1.683.906 3.717 1.364 6.039 1.364 1.168 0 2.296-.139 3.356-.412 1.493-.385 2.724-.966 3.682-1.714v1.912h2.11V26.73h-2.11m6.584 10.086c-1.467 0-1.688.762-1.688 1.216 0 .467.221 1.251 1.688 1.251 1.457 0 1.674-.784 1.674-1.251 0-.454-.217-1.216-1.674-1.216zM144 20.76h-2.106v14.298H144V20.76m3.398.293h-.875v1.713h-.417v-1.713h-.875v-.293h2.167v.293zm.747.186l.005.134.005.214v1.179h-.397V20.76h.551l.726 1.6.726-1.6h.546v2.006h-.391v-1.525l-.685 1.525h-.391l-.695-1.527"/></g></symbol><symbol viewBox="0 0 132 60" id="logo-netcat" xmlns="http://www.w3.org/2000/svg"><g fill="none" fill-rule="evenodd"><path fill="#176B97" d="M130.2 29.216c-.398-3.873-2.344-7.048-5.34-8.71l-.91-.506-.685.791c-.087.1-.68.846-.829 2.633-1.76-.55-3.997-.55-5.756 0-.15-1.786-.742-2.533-.83-2.633l-.685-.791-.912.506c-2.996 1.662-4.942 4.837-5.34 8.71-.252 2.446.495 4.783 2.102 6.584 4.335 4.853 12.749 4.853 17.083 0 1.61-1.8 2.355-4.138 2.103-6.584zm-4.024 4.835c-3.302 3.698-9.937 3.698-13.238 0-1.127-1.262-1.629-2.841-1.452-4.565.24-2.328 1.176-4.307 2.621-5.662.023.39.022.861-.035 1.445l-.235 2.442 2.14-1.167a7.424 7.424 0 0 1 7.16 0l2.138 1.167-.234-2.442a9.308 9.308 0 0 1-.036-1.445c1.447 1.355 2.381 3.334 2.621 5.662.177 1.724-.323 3.303-1.45 4.565z"/><path fill="#000" fill-rule="nonzero" d="M105.926 35.375H103.3c-3.47 0-6.09-2.453-6.09-5.708v-2.613h3.202a1.523 1.523 0 1 0 0-3.045H97.21v-1.955a1.523 1.523 0 0 0-3.045 0v7.613c0 4.908 4.013 8.753 9.134 8.753h2.627a1.522 1.522 0 0 0 0-3.045zM89.05 20.532c-.73 0-1.34.515-1.487 1.201a9.124 9.124 0 0 0-4.514-1.201c-5.037 0-9.135 4.098-9.135 9.135 0 5.036 4.099 9.133 9.135 9.133 1.595 0 3.13-.423 4.483-1.19a1.52 1.52 0 0 0 3.04-.049V22.054c0-.84-.68-1.522-1.522-1.522zM87.528 33.78a6.083 6.083 0 0 1-4.478 1.975 6.096 6.096 0 0 1-6.09-6.087 6.097 6.097 0 0 1 6.09-6.091c1.045 0 2.07.272 2.975.777l.039.022c.276.157.538.337.79.536.268.23.483.464.674.687v8.181zm-16.633-.715c-.466 0-.876.213-1.156.542l-.006-.005a6.081 6.081 0 0 1-4.645 2.152 6.096 6.096 0 0 1-6.09-6.087 6.097 6.097 0 0 1 6.09-6.091 6.1 6.1 0 0 1 3.852 1.373l.005-.004c.263.214.593.348.96.348a1.518 1.518 0 1 0 .959-2.697l.004-.005a9.161 9.161 0 0 0-5.78-2.06c-5.037 0-9.136 4.099-9.136 9.136 0 5.035 4.1 9.132 9.136 9.132a9.119 9.119 0 0 0 6.875-3.128l.022-.023c.023-.026.049-.048.07-.075l-.005-.004c.225-.266.367-.606.367-.981 0-.842-.681-1.523-1.522-1.523zM54.3 35.375h-2.626c-3.472 0-6.09-2.453-6.09-5.708v-2.613h3.202a1.524 1.524 0 0 0 0-3.045h-3.202v-1.955a1.523 1.523 0 0 0-3.045 0v7.613c0 4.908 4.012 8.753 9.134 8.753H54.3a1.522 1.522 0 0 0 0-3.045zM30.739 20.532c-5.037 0-9.135 4.098-9.135 9.135 0 5.036 4.098 9.133 9.135 9.133a9.083 9.083 0 0 0 7.212-3.527l-.005-.004c.201-.258.326-.578.326-.931 0-.84-.682-1.522-1.522-1.522-.488 0-.917.233-1.196.59l-.005-.004a6.058 6.058 0 0 1-4.809 2.352c-3.358 0-6.091-2.731-6.091-6.087a6.097 6.097 0 0 1 6.091-6.091c1.807 0 3.416 1.008 4.514 2.26l-7.784 3.879.002.005a1.517 1.517 0 1 0 1.352 2.714l.002.005 9.36-4.661a1.524 1.524 0 0 0 .659-2.091c-1.704-3.133-4.885-5.155-8.106-5.155zm-21.117 0c-3.774 0-9.136 5.473-9.136 10.582v6.164a1.523 1.523 0 0 0 3.045 0v-6.164c0-3.468 4.025-7.537 6.09-7.537 2.065 0 6.091 4.068 6.091 7.537v6.164a1.524 1.524 0 0 0 3.046 0v-6.164c-.001-5.11-5.363-10.582-9.136-10.582z"/></g></symbol><symbol viewBox="0 0 166 60" id="logo-opencart" xmlns="http://www.w3.org/2000/svg"><defs><linearGradient id="awa" x1="50%" x2="50%" y1="79.104%" y2="0%"><stop offset="0%" stop-color="#04B6F0"/><stop offset="100%" stop-color="#3ECAF0"/></linearGradient></defs><path fill="url(#awa)" d="M16.095 16.538c0 2.416-.719 4.451-2.162 6.099-1.506 1.726-3.463 2.592-5.859 2.592-2.402 0-4.353-.866-5.859-2.592C.771 20.989.047 18.954.047 16.538c0-2.422.724-4.457 2.168-6.098 1.523-1.71 3.48-2.565 5.859-2.565 2.396 0 4.353.855 5.859 2.565 1.443 1.641 2.162 3.676 2.162 6.098zm-4.77 0c0-1.094-.262-2.018-.787-2.764-.587-.85-1.409-1.271-2.464-1.271-1.056 0-1.877.422-2.465 1.27-.53.747-.793 1.671-.793 2.765 0 1.089.263 2.023.793 2.793.588.848 1.41 1.27 2.465 1.27s1.877-.422 2.464-1.27c.525-.77.787-1.704.787-2.793zm22.017 0c0 2.257-.65 4.229-1.957 5.916-1.398 1.846-3.2 2.775-5.392 2.775-1.546 0-2.858-.45-3.93-1.339 0 .205.023.7.068 1.494.046.797.068 1.447.068 1.96 0 2.833-.844 4.246-2.532 4.246-.69 0-1.255-.245-1.706-.73-.445-.49-.668-1.078-.668-1.772V10.662c0-.672.229-1.254.685-1.744a2.237 2.237 0 0 1 1.694-.729c1.016 0 1.757.506 2.225 1.516.999-1.22 2.362-1.83 4.09-1.83 2.197 0 3.994.912 5.398 2.742 1.3 1.693 1.957 3.665 1.957 5.921zm-4.77 0c0-1.094-.268-2.018-.792-2.764-.589-.85-1.41-1.271-2.465-1.271-1.056 0-1.877.422-2.465 1.27-.525.747-.787 1.671-.787 2.765 0 1.089.262 2.023.787 2.793.588.848 1.41 1.27 2.465 1.27s1.876-.422 2.465-1.27c.524-.77.792-1.704.792-2.793zm22.125-.512c0 .797-.189 1.344-.566 1.652-.376.302-.963.456-1.756.456h-8.61c0 .912.428 1.613 1.284 2.102.69.383 1.535.577 2.533.577.777 0 1.706-.257 2.796-.764 1.09-.513 1.791-.764 2.094-.764.553 0 1.02.2 1.409.61.382.405.576.895.576 1.46 0 1.304-.975 2.32-2.927 3.048-1.489.547-3 .826-4.546.826-2.488 0-4.496-.826-6.03-2.472-1.536-1.648-2.306-3.717-2.306-6.219 0-2.383.799-4.417 2.396-6.115 1.592-1.699 3.572-2.548 5.934-2.548 2.196 0 4.033.804 5.505 2.411 1.472 1.608 2.214 3.522 2.214 5.74zm-4.77-1.198c-.023-.73-.36-1.39-1.01-1.99-.65-.597-1.34-.893-2.07-.893-.754 0-1.456.296-2.106.894-.65.599-.976 1.26-.976 1.99h6.162zm20.795 7.585c0 .696-.222 1.283-.667 1.773-.45.485-1.016.73-1.706.73-1.666 0-2.5-1.322-2.5-3.96 0-.508.035-1.306.104-2.406.074-1.094.108-1.898.108-2.405 0-2.799-.907-4.2-2.715-4.2-1.81 0-2.71 1.401-2.71 4.2 0 .507.028 1.31.08 2.405.057 1.1.085 1.898.085 2.405 0 2.639-.822 3.961-2.464 3.961-.691 0-1.255-.245-1.7-.73-.451-.49-.674-1.077-.674-1.773V10.657c0-.69.223-1.277.673-1.75.446-.479 1.016-.718 1.706-.718 1.141 0 1.934.506 2.379 1.516.77-1.22 2.134-1.83 4.085-1.83 1.808 0 3.246.479 4.302 1.43 1.078 1.021 1.614 2.423 1.614 4.207v8.901zm14.964-.506c0 1.077-.7 1.931-2.104 2.56a8.489 8.489 0 0 1-3.543.762c-2.403 0-4.353-.866-5.86-2.592-1.443-1.648-2.168-3.683-2.168-6.099 0-2.422.737-4.468 2.214-6.144 1.477-1.68 3.411-2.519 5.814-2.519 1.386 0 2.578.205 3.572.61 1.385.548 2.075 1.402 2.075 2.565 0 .587-.182 1.105-.547 1.556-.365.444-.834.672-1.403.672-.389 0-.948-.13-1.678-.387-.73-.263-1.311-.388-1.74-.388-1.135 0-2.02.405-2.653 1.214-.587.73-.884 1.664-.884 2.821 0 1.089.262 2.012.794 2.759.586.872 1.414 1.305 2.47 1.305.468 0 1.106-.137 1.922-.417.816-.273 1.404-.415 1.769-.415.53 0 .986.227 1.375.672.382.45.575.934.575 1.465zm17.338.506c0 .696-.222 1.283-.667 1.773-.45.485-1.02.73-1.712.73-1.038 0-1.78-.507-2.225-1.516-.998 1.22-2.362 1.83-4.09 1.83-2.213 0-4.027-.93-5.432-2.776-1.277-1.687-1.921-3.659-1.921-5.916 0-2.256.644-4.228 1.921-5.921 1.427-1.83 3.235-2.742 5.432-2.742 1.728 0 3.092.61 4.09 1.83.445-1.01 1.187-1.516 2.225-1.516.674 0 1.239.245 1.695.73.456.49.684 1.065.684 1.738v11.756zm-4.77-5.875c0-1.094-.261-2.018-.786-2.764-.61-.85-1.433-1.271-2.465-1.271-1.055 0-1.876.422-2.465 1.27-.53.747-.792 1.671-.792 2.765 0 1.089.256 2.023.763 2.793.606.848 1.439 1.27 2.494 1.27 1.055 0 1.877-.422 2.465-1.27.525-.77.787-1.704.787-2.793zm16.94-6.195c0 1.02-.497 1.72-1.49 2.102-.918.309-1.831.623-2.744.947-.999.57-1.495 1.63-1.495 3.17v5.851a2.55 2.55 0 0 1-.672 1.773c-.452.485-1.022.73-1.712.73-.696 0-1.267-.245-1.711-.73-.452-.49-.674-1.077-.674-1.773V10.657c0-.69.222-1.277.667-1.75.45-.479 1.022-.718 1.712-.718 1.14 0 1.933.506 2.38 1.516 1.02-1.22 2.116-1.83 3.297-1.83.673 0 1.25.245 1.728.73.473.49.714 1.071.714 1.738zm12.442.217c0 1.06-.416 1.726-1.242 2.012-.407.142-1.258.216-2.552.216v9.625c0 .696-.228 1.283-.672 1.773-.452.485-1.022.73-1.712.73a2.25 2.25 0 0 1-1.701-.73c-.456-.49-.684-1.077-.684-1.773v-9.625c-.982 0-1.694-.125-2.145-.37-.615-.342-.92-.963-.92-1.858 0-.895.314-1.505.947-1.83.429-.24 1.136-.364 2.118-.364v-2.04c0-2.4.792-3.597 2.385-3.597 1.585 0 2.384 1.197 2.384 3.596v2.04c1.294 0 2.145.075 2.552.217.826.285 1.242.946 1.242 1.978zm38.317-2.894c-.013-1.463-2.719-2.127-9.724-2.127-16.435 0-20.605-.702-25.067-5.392 1.877 2.816 2.904 8.099 20.276 7.836 18.125-.279 7.068 4.669 3.85 10.259 5.803-5.174 10.648-8.583 10.665-10.555v-.021zm-23.096 15.022c0 1.36-1.12 2.478-2.482 2.478a2.482 2.482 0 0 1-2.487-2.478v-.002a2.496 2.496 0 0 1 2.486-2.483h.001a2.482 2.482 0 0 1 2.482 2.485zm11.319 0c0 1.36-1.12 2.478-2.482 2.478a2.482 2.482 0 0 1-2.486-2.478v-.002a2.495 2.495 0 0 1 2.485-2.483h.001c1.37 0 2.482 1.11 2.482 2.485z" transform="translate(2 14)"/></symbol><symbol viewBox="0 0 180 60" id="logo-prestashop" xmlns="http://www.w3.org/2000/svg"><g fill="none" fill-rule="evenodd"><g fill-rule="nonzero"><path fill="#27245D" d="M68.426 32.946c-.028-.112-.028-.28-.028-.503 0-1.422.474-2.538 1.423-3.32.948-.809 1.98-1.2 3.125-1.2 1.506 0 2.566.559 3.152 1.703l-7.672 3.32zm10.992-2.01c-.028-1.673-.641-3.04-1.897-4.1-1.255-1.06-2.818-1.563-4.715-1.563-1.2 0-2.344.251-3.404.781-1.088.53-1.98 1.34-2.706 2.483-.725 1.116-1.088 2.4-1.088 3.879 0 2.12.697 3.85 2.092 5.133 1.395 1.311 3.097 1.953 5.05 1.953 2.232 0 4.185-.837 5.831-2.539l-1.702-1.897c-1.004 1.2-2.287 1.814-3.822 1.814-1.562 0-2.79-.558-3.683-1.674l10.072-4.241-.028-.028zM62.26 26.11c-.81.558-1.451 1.256-1.897 2.12v-2.79h-2.93v13.84h2.902v-5.915c0-1.562.362-2.846 1.088-3.766.725-.949 1.813-1.395 3.236-1.395h.168l-.028-2.93c-.865 0-1.73.28-2.54.837m27.566 6.137c-.474-.307-.893-.558-1.311-.725a22.954 22.954 0 0 0-1.256-.475 21.12 21.12 0 0 0-1.506-.418c-.558-.14-1.005-.28-1.312-.446-.446-.196-.67-.53-.67-.977 0-.502.224-.893.642-1.144.447-.251 1.005-.39 1.702-.39 1.312 0 2.54.362 3.655 1.116l1.088-2.149c-1.423-.948-2.93-1.395-4.52-1.395-1.59 0-2.901.39-3.878 1.144-1.004.781-1.506 1.786-1.506 3.07 0 1.813 1.45 3.124 4.324 3.905.056.028.168.056.307.112 1.842.558 2.762 1.172 2.762 1.869 0 .474-.195.865-.558 1.144-.39.307-.892.446-1.562.446-1.507 0-3.07-.613-4.687-1.813l-1.395 2.26c.837.67 1.785 1.172 2.873 1.534 1.089.363 2.12.558 3.125.558 1.479 0 2.707-.39 3.655-1.172.949-.78 1.423-1.841 1.423-3.152.028-1.312-.446-2.26-1.395-2.902m-38.502-2.037c-.614.642-1.786.977-3.46.977h-3.57v-7.282h3.124c1.674 0 2.874.251 3.655.781.781.53 1.172 1.395 1.172 2.65 0 1.284-.307 2.233-.921 2.874m2.176-7.505c-1.255-1.06-3.264-1.59-6.026-1.59h-6.25v18.163h3.07V33.95h3.236c2.678 0 4.659-.502 5.942-1.534 1.284-1.033 1.925-2.623 1.925-4.827 0-2.176-.641-3.822-1.897-4.883m44.557 14.285c-.614 0-1.116-.195-1.451-.586-.335-.39-.53-.92-.53-1.562v-7.031h3.627v-2.344h-3.627v-4.352h-2.902v13.615c0 1.451.446 2.623 1.311 3.46.865.865 1.925 1.283 3.18 1.283 1.229 0 2.372-.446 3.405-1.367l-1.2-2.064c-.586.641-1.2.948-1.813.948m13.308-1.311c-.81.837-1.758 1.255-2.902 1.255-1.144 0-2.148-.418-2.985-1.255-.837-.837-1.283-1.897-1.283-3.237 0-1.339.418-2.427 1.255-3.32.837-.892 1.814-1.339 2.985-1.339 1.172 0 2.149.447 2.93 1.34.809.892 1.2 1.98 1.2 3.292 0 1.339-.391 2.427-1.2 3.264m1.144-7.812c-1.172-1.73-2.679-2.595-4.492-2.595-1.814 0-3.404.642-4.743 1.925-1.34 1.284-2.009 2.986-2.009 5.134s.642 3.878 1.953 5.19c1.311 1.31 2.818 1.98 4.576 1.98.865 0 1.73-.223 2.594-.642a5.379 5.379 0 0 0 2.12-1.841v2.26h2.902V25.44h-2.901v2.427z"/><path fill="#E2066F" d="M158.57 35.652c-.836.837-1.869 1.255-3.124 1.255-1.256 0-2.316-.418-3.125-1.255-.837-.837-1.228-1.925-1.228-3.264 0-1.34.419-2.428 1.228-3.265.81-.837 1.87-1.255 3.125-1.255s2.316.418 3.125 1.255c.809.837 1.227 1.925 1.227 3.265 0 1.339-.39 2.427-1.227 3.264m-3.125-10.379c-2.093 0-3.822.698-5.19 2.065-1.395 1.367-2.092 3.069-2.092 5.05 0 1.98.697 3.682 2.092 5.05 1.395 1.367 3.125 2.064 5.19 2.064 2.064 0 3.822-.697 5.19-2.064 1.394-1.368 2.092-3.07 2.092-5.05 0-1.981-.698-3.683-2.093-5.05-1.395-1.395-3.125-2.065-5.19-2.065m18.945 10.379c-.837.837-1.841 1.255-2.985 1.255s-2.12-.418-2.902-1.255c-.81-.837-1.2-1.925-1.2-3.236 0-1.312.39-2.4 1.2-3.293.81-.865 1.786-1.311 2.93-1.311 1.171 0 2.148.446 2.985 1.311.837.865 1.255 1.981 1.255 3.293-.028 1.339-.446 2.399-1.283 3.236m2.204-8.454c-1.311-1.283-2.902-1.925-4.743-1.925-1.841 0-3.348.865-4.492 2.623v-2.428h-2.901v18.86h2.901v-7.114c1.395 1.535 2.958 2.288 4.687 2.288 1.73 0 3.265-.67 4.576-2.009 1.311-1.339 1.953-3.069 1.953-5.19 0-2.12-.67-3.85-1.981-5.105m-35.21-1.925c-.976 0-1.87.251-2.706.726a4.546 4.546 0 0 0-1.897 2.008v-7.951h-2.902v19.25h2.902V31.83c0-1.284.362-2.26 1.116-2.93.753-.67 1.618-1.004 2.622-1.004 2.12 0 3.18 1.283 3.18 3.822v7.589h2.903v-8.482c0-1.813-.475-3.18-1.451-4.129-.949-.949-2.204-1.423-3.767-1.423m-10.992 5.301c-.949-.809-2.344-1.45-4.213-1.897-1.87-.446-3.07-.865-3.655-1.256-.558-.39-.865-.948-.865-1.701 0-.726.279-1.284.865-1.647.558-.362 1.311-.558 2.204-.558.893 0 1.786.168 2.706.475.92.307 1.646.697 2.176 1.2l1.647-2.316c-.837-.698-1.814-1.228-2.958-1.618a10.558 10.558 0 0 0-3.46-.558c-1.813 0-3.32.446-4.547 1.367-1.228.92-1.842 2.204-1.842 3.878s.53 2.93 1.619 3.738c.53.447 1.144.782 1.841 1.06.698.28 1.702.559 3.041.893 1.34.307 2.26.67 2.818 1.06.558.391.81.95.81 1.647 0 .697-.28 1.255-.866 1.702-.586.418-1.367.641-2.343.641-1.981 0-3.878-.809-5.72-2.4l-1.925 2.317c2.204 1.953 4.715 2.929 7.56 2.929 1.954 0 3.516-.502 4.716-1.479 1.2-.976 1.786-2.26 1.786-3.85 0-1.59-.447-2.818-1.395-3.627"/></g><path fill="#A0DBE8" fill-rule="nonzero" d="M13.478 38.992c.28-.129.561-.234.854-.351.327-.117.655-.234.983-.34.41-.128.83-.233 1.251-.327.574-.117 1.147-.21 1.72-.27a48.735 48.735 0 0 1-1.076 3.043l.035.585a12.694 12.694 0 0 1 4.844 0c0-.199.012-.398.035-.585a58.217 58.217 0 0 1-1.076-3.042c.573.058 1.158.14 1.72.269a15.664 15.664 0 0 1 2.234.667c.293.105.573.222.854.35 1.99.89 3.803 2.2 5.289 3.909a17.512 17.512 0 0 0 6.095-13.303c0-9.7-7.862-17.574-17.573-17.574-9.7 0-17.573 7.863-17.573 17.574 0 5.312 2.363 10.073 6.095 13.303a15.22 15.22 0 0 1 5.289-3.908z"/><path fill="#525353" fill-rule="nonzero" d="M14.636 42.174a12.27 12.27 0 0 1 2.597-.819c0-.199-.011-.398-.035-.585.386-1.006.75-2.024 1.077-3.042-.574.059-1.159.14-1.72.27a15.268 15.268 0 0 0-2.235.667l1.275.315-.959 3.194zm-3.019 1.884c.035-.328.047-.655.047-.995 0-.198.164-.362.363-.362h.316l1.123-3.72a15.204 15.204 0 0 0-5.288 3.907 17.547 17.547 0 0 0 2.644 1.895c.269-.245.526-.491.795-.725zm14.228-5.066l1.123 3.72h.316c.199 0 .362.164.362.363 0 .34.024.667.047.995.27.234.538.468.784.725a17.027 17.027 0 0 0 2.644-1.895 15.064 15.064 0 0 0-5.276-3.908zm-2.142-.035l1.276-.316c-.328-.117-.655-.234-.983-.34-.41-.128-.83-.233-1.252-.327a17.954 17.954 0 0 0-1.72-.27 49.4 49.4 0 0 0 1.077 3.043l-.036.585c.913.175 1.779.456 2.598.819l-.96-3.194z"/><path fill="#000" fill-rule="nonzero" d="M19.655 42.712h2.48c-.046-.456-.07-.912-.058-1.357a12.694 12.694 0 0 0-4.844 0c.012.457-.011.901-.058 1.357h2.48zm-8.822 2.071c.2.117.41.234.62.351.07-.35.13-.713.164-1.076-.269.234-.526.48-.784.725z"/><path fill="#000" fill-rule="nonzero" d="M14.472 42.712h2.715c.046-.456.07-.912.058-1.357-.913.176-1.778.457-2.597.82l-.176.537zm13.233 1.346c.035.363.093.725.164 1.076.21-.105.41-.222.62-.35-.258-.246-.515-.492-.784-.726zm-2.855-1.346l-.164-.538a12.27 12.27 0 0 0-2.597-.819c-.012.457.012.901.058 1.357h2.703z"/><path fill="#AA9678" fill-rule="nonzero" d="M14.472 42.712l.164-.538.971-3.217-1.275-.316c-.293.105-.574.222-.854.35l-1.124 3.721h2.118zm10.214-.538l.164.538h2.118l-1.123-3.72c-.281-.129-.562-.234-.855-.351l-1.275.316.971 3.217z"/><path fill="#C0B098" fill-rule="nonzero" d="M12.39 43.461c.011-.011.023-.011.035-.023h-.035v.023z"/><path fill="#C0B098" fill-rule="nonzero" d="M19.655 43.438h-7.23c-.012.012-.024.012-.035.023-.024.69-.117 1.357-.27 2.013a17.447 17.447 0 0 0 7.535 1.696v-3.732z"/><path fill="#AA9678" fill-rule="nonzero" d="M26.933 43.438h-.035c.011.012.023.012.035.023v-.023z"/><path fill="#AA9678" fill-rule="nonzero" d="M26.898 43.438h-7.243v3.732a17.48 17.48 0 0 0 7.535-1.696 10.527 10.527 0 0 1-.269-2.013c0-.011-.012-.023-.023-.023z"/><path fill="#786453" fill-rule="nonzero" d="M19.655 43.075h1v1h-1z"/><path fill="#8B7460" fill-rule="nonzero" d="M27.705 44.058a9.316 9.316 0 0 1-.047-.995.365.365 0 0 0-.363-.362h-15.28a.365.365 0 0 0-.363.362c0 .34-.023.667-.046.995-.035.363-.094.725-.164 1.076.222.117.444.234.667.34.152-.656.245-1.334.269-2.013v-.023H26.92v.023c.023.69.117 1.357.27 2.013.221-.106.444-.223.666-.34-.07-.35-.117-.713-.152-1.076z"/><g transform="translate(7.265 17.265)"><path d="M18.31 9.664c.223.632.468 1.275.597 1.93 0 .047-.012.094-.012.141-.011.07-.023.129-.035.187.024-.082.035-.187.059-.304-.129-.667-.386-1.31-.609-1.954zm5.113 3.978c-.011 0-.023.012-.035.012.012-.012.024-.012.035-.012zm.117-.093l-.035.035.035-.035zm-5.756-4.341c-.41-.34-.83-.655-1.275-.924.444.269.865.573 1.275.924zm4.072 4.2c0 .012 0 .012 0 0 0 .012 0 .012 0 0zm.737.936c.011.012.023.035.035.047 0-.023-.024-.035-.035-.047zm-3.744-2.387a1.342 1.342 0 0 1-.035.14l.035-.14zm-1.72 6.412a4.42 4.42 0 0 0-.538 1.275c.093-.41.269-.83.538-1.275.093-.152.175-.293.257-.433-.082.129-.164.28-.257.433 0-.012 0-.012 0 0z"/><path d="M18.31 9.664c.012-.035.036-.058.047-.093a.37.37 0 0 0-.047.093l.316.281-.316-.28zM15.877 7.92a.224.224 0 0 1-.059-.034c.024.011.035.023.059.035zm.093.048c-.023-.012-.046-.035-.07-.047.012.023.047.035.07.047zm.574 1.415zm6.774 5.885c.023.024.047.059.07.082-.023-.023-.047-.058-.07-.082zm-6.774-5.335zm-.07-1.673c-.059-.035-.234-.129-.387-.222.153.082.316.175.387.222zm-.398-.234c-.035-.023-.07-.047-.106-.058.036.023.07.046.106.058zm7.827 4.516v-.07.07zm-2.878-.105c.012.023.035.035.047.059 0-.012-.024-.036-.047-.059zm-2.399-2.492c.234.21.468.433.69.655-.233-.222-.456-.444-.69-.655zm4.575 1.334c.047 0 .082.011.129.023a.588.588 0 0 0-.129-.023zm-.679.877c0 .024-.011.035-.011.059 0-.024.011-.035.011-.059zm.843-.842c.023.012.058.023.082.047-.024-.012-.059-.035-.082-.047zm.269.234c.012.012.023.023.023.035-.011-.012-.011-.023-.023-.035zm.257.69v-.023.023zm0 .515c0-.012 0-.012 0 0zm-1.158-1.17c.012-.012.023-.023.023-.035 0 .012-.011.023-.023.035zm.339-.281zm-3.124-.047c-.105-.117-.222-.222-.327-.339.117.105.222.222.327.34zm3.253-3.814v1.626l-.62 2.867v.012l.62-2.867V7.441zm-2.668 4.434c-.058-.058-.117-.128-.175-.187.07.07.117.129.175.187zm3.288.071c.012.023.012.046.024.07 0-.035-.012-.047-.024-.07zm-1.334.538v-.035c.012.023 0 .023 0 .035zm.468-1.124c.024-.023.059-.034.082-.046-.035.012-.058.035-.082.047zm-.128.106a.306.306 0 0 1 .093-.082c-.035.023-.07.059-.093.082zm1.018 1.509c-.012.059-.036.117-.059.176a.647.647 0 0 0 .059-.176zM2.434 11.946c.023-.035.058-.082.081-.117-.023.046-.058.082-.081.117zm21.048-.562c.035.023.058.059.093.082-.035-.023-.058-.059-.093-.082zM2.937 11.22c.011-.011.023-.035.035-.047-.012.012-.024.024-.035.047zm11.969 1.264v-.012.012zm-13.233.866c-.035.058-.058.128-.094.187.036-.059.059-.117.094-.187zm-.386.9c0 .012-.012.024-.012.036 0-.012.012-.024.012-.035zm2.785-4.364l.105-.105-.105.105zm-.621.679c.036-.047.07-.082.106-.129-.035.047-.07.082-.106.13zm20.37 1.381l-.62-2.867zM12.917 14.11c-.012 0-.024-.012-.035-.012.011.012.023.012.035.012zm.163.024c-.011 0-.023 0-.035-.012.012.012.024.012.036.012zM2.06 12.59c-.036.07-.083.14-.118.221.035-.07.07-.14.117-.222zm10.693 1.473c-.012 0-.012 0-.023-.011.011.011.011.011.023.011zm-1.112-1.953c0 .011-.011.023-.011.035.011-.012.011-.024.011-.036zm.047-.153c0 .012-.011.012-.011.024 0 0 .011-.012.011-.024zm.059-.14s0 .012-.012.012l.012-.012zm1.837-.947c-.012 0-.012 0 0 0-.012 0-.012 0 0 0zm-.644 0s-.012 0 0 0c-.012 0 0 0 0 0zm.328-3.71v-.07.07zm0-.105v-.047.047zm0-.07c0-.012 0-.012 0 0 0-.012 0-.012 0 0zm0 .398v-.164.164zm10.412 5.99c-.023.023-.034.059-.058.082a.35.35 0 0 0 .059-.082zm-12.062-1.088c0 .012 0 .023-.012.035 0-.012 0-.023.012-.035zm12.156.913a.553.553 0 0 1-.058.117c.023-.036.035-.07.058-.117z"/><path fill="#525353" fill-rule="nonzero" d="M17.421 22.932c-.058-.059-.105-.129-.164-.199.059.082.117.14.164.199z"/><path fill="#AA9678" fill-rule="nonzero" d="M17.83 23.341s-.175-.14-.409-.397c.234.257.41.397.41.397z"/><circle cx="23.25" cy="7.491" r="1" fill="#FFF" fill-rule="nonzero" transform="rotate(-4.571 23.25 7.49)"/><path fill="#BBBCBD" fill-rule="nonzero" d="M24.09 8.424s0-.012 0 0a6.021 6.021 0 0 0-.456-.562c-.07-.082-.14-.152-.21-.222-.024-.023-.06-.047-.083-.07a1.128 1.128 0 0 0-.14-.117V9.09l.62 2.866c.012.024.012.047.024.07l.432.492h.457v-.129c0-1.357-.223-2.656-.62-3.872-.012-.047-.012-.07-.024-.094z"/><path fill="#676A6A" fill-rule="nonzero" d="M23.891 12.226v.024c.012.07.012.14.012.21v.071c0 .07 0 .14-.012.199v.023l-.035.21.433-.48-.433-.49c.012.081.024.152.035.233z"/><path fill="#000" fill-rule="nonzero" d="M23.88 12.776v-.023c.011-.07.011-.14.011-.199v-.094c0-.07 0-.14-.011-.21v-.024l-.035-.21c-.012-.024-.012-.047-.024-.07a1.462 1.462 0 0 0-.164-.363c-.011-.012-.023-.023-.023-.035-.023-.024-.035-.047-.059-.07a.306.306 0 0 0-.093-.082c-.012-.012-.024-.012-.035-.024-.024-.023-.059-.035-.082-.046-.012 0-.024-.012-.035-.012-.035-.012-.082-.024-.129-.024s-.082.012-.129.024c-.011 0-.023.012-.035.012-.023.011-.058.023-.082.046-.011.012-.023.012-.035.024-.035.023-.058.058-.093.082-.024.023-.035.046-.059.07-.012.012-.023.023-.023.035a1.14 1.14 0 0 0-.164.363v.011c-.023.059-.035.13-.047.2 0 .023-.012.034-.012.058-.011.082-.011.152-.023.234v.035c0 .667.316 1.217.702 1.217.07 0 .129-.024.199-.047.012 0 .023-.012.035-.012.023-.012.047-.035.07-.047l.035-.035c.035-.023.059-.058.094-.093.023-.024.035-.047.058-.082.012-.024.024-.035.036-.059.023-.035.035-.07.058-.117.012-.011.012-.023.023-.047.024-.058.036-.117.059-.175 0-.07.012-.14.012-.21zm-.656-.444c-.152 0-.269-.2-.269-.457 0-.245.117-.456.27-.456.152 0 .269.2.269.456 0 .258-.13.457-.27.457z"/><circle cx="23.224" cy="11.875" r="1" fill="#FFF" fill-rule="nonzero"/><path fill="#909393" fill-rule="nonzero" d="M22.57 11.946c.046-.14.093-.258.163-.363.012-.012.023-.023.023-.035.024-.024.036-.047.059-.07a.298.298 0 0 1 .094-.082c.011-.012.023-.012.035-.024.023-.023.058-.035.082-.046.011 0 .023-.012.035-.012a.41.41 0 0 1 .128-.024c.047 0 .082.012.13.024.01 0 .022.012.034.012.024.011.059.023.082.046.012.012.023.012.035.024.035.023.059.058.094.082.023.023.035.046.058.07.012.012.024.023.024.035.07.105.128.222.163.363l-.62-2.867-.62 2.867z"/><path fill="#000" fill-rule="nonzero" d="M14.906 12.472c0-.058 0-.117-.012-.175-.012-.059-.012-.106-.023-.164a.602.602 0 0 0-.047-.152.77.77 0 0 0-.059-.152l-.07-.14a1.523 1.523 0 0 0-.292-.375 1.888 1.888 0 0 0-.515-.34 2.756 2.756 0 0 0-.293-.093h-.011a1.478 1.478 0 0 0-.632 0h-.012a2.074 2.074 0 0 0-.292.082h-.012a1.215 1.215 0 0 0-.27.14c-.081.059-.163.117-.233.187h-.012a1.914 1.914 0 0 0-.304.387l-.07.14s0 .012-.012.012a.602.602 0 0 0-.047.128c0 .012-.011.012-.011.024-.012.047-.024.082-.036.128 0 .012-.011.024-.011.036-.012.046-.012.081-.024.128 0 .012 0 .024-.011.035 0 .059-.012.117-.012.176 0 .105.012.21.035.316v.011c.023.106.047.2.094.305.082.187.199.362.339.514.117.117.246.223.386.305l.14.07h.012c.047.023.094.035.129.047.012 0 .012 0 .023.011.047.012.082.024.129.035.012 0 .023.012.035.012.047.012.082.012.129.024.011 0 .023 0 .035.011.058 0 .117.012.175.012.234 0 .445-.047.644-.129.093-.047.187-.093.28-.152.176-.117.328-.269.445-.444.059-.094.106-.188.152-.281.082-.2.13-.421.13-.644v-.011l.01-.024zm-1.65-.199c-.34 0-.62-.28-.62-.62 0-.34.28-.62.62-.62.34 0 .62.28.62.62 0 .34-.28.62-.62.62z"/><circle cx="13.256" cy="11.653" r="1" fill="#FFF" fill-rule="nonzero"/><path fill="#BBBCBD" fill-rule="nonzero" d="M12.11 11.29l1.146-3.498v-.819a9.774 9.774 0 0 0-1.954-.199c-.222 0-.444.012-.667.024a.27.27 0 0 0-.093.011 9.556 9.556 0 0 0-3.311.866c-.89.41-1.732.948-2.47 1.58-.198.175-.397.35-.584.538l-.105.105c-.176.176-.351.363-.515.55-.035.047-.07.082-.106.129-.163.199-.327.398-.48.596-.01.012-.023.036-.034.047-.14.2-.281.398-.422.609-.023.035-.058.082-.081.117-.106.175-.211.35-.305.526h5.195l4.785-1.182z"/><path fill="#E2DDDB" fill-rule="nonzero" d="M16.497 10.904c.012-.14.023-.269.023-.41.012-.186.012-.362.024-.549v-.562c0-.374-.024-.737-.035-1.111 0 0-.012 0-.012-.012 0 0-.012 0-.012-.012a6.257 6.257 0 0 1-.386-.222h-.012c-.035-.023-.07-.047-.105-.058-.023-.012-.047-.035-.07-.047l-.012-.012c-.023-.012-.047-.023-.058-.035-.234-.129-.48-.234-.726-.34-.585-.245-1.38-.467-1.837-.573v.82l1.135 3.486c.117.105.223.234.293.374l.07.14c.023.048.047.094.059.153.011.047.035.105.046.152.012.059.024.105.024.164a.936.936 0 0 1 .011.175v.012h1.381c.094-.503.164-1.018.199-1.533 0 .024 0 .012 0 0z"/><path fill="#FBB040" fill-rule="nonzero" d="M14.917 17.456c.316-.316.609-.608.89-.9.163-.176.327-.352.491-.515 1.158-1.252 2-2.434 2.516-3.943.011-.035.023-.082.035-.14v-.024c.011-.059.023-.117.035-.187 0-.047.011-.094.011-.14-.128-.656-.374-1.3-.596-1.931v.012l-.012-.012c-.047-.035-.082-.082-.129-.117a10.616 10.616 0 0 0-1.673-1.275c.024.374.035.737.035 1.111v.562c0 .187-.011.374-.023.55-.012.14-.012.269-.023.41v.046c-.047.515-.106 1.03-.2 1.533l-.163.772c-.34 1.38-1.03 2.62-1.591 3.908-.152.339-.293.69-.422 1.04l-.035.106c.176-.187.34-.35.457-.468.152-.152.269-.28.397-.398z"/><path fill="#909393" fill-rule="nonzero" d="M12.121 11.29c.07-.07.152-.128.234-.187.082-.058.176-.105.27-.14h.011c.094-.035.187-.07.292-.082h.012a1.471 1.471 0 0 1 .632 0h.012c.105.023.199.047.292.094.187.081.363.187.515.339l-1.135-3.487-1.135 3.463z"/><path fill="#676A6A" fill-rule="nonzero" d="M11.723 13.116a2.31 2.31 0 0 1-.093-.305V12.8a1.417 1.417 0 0 1-.035-.316c0-.059 0-.117.011-.176 0-.011 0-.023.012-.035 0-.047.012-.082.023-.128 0-.012.012-.024.012-.036.012-.046.024-.081.035-.128 0-.012.012-.012.012-.024.012-.046.035-.093.047-.128 0 0 0-.012.011-.012l.07-.14c.083-.14.188-.27.305-.387l-4.797 1.182h-.012l4.75 1.158a1.42 1.42 0 0 1-.35-.514z"/><path fill="#E2DDDB" fill-rule="nonzero" d="M22.51 12.215c0-.024.012-.047.012-.059.012-.07.024-.14.047-.199v-.023l.62-2.867V7.43c-.514-.42-1.053-.655-1.626-.655-.725 0-1.392.398-1.895.89-.55.538-.971 1.216-1.322 1.895-.012.035-.036.058-.047.093l.316.281c.234.21.468.433.69.655l.316.316c.105.117.222.223.327.34.14.152.281.292.41.444.058.059.117.129.175.187.164.188.328.363.492.55l.058.059H22.5v-.035c0-.07 0-.152.012-.234zm-4.2-2.551c0 .012 0 .012 0 0 0 .012 0 .012 0 0z"/><path fill="#525353" fill-rule="nonzero" d="M1.275 14.286c0-.012.012-.024.012-.035.094-.234.187-.468.292-.702a.971.971 0 0 1 .094-.188c.082-.187.176-.362.27-.538.034-.07.07-.14.116-.222.024-.035.047-.082.07-.117.106-.176.2-.351.305-.527.023-.035.058-.082.081-.117.13-.21.27-.41.422-.608.011-.012.023-.035.035-.047.152-.21.316-.41.48-.597.035-.046.07-.081.105-.128.164-.187.34-.375.515-.55l.105-.105c.187-.188.374-.363.585-.539.784-2.644 3.206-4.574 6.06-4.574 1.147 0 2.294.327 3.276.936A6.423 6.423 0 0 1 16.45 8.19s0 .012.012.012c.012.023.023.046.047.082a10.799 10.799 0 0 1 1.673 1.274c.047.036.082.083.128.118a.376.376 0 0 1 .047-.094c.398-2.539 1.521-4.376 2.843-4.376.995 0 1.884 1.042 2.422 2.645v.011c.152.164.304.351.457.55 0 0 0 .012.011.012.012.023.012.047.024.07l-.024-.082C22.44 3.545 17.842.035 12.414.035c-6.81 0-12.32 5.51-12.32 12.32 0 1.346.21 2.633.608 3.838v-.012c.082-.363.175-.725.28-1.076.094-.281.188-.55.293-.82z"/><path fill="#FFF" fill-rule="nonzero" d="M24.277 12.496l-.432.48c-.012.058-.036.116-.059.175 0 .011-.012.023-.023.047a.559.559 0 0 1-.059.117c-.012.023-.023.035-.035.058-.023.023-.035.059-.058.082a.382.382 0 0 1-.094.094l-.035.035a.247.247 0 0 1-.07.046c-.012 0-.024.012-.035.012a.391.391 0 0 1-.2.047c-.385 0-.701-.538-.701-1.217H21.06c.27.304.526.609.772.924l.012.012.737.913c.012.011.023.035.035.047.234.292.456.585.679.877.023.023.046.059.07.082.234.316.468.632.702.936v.012c.41-1.205.632-2.48.643-3.815l-.433.036z"/><path fill="#000" fill-rule="nonzero" d="M10.542 6.798c.035 0 .058 0 .093-.012a9.848 9.848 0 0 1 2.621.175v.316-.316c.445.106 1.24.328 1.837.574.246.105.491.222.725.34.012 0 .035.01.059.034 0 0 .012 0 .012.012.023.012.046.023.07.047.035.023.07.035.105.058h.012c.152.082.316.187.386.222.012 0 .012.012.012.012l.011.012a.505.505 0 0 0-.047-.082s0-.012-.011-.012a6.365 6.365 0 0 0-2.352-2.562 6.369 6.369 0 0 0-3.276-.936c-2.855 0-5.277 1.93-6.06 4.575a10.16 10.16 0 0 1 2.468-1.58 9.918 9.918 0 0 1 3.335-.877z"/><path d="M13.268 7.289v.07"/><path fill="#000" fill-rule="nonzero" d="M19.68 7.675c.502-.491 1.17-.889 1.895-.889.573 0 1.123.234 1.626.655.047.035.094.082.14.117.024.024.059.047.082.07.07.07.14.14.211.223v-.012c-.55-1.603-1.427-2.644-2.422-2.644-1.322 0-2.445 1.825-2.843 4.376.328-.679.76-1.358 1.31-1.896z"/><path fill="#FFF" fill-rule="nonzero" d="M8.003 23.856c.117.047.222.082.34.117 1.274.445 2.643.69 4.07.69 1.627 0 3.183-.315 4.599-.889.07-.035.152-.058.222-.093.117-.047.246-.106.363-.164.105-.047.21-.094.316-.152-.024 0-.047.012-.07.012-.445.046-.878.058-1.31-.012-2.54-.363-3.101-1.591-3.02-2.855a6.276 6.276 0 0 1-.561-.363c-1.954-1.415-3.112-2.925-3.112-2.925s1.509 1.159 3.755 2.036c.047.024.094.035.14.059.106-.363.235-.714.34-1.018l.035-.106c.129-.35.27-.702.421-1.04.562-1.288 1.252-2.54 1.592-3.909l.163-.772h-1.38v.012c0 .234-.047.444-.129.643-.047.094-.094.2-.152.281-.117.176-.27.328-.445.445-.093.058-.187.105-.28.152-.2.082-.422.129-.644.129-.058 0-.117 0-.175-.012-.012 0-.024 0-.036-.012-.046 0-.081-.012-.128-.023-.012 0-.024-.012-.035-.012l-.129-.035c-.012 0-.012 0-.023-.012-.047-.011-.094-.035-.13-.047h-.01l-.141-.07a1.564 1.564 0 0 1-.386-.304l-4.75-1.158H2.128c-.023.035-.046.082-.07.117-.035.07-.082.14-.117.222-.093.176-.187.363-.269.538-.035.059-.058.129-.094.187-.105.234-.198.468-.292.702 0 .012-.012.024-.012.036-.105.269-.199.55-.28.83-.106.351-.2.714-.281 1.077a12.26 12.26 0 0 0 4.48 6.13c.06.047.13.082.188.13.351.245.714.479 1.088.678.491.304 1.006.55 1.533.76z"/><path fill="#9F2255" fill-rule="nonzero" d="M16.509 20.019a2.092 2.092 0 0 0-.035.386c-.012.222.011.444.046.643.024.14.047.27.082.398.059.187.117.363.2.527.081.163.163.315.245.444.023.047.058.094.082.129.047.058.082.117.128.175.059.07.117.14.164.2.223.257.41.397.41.397v.012c0 .011 0 .023.011.035.024 0 .047-.012.07-.012.55-.07 1.1-.222 1.65-.41.281-.105.562-.21.831-.327.082-.035.164-.082.246-.117 2.82-1.369 5.183-3.779 5.183-3.779-3.534 1.743-7.008 1.673-9.313 1.299z"/><path fill="#E2066F" fill-rule="nonzero" d="M23.318 15.268c-.222-.292-.456-.585-.679-.877-.011-.012-.023-.035-.035-.047l-.737-.912-.011-.012c-.258-.316-.515-.62-.773-.924-.011-.024-.035-.036-.046-.059-.164-.187-.328-.363-.492-.55-.058-.058-.117-.129-.175-.187l-.41-.445c-.105-.117-.222-.222-.327-.339l-.316-.316a20.303 20.303 0 0 0-.69-.655l-.317-.28c.223.643.48 1.286.609 1.953.035.176.058.34.082.503.316 2.305-.433 3.814-1.603 5.803-.082.14-.176.293-.258.433a4.481 4.481 0 0 0-.538 1.276c-.035.128-.058.257-.082.386 2.305.374 5.768.444 9.314-1.299 0 0-.69-1.018-1.744-2.422a63.374 63.374 0 0 0-.702-.936.696.696 0 0 0-.07-.094z"/><path fill="#000" fill-rule="nonzero" d="M17.83 23.341s-.175-.14-.409-.397c-.058-.059-.105-.129-.164-.2-.046-.058-.081-.116-.128-.175-.024-.047-.059-.082-.082-.128a7.417 7.417 0 0 1-.246-.445c-.07-.164-.14-.34-.199-.527a2.2 2.2 0 0 1-.082-.397 3.814 3.814 0 0 1-.046-.644 2.1 2.1 0 0 1 .035-.386c.023-.129.046-.257.082-.386a4.97 4.97 0 0 1 .538-1.275c.082-.152.175-.293.257-.433 1.17-1.99 1.919-3.487 1.603-5.803-.023-.164-.047-.34-.082-.504a1.844 1.844 0 0 1-.058.305v.023a1.41 1.41 0 0 1-.035.14c-.515 1.51-1.358 2.691-2.516 3.943-.152.176-.316.34-.491.515-.281.293-.585.597-.89.901-.128.129-.257.246-.386.374-.117.117-.28.281-.456.468-.105.305-.234.656-.34 1.018-.046-.023-.093-.035-.14-.058-2.246-.866-3.755-2.036-3.755-2.036s1.158 1.51 3.112 2.925c.187.14.374.257.561.363-.081 1.275.48 2.492 3.02 2.855.432.058.865.058 1.31.011 0-.023-.012-.035-.012-.047z"/></g></g></symbol><symbol viewBox="0 0 140 60" id="logo-siberian" xmlns="http://www.w3.org/2000/svg"><defs><path id="aya" d="M6.412 17.469c1.707 0 3.206-.382 4.496-1.145 1.29-.763 1.935-2.03 1.935-3.804 0-1.424-.509-2.51-1.526-3.259-.589-.429-1.425-.766-2.507-1.013l-2.246-.513c-1.511-.349-2.481-.64-2.91-.872-.654-.363-.98-.937-.98-1.722 0-.712.279-1.337.838-1.875.56-.537 1.48-.806 2.758-.806 1.584 0 2.707.418 3.368 1.253.356.458.589 1.116.698 1.973h2.038c0-1.78-.587-3.075-1.76-3.886C9.44.99 8.014.585 6.335.585c-1.823 0-3.233.461-4.229 1.384C1.111 2.892.613 4.073.613 5.512c0 1.33.509 2.329 1.526 2.997.589.385 1.591.738 3.008 1.057l2.17.49c1.177.27 2.041.586 2.594.95.545.37.817.991.817 1.863 0 1.163-.647 1.97-1.94 2.42-.669.232-1.41.349-2.224.349-1.816 0-3.084-.53-3.804-1.592-.377-.567-.592-1.304-.643-2.212H.08c-.022 1.729.53 3.099 1.657 4.109 1.126 1.017 2.685 1.526 4.676 1.526zM18.27 17V.988h-2.19V17h2.19zm10.234 0c2.108 0 3.645-.625 4.611-1.875.647-.835.97-1.77.97-2.801 0-1.228-.36-2.19-1.079-2.888-.407-.393-1.02-.745-1.842-1.058.56-.283.988-.596 1.286-.937.574-.647.861-1.475.861-2.485 0-.865-.232-1.628-.697-2.29-.792-1.118-2.126-1.678-4-1.678h-6.878V17h6.768zm-.697-9.243h-3.946v-4.96h3.87c.944 0 1.656.102 2.136.306.85.363 1.275 1.068 1.275 2.114 0 1.04-.4 1.759-1.199 2.159-.508.254-1.22.381-2.136.381zm.73 7.39h-4.676V9.512h4.306c.908 0 1.638.113 2.19.338 1.04.421 1.56 1.213 1.56 2.376 0 .69-.179 1.279-.535 1.766-.567.77-1.515 1.155-2.845 1.155zM48.724 17v-1.907h-9.722V9.665h8.84V7.812h-8.84V2.95h9.559V.988H36.887V17h11.837zM54 17v-6.867h4.937c.887 0 1.537.098 1.951.294.727.357 1.116 1.058 1.167 2.104l.13 2.67c.03.625.066 1.047.11 1.265.043.218.101.396.174.534h2.66v-.36c-.335-.145-.567-.472-.698-.98-.08-.299-.13-.753-.153-1.363l-.076-2.147c-.036-.93-.213-1.603-.529-2.017-.316-.414-.786-.748-1.411-1.003.712-.37 1.266-.86 1.662-1.471.396-.61.594-1.395.594-2.354 0-1.839-.752-3.1-2.256-3.783-.792-.356-1.799-.534-3.02-.534h-7.411V17H54zm5.014-8.676H54V2.852h5.297c.741 0 1.334.11 1.777.327.828.414 1.242 1.192 1.242 2.333 0 1.06-.296 1.795-.888 2.201-.592.407-1.397.61-2.414.61z"/><path id="ayb" d="M69.582 17V.988h-2.19V17h2.19zm4.37 0l1.734-4.796h6.333L83.643 17h2.376L80.209.988h-2.452L71.729 17h2.224zm7.37-6.562h-5.015l2.584-7.074 2.43 7.074zM90.061 17V4.04L98.27 17h2.43V.988h-2.06V13.96L90.554.989h-2.561V17h2.07z"/></defs><g fill="none"><path fill="#0099C7" stroke="#FFF" stroke-width=".5" d="M15.861 38.443v8.048L2.134 38.347l.015.033v-.066l-.013-.007.013-.008V30.32l-.068-.041.068.033v-.066l-.013-.007.013-.007v-8.018l6.871 4.009-.015-.033v.066l.012.008-.012.006v8.043l6.856 4.13h0m0 7.97v-8.026l7.154-4.012v-.118l-.067.033.067-.039v-7.977l-.02-.01.02-.012v-.062l-.01.03 6.865-4.006v8.008l.03.017-.03.016v.057l.066-.027-.066.039v8.063z"/><path fill="#0099C7" stroke="#FFF" stroke-width=".5" d="M15.893 14.093L2.114 22.229l6.891 3.929 6.93-3.953 7.002 3.953.004-.005 6.811-3.936z"/><path fill="#FF9019" d="M20.055 27.842l-4.101-2.368-4.102 2.368v1.395h10.172v4.478l-6.07 3.505-6.073-3.505 1.946-1.123 4.127 2.354 4.101-2.367v-1.395H9.883v-4.479l6.071-3.504 6.07 3.504h.001l-1.947 1.124-.023.013"/><g transform="translate(34.6 20.556)"><use fill="#000" xlink:href="#aya"/><use fill="#0099C7" xlink:href="#aya"/><use fill="#000" xlink:href="#ayb"/><use fill="#FF9019" xlink:href="#ayb"/></g></g></symbol><symbol viewBox="0 0 164 60" id="logo-tilda" xmlns="http://www.w3.org/2000/svg"><path d="M21.698 27.668v13.024h-2.429V26.754zm-9.703-1.215c0-3.33 1.815-5.146 3.943-5.146 2.129 0 2.43.307 4.846 1.515 2.416 1.209 3.03 1.515 4.244 1.515 1.215 0 1.816-.92 1.816-2.73h2.116c.306 3.632-1.816 5.147-3.944 5.147s-2.73-.307-4.846-1.515-2.729-1.515-3.943-1.515c-1.215 0-1.816.92-2.116 3.03l-2.116-.3z"/><path d="M20.784 48.568C10.41 48.568 2 40.158 2 29.784 2 19.41 10.41 11 20.784 11c10.374 0 18.784 8.41 18.784 18.784-.012 10.369-8.415 18.772-18.784 18.784zm0-36.341A17.568 17.568 0 0 0 8.36 42.219a17.57 17.57 0 0 0 29.993-12.423c-.007-9.7-7.869-17.563-17.57-17.57zm29.661 14.261v11.235h-1.396V26.488H46v-1.317h7.494v1.317zm5.51-.493a.962.962 0 1 1 .01 1.925.962.962 0 0 1-.01-1.925zm.678 3.918v7.81h-1.355v-7.81h1.355zM60.792 24v13.723h-1.355V24zm8.788 0h1.355v13.723H69.58V36.63a3.293 3.293 0 0 1-2.672 1.318c-1.976 0-3.802-1.393-3.802-4.14 0-2.748 1.807-4.084 3.802-4.084a3.229 3.229 0 0 1 2.672 1.298V24zm-5.08 9.808c0 1.675.94 2.936 2.558 2.936 1.619 0 2.597-1.374 2.597-2.917 0-2.013-1.392-2.898-2.597-2.898-1.317 0-2.559.979-2.559 2.88zm15.224-3.895h1.355v7.81h-1.355V36.63a3.295 3.295 0 0 1-2.673 1.318c-1.976 0-3.801-1.393-3.801-4.14 0-2.748 1.807-4.084 3.801-4.084a3.23 3.23 0 0 1 2.673 1.298v-1.11zm-5.081 3.895c0 1.675.94 2.936 2.559 2.936 1.618 0 2.597-1.374 2.597-2.917 0-2.013-1.393-2.898-2.597-2.898-1.336 0-2.56.979-2.56 2.88zm16.485-8.638c1.26 0 2.315.147 3.162.885a3.498 3.498 0 0 1 1.129 2.691c0 1.77-1.11 3.52-3.971 3.52h-1.205v5.457h-1.392V25.17h2.277zm-.885 5.778h1.13c1.656 0 2.653-.828 2.653-2.258 0-1.995-1.863-2.183-2.766-2.183h-1.017v4.441zm8.45 3.515c0 .546 0 1.186.377 1.675a1.88 1.88 0 0 0 2.747 0c.377-.489.377-1.129.377-1.675v-4.55h1.354v4.705c0 .96-.094 1.675-.715 2.352a3.406 3.406 0 0 1-4.78 0c-.62-.677-.715-1.393-.715-2.352v-4.705h1.355v4.55zm9.014 3.26h-1.354V24h1.354v7.004a3.365 3.365 0 0 1 2.673-1.28c2.446 0 3.801 2.033 3.801 4.14 0 2.109-1.374 4.085-3.745 4.085a3.317 3.317 0 0 1-2.729-1.318v1.092zm5.082-3.858c0-1.92-1.299-2.936-2.56-2.936-1.26 0-2.597 1.035-2.597 2.917 0 1.6 1.016 2.898 2.616 2.898s2.54-1.317 2.54-2.88zM117.851 24v13.723h-1.355V24zm3.481 1.995a.962.962 0 1 1-.959.963c.002-.53.43-.96.96-.963zm.678 3.918v7.81h-1.355v-7.81h1.355zm6.022 1.807a1.195 1.195 0 0 0-1.091-.79.859.859 0 0 0-.941.899c0 .564.376.752 1.26 1.129 1.13.47 1.657.828 1.958 1.204.289.355.437.804.414 1.261 0 1.637-1.186 2.56-2.691 2.56a2.796 2.796 0 0 1-2.73-1.995l1.168-.49c.15.414.602 1.28 1.58 1.28a1.208 1.208 0 0 0 1.28-1.242c0-.753-.527-.979-1.26-1.298-.942-.414-1.544-.716-1.902-1.13a1.697 1.697 0 0 1-.357-1.148c0-1.373.96-2.183 2.277-2.183a2.259 2.259 0 0 1 2.145 1.412l-1.11.53zm3.651-7.72h1.355v6.816a2.754 2.754 0 0 1 2.24-1.091 2.634 2.634 0 0 1 2.239 1.072c.395.584.451 1.224.451 2.09v4.836h-1.355v-4.799a2.29 2.29 0 0 0-.357-1.43 1.53 1.53 0 0 0-1.28-.565 1.708 1.708 0 0 0-1.374.602c-.526.621-.564 1.544-.564 2.108v4.084h-1.355V24zm9.767 1.995a.962.962 0 1 1 .01 1.925.962.962 0 0 1-.01-1.925zm.696 3.918v7.81h-1.355v-7.81h1.355zm2.785 0h1.355v.903a2.754 2.754 0 0 1 2.24-1.091 2.634 2.634 0 0 1 2.24 1.072c.395.584.451 1.224.451 2.09v4.836h-1.355v-4.799a2.291 2.291 0 0 0-.358-1.43 1.53 1.53 0 0 0-1.28-.565 1.708 1.708 0 0 0-1.373.602c-.527.621-.565 1.544-.565 2.108v4.084h-1.355v-7.81zm15.074 0h1.355v7.622c0 .846 0 2.05-.752 3.067a3.8 3.8 0 0 1-3.124 1.45 3.87 3.87 0 0 1-2.785-1.055 3.517 3.517 0 0 1-1.017-2.521h1.336a2.46 2.46 0 0 0 .603 1.618c.487.514 1.174.79 1.882.753a2.192 2.192 0 0 0 2.07-1.092c.332-.61.482-1.302.432-1.995v-1.129a3.293 3.293 0 0 1-2.672 1.318 3.742 3.742 0 0 1-2.672-1.054 4.237 4.237 0 0 1-1.13-3.087 4.102 4.102 0 0 1 1.13-3.03 3.85 3.85 0 0 1 2.672-1.053 3.249 3.249 0 0 1 2.672 1.298v-1.11zm-4.29 1.75a2.964 2.964 0 0 0-.79 2.145 3.009 3.009 0 0 0 .884 2.296 2.362 2.362 0 0 0 1.675.64 2.311 2.311 0 0 0 1.712-.658 3.17 3.17 0 0 0 .885-2.259 3.09 3.09 0 0 0-.828-2.202 2.51 2.51 0 0 0-1.77-.696 2.42 2.42 0 0 0-1.768.734z"/></symbol><symbol viewBox="0 0 126 60" id="logo-umi-cms" xmlns="http://www.w3.org/2000/svg"><defs><linearGradient id="baa" x1="49.942%" x2="49.942%" y1="102.878%" y2="-3.573%"><stop offset="0%" stop-color="#0E6AA5"/><stop offset="100%" stop-color="#009BDE"/></linearGradient></defs><g fill="none"><path fill="url(#baa)" d="M32.817 7.37c-9.346 0-11.18 2.828-15.498 6.068 0 0 .118-1.178-1.006-1.355-1.124-.235-1.36.825-1.36.825s-.355-.59-.533-1.178c-.65-2.593-3.786-5.362-7.098-8.662C4.009-.232.638.004.638.004L.342 1.182c-.77 2.357 0 2.946 0 3.653 0 .708.177 1.356.769 2.475.591 1.061.887 4.655 1.065 6.364.236 1.768 1.538 2.887 1.774 3.123.237.236-1.656 1.06-1.656 1.297v1.001c0 .118-.592.707-.77.884-.177.177-.177.884 0 3.771.237 2.829 5.029 5.775 6.39 6.07 1.3.294 2.425-2.299 3.253-2.593.769-.295 2.78-2.416 2.78-2.416s.592 5.48.592 3.418c0-2.063 1.242-2.593 1.242-2.593l.177-1.473s1.36 4.42 2.958 6.01C20.513 31.764 23.53 32 23.826 32c.295 0 2.307.118 4.081-4.302 1.775-4.42-1.005-5.48-.414-5.48.592 0 2.721-1.709 2.425-3.182-.295-1.473 1.124-4.478 2.485-5.833C33.763 11.848 34 8.194 34 8.076c-.06-.059-.355-.707-1.183-.707z" transform="translate(2 13)"/><path d="M41 23.368v12.99c0 3.224 1.75 5.158 5.62 5.158 3.96 0 5.619-1.934 5.619-5.159V23.368H48.83v12.529c0 2.026-.553 2.948-2.21 2.948-1.567 0-2.304-.922-2.304-2.948V23.368H41zm13.45 0v17.78h3.224V25.027l3.408 16.121h2.395l3.409-16.121v16.121h3.224v-17.78h-5.435L62.28 34.883l-2.395-11.515zm17.779 0h3.408v17.871h-3.408zm4.882 14.648h3.132v3.132h-3.132zm15.292-8.844v-.921c0-3.316-1.842-5.251-5.343-5.251-3.685 0-5.527 1.935-5.527 6.08v6.448c0 3.132 1.013 5.988 5.527 5.988 4.238 0 5.435-2.763 5.435-5.988v-.737h-3.5v.922c0 2.303-.645 3.132-2.027 3.132-1.474 0-2.027-.737-2.027-3.132V28.71c0-2.21.645-3.04 2.027-3.04 1.474 0 2.027.737 2.027 3.04v.369h3.408v.092zm2.027-5.804v17.78h3.132V25.027h.092l3.316 16.121h2.487l3.317-16.121h.092v16.121h3.132v-17.78h-5.435l-2.303 11.515-2.395-11.515zm28.188 5.62v-.553c0-3.593-1.934-5.435-5.25-5.435-3.04 0-5.251 1.658-5.251 4.606 0 1.935.92 3.408 2.671 4.606l3.04 1.935c1.29.829 1.842 1.473 1.842 2.671 0 1.105-.736 2.027-2.026 2.027-1.29 0-2.487-.645-2.487-3.132v-.645h-3.225v.645c0 3.684 1.935 5.895 5.712 5.895 3.593 0 5.527-1.842 5.527-5.066 0-2.672-1.105-3.777-3.04-5.067l-3.5-2.303c-.737-.46-1.106-.921-1.106-2.027 0-1.013.83-1.474 1.842-1.474 1.29 0 2.12.922 2.12 3.04v.185h3.131v.092z" fill="#008ACF"/></g></symbol><symbol viewBox="0 0 140 60" id="logo-virtuemart" xmlns="http://www.w3.org/2000/svg"><g fill="none" fill-rule="evenodd"><path fill="#5875AA" fill-rule="nonzero" d="M14.786 44.76h-2.555L2.456 23.2h5.109l6.042 14.36C22.891 17.92 43.965 9.6 63.319 7l.59.72c-12.674 2.44-24.414 6.4-33.65 14.12l-.294-.04-.344-.04h-.688l-.344.04-.344.08-.343.08-.295.12-.295.16-.295.16-.245.2-.246.2-.196.24-.197.24-.147.24-.098.28-.099.28-.049.28v.56l.05.28.098.28.098.28.049.04c-.246.28-.491.52-.737.8h-1.326v1.52c-3.734 4.56-6.828 10-9.186 16.64z"/><path fill="#5875AA" d="M81.691 35H70.638c.05 1 .492 1.8 1.278 2.32.786.56 1.817.84 3.144.84 1.62 0 2.898-.36 3.733-1.04l1.375 2.24c-1.277.84-3.144 1.24-5.698 1.24-2.358 0-4.225-.56-5.6-1.68-1.375-1.12-2.063-2.68-2.063-4.72 0-2 .737-3.6 2.26-4.8 1.522-1.24 3.29-1.84 5.403-1.84 2.26 0 4.028.56 5.404 1.64 1.375 1.08 2.014 2.48 2.014 4.16.098.4 0 .92-.197 1.64zM29.277 22.96c.59 0 1.08.16 1.474.52.393.32.638.72.638 1.2s-.196.88-.638 1.2c-.393.32-.884.48-1.474.48s-1.08-.16-1.474-.48c-.393-.32-.59-.72-.59-1.2s.197-.88.59-1.2c.393-.36.934-.52 1.474-.52zM27.41 40.4V30.24h-1.964v-2.4h5.65V40.4h-3.685zm12.33-10.16c-.835 0-1.572.08-2.21.72-.639.64-.983 1.36-.983 2.28v7.16h-3.635V27.84h3.586V29c1.032-.92 2.358-1.16 4.028-1.16.884 0 1.621-.12 2.21 0h.394v-2.56l3.586-1.08v3.64h4.224v2.36h-4.224v5.52c0 .92.196 1.52.54 1.92.344.36.933.56 1.818.56.884 0 1.67-.2 2.407-.56v2.72c-.836.24-2.014.36-3.586.36-1.523 0-2.702-.36-3.537-1.08-.835-.72-1.228-1.72-1.228-3.04v-6.4c-1.376 0-1.867.04-3.39.04zM62.484 40.4v-1.04c-.491.36-1.228.64-2.112.92-.884.24-1.72.36-2.456.36-3.586 0-5.355-1.56-5.355-4.64v-8.16h3.586v7.96c0 1.6.884 2.4 2.653 2.4.835 0 1.572-.16 2.26-.52.687-.36 1.178-.76 1.375-1.2v-8.64h3.586v12.6h-3.537v-.04zm8.302-7.6h7.565c-.246-1.84-1.474-2.76-3.734-2.76-2.063 0-3.34.92-3.831 2.76z"/><path fill="#3EB4F0" fill-rule="nonzero" d="M103.6 40.4h-3.635l-2.211-9.28-4.224 9.52h-1.327l-4.273-9.52-2.26 9.28h-3.635l4.225-17.2h2.014l4.568 11.6 4.47-11.6h1.965zm10.709-1.24c-.344.44-.885.8-1.72 1.08s-1.67.4-2.554.4c-1.67 0-2.947-.36-3.93-1-.933-.68-1.424-1.64-1.424-2.88 0-1.44.687-2.6 2.014-3.4 1.326-.84 3.242-1.24 5.698-1.24.442 0 .933.04 1.474.16 0-1.48-1.13-2.24-3.44-2.24-1.375 0-2.504.2-3.389.56l-.786-2.28c1.229-.48 2.702-.72 4.422-.72 2.357 0 4.077.44 5.157 1.32 1.081.88 1.621 2.52 1.621 4.96v2.68c0 1.68.393 2.72 1.229 3.16-.295.44-.639.68-.983.8-.393.08-.786.16-1.277.16-.54 0-.983-.16-1.376-.48-.343-.36-.589-.68-.736-1.04zm-.344-4.68c-.639-.12-1.08-.16-1.376-.16-2.849 0-4.273.76-4.273 2.28 0 1.12.786 1.68 2.407 1.68 2.161 0 3.242-.88 3.242-2.64v-1.16z"/><path fill="#3EB4F0" d="M126.442 30.2c-.835 0-1.572.16-2.21.8-.64.64-.983 1.36-.983 2.28v7.16h-3.586v-12.6h3.586V29c1.032-.92 2.358-1.24 4.028-1.24.884 0 1.621-.08 2.21.08h.688v-2.56l3.586-1.08v3.64h4.225v2.36h-4.225v5.52c0 .92.197 1.52.54 1.92.344.36.934.56 1.818.56s1.67-.2 2.407-.56v2.72c-.835.24-2.014.36-3.586.36-1.523 0-2.702-.36-3.537-1.08-.835-.72-1.228-1.72-1.228-3.04v-6.4h-3.733z"/></g></symbol><symbol viewBox="0 0 144 60" id="logo-webasyst" xmlns="http://www.w3.org/2000/svg"><g fill="none"><path fill="#333" d="M10.804 40.155l3.379-8.928c.062-.351.134-.708.217-1.07.083-.361.155-.718.217-1.069h.558l.434 2.108a286.28 286.28 0 0 0 1.798 4.48c.64 1.56 1.24 3.053 1.798 4.479h3.131l5.549-16.43h-3.968a212.295 212.295 0 0 1-1.147 4.108 210.208 210.208 0 0 0-1.147 4.107l-.465 2.759h-.465l-.62-2.728a240.683 240.683 0 0 1-1.643-4.123 240.683 240.683 0 0 0-1.643-4.123h-3.193l-2.945 7.998-.62 3.038h-.465l-.434-3.007-2.604-8.029H1.814l5.704 16.43h3.286zm26.164.31c1.385 0 2.681-.191 3.89-.573 1.21-.383 2.165-.843 2.868-1.38l-1.488-2.728c-.413.29-1.008.573-1.782.852-.776.28-1.649.419-2.62.419-1.612 0-2.774-.336-3.487-1.008-.713-.671-1.122-1.71-1.225-3.115h10.85a13.81 13.81 0 0 0 .264-1.612c.051-.517.077-.992.077-1.426 0-1.26-.201-2.32-.604-3.178-.404-.857-.936-1.54-1.597-2.046a6.236 6.236 0 0 0-2.263-1.085 10.376 10.376 0 0 0-2.573-.325c-2.666 0-4.733.729-6.2 2.186-1.467 1.456-2.201 3.6-2.201 6.432 0 2.666.651 4.764 1.953 6.293 1.302 1.53 3.348 2.294 6.138 2.294zm3.317-10.106h-7.006c.103-1.075.465-1.958 1.085-2.65.62-.693 1.57-1.039 2.852-1.039 1.137 0 1.953.33 2.449.992.496.661.703 1.56.62 2.697zm14.911 10.044c1.343 0 2.552-.202 3.627-.605 1.075-.402 1.984-.986 2.728-1.751.744-.765 1.317-1.705 1.72-2.821.404-1.116.605-2.387.605-3.813 0-2.645-.553-4.655-1.658-6.03-1.106-1.374-2.713-2.061-4.821-2.061-.93 0-1.782.16-2.557.48-.776.32-1.411.76-1.907 1.318h-.372V18.3h-4.34v21.049c.661.269 1.602.512 2.821.729 1.22.216 2.604.325 4.154.325zm.186-3.627c-.537 0-1.038-.026-1.503-.078a3.858 3.858 0 0 1-1.318-.387v-6.789c.29-.847.718-1.488 1.286-1.922.569-.434 1.318-.651 2.248-.651 1.095 0 1.922.388 2.48 1.163.558.774.837 1.906.837 3.394 0 3.513-1.343 5.27-4.03 5.27z"/><path fill="#1684CD" d="M71.409 40.248c1.302 0 2.366-.258 3.193-.775s1.509-1.137 2.046-1.86h.372l.713 2.418h3.534a11.946 11.946 0 0 1-.496-2.139 16.716 16.716 0 0 1-.155-2.294c0-1.157.041-2.253.124-3.286.083-1.033.124-2.077.124-3.131 0-.868-.098-1.659-.294-2.372a4.474 4.474 0 0 0-.977-1.829c-.455-.506-1.07-.893-1.844-1.162-.776-.269-1.731-.403-2.868-.403-1.447 0-2.847.134-4.2.403-1.354.269-2.496.61-3.426 1.023l1.147 3.286a12.973 12.973 0 0 1 2.496-.883c.94-.238 1.906-.357 2.898-.357 1.075 0 1.808.186 2.201.558.393.372.589.95.589 1.736 0 .31-.031.682-.093 1.116-.227-.041-.63-.108-1.209-.201a10.925 10.925 0 0 0-1.736-.14c-2.5 0-4.366.47-5.596 1.41-1.23.94-1.844 2.33-1.844 4.17 0 .682.13 1.312.388 1.891s.62 1.08 1.084 1.504a4.806 4.806 0 0 0 1.674.976c.651.227 1.37.341 2.155.341zm1.519-3.472c-.723 0-1.297-.186-1.72-.558-.424-.372-.636-.93-.636-1.674 0-.6.269-1.1.806-1.503.537-.403 1.364-.605 2.48-.605a9.72 9.72 0 0 1 1.472.124c.259.041.496.083.713.124.218.041.378.083.481.124v1.86c-.269.496-.692.971-1.271 1.426-.579.455-1.354.682-2.325.682z"/><path fill="#30B308" d="M90.226 40.465c2.253 0 3.942-.475 5.069-1.426 1.126-.95 1.689-2.294 1.689-4.03 0-.889-.17-1.627-.511-2.216a4.567 4.567 0 0 0-1.287-1.442 6.58 6.58 0 0 0-1.72-.883 35.276 35.276 0 0 0-1.814-.574 17.013 17.013 0 0 1-2-.697c-.547-.238-.821-.595-.821-1.07 0-.537.176-.915.527-1.132.351-.216.889-.325 1.612-.325.868 0 1.72.109 2.557.325.838.217 1.525.43 2.062.636l.899-3.286c-.661-.29-1.535-.542-2.62-.76a17.846 17.846 0 0 0-3.487-.325c-1.901 0-3.358.429-4.371 1.287-1.013.857-1.519 2.102-1.519 3.735 0 .95.17 1.736.511 2.356.341.62.775 1.121 1.302 1.504a6.97 6.97 0 0 0 1.737.914c.63.227 1.234.424 1.813.589.785.227 1.447.46 1.984.697.537.238.806.605.806 1.101 0 .62-.201 1.044-.605 1.271-.402.227-.966.341-1.689.341-.475 0-.945-.041-1.41-.124a14.64 14.64 0 0 1-2.605-.713c-.382-.145-.718-.29-1.007-.434l-1.085 3.41c.661.413 1.519.729 2.573.946 1.054.216 2.19.325 3.41.325z"/><path fill="#F86E00" d="M103.37 46.324c.806 0 1.504-.18 2.093-.543.588-.361 1.12-.883 1.596-1.565.475-.682.914-1.509 1.317-2.48.404-.971.832-2.067 1.287-3.286l5.394-14.725h-4.433l-2.759 9.021-.589 2.604h-.31l-.682-2.604-3.317-9.021h-5.239l7.44 16.368c-.145.537-.315.966-.511 1.287-.197.32-.409.568-.636.744-.227.175-.475.294-.744.356s-.548.093-.837.093c-.33 0-.651-.052-.961-.155l-.899 3.348c.351.186.77.325 1.255.418.486.093.998.14 1.535.14z"/><path fill="#EECD00" d="M121.97 40.465c2.253 0 3.942-.475 5.069-1.426 1.126-.95 1.689-2.294 1.689-4.03 0-.889-.17-1.627-.511-2.216a4.567 4.567 0 0 0-1.287-1.442 6.58 6.58 0 0 0-1.72-.883 35.276 35.276 0 0 0-1.814-.574 17.013 17.013 0 0 1-2-.697c-.547-.238-.821-.595-.821-1.07 0-.537.176-.915.527-1.132.351-.216.889-.325 1.612-.325.868 0 1.72.109 2.557.325.838.217 1.525.43 2.062.636l.899-3.286c-.661-.29-1.535-.542-2.62-.76a17.846 17.846 0 0 0-3.487-.325c-1.901 0-3.358.429-4.371 1.287-1.013.857-1.519 2.102-1.519 3.735 0 .95.17 1.736.511 2.356.341.62.775 1.121 1.302 1.504a6.97 6.97 0 0 0 1.737.914c.63.227 1.234.424 1.813.589.785.227 1.447.46 1.984.697.537.238.806.605.806 1.101 0 .62-.201 1.044-.605 1.271-.402.227-.966.341-1.689.341-.475 0-.945-.041-1.41-.124a14.64 14.64 0 0 1-2.605-.713c-.382-.145-.718-.29-1.007-.434l-1.085 3.41c.661.413 1.519.729 2.573.946 1.054.216 2.19.325 3.41.325z"/><path fill="#48D4FF" d="M137.222 40.496c.806 0 1.638-.103 2.496-.31a13.783 13.783 0 0 0 2.278-.744l-.899-3.255a5.582 5.582 0 0 1-1.054.357c-.33.072-.734.108-1.209.108-.765 0-1.276-.284-1.535-.852-.258-.569-.387-1.504-.387-2.806v-5.642h4.371v-3.627h-4.371v-3.379l-4.34 1.147v2.232h-2.48v3.627h2.48v8.122c0 1.757.372 3.033 1.116 3.829.744.795 1.922 1.193 3.534 1.193z"/></g></symbol><symbol viewBox="0 0 170 60" id="logo-woocommerce" xmlns="http://www.w3.org/2000/svg"><g fill="none" fill-rule="evenodd"><path fill="#945C87" d="M2.468 19.25c.772-1.845 2.7-3.167 4.71-3.167h45.55a5.24 5.24 0 0 1 3.608 1.35c1.102.99 1.735 2.478 1.708 3.965v17.46c-.028 2.616-2.313 4.985-4.93 5.04-5.535.028-11.07 0-16.606 0 .743 1.845 1.487 3.663 2.23 5.508-3.304-1.818-6.554-3.69-9.887-5.48-7.27-.056-14.568 0-21.866-.028-2.617-.083-4.902-2.424-4.93-5.04-.027-5.7 0-11.401-.027-17.075 0-.853.082-1.735.44-2.533"/><path fill="#FFF" d="M24.72 19.663c.827-.881 2.424-.606 3.057.413.33.523.358 1.24.083 1.79-1.157 2.313-1.652 4.875-2.093 7.38-.523 3.278-.964 6.61-.799 9.943.055.853-.358 1.872-1.266 2.093-.854.192-1.653-.386-2.204-.992-2.478-2.671-3.883-6.114-4.902-9.556a621.953 621.953 0 0 0-3.03 6.059c-.688 1.377-1.431 2.781-2.533 3.883-.468.468-1.267.881-1.873.413-.908-.799-1.129-2.066-1.514-3.14-1.46-5.04-2.286-10.245-3.14-15.422-.193-.854.165-1.9 1.02-2.23.688-.249 1.596-.304 2.175.22.413.358.523.936.606 1.46.606 4.02 1.294 8.013 2.285 11.952 1.653-3.14 3.305-6.28 4.958-9.447.248-.468.55-.936.991-1.211.606-.386 1.487-.358 2.01.192.414.441.579 1.074.689 1.653.496 2.588 1.157 5.177 2.12 7.628.414-3.718.937-7.49 2.286-10.988.303-.744.579-1.487 1.074-2.093m9.337 2.01c1.79-.22 3.717.386 4.93 1.735.99 1.13 1.541 2.589 1.734 4.049.303 2.506-.165 5.15-1.377 7.38-.688 1.267-1.57 2.506-2.836 3.25-1.846 1.13-4.324.992-6.114-.193-1.432-.991-2.231-2.644-2.561-4.296-.661-3.773.468-7.959 3.304-10.575a5.396 5.396 0 0 1 2.92-1.35m.358 3.856c-.854.275-1.405 1.074-1.873 1.79-1.157 1.873-1.487 4.324-.55 6.334.247.523.632 1.102 1.266 1.212.66.11 1.267-.276 1.735-.689 1.046-.908 1.57-2.258 1.845-3.607.275-1.515.138-3.195-.743-4.517-.359-.496-1.075-.716-1.68-.523m13.935-3.856c1.735-.22 3.635.33 4.847 1.625 1.101 1.184 1.68 2.754 1.845 4.351.248 2.424-.193 4.958-1.35 7.106-.688 1.294-1.597 2.561-2.919 3.332-1.762 1.074-4.13.964-5.893-.083-1.184-.716-1.983-1.927-2.451-3.222-1.24-3.938-.193-8.565 2.671-11.539.936-.826 2.066-1.432 3.25-1.57m.385 3.856c-.936.33-1.487 1.24-1.983 2.038-1.046 1.845-1.321 4.241-.358 6.196.248.551.717 1.074 1.35 1.102.688.027 1.294-.413 1.79-.881 1.074-1.047 1.542-2.534 1.708-3.994.165-1.35-.056-2.809-.854-3.965-.33-.469-1.047-.689-1.653-.496"/><path fill="#000" fill-rule="nonzero" d="M67.463 22.196a10.5 10.5 0 0 1 4.626.056v3.717c-1.239-.302-2.644-.578-3.828 0-1.432.717-2.23 2.341-2.23 3.884-.083 1.542.44 3.277 1.817 4.158 1.267.826 2.892.661 4.269.276v3.717c-1.845.524-3.856.469-5.646-.192-2.148-.799-3.855-2.672-4.516-4.875a10.311 10.311 0 0 1-.166-5.177c.634-2.727 2.947-4.958 5.674-5.564m11.18-.192c1.874-.22 3.911.082 5.426 1.267 1.46 1.129 2.176 2.974 2.451 4.736.248 1.956.193 3.994-.413 5.866-.523 1.598-1.597 3.085-3.14 3.829-1.57.743-3.414.798-5.094.413a5.714 5.714 0 0 1-3.69-2.782c-1.075-1.873-1.268-4.103-1.185-6.224.083-1.818.55-3.718 1.763-5.122.991-1.13 2.423-1.818 3.883-1.983m.578 3.552c-.799.193-1.267.992-1.46 1.735-.385 1.488-.33 3.03-.22 4.544.11.827.193 1.708.771 2.369.771.881 2.341.771 3.03-.138.468-.578.606-1.322.688-2.038.165-1.267.193-2.56 0-3.828-.137-.77-.358-1.57-.909-2.148-.495-.496-1.239-.66-1.9-.496m73.45-3.304c1.597-.414 3.277-.358 4.874-.028.027 1.24 0 2.479.027 3.745-1.211-.302-2.56-.578-3.745-.055-1.377.634-2.203 2.093-2.313 3.553-.166 1.652.275 3.525 1.735 4.49 1.267.88 2.919.715 4.323.302-.027 1.24.028 2.506-.027 3.745-1.955.496-4.104.441-5.949-.358-2.038-.88-3.635-2.754-4.213-4.902-.441-1.652-.496-3.415-.083-5.095.606-2.588 2.782-4.709 5.37-5.397m-63.7.11h5.316a303.051 303.051 0 0 1 1.79 8.647c.495-2.919 1.184-5.783 1.872-8.647h5.453c.716 5.205 1.405 10.41 2.093 15.587h-4.158c-.386-3.552-.716-7.132-1.13-10.685-.853 3.553-1.734 7.133-2.588 10.685h-2.837c-.909-3.552-1.79-7.132-2.726-10.713-.358 3.553-.716 7.133-1.074 10.713h-3.994c.661-5.177 1.322-10.382 1.983-15.587m19.058 0h5.315c.634 2.864 1.24 5.756 1.79 8.647.524-2.891 1.185-5.783 1.873-8.647h5.425c.716 5.205 1.405 10.41 2.093 15.587h-4.158c-.386-3.552-.744-7.132-1.13-10.685-.853 3.553-1.707 7.133-2.588 10.685h-2.837c-.908-3.58-1.817-7.132-2.726-10.713l-1.074 10.713h-3.993c.688-5.177 1.349-10.382 2.01-15.587m17.708.055c2.837-.055 5.701 0 8.538-.028v3.333c-1.432.027-2.865 0-4.297 0v2.864h3.718v3.222h-3.718v2.864h4.324v3.332h-8.537c-.028-5.205.027-10.382-.028-15.587m9.75-.055c1.79 0 3.552-.028 5.342 0 1.68.055 3.47.468 4.71 1.652 1.129 1.047 1.514 2.782 1.074 4.241-.358 1.185-1.24 2.148-2.341 2.672a785.12 785.12 0 0 0 3.36 7.022h-4.434c-1.157-2.396-2.286-4.792-3.47-7.16-.028 2.396 0 4.792 0 7.16h-4.214c-.028-5.177-.028-10.382-.028-15.587m4.214 3.002v3.717c.771-.055 1.597-.082 2.23-.55.744-.551.662-1.68.194-2.396-.579-.689-1.598-.689-2.424-.771m19.058-2.975h8.51v3.333h-4.324v2.864h3.718v3.222h-3.718v2.864h4.351v3.332h-8.537c-.028-5.232 0-10.437 0-15.615"/></g></symbol><symbol viewBox="0 0 92 16" id="name" xmlns="http://www.w3.org/2000/svg"><defs><path d="M9 9l5.992 3.424A2 2 0 0 1 16 14.161v.339a1.5 1.5 0 0 1-1.5 1.5h-13A1.5 1.5 0 0 1 0 14.5v-.34a2 2 0 0 1 1.008-1.736L7 9h2zm-.2 1H7.2l-5.533 3.057A1 1 0 0 0 2 15h12a1 1 0 0 0 .331-1.944L8.8 10zM8 0c2.21 0 4 1.79 4 4s-1.79 4-4 4-4-1.79-4-4 1.79-4 4-4zm0 1a3 3 0 1 0 0 6 3 3 0 0 0 0-6z" id="bea"/></defs><g fill="none" fill-rule="evenodd"><text transform="translate(32 -2)" fill="#000" fill-opacity=".6" font-family="Helvetica" font-size="13"><tspan x="0" y="13">Ваше имя</tspan></text><path d="M9 9l5.992 3.424A2 2 0 0 1 16 14.161v.339a1.5 1.5 0 0 1-1.5 1.5h-13A1.5 1.5 0 0 1 0 14.5v-.34a2 2 0 0 1 1.008-1.736L7 9h2zm-.2 1H7.2l-5.533 3.057A1 1 0 0 0 2 15h12a1 1 0 0 0 .331-1.944L8.8 10zM8 0c2.21 0 4 1.79 4 4s-1.79 4-4 4-4-1.79-4-4 1.79-4 4-4zm0 1a3 3 0 1 0 0 6 3 3 0 0 0 0-6z"/><mask id="beb" fill="#fff"><use xlink:href="#bea"/></mask><g mask="url(#beb)" fill="#B063F5" fill-rule="nonzero"><path d="M-16-11h48v38h-48z"/></g></g></symbol><symbol viewBox="0 0 20 26" id="phone" xmlns="http://www.w3.org/2000/svg"><path d="M16 0c2.21 0 4 1.787 4 4.006v17.988A4.003 4.003 0 0 1 16 26H4c-2.21 0-4-1.787-4-4.006V4.006A4.003 4.003 0 0 1 4 0h12zm-6 21.5a1.5 1.5 0 1 0 .001 3.001A1.5 1.5 0 0 0 10 21.5zM16.006 2H3.994C2.894 2 2 2.893 2 3.995V20h16V3.995A1.995 1.995 0 0 0 16.006 2z" fill="#AF53FF"/></symbol><symbol viewBox="0 0 26 20" id="purse" xmlns="http://www.w3.org/2000/svg"><path d="M21.994 0A4.003 4.003 0 0 1 26 4v12c0 2.21-1.787 4-4.006 4H4.006A4.003 4.003 0 0 1 0 16V4c0-2.21 1.787-4 4.006-4h17.988zm.015 2H3.99C2.89 2 2 2.893 2 3.994v12.012C2 17.106 2.891 18 3.991 18h18.018A1.992 1.992 0 0 0 24 16.006V14h-5.998a4 4 0 0 1 0-8H24V3.994c0-1.05-.812-1.912-1.843-1.989L22.01 2h-.001zM18 8a2 2 0 1 0-.001 3.999A2 2 0 0 0 18 8z" fill="#0A79FA"/></symbol><symbol viewBox="0 0 38 48" id="security" xmlns="http://www.w3.org/2000/svg"><g fill="none" fill-rule="evenodd" transform="translate(2 2)"><path stroke="#F20C92" stroke-width="2" d="M33 7.086L17 1.068 1 7.086v21.922c.35 1.418 2.303 4.332 4.41 6.249 3.036 2.759 6.533 4.935 11.587 7.61 3.204-1.715 4.905-2.69 7.124-4.173 1.703-1.138 3.205-2.283 4.478-3.438 2.098-1.903 4.05-4.827 4.401-6.248V7.086z"/><rect width="2" height="15" x="6" y="13" fill="#F20C92" rx=".75"/></g></symbol><symbol viewBox="0 0 126 92" id="settings" xmlns="http://www.w3.org/2000/svg"><g fill="none" fill-opacity="0" fill-rule="evenodd" stroke="#0A79FA" stroke-width="2"><path d="M31.667 8v6.299l-.77.182a21.953 21.953 0 0 0-6.503 2.695l-.674.416-4.455-4.455a3 3 0 0 0-4.243 0l-1.885 1.885a3 3 0 0 0 0 4.243l4.455 4.455-.416.674a21.98 21.98 0 0 0-2.695 6.503l-.182.77H8a3 3 0 0 0-3 3v2.666a3 3 0 0 0 3 3h6.299l.182.77a21.953 21.953 0 0 0 2.695 6.503l.416.674-4.455 4.455a3 3 0 0 0 0 4.243l1.885 1.885a3 3 0 0 0 4.243 0l4.455-4.455.674.416a21.98 21.98 0 0 0 6.503 2.695l.77.182V64a3 3 0 0 0 3 3h2.666a3 3 0 0 0 3-3v-6.299l.77-.182a21.953 21.953 0 0 0 6.503-2.695l.674-.416 4.455 4.455a3 3 0 0 0 4.243 0l1.885-1.885a3 3 0 0 0 0-4.243l-4.455-4.455.416-.674a21.98 21.98 0 0 0 2.695-6.503l.182-.77H64a3 3 0 0 0 3-3v-2.666a3 3 0 0 0-3-3h-6.299l-.182-.77a21.953 21.953 0 0 0-2.695-6.503l-.416-.674 4.455-4.455a3 3 0 0 0 0-4.243l-1.885-1.885a3 3 0 0 0-4.243 0l-4.455 4.455-.674-.416a21.98 21.98 0 0 0-6.503-2.695l-.77-.182V8a3 3 0 0 0-3-3h-2.666a3 3 0 0 0-3 3zM36 49.444c-7.425 0-13.444-6.019-13.444-13.444 0-7.425 6.019-13.444 13.444-13.444 7.425 0 13.444 6.019 13.444 13.444 0 7.425-6.019 13.444-13.444 13.444z"/><path d="M95.526 28.57l-1.944 5.983-.788-.065a21.953 21.953 0 0 0-7.008.554l-.769.187-2.857-5.607a2.993 2.993 0 0 0-4.027-1.308l-2.373 1.208a2.995 2.995 0 0 0-1.309 4.028l2.857 5.607-.603.512a21.952 21.952 0 0 0-4.567 5.344l-.411.676-5.983-1.944a2.995 2.995 0 0 0-3.773 1.923l-.823 2.532a2.996 2.996 0 0 0 1.922 3.774l5.983 1.944-.065.788a21.953 21.953 0 0 0 .554 7.008l.187.769-5.607 2.857a2.993 2.993 0 0 0-1.308 4.027l1.208 2.373a2.995 2.995 0 0 0 4.028 1.309l5.607-2.857.512.603a21.952 21.952 0 0 0 5.344 4.567l.676.411-1.944 5.983a2.995 2.995 0 0 0 1.923 3.773l2.532.823a2.996 2.996 0 0 0 3.774-1.922l1.944-5.983.788.065c2.358.194 4.721.004 7.008-.554l.769-.187 2.857 5.607a2.993 2.993 0 0 0 4.027 1.308l2.373-1.208a2.995 2.995 0 0 0 1.309-4.028l-2.857-5.607.603-.512a21.952 21.952 0 0 0 4.567-5.344l.411-.676 5.983 1.944a2.995 2.995 0 0 0 3.773-1.923l.823-2.532a2.996 2.996 0 0 0-1.922-3.774l-5.983-1.944.065-.788a21.953 21.953 0 0 0-.554-7.008l-.187-.769 5.607-2.857a2.993 2.993 0 0 0 1.308-4.027l-1.208-2.373a2.995 2.995 0 0 0-4.028-1.309l-5.607 2.857-.512-.603a21.952 21.952 0 0 0-5.344-4.567l-.676-.411 1.944-5.983a2.995 2.995 0 0 0-1.923-3.773l-2.532-.823a2.996 2.996 0 0 0-3.774 1.922zm-8.675 40.7c-7.053-2.291-10.913-9.867-8.621-16.92 2.291-7.052 9.867-10.912 16.92-8.62 7.052 2.291 10.912 9.867 8.62 16.92-2.291 7.052-9.867 10.912-16.92 8.62z"/></g></symbol><symbol viewBox="0 0 116 116" id="test" xmlns="http://www.w3.org/2000/svg"><g transform="translate(2 2)" fill="none" fill-rule="evenodd"><circle stroke="var(--icon-color, #50BD5C)" stroke-width="2" cx="56" cy="56" r="55"/><path d="M56 104v-2c25.07 0 45.457-20.056 45.99-45h2c-.533 26.049-21.815 47-47.99 47zm0-96v2c-25.405 0-46 20.595-46 46 0 .334.004.668.01 1.001h-2A48.94 48.94 0 0 1 8 56C8 29.49 29.49 8 56 8z" fill="var(--icon-color, #50BD5C)"/><path d="M30.39 68V48.92h7.38V47H20.79v1.92h7.38V68h2.22zm25.02 0v-1.92H42.78v-7.8h10.86v-1.89H42.78v-7.47h12.18V47h-14.4v21h14.85zm10.26.18c1.72 0 3.17-.255 4.35-.765 1.18-.51 2.055-1.2 2.625-2.07a5.17 5.17 0 0 0 .855-2.895c0-1.28-.33-2.295-.99-3.045a6.13 6.13 0 0 0-2.415-1.68c-.95-.37-2.195-.745-3.735-1.125-1.3-.32-2.335-.615-3.105-.885s-1.41-.66-1.92-1.17c-.51-.51-.765-1.185-.765-2.025 0-1.12.465-2.035 1.395-2.745.93-.71 2.315-1.065 4.155-1.065.96 0 1.94.145 2.94.435 1 .29 1.94.725 2.82 1.305l.75-1.77c-.84-.58-1.835-1.035-2.985-1.365a12.718 12.718 0 0 0-3.525-.495c-1.72 0-3.16.26-4.32.78-1.16.52-2.02 1.215-2.58 2.085-.56.87-.84 1.835-.84 2.895 0 1.3.335 2.33 1.005 3.09a6.206 6.206 0 0 0 2.415 1.695c.94.37 2.2.755 3.78 1.155 1.32.32 2.35.615 3.09.885.74.27 1.365.655 1.875 1.155s.765 1.17.765 2.01c0 1.1-.47 1.995-1.41 2.685s-2.35 1.035-4.23 1.035c-1.34 0-2.64-.235-3.9-.705-1.26-.47-2.27-1.085-3.03-1.845l-.87 1.71c.78.82 1.885 1.48 3.315 1.98s2.925.75 4.485.75zM83.58 68V48.92h7.38V47H73.98v1.92h7.38V68h2.22z" fill="var(--icon-color, #50BD5C)" fill-rule="nonzero"/></g></symbol><symbol viewBox="0 0 8 13" id="toggle-arrow" xmlns="http://www.w3.org/2000/svg"><path d="M6.032 6.432L.728 1.129a.5.5 0 1 1 .708-.707l6.01 6.01-6.01 6.01a.5.5 0 0 1-.708-.707l5.304-5.303z" fill="#AEAEAE"/></symbol></svg>