<svg width="52" height="52" viewBox="0 0 52 52" xmlns="http://www.w3.org/2000/svg">
    <g fill="var(--icon-color, #F20C92)" fill-rule="evenodd">
        <path d="M26 2c13.255 0 24 10.745 24 24S39.255 50 26 50 2 39.255 2 26 12.745 2 26 2zm0 2C13.85 4 4 13.85 4 26s9.85 22 22 22 22-9.85 22-22S38.15 4 26 4z"/>
        <path d="M16.34 30.644c.762 0 1.408-.125 1.937-.375.529-.25.925-.586 1.187-1.01.263-.423.394-.893.394-1.409 0-.686-.216-1.257-.648-1.715-.431-.457-1.058-.736-1.88-.838l2.16-2.565v-1.105h-6.058v1.384h4.038l-2.019 2.4v1.13h.813c.652 0 1.137.117 1.454.35.318.233.476.557.476.972 0 .415-.167.743-.501.984-.335.241-.794.362-1.378.362-.491 0-.968-.078-1.43-.235a3.596 3.596 0 0 1-1.174-.641L13 29.615c.415.322.917.574 1.505.756.588.182 1.2.273 1.835.273zm9.305-.127c.948 0 1.79-.184 2.527-.552a4.089 4.089 0 0 0 1.715-1.563c.406-.673.61-1.45.61-2.33 0-.88-.204-1.657-.61-2.33a4.089 4.089 0 0 0-1.715-1.563c-.736-.368-1.579-.552-2.527-.552h-3.886v8.89h3.886zm-.076-1.397h-2.16v-6.096h2.16c.652 0 1.225.125 1.72.375.496.25.877.605 1.144 1.066.266.462.4.997.4 1.607s-.134 1.145-.4 1.607a2.68 2.68 0 0 1-1.143 1.066c-.496.25-1.07.375-1.721.375zm9.622 1.524c.779 0 1.44-.119 1.981-.356.542-.237.946-.554 1.213-.952.267-.398.4-.843.4-1.334 0-.575-.15-1.033-.45-1.371-.301-.339-.663-.59-1.087-.756a12.028 12.028 0 0 0-1.625-.476 15.43 15.43 0 0 1-1.143-.318c-.28-.093-.51-.22-.692-.38a.792.792 0 0 1-.273-.623c0-.364.158-.656.476-.876.317-.22.802-.33 1.454-.33.398 0 .809.059 1.232.177.423.119.83.293 1.22.521l.52-1.283a4.423 4.423 0 0 0-1.359-.584 6.379 6.379 0 0 0-1.6-.203c-.78 0-1.437.119-1.975.356s-.94.556-1.207.958c-.266.403-.4.85-.4 1.34 0 .584.15 1.048.451 1.391.3.343.66.595 1.08.756.419.16.967.321 1.644.482.483.119.864.225 1.143.318.28.093.51.222.693.387a.812.812 0 0 1 .273.629c0 .347-.163.626-.49.838-.325.212-.819.317-1.479.317A4.872 4.872 0 0 1 33.597 29a4.502 4.502 0 0 1-1.34-.704l-.571 1.282c.372.322.878.58 1.518.775.639.195 1.301.292 1.987.292z" fill-rule="nonzero"/>
    </g>
</svg>
