<svg width="52" height="52" viewBox="0 0 52 52" xmlns="http://www.w3.org/2000/svg">
    <g fill="var(--icon-color, #AF53FF)" fill-rule="evenodd">
        <path d="M26 2c13.255 0 24 10.745 24 24S39.255 50 26 50 2 39.255 2 26 12.745 2 26 2zm0 2C13.85 4 4 13.85 4 26s9.85 22 22 22 22-9.85 22-22S38.15 4 26 4z"/>
        <path d="m16.202 30.49.876-2.057h4.445l.89 2.057h1.726l-4.013-8.89H18.5l-4 8.89h1.702zm4.775-3.353h-3.34l1.664-3.886 1.676 3.886zm6.13 3.353v-2.565h2.006c.77 0 1.442-.127 2.013-.381.572-.254 1.01-.62 1.315-1.099.305-.478.457-1.04.457-1.683 0-.652-.152-1.215-.457-1.689-.305-.474-.743-.838-1.315-1.092-.571-.254-1.242-.381-2.013-.381h-3.657v8.89h1.65zm1.93-3.962h-1.93v-3.531h1.93c.72 0 1.266.152 1.639.457.372.305.558.741.558 1.308 0 .568-.186 1.004-.558 1.308-.373.305-.92.458-1.639.458zm7.35 3.962V21.6h-1.652v8.89h1.651z" fill-rule="nonzero"/>
    </g>
</svg>
