<svg xmlns="http://www.w3.org/2000/svg" width="116" height="116" viewBox="0 0 116 116">
    <g fill="none" fill-rule="evenodd" transform="translate(2 2)">
        <circle cx="56" cy="56" r="55" fill="#FFF" fill-opacity="0" stroke="#AF53FF" stroke-width="2"/>
        <path fill="#FFF" fill-opacity="0" stroke="#AF53FF" stroke-width="3" d="M55.49 103l.5-.5c-.338 0-.675-.004-1.011-.01l-.49-.49v.476c-24.12-.765-43.66-19.92-44.933-43.975H10l-.466-.457c-.016-.357-.027-.715-.034-1.074l-.52.531-.48-.468c.007.31.017.62.03.927L8 58.5h.554c1.277 24.613 21.265 44.21 45.936 44.977V104l.51-.51c.33.007.659.01.99.01l-.5-.5zm2-93.476c24.822.786 44.735 21.026 44.997 45.977h-.508v1.5l1.5.032v-.042l.5.01v-1.5h-.492c-.262-25.503-20.623-46.19-45.997-46.978V8l-.51.51c-.33-.007-.66-.01-.99-.01l.5.5-.5.5c.338 0 .674.004 1.01.01l.49.49v-.476z"/>
        <path fill="#AF53FF" fill-rule="nonzero" d="M33.715 68l2.52-5.61h11.7l2.52 5.61h2.34l-9.6-21h-2.19l-9.6 21h2.31zm13.41-7.41h-10.08l5.04-11.28 5.04 11.28zM57.995 68v-6.63h5.64c2.68 0 4.78-.635 6.3-1.905 1.52-1.27 2.28-3.025 2.28-5.265 0-2.24-.76-4-2.28-5.28-1.52-1.28-3.62-1.92-6.3-1.92h-7.86v21h2.22zm0-8.58v-10.5h5.58c2.08 0 3.67.455 4.77 1.365 1.1.91 1.65 2.215 1.65 3.915 0 1.66-.55 2.945-1.65 3.855-1.1.91-2.69 1.365-4.77 1.365h-5.58zM78.735 68V47h-2.22v21h2.22z"/>
    </g>
</svg>
