<svg width="116" height="116" viewBox="0 0 116 116" xmlns="http://www.w3.org/2000/svg">
    <g transform="translate(2 2)" fill="none" fill-rule="evenodd">
        <circle stroke="var(--icon-color, #AF53FF)" stroke-width="2" fill="none" cx="56" cy="56" r="55"/>
        <path d="M56 104v-2c25.07 0 45.457-20.056 45.99-45h2c-.533 26.049-21.815 47-47.99 47zm0-96v2c-25.405 0-46 20.595-46 46 0 .334.004.668.01 1.001h-2A48.94 48.94 0 0 1 8 56C8 29.49 29.49 8 56 8z" fill="var(--icon-color, #AF53FF)"/>
        <path d="m28.51 68 2.52-5.61h11.7L45.25 68h2.34l-9.6-21H35.8l-9.6 21h2.31zm13.41-7.41H31.84l5.04-11.28 5.04 11.28zM51.884 68v-6.63h5.64c2.68 0 4.78-.635 6.3-1.905 1.52-1.27 2.28-3.025 2.28-5.265 0-2.24-.76-4-2.28-5.28-1.52-1.28-3.62-1.92-6.3-1.92h-7.86v21h2.22zm5.58-8.58h-5.58v-10.5h5.58c2.08 0 3.67.455 4.77 1.365 1.1.91 1.65 2.215 1.65 3.915 0 1.66-.55 2.945-1.65 3.855-1.1.91-2.69 1.365-4.77 1.365zM71.718 68v-6.63h5.64c2.68 0 4.78-.635 6.3-1.905 1.52-1.27 2.28-3.025 2.28-5.265 0-2.24-.76-4-2.28-5.28-1.52-1.28-3.62-1.92-6.3-1.92h-7.86v21h2.22zm5.58-8.58h-5.58v-10.5h5.58c2.08 0 3.67.455 4.77 1.365 1.1.91 1.65 2.215 1.65 3.915 0 1.66-.55 2.945-1.65 3.855-1.1.91-2.69 1.365-4.77 1.365z" fill="var(--icon-color, #AF53FF)" fill-rule="nonzero"/>
    </g>
</svg>
