<svg width="68" height="45" xmlns="http://www.w3.org/2000/svg"><g fill-rule="evenodd"><path d="M62.154 2c1.337 0 1.822.14 2.311.4.49.262.873.646 1.134 1.135.262.489.401.974.401 2.31v33.31c0 1.336-.14 1.821-.4 2.31a2.726 2.726 0 0 1-1.135 1.134c-.489.262-.974.401-2.31.401H5.844c-1.336 0-1.821-.14-2.31-.4A2.726 2.726 0 0 1 2.4 41.464c-.262-.489-.401-.974-.401-2.31V5.844c0-1.336.14-1.821.4-2.31A2.726 2.726 0 0 1 3.536 2.4c.488-.261.973-.4 2.309-.4h56.31zm-.077 2H5.923c-.669 0-.911.07-1.156.2a1.371 1.371 0 0 0-.567.567c-.13.245-.2.487-.2 1.156v33.154c0 .669.07.911.2 1.156.131.244.323.436.567.567.245.13.487.2 1.156.2h56.154c.669 0 .911-.07 1.156-.2.244-.131.436-.323.567-.567.13-.245.2-.487.2-1.156V5.923c0-.669-.07-.911-.2-1.156a1.363 1.363 0 0 0-.567-.567c-.245-.13-.487-.2-1.156-.2z"/><path d="m48.734 18.816 2.547 8.194h.038l2.546-8.194h2.183l-3.772 10.596c-.861 2.441-1.857 3.226-3.943 3.226-.173 0-.69-.02-.843-.048v-1.675c.153.038.498.038.67.038.957 0 1.474-.402 1.79-1.435 0-.02.182-.613.182-.623l-3.637-10.079h2.24zm-7.115-.182c2.44 0 4 1.292 4 3.312v6.94h-1.98V27.23h-.048c-.584 1.12-1.858 1.828-3.178 1.828-1.972 0-3.35-1.225-3.35-3.034 0-1.762 1.349-2.843 3.742-2.977l2.757-.163v-.775c0-1.12-.757-1.79-2.02-1.79-1.197 0-1.943.574-2.125 1.474h-1.953c.115-1.819 1.666-3.159 4.155-3.159zm-20.644-.998.244.004c.478.037 1.859.184 2.742 1.49-.074.056-1.638.958-1.62 2.855.019 2.264 1.988 3.02 2.006 3.038-.018.056-.312 1.068-1.03 2.117-.626.921-1.27 1.824-2.3 1.842-.994.018-1.326-.59-2.466-.59-1.141 0-1.51.572-2.448.608-.994.037-1.748-.976-2.374-1.896-1.288-1.86-2.263-5.248-.938-7.532.644-1.141 1.822-1.859 3.091-1.878.975-.017 1.877.645 2.466.645.51 0 1.366-.58 2.388-.687l.239-.016zm10.98-2.563c2.68 0 4.547 1.848 4.547 4.537 0 2.7-1.905 4.557-4.614 4.557h-2.967v4.719h-2.144V15.073h5.179zm11.607 9.247-2.48.153c-1.234.086-1.933.632-1.933 1.493 0 .88.727 1.455 1.838 1.455 1.445 0 2.575-.995 2.575-2.306v-.795zM31.39 16.883h-2.47v5.484h2.46c1.867 0 2.93-1.005 2.93-2.747s-1.063-2.737-2.92-2.737zM21.228 14.02c.093.887-.258 1.755-.774 2.401-.536.628-1.384 1.126-2.233 1.053-.11-.85.314-1.754.794-2.308.534-.647 1.457-1.108 2.213-1.146z" fill-rule="nonzero"/></g></svg>

