<svg xmlns="http://www.w3.org/2000/svg" width="62" height="62" viewBox="0 0 62 62">
    <g fill="none" fill-rule="evenodd">
        <g>
            <g>
                <g>
                    <g>
                        <g>
                            <g>
                                <g>
                                    <path fill="#FFF" fill-opacity="0" d="M0 0H62V62H0z" transform="translate(-465 -729) translate(405 555) translate(40 40) translate(0 120) translate(20 14)"/>
                                    <path fill="#0A79FA" d="M31 9c12.703 0 23 10.297 23 23S43.703 55 31 55 8 44.703 8 32 18.297 9 31 9zm0 2c-11.598 0-21 9.402-21 21s9.402 21 21 21 21-9.402 21-21-9.402-21-21-21zm10.139 9.132l-.53 2.846-5.32 6.311c.457.768.711 1.695.711 2.729C36 34.92 33.942 37 31.018 37c-.7 0-1.353-.12-1.941-.34l-2.214 2.626c-.497.59-1.377.667-1.968.172l-.008-.006c-.592-.495-.671-1.376-.176-1.968l.004-.005 2.145-2.545c-.55-.802-.86-1.798-.86-2.916C26 29.078 28.094 27 31.018 27c.792 0 1.521.153 2.163.434l5.273-6.256 2.685-1.046zM31.01 29C29.256 29 28 30.247 28 32.01c0 1.743 1.256 2.99 3.01 2.99 1.755 0 2.99-1.247 2.99-2.99 0-1.763-1.235-3.01-2.99-3.01zM36 4c.552 0 1 .448 1 1s-.448 1-1 1h-4v3h-2V6h-4c-.552 0-1-.448-1-1s.448-1 1-1h10z" transform="translate(-465 -729) translate(405 555) translate(40 40) translate(0 120) translate(20 14)"/>
                                </g>
                            </g>
                        </g>
                    </g>
                </g>
            </g>
        </g>
    </g>
</svg>
