<svg width="48" height="53" viewBox="0 0 48 53" xmlns="http://www.w3.org/2000/svg">
    <path d="M24 7c12.15 0 22 9.85 22 22s-9.85 22-22 22S2 41.15 2 29 11.85 7 24 7zm0 2C12.954 9 4 17.954 4 29s8.954 20 20 20 20-8.954 20-20S35.046 9 24 9zm10.139 8.132-.53 2.846-5.32 6.311c.457.768.711 1.695.711 2.729C29 31.92 26.942 34 24.018 34c-.7 0-1.353-.12-1.941-.34l-2.214 2.626a1.4 1.4 0 0 1-1.968.172l-.008-.006a1.398 1.398 0 0 1-.172-1.973l2.145-2.545c-.55-.802-.86-1.798-.86-2.916C19 26.078 21.094 24 24.018 24c.792 0 1.521.153 2.163.434l5.273-6.256 2.685-1.046zM24.01 26C22.256 26 21 27.247 21 29.01c0 1.743 1.256 2.99 3.01 2.99 1.755 0 2.99-1.247 2.99-2.99 0-1.763-1.235-3.01-2.99-3.01zM29 2a1 1 0 0 1 0 2h-4v3h-2V4h-4a1 1 0 0 1 0-2h10z" fill="var(--icon-color, #F20C92)" fill-rule="evenodd"/>
</svg>
