<?xml version="1.0" encoding="UTF-8"?>
<svg width="28px" height="20px" viewBox="0 0 28 20" version="1.1" xmlns="http://www.w3.org/2000/svg" xmlns:xlink="http://www.w3.org/1999/xlink">
    <!-- Generator: Sketch 51.2 (57519) - http://www.bohemiancoding.com/sketch -->
    <title>Shape</title>
    <desc>Created with Sketch.</desc>
    <defs></defs>
    <g id="Page-1" stroke="none" stroke-width="1" fill="none" fill-rule="evenodd">
        <g id="img-payment-tab" transform="translate(-54.000000, -40.000000)" fill="#F20C92" fill-rule="nonzero">
            <g id="Group" transform="translate(54.000000, 37.000000)">
                <path d="M24.003,3 C26.211,3 28,4.792 28,7 L28,19 C28,21.21 26.206,23 24.003,23 L3.997,23 C1.789,23 0,21.208 0,19 L0,7 C0,4.79 1.794,3 3.997,3 L24.003,3 Z M26,11.999 L2,11.999 L2,19.006 C2,20.056 2.818,20.918 3.855,20.995 L4.005,21 L23.995,21 C25.103,21 26,20.107 26,19.006 L26,11.999 Z M22.9,17 C23.287,17 23.6,17.313 23.6,17.7 L23.6,18.3 C23.6,18.687 23.287,19 22.9,19 L19.3,19 C18.913,19 18.6,18.687 18.6,18.3 L18.6,17.7 C18.6,17.313 18.913,17 19.3,17 L22.9,17 Z M23.995,5 L4.005,5 C2.897,5 2,5.893 2,6.994 L2,9 L26,9 L26,6.994 C26,5.944 25.182,5.082 24.145,5.005 L23.995,5 Z" id="Shape"></path>
            </g>
        </g>
    </g>
</svg>