<svg width="112" height="112" viewBox="0 0 112 112" xmlns="http://www.w3.org/2000/svg">
    <g fill="none" fill-rule="evenodd">
        <circle stroke="#F20C92" stroke-width="2" fill="none" cx="56" cy="56" r="55"/>
        <path d="M55.99 104v-2C30.92 102 10.533 81.944 10 57H8c.533 26.049 21.815 47 47.99 47zm0-96v2c25.405 0 46 20.595 46 46 0 .334-.004.668-.01 1.001h2c.006-.333.01-.667.01-1.001 0-26.51-21.49-48-48-48zM78.154 40c1.337 0 1.822.14 2.311.4.49.262.873.646 1.134 1.135.262.489.401.974.401 2.31v25.31c0 1.336-.14 1.821-.4 2.31a2.726 2.726 0 0 1-1.135 1.134c-.489.262-.974.401-2.31.401h-43.31c-1.336 0-1.821-.14-2.31-.4a2.726 2.726 0 0 1-1.134-1.135c-.262-.489-.401-.974-.401-2.31v-25.31c0-1.336.14-1.821.4-2.31a2.726 2.726 0 0 1 1.135-1.134c.489-.262.974-.401 2.31-.401h43.31zM80 53H33v16.077c0 .669.07.911.2 1.156.131.244.323.436.567.567.223.118.443.187.984.198l.172.002h43.154c.669 0 .911-.07 1.156-.2.244-.131.436-.323.567-.567.118-.223.187-.443.198-.984l.002-.172V53zm-4 13a1 1 0 0 1 0 2h-6a1 1 0 0 1 0-2h6zm2.077-24H34.923c-.669 0-.911.07-1.156.2-.244.131-.436.323-.567.567-.118.223-.187.443-.198.984l-.002.172V48h47v-4.077c0-.669-.07-.911-.2-1.156a1.363 1.363 0 0 0-.567-.567c-.245-.13-.487-.2-1.156-.2z" fill="#F20C92"/>
    </g>
</svg>
