<svg xmlns="http://www.w3.org/2000/svg" xmlns:xlink="http://www.w3.org/1999/xlink" width="48" height="38" viewBox="0 0 48 38">
    <defs>
        <path id="mfbtxit5qa" d="M20.014 21.814l5.303-5.304c.196-.195.512-.195.707 0 .196.196.196.512 0 .708l-6.01 6.01-6.01-6.01c-.196-.196-.196-.512 0-.708.195-.195.511-.195.707 0l5.303 5.304z"/>
    </defs>
    <g fill="none" fill-rule="evenodd">
        <g>
            <g>
                <g>
                    <g>
                        <g>
                            <g>
                                <g fill="#FFF" fill-opacity="0">
                                    <path d="M0 0H48V38H0z" transform="translate(-2064 -558) translate(1220 294) translate(0 107) translate(40 62) translate(0 91) translate(804 4)"/>
                                </g>
                                <g transform="translate(-2064 -558) translate(1220 294) translate(0 107) translate(40 62) translate(0 91) translate(804 4) translate(4 .5)">
                                    <path d="M0 0.5H40V36.5H0z"/>
                                    <mask id="kk5th0l9ib" fill="#fff">
                                        <use xlink:href="#mfbtxit5qa"/>
                                    </mask>
                                    <use fill="#FFF" fill-opacity="0" xlink:href="#mfbtxit5qa"/>
                                    <g fill="#000" fill-opacity=".5" mask="url(#kk5th0l9ib)">
                                        <path d="M0 0H48V39H0z" transform="translate(-4 -1)"/>
                                    </g>
                                </g>
                            </g>
                        </g>
                    </g>
                </g>
            </g>
        </g>
    </g>
</svg>
