<svg xmlns="http://www.w3.org/2000/svg" xmlns:xlink="http://www.w3.org/1999/xlink" width="33" height="33" xmlns:v="https://vecta.io/nano"><defs><path d="M16.5 0C25.613 0 33 7.387 33 16.5S25.613 33 16.5 33 0 25.613 0 16.5 7.387 0 16.5 0zm0 2C8.492 2 2 8.492 2 16.5S8.492 31 16.5 31 31 24.508 31 16.5 24.508 2 16.5 2zm7.425 9.318a1.5 1.5 0 0 1 0 2.121l-9.546 9.546-5.304-5.303a1.5 1.5 0 1 1 2.122-2.121l3.182 3.182 7.424-7.425a1.5 1.5 0 0 1 2.122 0z" id="A"/></defs><g fill-rule="evenodd"><path d="M16.5 0C25.613 0 33 7.387 33 16.5S25.613 33 16.5 33 0 25.613 0 16.5 7.387 0 16.5 0zm0 2C8.492 2 2 8.492 2 16.5S8.492 31 16.5 31 31 24.508 31 16.5 24.508 2 16.5 2zm7.425 9.318a1.5 1.5 0 0 1 0 2.121l-9.546 9.546-5.304-5.303a1.5 1.5 0 1 1 2.122-2.121l3.182 3.182 7.424-7.425a1.5 1.5 0 0 1 2.122 0z" fill="#fff" fill-opacity="0" fill-rule="nonzero"/><mask id="B" fill="#fff"><use xlink:href="#A"/></mask><g mask="url(#B)" fill="#50bd5c" fill-rule="nonzero"><path d="M-2-2h37v37H-2z"/></g></g></svg>