<svg height="33" viewBox="0 0 33 33" width="33" xmlns="http://www.w3.org/2000/svg" xmlns:xlink="http://www.w3.org/1999/xlink"><mask id="a" fill="#fff"><path d="m16.5 0c9.113 0 16.5 7.387 16.5 16.5s-7.387 16.5-16.5 16.5-16.5-7.387-16.5-16.5 7.387-16.5 16.5-16.5zm0 2c-8.008 0-14.5 6.492-14.5 14.5s6.492 14.5 14.5 14.5 14.5-6.492 14.5-14.5-6.492-14.5-14.5-14.5zm7.425 9.318c.585.586.585 1.536 0 2.121l-9.546 9.546-5.304-5.303c-.585-.586-.585-1.536 0-2.121.586-.586 1.536-.586 2.122 0l3.182 3.182 7.424-7.425c.586-.586 1.536-.586 2.122 0z" fill="#fff" fill-rule="evenodd"/></mask><g fill="none" fill-rule="evenodd"><path d="m16.5 0c9.113 0 16.5 7.387 16.5 16.5s-7.387 16.5-16.5 16.5-16.5-7.387-16.5-16.5 7.387-16.5 16.5-16.5zm0 2c-8.008 0-14.5 6.492-14.5 14.5s6.492 14.5 14.5 14.5 14.5-6.492 14.5-14.5-6.492-14.5-14.5-14.5zm7.425 9.318c.585.586.585 1.536 0 2.121l-9.546 9.546-5.304-5.303c-.585-.586-.585-1.536 0-2.121.586-.586 1.536-.586 2.122 0l3.182 3.182 7.424-7.425c.586-.586 1.536-.586 2.122 0z"/><g fill="#50bd5c" fill-rule="nonzero" mask="url(#a)"><path d="m0 0h37v37h-37z" transform="translate(-2 -2)"/></g></g></svg>