<svg xmlns="http://www.w3.org/2000/svg" xmlns:xlink="http://www.w3.org/1999/xlink" width="37" height="37" viewBox="0 0 37 37">
    <defs>
        <path id="prefix__a" d="M16.5 0C25.613 0 33 7.387 33 16.5S25.613 33 16.5 33 0 25.613 0 16.5 7.387 0 16.5 0zm0 2C8.492 2 2 8.492 2 16.5S8.492 31 16.5 31 31 24.508 31 16.5 24.508 2 16.5 2zm7.425 9.318c.585.586.585 1.536 0 2.121l-9.546 9.546-5.304-5.303c-.585-.586-.585-1.536 0-2.121.586-.586 1.536-.586 2.122 0l3.182 3.182 7.424-7.425c.586-.586 1.536-.586 2.122 0z"/>
    </defs>
    <g fill="none" fill-rule="evenodd" transform="translate(2 2)">
        <mask id="prefix__b" fill="#fff">
            <use xlink:href="#prefix__a"/>
        </mask>
        <use fill="#FFF" fill-opacity="0" xlink:href="#prefix__a"/>
        <g fill="#50BD5C" mask="url(#prefix__b)">
            <path d="M0 0H37V37H0z" transform="translate(-2 -2)"/>
        </g>
    </g>
</svg>
