<svg xmlns="http://www.w3.org/2000/svg" width="116" height="116" viewBox="0 0 116 116">
    <g fill="none" fill-rule="evenodd" transform="translate(2 2)">
        <circle cx="56" cy="56" r="55" fill="#FFF" fill-opacity="0" stroke="#3EC3EE" stroke-width="2"/>
        <path fill="#FFF" fill-opacity="0" stroke="#4FC7ED" stroke-width="3" d="M55.49 103l.5-.5c-.338 0-.675-.004-1.011-.01l-.49-.49v.476c-24.12-.765-43.66-19.92-44.933-43.975H10l-.466-.457c-.016-.357-.027-.715-.034-1.074l-.52.531-.48-.468c.007.31.017.62.03.927L8 58.5h.554c1.277 24.613 21.265 44.21 45.936 44.977V104l.51-.51c.33.007.659.01.99.01l-.5-.5zm2-93.476c24.822.786 44.735 21.026 44.997 45.977h-.508v1.5l1.5.032v-.042l.5.01v-1.5h-.492c-.262-25.503-20.623-46.19-45.997-46.978V8l-.51.51c-.33-.007-.66-.01-.99-.01l.5.5-.5.5c.338 0 .674.004 1.01.01l.49.49v-.476z"/>
        <path fill="#3EC3EE" fill-rule="nonzero" d="M33.705 68.18c1.56 0 3.005-.265 4.335-.795s2.455-1.295 3.375-2.295l-1.41-1.41c-1.62 1.68-3.69 2.52-6.21 2.52-1.66 0-3.17-.38-4.53-1.14-1.36-.76-2.425-1.8-3.195-3.12s-1.155-2.8-1.155-4.44c0-1.64.385-3.12 1.155-4.44.77-1.32 1.835-2.36 3.195-3.12 1.36-.76 2.87-1.14 4.53-1.14 2.5 0 4.57.83 6.21 2.49l1.41-1.41c-.92-1-2.04-1.76-3.36-2.28-1.32-.52-2.76-.78-4.32-.78-2.08 0-3.96.46-5.64 1.38-1.68.92-2.995 2.195-3.945 3.825-.95 1.63-1.425 3.455-1.425 5.475 0 2.02.475 3.845 1.425 5.475.95 1.63 2.26 2.905 3.93 3.825 1.67.92 3.545 1.38 5.625 1.38zm14.58-.18V51.29l8.25 14.04h1.05l8.25-14.13V68h2.13V47h-1.83l-9.03 15.57L47.985 47h-1.83v21h2.13zm32.31.18c1.72 0 3.17-.255 4.35-.765 1.18-.51 2.055-1.2 2.625-2.07.57-.87.855-1.835.855-2.895 0-1.28-.33-2.295-.99-3.045-.66-.75-1.465-1.31-2.415-1.68-.95-.37-2.195-.745-3.735-1.125-1.3-.32-2.335-.615-3.105-.885s-1.41-.66-1.92-1.17c-.51-.51-.765-1.185-.765-2.025 0-1.12.465-2.035 1.395-2.745.93-.71 2.315-1.065 4.155-1.065.96 0 1.94.145 2.94.435 1 .29 1.94.725 2.82 1.305l.75-1.77c-.84-.58-1.835-1.035-2.985-1.365-1.15-.33-2.325-.495-3.525-.495-1.72 0-3.16.26-4.32.78-1.16.52-2.02 1.215-2.58 2.085-.56.87-.84 1.835-.84 2.895 0 1.3.335 2.33 1.005 3.09.67.76 1.475 1.325 2.415 1.695.94.37 2.2.755 3.78 1.155 1.32.32 2.35.615 3.09.885.74.27 1.365.655 1.875 1.155s.765 1.17.765 2.01c0 1.1-.47 1.995-1.41 2.685s-2.35 1.035-4.23 1.035c-1.34 0-2.64-.235-3.9-.705-1.26-.47-2.27-1.085-3.03-1.845l-.87 1.71c.78.82 1.885 1.48 3.315 1.98s2.925.75 4.485.75z"/>
    </g>
</svg>
