<svg xmlns="http://www.w3.org/2000/svg" width="116" height="116" viewBox="0 0 116 116">
    <g fill="none" fill-rule="evenodd" transform="translate(2 2)">
        <circle cx="56" cy="56" r="55" fill="#FFF" fill-opacity="0" stroke="#50BD5C" stroke-width="2"/>
        <path fill="#FFF" fill-opacity="0" stroke="#50BD5C" stroke-width="3" d="M55.49 103l.5-.5c-.338 0-.675-.004-1.011-.01l-.49-.49v.476c-24.12-.765-43.66-19.92-44.933-43.975H10l-.466-.457c-.016-.357-.027-.715-.034-1.074l-.52.531-.48-.468c.007.31.017.62.03.927L8 58.5h.554c1.277 24.613 21.265 44.21 45.936 44.977V104l.51-.51c.33.007.659.01.99.01l-.5-.5zm2-93.476c24.822.786 44.735 21.026 44.997 45.977h-.508v1.5l1.5.032v-.042l.5.01v-1.5h-.492c-.262-25.503-20.623-46.19-45.997-46.978V8l-.51.51c-.33-.007-.66-.01-.99-.01l.5.5-.5.5c.338 0 .674.004 1.01.01l.49.49v-.476z"/>
        <path fill="#50BD5C" fill-rule="nonzero" d="M34.755 67v-1.728H23.388v-7.02h9.774v-1.701h-9.774v-6.723H34.35V48.1H21.39V67h13.365zm4.437 0V51.961l7.425 12.636h.945l7.425-12.717V67h1.917V48.1h-1.647L47.13 62.113 38.922 48.1h-1.647V67h1.917zm20.746 0l2.268-5.049h10.53L75.004 67h2.106l-8.64-18.9h-1.971L57.859 67h2.079zm12.069-6.669h-9.072l4.536-10.152 4.536 10.152zM80.062 67V48.1h-1.998V67h1.998zm16.56 0v-1.728H86.04V48.1H84.04V67h12.582z"/>
    </g>
</svg>
