<?xml version="1.0" encoding="UTF-8"?>
<svg width="18px" height="14px" viewBox="0 0 18 14" version="1.1" xmlns="http://www.w3.org/2000/svg" xmlns:xlink="http://www.w3.org/1999/xlink">
    <!-- Generator: Sketch 51.2 (57519) - http://www.bohemiancoding.com/sketch -->
    <title>forward-arrow</title>
    <desc>Created with Sketch.</desc>
    <defs>
        <path d="M14.653,7.5 L9.703,2.55 C9.313,2.16 9.313,1.526 9.703,1.136 C10.093,0.746 10.727,0.746 11.117,1.136 L17.481,7.5 L11.117,13.864 C10.727,14.254 10.093,14.254 9.703,13.864 C9.313,13.474 9.313,12.84 9.703,12.449 L14.653,7.499 L14.653,7.5 Z M10,6.5 C10.552,6.5 11,6.948 11,7.5 C11,8.052 10.552,8.5 10,8.5 L1,8.5 C0.448,8.5 0,8.052 0,7.5 C0,6.948 0.448,6.5 1,6.5 L10,6.5 Z" id="path-1"></path>
    </defs>
    <g id="Page-1" stroke="none" stroke-width="1" fill="none" fill-rule="evenodd">
        <g id="forward-arrow" transform="translate(0.000000, -1.000000)">
            <g id="jafblz3hwa-link" transform="translate(0.000000, 0.500000)" fill="#FFFFFF" fill-opacity="0" fill-rule="nonzero">
                <path d="M14.653,7.5 L9.703,2.55 C9.313,2.16 9.313,1.526 9.703,1.136 C10.093,0.746 10.727,0.746 11.117,1.136 L17.481,7.5 L11.117,13.864 C10.727,14.254 10.093,14.254 9.703,13.864 C9.313,13.474 9.313,12.84 9.703,12.449 L14.653,7.499 L14.653,7.5 Z M10,6.5 C10.552,6.5 11,6.948 11,7.5 C11,8.052 10.552,8.5 10,8.5 L1,8.5 C0.448,8.5 0,8.052 0,7.5 C0,6.948 0.448,6.5 1,6.5 L10,6.5 Z" id="jafblz3hwa"></path>
            </g>
            <g id="Clipped" transform="translate(0.000000, 0.500000)">
                <mask id="mask-2" fill="white">
                    <use xlink:href="#path-1"></use>
                </mask>
                <g id="jafblz3hwa"></g>
                <g id="Group" mask="url(#mask-2)" fill="#268EFF" fill-rule="nonzero">
                    <g transform="translate(-15.000000, -12.000000)" id="Shape">
                        <polygon points="0 0 48 0 48 38 0 38"></polygon>
                    </g>
                </g>
            </g>
        </g>
    </g>
</svg>