<svg xmlns="http://www.w3.org/2000/svg" width="50" height="50" viewBox="0 0 50 50">
    <g fill="#4FC7ED" fill-rule="evenodd">
        <path d="M15 45h-2v-8H5v-2h8.585l9-9H9v-2h13.586l-9-9H5v-2h8V5h2v8.586l9 9V9h2v13.585l9-9V5h2v8h8v2h-8.587l-9 9H41v2H27.414l9 9H45v2h-8v8h-2v-8.586l-9-9V41h-2V27.413l-9 9V45z"/>
        <path d="M25 38.757l7.071 7.071-1.414 1.415L25 41.586l-5.657 5.657-1.414-1.415L25 38.758zM4.071 18l7.071 7.071-7.07 7.071-1.415-1.414 5.657-5.657-5.657-5.657L4.07 18zm42 0l1.414 1.414-5.657 5.657 5.657 5.657-1.414 1.414L39 25.072 46.071 18zM30.657 2.414l1.414 1.414L25 10.9l-7.071-7.07 1.414-1.415L25 8.071l5.657-5.657z"/>
    </g>
</svg>
