<svg xmlns="http://www.w3.org/2000/svg" width="116" height="116" viewBox="0 0 116 116">
    <g fill="none" fill-rule="evenodd" transform="translate(2 2)">
        <circle cx="56" cy="56" r="55" fill="#FFF" fill-opacity="0" stroke="#AF53FF" stroke-width="2"/>
        <path fill="#FFF" fill-opacity="0" stroke="#AF53FF" stroke-width="3" d="M57.5 102.476V102l-.49.49c-.335.006-.672.01-1.01.01l.5.5-.5.5c.33 0 .66-.003.99-.01l.51.51v-.523c24.671-.766 44.66-20.364 45.935-44.976h.555l-.53-.54c.013-.309.022-.618.029-.928l-.479.468-.52-.53c-.007.358-.019.716-.034 1.073l-.467.457h.445C101.16 82.557 81.62 101.71 57.5 102.476zm-3-92.952V10l.49-.49c.335-.006.672-.01 1.01-.01l-.5-.5.5-.5c-.33 0-.66.003-.99.01L54.5 8v.523C29.126 9.31 8.765 29.998 8.503 55.501H8.01v1.5l.5-.01.001.042 1.5-.032v-1.5h-.508c.262-24.95 20.175-45.19 44.997-45.977z"/>
        <path fill="#AF53FF" fill-rule="nonzero" d="M23.617 68v-9.69h13.14V68h2.19V47h-2.19v9.36h-13.14V47h-2.22v21h2.22zm27.064 0V48.92h7.38V47h-16.98v1.92h7.38V68h2.22zm16.114 0V48.92h7.38V47h-16.98v1.92h7.38V68h2.22zm11.734 0v-6.63h5.64c2.68 0 4.78-.635 6.3-1.905 1.52-1.27 2.28-3.025 2.28-5.265 0-2.24-.76-4-2.28-5.28-1.52-1.28-3.62-1.92-6.3-1.92h-7.86v21h2.22zm0-8.58v-10.5h5.58c2.08 0 3.67.455 4.77 1.365 1.1.91 1.65 2.215 1.65 3.915 0 1.66-.55 2.945-1.65 3.855-1.1.91-2.69 1.365-4.77 1.365h-5.58z"/>
    </g>
</svg>
