<svg xmlns="http://www.w3.org/2000/svg" width="20" height="20" viewBox="0 0 20 20">
    <g fill="none" fill-opacity="0" fill-rule="evenodd">
        <g>
            <g>
                <g>
                    <g>
                        <path fill="#D8D8D8" d="M0 0H20V20H0z" transform="translate(-419 -588) translate(0 580) translate(419 6) translate(0 2)"/>
                        <path fill="#FFF" stroke="#FF8C1A" d="M11.918 1.655c1.294-.481 2.66-.392 3.824.14 1.163.533 2.124 1.51 2.605 2.804.418 1.124.418 2.36 0 3.485h0L17.634 10l.713 1.916c.48 1.294.392 2.661-.141 3.824-.533 1.164-1.51 2.124-2.804 2.605-1.124.418-2.36.418-3.485 0h0l-1.914-.712-1.92.713c-1.294.482-2.66.393-3.824-.14-1.163-.533-2.123-1.51-2.604-2.804-.418-1.124-.418-2.36 0-3.485h0l.713-1.917-.713-1.917c-.481-1.294-.392-2.66.14-3.824.533-1.164 1.51-2.124 2.804-2.605 1.124-.418 2.36-.418 3.485 0h0L10 2.368zM7 11.5c-.414 0-.79.168-1.06.44-.272.27-.44.646-.44 1.06 0 .414.168.79.44 1.06.27.272.646.44 1.06.44.414 0 .79-.168 1.06-.44.272-.27.44-.646.44-1.06 0-.414-.168-.79-.44-1.06-.27-.272-.646-.44-1.06-.44zm6 0c-.414 0-.79.168-1.06.44-.272.27-.44.646-.44 1.06 0 .414.168.79.44 1.06.27.272.646.44 1.06.44.414 0 .79-.168 1.06-.44.272-.27.44-.646.44-1.06 0-.414-.168-.79-.44-1.06-.27-.272-.646-.44-1.06-.44zm-6-6c-.414 0-.79.168-1.06.44-.272.27-.44.646-.44 1.06 0 .414.168.79.44 1.06.27.272.646.44 1.06.44.414 0 .79-.168 1.06-.44.272-.27.44-.646.44-1.06 0-.414-.168-.79-.44-1.06-.27-.272-.646-.44-1.06-.44zm6 0c-.414 0-.79.168-1.06.44-.272.27-.44.646-.44 1.06 0 .414.168.79.44 1.06.27.272.646.44 1.06.44.414 0 .79-.168 1.06-.44.272-.27.44-.646.44-1.06 0-.414-.168-.79-.44-1.06-.27-.272-.646-.44-1.06-.44z" transform="translate(-419 -588) translate(0 580) translate(419 6) translate(0 2)"/>
                    </g>
                </g>
            </g>
        </g>
    </g>
</svg>
