<svg height="100" viewBox="0 0 386 100" width="386" xmlns="http://www.w3.org/2000/svg"><g fill="none"><rect fill="#000" height="100" rx="50" width="386"/><rect fill="#fff" height="99" rx="49.5" stroke="#d9d9d9" width="385" x=".5" y=".5"/><g transform="translate(54 37)"><path d="m145 0c2.21 0 4 1.787 4 4.006v17.988c0 2.213-1.792 4.006-4 4.006h-12c-2.21 0-4-1.787-4-4.006v-17.988c0-2.213 1.792-4.006 4-4.006zm-6 21.5c-.828 0-1.5.672-1.5 1.5s.672 1.5 1.5 1.5 1.5-.672 1.5-1.5-.672-1.5-1.5-1.5zm6.006-19.5h-12.012c-1.1 0-1.994.893-1.994 1.995v16.005h16v-16.005c0-1.102-.893-1.995-1.994-1.995z" fill="#af53ff"/><path d="m24.003 3c2.208 0 3.997 1.792 3.997 4v12c0 2.21-1.794 4-3.997 4h-20.006c-2.208 0-3.997-1.792-3.997-4v-12c0-2.21 1.794-4 3.997-4zm1.997 8.999h-24v7.007c0 1.05.818 1.912 1.855 1.989l.15.005h19.99c1.108 0 2.005-.893 2.005-1.994zm-3.1 5.001c.387 0 .7.313.7.7v.6c0 .387-.313.7-.7.7h-3.6c-.387 0-.7-.313-.7-.7v-.6c0-.387.313-.7.7-.7zm1.095-12h-19.99c-1.108 0-2.005.893-2.005 1.994v2.006h24v-2.006c0-1.05-.818-1.912-1.855-1.989z" fill="#f20c92"/><path d="m272.994 3c2.213 0 4.006 1.792 4.006 4v12c0 2.21-1.787 4-4.006 4h-17.988c-2.213 0-4.006-1.792-4.006-4v-12c0-2.21 1.787-4 4.006-4zm.015 2h-18.019c-1.1 0-1.99.893-1.99 1.994v12.012c0 1.1.891 1.994 1.991 1.994h18.018c1.101 0 1.991-.893 1.991-1.994v-2.006h-5.998c-2.21 0-4.002-1.795-4.002-4 0-2.21 1.792-4 4.002-4h5.998v-2.006c0-1.05-.812-1.912-1.843-1.989l-.147-.005zm-4.009 6c-1.105 0-2 .895-2 2s.895 2 2 2 2-.895 2-2-.895-2-2-2z" fill="#0a79fa"/></g></g></svg>