<svg height="130" viewBox="0 0 370 130" width="370" xmlns="http://www.w3.org/2000/svg" xmlns:xlink="http://www.w3.org/1999/xlink"><mask id="a" fill="#fff"><path d="m14 0c1.105 0 2 .895 2 2v10c0 1.105-.895 2-2 2h-12c-1.105 0-2-.895-2-2v-10c0-1.105.895-2 2-2zm.983 1.813-6.654 5.809c-.189.164-.47.164-.658 0l-6.654-5.809c-.011.06-.017.123-.017.187v10c0 .552.448 1 1 1h12c.552 0 1-.448 1-1v-10c0-.064-.006-.126-.017-.187z" fill="#fff" fill-rule="evenodd"/></mask><mask id="b" fill="#fff"><path d="m16.005 0c1.102 0 1.995.897 1.995 2.006v9.988c0 1.108-.893 2.006-1.995 2.006h-6.243l-3.712 3-3.788-3h-.267c-1.102 0-1.995-.897-1.995-2.006v-9.988c0-1.108.893-2.006 1.995-2.006zm-.006 1h-13.998c-.556 0-1.001.449-1.001 1.002v9.996c0 .546.448 1.002 1 1.002h.8l3.25 2.6 3.15-2.6h6.8c.555 0 1-.449 1-1.002v-9.996c0-.546-.448-1.002-1-1.002zm-10.699 4.8c.718 0 1.3.582 1.3 1.3s-.582 1.3-1.3 1.3-1.3-.582-1.3-1.3.582-1.3 1.3-1.3zm3.7 0c.718 0 1.3.582 1.3 1.3s-.582 1.3-1.3 1.3-1.3-.582-1.3-1.3.582-1.3 1.3-1.3zm3.7 0c.718 0 1.3.582 1.3 1.3s-.582 1.3-1.3 1.3-1.3-.582-1.3-1.3.582-1.3 1.3-1.3z" fill="#fff" fill-rule="evenodd"/></mask><mask id="c" fill="#fff"><path d="m9 9 5.992 3.424c.623.356 1.008 1.019 1.008 1.737v.339c0 .828-.672 1.5-1.5 1.5h-13c-.828 0-1.5-.672-1.5-1.5v-.34c0-.717.385-1.38 1.008-1.736l5.992-3.424zm-.2 1h-1.6l-5.533 3.057c-.389.137-.667.508-.667.943 0 .552.448 1 1 1h12c.552 0 1-.448 1-1 0-.436-.28-.807-.669-.944zm-.8-10c2.21 0 4 1.79 4 4s-1.79 4-4 4-4-1.79-4-4 1.79-4 4-4zm0 1c-1.657 0-3 1.343-3 3s1.343 3 3 3 3-1.343 3-3-1.343-3-3-3z" fill="#fff" fill-rule="evenodd"/></mask><g fill="none" fill-rule="evenodd" transform="translate(-8 -8)"><path d="m0 0h210v54h-210z"/><rect fill="#000" fill-opacity=".06" fill-rule="nonzero" height="38" rx="19" width="194" x="8" y="8"/><text fill="#000" fill-opacity=".6" font-family="Helvetica" font-size="13" transform="translate(56 17)"><tspan x="0" y="13">Email для чека</tspan></text><path d="m14 0c1.105 0 2 .895 2 2v10c0 1.105-.895 2-2 2h-12c-1.105 0-2-.895-2-2v-10c0-1.105.895-2 2-2zm.983 1.813-6.654 5.809c-.189.164-.47.164-.658 0l-6.654-5.809c-.011.06-.017.123-.017.187v10c0 .552.448 1 1 1h12c.552 0 1-.448 1-1v-10c0-.064-.006-.126-.017-.187z" fill="none" transform="translate(24 20)"/><g fill="#b063f5" fill-rule="nonzero" mask="url(#a)" transform="translate(24 20)"><path d="m0 0h48v38h-48z" transform="translate(-16 -12)"/></g><g transform="translate(176 46)"><path d="m0 0h210v54h-210z"/><rect fill="#000" fill-opacity=".06" fill-rule="nonzero" height="38" rx="19" width="194" x="8" y="8"/><text fill="#000" fill-opacity=".6" font-family="Helvetica" font-size="13" transform="translate(56 17)"><tspan x="0" y="13">Комментарий</tspan></text><g transform="translate(23 19)"><path d="m16.005 0c1.102 0 1.995.897 1.995 2.006v9.988c0 1.108-.893 2.006-1.995 2.006h-6.243l-3.712 3-3.788-3h-.267c-1.102 0-1.995-.897-1.995-2.006v-9.988c0-1.108.893-2.006 1.995-2.006zm-.006 1h-13.998c-.556 0-1.001.449-1.001 1.002v9.996c0 .546.448 1.002 1 1.002h.8l3.25 2.6 3.15-2.6h6.8c.555 0 1-.449 1-1.002v-9.996c0-.546-.448-1.002-1-1.002zm-10.699 4.8c.718 0 1.3.582 1.3 1.3s-.582 1.3-1.3 1.3-1.3-.582-1.3-1.3.582-1.3 1.3-1.3zm3.7 0c.718 0 1.3.582 1.3 1.3s-.582 1.3-1.3 1.3-1.3-.582-1.3-1.3.582-1.3 1.3-1.3zm3.7 0c.718 0 1.3.582 1.3 1.3s-.582 1.3-1.3 1.3-1.3-.582-1.3-1.3.582-1.3 1.3-1.3z" fill="none"/><g fill="#b063f5" fill-rule="nonzero" mask="url(#b)"><path d="m0 0h48v38h-48z" transform="translate(-15 -11)"/></g></g></g><g transform="translate(0 92)"><path d="m0 0h210v54h-210z"/><rect fill="#000" fill-opacity=".06" fill-rule="nonzero" height="38" rx="19" width="194" x="8" y="8"/><text fill="#000" fill-opacity=".6" font-family="Helvetica" font-size="13" transform="translate(56 17)"><tspan x="0" y="13">Ваше имя</tspan></text><g transform="translate(24 19)"><path d="m9 9 5.992 3.424c.623.356 1.008 1.019 1.008 1.737v.339c0 .828-.672 1.5-1.5 1.5h-13c-.828 0-1.5-.672-1.5-1.5v-.34c0-.717.385-1.38 1.008-1.736l5.992-3.424zm-.2 1h-1.6l-5.533 3.057c-.389.137-.667.508-.667.943 0 .552.448 1 1 1h12c.552 0 1-.448 1-1 0-.436-.28-.807-.669-.944zm-.8-10c2.21 0 4 1.79 4 4s-1.79 4-4 4-4-1.79-4-4 1.79-4 4-4zm0 1c-1.657 0-3 1.343-3 3s1.343 3 3 3 3-1.343 3-3-1.343-3-3-3z" fill="none"/><g fill="#b063f5" fill-rule="nonzero" mask="url(#c)"><path d="m0 0h48v38h-48z" transform="translate(-16 -11)"/></g></g></g></g></svg>