<?xml version="1.0" encoding="UTF-8"?>
<svg width="48px" height="38px" viewBox="0 0 48 38" version="1.1" xmlns="http://www.w3.org/2000/svg" xmlns:xlink="http://www.w3.org/1999/xlink">
    <!-- Generator: Sketch 63.1 (92452) - https://sketch.com -->
    <title>icon/invoice</title>
    <desc>Created with Sketch.</desc>
    <g id="icon/invoice" stroke="none" stroke-width="1" fill="none" fill-rule="evenodd">
        <g id="icon/input/-none" fill="#FFFFFF" fill-opacity="0">
            <rect id="Rectangle" x="0" y="0" width="48" height="38"></rect>
        </g>
        <path d="M30,11 C31.1045695,11 32,11.8954305 32,13 L32,25 C32,26.1045695 31.1045695,27 30,27 L18,27 C16.8954305,27 16,26.1045695 16,25 L16,13 C16,11.8954305 16.8954305,11 18,11 L30,11 Z M30,12 L18,12 C17.4477153,12 17,12.4477153 17,13 L17,13 L17,25 C17,25.5522847 17.4477153,26 18,26 L18,26 L30,26 C30.5522847,26 31,25.5522847 31,25 L31,25 L31,13 C31,12.4477153 30.5522847,12 30,12 L30,12 Z M24.5089948,21 C24.750039,21 24.9505149,21.1832562 24.9920892,21.4122514 L25,21.5 C25,21.7761424 24.7721195,22 24.5089948,22 L19.4910052,22 C19.2198305,22 19,21.7680664 19,21.5 C19,21.2238576 19.2278805,21 19.4910052,21 L24.5089948,21 Z M28.4953156,21 C28.7430751,21 28.9491363,21.1832562 28.9918689,21.4122514 L29,21.5 C29,21.7761424 28.785965,22 28.4953156,22 L27.5046844,22 C27.2259549,22 27,21.7680664 27,21.5 C27,21.2238576 27.214035,21 27.5046844,21 L28.4953156,21 Z M24.5089948,19 C24.750039,19 24.9505149,19.1832562 24.9920892,19.4122514 L25,19.5 C25,19.7761424 24.7721195,20 24.5089948,20 L19.4910052,20 C19.2198305,20 19,19.7680664 19,19.5 C19,19.2238576 19.2278805,19 19.4910052,19 L24.5089948,19 Z M28.4953156,19 C28.7430751,19 28.9491363,19.1832562 28.9918689,19.4122514 L29,19.5 C29,19.7761424 28.785965,20 28.4953156,20 L27.5046844,20 C27.2259549,20 27,19.7680664 27,19.5 C27,19.2238576 27.214035,19 27.5046844,19 L28.4953156,19 Z M27.4995642,15 C27.745238,15 27.9495644,15.1832562 27.9919373,15.4122514 L28,15.5 C28,15.7761424 27.7692032,16 27.4995642,16 L20.5004358,16 C20.2240528,16 20,15.7680664 20,15.5 C20,15.2238576 20.2307968,15 20.5004358,15 L27.4995642,15 Z" id="invoice" fill="#327EF9"></path>
    </g>
</svg>