<?xml version="1.0" encoding="UTF-8"?>
<svg width="48px" height="38px" viewBox="0 0 48 38" version="1.1" xmlns="http://www.w3.org/2000/svg" xmlns:xlink="http://www.w3.org/1999/xlink">
    <!-- Generator: Sketch 63.1 (92452) - https://sketch.com -->
    <title>icon/apple</title>
    <desc>Created with Sketch.</desc>
    <g id="icon/apple" stroke="none" stroke-width="1" fill="none" fill-rule="evenodd">
        <g id="icon/input/-none" fill="#FFFFFF" fill-opacity="0">
            <rect id="Rectangle" x="0" y="0" width="48" height="38"></rect>
        </g>
        <path d="M26.8682508,12.5848914 L27.1500464,12.5902749 C27.7389389,12.6372179 29.4375844,12.8240555 30.5247319,14.4810453 C30.4341258,14.5519868 28.5089808,15.6959153 28.5318555,18.100866 C28.5529178,20.7935727 30.6837616,21.8037509 30.9687795,21.9387494 L31,21.9543193 C30.9772554,22.0248354 30.6156252,23.3093753 29.7322326,24.6397022 C28.9621907,25.8078466 28.1692651,26.9520664 26.9009458,26.9754361 C25.6779094,26.998792 25.2699778,26.227822 23.8665996,26.227822 C22.4621894,26.227822 22.0093295,26.952071 20.8539526,26.998792 C19.6311135,27.0449488 18.7030708,25.7599881 17.9330199,24.5929812 C16.3473213,22.2341133 15.147016,17.9378975 16.777643,15.0416044 C17.5704295,13.593814 19.0200373,12.6835227 20.5823093,12.6598755 C21.7826146,12.6372179 22.8923811,13.4778577 23.6174901,13.4778577 C24.3421997,13.4778577 25.6324919,12.4971197 27.1500464,12.5902749 Z M27.161919,8 C27.2757319,9.1246695 26.8442031,10.2252572 26.2082868,11.0449364 C25.5494374,11.8416158 24.505428,12.4732968 23.4604539,12.3798872 C23.324197,11.3023641 23.8468568,10.1556936 24.4373781,9.45321445 C25.0950519,8.63289247 26.231027,8.04770126 27.161919,8 Z" id="Combined-Shape" fill="#327EF9"></path>
    </g>
</svg>