<svg width="48" height="38" viewBox="0 0 48 38" xmlns="http://www.w3.org/2000/svg" xmlns:xlink="http://www.w3.org/1999/xlink">
    <defs>
        <path d="M14 0a2 2 0 0 1 2 2v12a2 2 0 0 1-2 2H2a2 2 0 0 1-2-2V2a2 2 0 0 1 2-2h12zm0 1H2a1 1 0 0 0-1 1v12a1 1 0 0 0 1 1h12a1 1 0 0 0 1-1V2a1 1 0 0 0-1-1zm-5.491 9a.5.5 0 0 1 .483.412L9 10.5a.5.5 0 0 1-.491.5H3.491a.5.5 0 0 1 0-1h5.018zm3.986 0a.51.51 0 0 1 .497.412L13 10.5c0 .276-.214.5-.505.5h-.99a.508.508 0 0 1-.505-.5c0-.276.214-.5.505-.5h.99zM8.51 8a.5.5 0 0 1 .483.412L9 8.5a.5.5 0 0 1-.491.5H3.491a.5.5 0 0 1 0-1h5.018zm3.986 0a.51.51 0 0 1 .497.412L13 8.5c0 .276-.214.5-.505.5h-.99A.508.508 0 0 1 11 8.5c0-.276.214-.5.505-.5h.99zM11.5 4c.245 0 .45.183.492.412L12 4.5c0 .276-.23.5-.5.5h-7a.505.505 0 0 1-.5-.5c0-.276.23-.5.5-.5h7z" id="wsvjito4ka"/>
    </defs>
    <g fill="none" fill-rule="evenodd">
        <path fill="none" d="M0 0h48v38H0z" fill-opacity="0"/>
        <g transform="translate(16 11)">
            <mask id="1udko7bovb" fill="#fff">
                <use xlink:href="#wsvjito4ka"/>
            </mask>
            <use fill-opacity="0" fill="#FFF" xlink:href="#wsvjito4ka"/>
            <g mask="url(#1udko7bovb)" fill="#327EF9">
                <path d="M-16-11h48v38h-48z"/>
            </g>
        </g>
    </g>
</svg>
