<?xml version="1.0" encoding="UTF-8"?>
<svg width="48px" height="38px" viewBox="0 0 48 38" version="1.1" xmlns="http://www.w3.org/2000/svg" xmlns:xlink="http://www.w3.org/1999/xlink">
    <!-- Generator: Sketch 63.1 (92452) - https://sketch.com -->
    <title>icon/page</title>
    <desc>Created with Sketch.</desc>
    <g id="icon/page" stroke="none" stroke-width="1" fill="none" fill-rule="evenodd">
        <g id="icon/input/-none" fill="#FFFFFF" fill-opacity="0">
            <rect id="Rectangle" x="0" y="0" width="48" height="38"></rect>
        </g>
        <path d="M24.6715729,11 C25.2020059,11 25.7107137,11.2107137 26.0857864,11.5857864 L30.4142136,15.9142136 C30.7892863,16.2892863 31,16.7979941 31,17.3284271 L31,25 C31,26.1045695 30.1045695,27 29,27 L19,27 C17.8954305,27 17,26.1045695 17,25 L17,13 C17,11.8954305 17.8954305,11 19,11 L24.6715729,11 Z M24,12 L19,12 C18.4477153,12 18,12.4477153 18,13 L18,13 L18,25 C18,25.5522847 18.4477153,26 19,26 L19,26 L29,26 C29.5522847,26 30,25.5522847 30,25 L30,25 L30,18 C30,17.4477153 29.5522847,17 29,17 L29,17 L26,17 C25.4477153,17 25,16.5522847 25,16 L25,16 L25,13 C25,12.4477153 24.5522847,12 24,12 L24,12 Z M27.4995642,23 C27.745238,23 27.9495644,23.1832562 27.9919373,23.4122514 L28,23.5 C28,23.7761424 27.7692032,24 27.4995642,24 L20.5004358,24 C20.2240528,24 20,23.7680664 20,23.5 C20,23.2238576 20.2307968,23 20.5004358,23 L27.4995642,23 Z M27.4995642,21 C27.745238,21 27.9495644,21.1832562 27.9919373,21.4122514 L28,21.5 C28,21.7761424 27.7692032,22 27.4995642,22 L20.5004358,22 C20.2240528,22 20,21.7680664 20,21.5 C20,21.2238576 20.2307968,21 20.5004358,21 L27.4995642,21 Z M23.5095215,18 C23.7503071,18 23.950568,18.1832562 23.9920977,18.4122514 L24,18.5 C24,18.7761424 23.7849426,19 23.5095215,19 L20.4904785,19 C20.2195947,19 20,18.7680664 20,18.5 C20,18.2238576 20.2150574,18 20.4904785,18 L23.5095215,18 Z M26,13 L26,16 L29,16 L26,13 Z" id="invoice" fill="#327EF9"></path>
    </g>
</svg>