<?xml version="1.0" encoding="UTF-8"?>
<svg width="48px" height="38px" viewBox="0 0 48 38" version="1.1" xmlns="http://www.w3.org/2000/svg" xmlns:xlink="http://www.w3.org/1999/xlink">
    <!-- Generator: Sketch 63.1 (92452) - https://sketch.com -->
    <title>icon/save-card</title>
    <desc>Created with Sketch.</desc>
    <g id="icon/save-card" stroke="none" stroke-width="1" fill="none" fill-rule="evenodd">
        <g id="icon/input/-none" fill="#FFFFFF" fill-opacity="0">
            <rect id="Rectangle" x="0" y="0" width="48" height="38"></rect>
        </g>
        <path d="M31.5,10 C33.9852814,10 36,12.0147186 36,14.5 C36,16.8160341 34.2503421,18.7234136 32.0007074,18.9724574 L32,23 C32,24.105 31.0453333,25 29.8666667,25 L18.1333333,25 C16.9546667,25 16,24.105 16,23 L16,15 C16,13.895 16.9546667,13 18.1333333,13 L27.2560892,12.9999135 C27.8738682,11.2521701 29.5407041,10 31.5,10 Z M31,19 L17,19 L17,23 C17,23.5522847 17.4477153,24 18,24 L18,24 L30,24 C30.5522847,24 31,23.5522847 31,23 L31,23 L31,19 Z M22.5,21 C22.7761424,21 23,21.2238576 23,21.5 C23,21.7761424 22.7761424,22 22.5,22 L18.5,22 C18.2238576,22 18,21.7761424 18,21.5 C18,21.2238576 18.2238576,21 18.5,21 L22.5,21 Z M31.5,11 C29.5670034,11 28,12.5670034 28,14.5 C28,16.4329966 29.5670034,18 31.5,18 C33.4329966,18 35,16.4329966 35,14.5 C35,12.5670034 33.4329966,11 31.5,11 Z M32,12 L32,14 L34,14 L34,15 L32,15 L32,17 L31,17 L31,15 L29,15 L29,14 L31,14 L31,12 L32,12 Z M27.0274316,14.000297 L18,14 C17.4477153,14 17,14.4477153 17,15 L17,15 L17,16 L27.2564447,16.0010919 C27.0903714,15.531615 27,15.0263612 27,14.5 C27,14.3310974 27.0093054,14.1643682 27.0274316,14.000297 Z" id="Combined-Shape" fill="#327EF9"></path>
    </g>
</svg>