<?xml version="1.0" encoding="UTF-8"?>
<svg width="48px" height="38px" viewBox="0 0 48 38" version="1.1" xmlns="http://www.w3.org/2000/svg" xmlns:xlink="http://www.w3.org/1999/xlink">
    <!-- Generator: Sketch 63.1 (92452) - https://sketch.com -->
    <title>icon/cashier</title>
    <desc>Created with Sketch.</desc>
    <g id="icon/cashier" stroke="none" stroke-width="1" fill="none" fill-rule="evenodd">
        <g id="icon/input/-none" fill="#FFFFFF" fill-opacity="0">
            <rect id="Rectangle" x="0" y="0" width="48" height="38"></rect>
        </g>
        <path d="M27.000385,11 C28.0545438,11 28.9181809,11.8088611 28.9945153,12.8497808 L29,13 C29,14.1045695 28.1125667,15 27.000385,15 L25,15 L25,17 L28.0046024,17 C28.5543453,17 29.1968384,17.3936768 29.4491303,17.8982606 L31.5,22 L32.0066023,22 C32.5158786,22 32.9359082,22.3859659 32.993314,22.8832088 L33,22.9998075 L33,24.9951185 C33,26.1061002 32.1067681,27 31.0049107,27 L31.0049107,27 L16.9950893,27 C15.8926228,27 15,26.102384 15,24.9951185 L15,24.9951185 L15,22.9998075 C15,22.4437166 15.4447593,22 15.9933977,22 L15.9933977,22 L16.5,22 L18.5508697,17.8982606 C18.7989175,17.402165 19.4556644,17 19.9953976,17 L23,17 L23,15 L20.999615,15 C19.9454562,15 19.0818191,14.1911389 19.0054847,13.1502192 L19,13 C19,11.8954305 19.8874333,11 20.999615,11 L27.000385,11 Z M32,23 L16,23 L16,25 C16,25.5522847 16.4477153,26 17,26 L31,26 C31.5522847,26 32,25.5522847 32,25 L32,23 Z M27.5,24 C27.7761424,24 28,24.2238576 28,24.5 C28,24.7761424 27.7761424,25 27.5,25 L20.5,25 C20.2238576,25 20,24.7761424 20,24.5 C20,24.2238576 20.2238576,24 20.5,24 L27.5,24 Z M28.3999996,18 L19.6000004,18 L17.6000004,22 L30.3999996,22 L28.3999996,18 Z M27,12 L21,12 C20.4477153,12 20,12.4477153 20,13 C20,13.5522847 20.4477153,14 21,14 L21,14 L27,14 C27.5522847,14 28,13.5522847 28,13 C28,12.4477153 27.5522847,12 27,12 L27,12 Z" id="Combined-Shape" fill="#327EF9"></path>
    </g>
</svg>