<svg width="48" height="38" viewBox="0 0 48 38" xmlns="http://www.w3.org/2000/svg" xmlns:xlink="http://www.w3.org/1999/xlink">
    <defs>
        <path d="M12 0c1.055 0 1.918.809 1.995 1.85L14 2c0 1.105-.887 2-2 2h-2v2h3.005c.55 0 1.192.394 1.444.898L16.5 11h.507c.509 0 .929.386.986.883L18 12v1.995A1.998 1.998 0 0 1 16.005 16H1.995A2 2 0 0 1 0 13.995V12c0-.556.445-1 .993-1H1.5l2.05-4.102C3.8 6.402 4.457 6 4.996 6H8V4H6a1.995 1.995 0 0 1-1.995-1.85L4 2c0-1.105.887-2 2-2h6zm5 12H1v2a1 1 0 0 0 1 1h14a1 1 0 0 0 1-1v-2zm-4.5 1a.5.5 0 1 1 0 1h-7a.5.5 0 1 1 0-1h7zm.9-6H4.6l-2 4h12.8l-2-4zM12 1H6a1 1 0 1 0 0 2h6a1 1 0 0 0 0-2z" id="1653seafha"/>
    </defs>
    <g fill="none" fill-rule="evenodd">
        <path fill="none" d="M0 0h48v38H0z" fill-opacity="0"/>
        <g transform="translate(15 11)">
            <mask id="p1woi5vhcb" fill="#fff">
                <use xlink:href="#1653seafha"/>
            </mask>
            <use fill-opacity="0" fill="#C43030" xlink:href="#1653seafha"/>
            <g mask="url(#p1woi5vhcb)" fill="#327EF9">
                <path d="M-14-11h48v38h-48z"/>
            </g>
        </g>
    </g>
</svg>
