<?xml version="1.0" encoding="UTF-8"?>
<svg width="48px" height="38px" viewBox="0 0 48 38" version="1.1" xmlns="http://www.w3.org/2000/svg" xmlns:xlink="http://www.w3.org/1999/xlink">
    <!-- Generator: Sketch 63.1 (92452) - https://sketch.com -->
    <title>icon/api</title>
    <desc>Created with Sketch.</desc>
    <g id="icon/api" stroke="none" stroke-width="1" fill="none" fill-rule="evenodd">
        <g id="icon/input/-none" fill="#FFFFFF" fill-opacity="0">
            <rect id="Rectangle" x="0" y="0" width="48" height="38"></rect>
        </g>
        <path d="M23,13.0829584 C22.0883434,13.2359054 21.2463982,13.5944371 20.5234656,14.1092521 L19.0502525,12.636039 L17.636039,14.0502525 L19.1092521,15.5234656 C18.5944371,16.2463982 18.2359054,17.0883434 18.0829584,18 L16,18 L16,20 L18.0829584,20 C18.2359054,20.9116566 18.5944371,21.7536018 19.1092521,22.4765344 L17.636039,23.9497475 L19.0502525,25.363961 L20.5234656,23.8907479 C21.2463982,24.4055629 22.0883434,24.7640946 23,24.9170416 L23,27 L25,27 L25,24.9170416 C25.9116566,24.7640946 26.7536018,24.4055629 27.4765344,23.8907479 L28.9497475,25.363961 L30.363961,23.9497475 L28.8907479,22.4765344 C29.4055629,21.7536018 29.7640946,20.9116566 29.9170416,20 L32,20 L32,18 L29.9170416,18 C29.7640946,17.0883434 29.4055629,16.2463982 28.8907479,15.5234656 L30.363961,14.0502525 L28.9497475,12.636039 L27.4765344,14.1092521 C26.7536018,13.5944371 25.9116566,13.2359054 25,13.0829584 L25,11 L23,11 L23,13.0829584 Z M17.8413784,15.6698055 L17.1017805,14.9302076 C16.6157947,14.4442218 16.6157947,13.6562832 17.1017805,13.1702975 L18.1702975,12.1017805 C18.6562832,11.6157947 19.4442218,11.6157947 19.9302076,12.1017805 L20.6698055,12.8413784 C21.0892192,12.614107 21.5344614,12.4284297 22,12.2898787 L22,11.2444444 C22,10.5571567 22.5571567,10 23.2444444,10 L24.7555556,10 C25.4428433,10 26,10.5571567 26,11.2444444 L26,12.2898787 C26.4655386,12.4284297 26.9107808,12.614107 27.3301945,12.8413784 L28.0697924,12.1017805 C28.5557782,11.6157947 29.3437168,11.6157947 29.8297025,12.1017805 L30.8982195,13.1702975 C31.3842053,13.6562832 31.3842053,14.4442218 30.8982195,14.9302076 L30.1586216,15.6698055 C30.385893,16.0892192 30.5715703,16.5344614 30.7101213,17 L31.7555556,17 C32.4428433,17 33,17.5571567 33,18.2444444 L33,19.7555556 C33,20.4428433 32.4428433,21 31.7555556,21 L30.7101213,21 C30.5715703,21.4655386 30.385893,21.9107808 30.1586216,22.3301945 L30.8982195,23.0697924 C31.3842053,23.5557782 31.3842053,24.3437168 30.8982195,24.8297025 L29.8297025,25.8982195 C29.3437168,26.3842053 28.5557782,26.3842053 28.0697924,25.8982195 L27.3301945,25.1586216 C26.9107808,25.385893 26.4655386,25.5715703 26,25.7101213 L26,26.7555556 C26,27.4428433 25.4428433,28 24.7555556,28 L23.2444444,28 C22.5571567,28 22,27.4428433 22,26.7555556 L22,25.7101213 C21.5344614,25.5715703 21.0892192,25.385893 20.6698055,25.1586216 L19.9302076,25.8982195 C19.4442218,26.3842053 18.6562832,26.3842053 18.1702975,25.8982195 L17.1017805,24.8297025 C16.6157947,24.3437168 16.6157947,23.5557782 17.1017805,23.0697924 L17.8413784,22.3301945 C17.614107,21.9107808 17.4284297,21.4655386 17.2898787,21 L16.2444444,21 C15.5571567,21 15,20.4428433 15,19.7555556 L15,18.2444444 C15,17.5571567 15.5571567,17 16.2444444,17 L17.2898787,17 C17.4284297,16.5344614 17.614107,16.0892192 17.8413784,15.6698055 L17.8413784,15.6698055 Z M24,23 C21.790861,23 20,21.209139 20,19 C20,16.790861 21.790861,15 24,15 C26.209139,15 28,16.790861 28,19 C28,21.209139 26.209139,23 24,23 Z M24,22 C25.6568542,22 27,20.6568542 27,19 C27,17.3431458 25.6568542,16 24,16 C22.3431458,16 21,17.3431458 21,19 C21,20.6568542 22.3431458,22 24,22 Z" id="Combined-Shape-Copy" fill="#327EF9"></path>
    </g>
</svg>