<?xml version="1.0" encoding="UTF-8"?>
<svg width="48px" height="38px" viewBox="0 0 48 38" version="1.1" xmlns="http://www.w3.org/2000/svg" xmlns:xlink="http://www.w3.org/1999/xlink">
    <!-- Generator: Sketch 63.1 (92452) - https://sketch.com -->
    <title>icon/autopayments</title>
    <desc>Created with Sketch.</desc>
    <g id="icon/autopayments" stroke="none" stroke-width="1" fill="none" fill-rule="evenodd">
        <g id="icon/input/-none" fill="#FFFFFF" fill-opacity="0">
            <rect id="Rectangle" x="0" y="0" width="48" height="38"></rect>
        </g>
        <path d="M24,12 C28.418278,12 32,15.581722 32,20 C32,24.418278 28.418278,28 24,28 C19.581722,28 16,24.418278 16,20 C16,15.581722 19.581722,12 24,12 Z M24,13 C20.1340068,13 17,16.1340068 17,20 C17,23.8659932 20.1340068,27 24,27 C27.8659932,27 31,23.8659932 31,20 C31,16.1340068 27.8659932,13 24,13 Z M27.4825454,15.4323814 L27.3832982,16.4615849 L25.6918929,18.8774053 C25.8894825,19.1918044 26,19.5763864 26,20.0071685 C26,21.1684588 25.1768953,22 24.0072202,22 C23.8443729,22 23.6879634,21.9838819 23.5393556,21.9529998 L23.0241173,22.6871404 C22.8657285,22.913343 22.5539556,22.968317 22.327753,22.8099283 C22.1015505,22.6515395 22.0465765,22.3397666 22.2049652,22.113564 L22.6319045,21.5022482 C22.2358021,21.1466994 22,20.6233527 22,20.0071685 C22,18.8315412 22.8375451,18 24.0072202,18 C24.353228,18 24.6689086,18.0727654 24.9419264,18.2056781 L26.5641462,15.8880085 L27.4825454,15.4323814 Z M24.0036101,19 C23.4187726,19 23,19.4157706 23,20.0035842 C23,20.5842294 23.4187726,21 24.0036101,21 C24.5884477,21 25,20.5842294 25,20.0035842 C25,19.4157706 24.5884477,19 24.0036101,19 Z M26.5,10 C26.7761424,10 27,10.2238576 27,10.5 C27,10.7761424 26.7761424,11 26.5,11 L24.5,11 L24.5,12 L23.5,12 L23.5,11 L21.5,11 C21.2238576,11 21,10.7761424 21,10.5 C21,10.2238576 21.2238576,10 21.5,10 L26.5,10 Z" id="Combined-Shape" fill="#327EF9"></path>
    </g>
</svg>