<?xml version="1.0" encoding="UTF-8"?>
<svg width="48px" height="38px" viewBox="0 0 48 38" version="1.1" xmlns="http://www.w3.org/2000/svg" xmlns:xlink="http://www.w3.org/1999/xlink">
    <!-- Generator: Sketch 61.2 (89653) - https://sketch.com -->
    <title>icon/input/invoice-medium</title>
    <desc>Created with Sketch.</desc>
    <g id="icon/input/invoice-medium" stroke="none" stroke-width="1" fill="none" fill-rule="evenodd">
        <g id="icon/input/-none" fill="#FFFFFF" fill-opacity="0">
            <rect id="Rectangle" x="0" y="0" width="48" height="38"></rect>
        </g>
        <path d="M32,8 C33.1045695,8 34,8.8954305 34,10 L34,28 C34,29.1045695 33.1045695,30 32,30 L16,30 C14.8954305,30 14,29.1045695 14,28 L14,10 C14,8.8954305 14.8954305,8 16,8 L32,8 Z M32,9 L16,9 C15.4477153,9 15,9.44771525 15,10 L15,10 L15,28 C15,28.5522847 15.4477153,29 16,29 L16,29 L32,29 C32.5522847,29 33,28.5522847 33,28 L33,28 L33,10 C33,9.44771525 32.5522847,9 32,9 L32,9 Z M24.4995642,22 C24.745238,22 24.9495644,22.1832562 24.9919373,22.4122514 L25,22.5 C25,22.7761424 24.7692032,23 24.4995642,23 L17.5004358,23 C17.2240528,23 17,22.7680664 17,22.5 C17,22.2238576 17.2307968,22 17.5004358,22 L24.4995642,22 Z M30.5095215,22 C30.7503071,22 30.950568,22.1832562 30.9920977,22.4122514 L31,22.5 C31,22.7761424 30.7849426,23 30.5095215,23 L27.4904785,23 C27.2195947,23 27,22.7680664 27,22.5 C27,22.2238576 27.2150574,22 27.4904785,22 L30.5095215,22 Z M24.4995642,19 C24.745238,19 24.9495644,19.1832562 24.9919373,19.4122514 L25,19.5 C25,19.7761424 24.7692032,20 24.4995642,20 L17.5004358,20 C17.2240528,20 17,19.7680664 17,19.5 C17,19.2238576 17.2307968,19 17.5004358,19 L24.4995642,19 Z M30.5095215,19 C30.7503071,19 30.950568,19.1832562 30.9920977,19.4122514 L31,19.5 C31,19.7761424 30.7849426,20 30.5095215,20 L27.4904785,20 C27.2195947,20 27,19.7680664 27,19.5 C27,19.2238576 27.2150574,19 27.4904785,19 L30.5095215,19 Z M28.4903505,14 C28.7405475,14 28.9486359,14.1832562 28.9917889,14.4122514 L29,14.5 C29,14.7761424 28.7723472,15 28.4903505,15 L19.5096495,15 C19.2281779,15 19,14.7680664 19,14.5 C19,14.2238576 19.2276528,14 19.5096495,14 L28.4903505,14 Z" id="invoice" fill="var(--icon-color, #000000)"></path>
    </g>
</svg>
