<svg xmlns="http://www.w3.org/2000/svg" width="122" height="120" viewBox="0 0 122 120">
    <g fill="none" fill-rule="evenodd">
        <path stroke="#0A79FA" stroke-width="2" d="M40 25v7h1c1.657 0 3 1.343 3 3s-1.343 3-3 3H18c-1.657 0-3-1.343-3-3.037l.008-.186C15.123 33.216 16.426 32 18 32h1v-7h-2.82C11.662 25 8 28.662 8 33.18V45l-.015.174L1 84.654v17.086c0 5.114 4.146 9.26 9.26 9.26h97.48c5.114 0 9.26-4.146 9.26-9.26V84.655l-6.985-39.48L110 45V33.194l-.003-.252C109.87 28.526 106.249 25 101.82 25L89 24.999V18h10.38c.342 0 .62-.278.62-.62V1.62c0-.342-.278-.62-.62-.62H60.62c-.342 0-.62.278-.62.62v15.76c0 .342.278.62.62.62H71v6.999L40 25z" transform="translate(2 4)"/>
        <path fill="#0A79FA" d="M117 85v2H1v-2h116zm-6-40v2H7v-2h104zM91 24v2H69v-2h22zm0-7v2H69v-2h22z" transform="translate(2 4)"/>
        <path fill="#FFF" fill-opacity="0" stroke="#0A79FA" stroke-width="2" d="M19.62 15c-.342 0-.62.278-.62.62v21.76c0 .342.278.62.62.62h19.76c.342 0 .62-.278.62-.62V15.62c0-.342-.278-.62-.62-.62H19.62z" transform="translate(2 4)"/>
        <path fill="#0A79FA" d="M27 70c.552 0 1 .448 1 1s-.448 1-1 1h-7c-.552 0-1-.448-1-1s.448-1 1-1h7zm14 0c.552 0 1 .448 1 1s-.448 1-1 1h-7c-.552 0-1-.448-1-1s.448-1 1-1h7zm29 0c.552 0 1 .448 1 1s-.448 1-1 1h-7c-.552 0-1-.448-1-1s.448-1 1-1h7zm14 0c.552 0 1 .448 1 1s-.448 1-1 1h-7c-.552 0-1-.448-1-1s.448-1 1-1h7zm14 0c.552 0 1 .448 1 1s-.448 1-1 1h-7c-.552 0-1-.448-1-1s.448-1 1-1h7zM27 60c.552 0 1 .448 1 1s-.448 1-1 1h-7c-.552 0-1-.448-1-1s.448-1 1-1h7zm14 0c.552 0 1 .448 1 1s-.448 1-1 1h-7c-.552 0-1-.448-1-1s.448-1 1-1h7zm29 0c.552 0 1 .448 1 1s-.448 1-1 1h-7c-.552 0-1-.448-1-1s.448-1 1-1h7zm14 0c.552 0 1 .448 1 1s-.448 1-1 1h-7c-.552 0-1-.448-1-1s.448-1 1-1h7zm14 0c.552 0 1 .448 1 1s-.448 1-1 1h-7c-.552 0-1-.448-1-1s.448-1 1-1h7zM44 98h30c.552 0 1 .448 1 1s-.448 1-1 1H44c-.552 0-1-.448-1-1s.448-1 1-1zM36 30c.552 0 1 .448 1 1s-.448 1-1 1H23c-.552 0-1-.448-1-1s.448-1 1-1h13zm0-4c.552 0 1 .448 1 1s-.448 1-1 1H23c-.552 0-1-.448-1-1s.448-1 1-1h13zm0-4c.552 0 1 .448 1 1s-.448 1-1 1H23c-.552 0-1-.448-1-1s.448-1 1-1h13z" transform="translate(2 4)"/>
    </g>
</svg>
