<svg xmlns="http://www.w3.org/2000/svg" width="63" height="60" viewBox="0 0 63 60">
    <g fill="none" fill-rule="evenodd">
        <path stroke="#0A79FA" stroke-width="2" d="M49 1H31v7h5v4.999H21v1.515c1.125.124 2 1.078 2 2.236 0 1.243-1.007 2.25-2.25 2.25h-10.5C9.007 19 8 17.993 8.001 16.7l.01-.179c.108-1.06.945-1.892 1.989-2.007V13H8.09c-1.983 0-3.59 1.607-3.59 3.59v5.91l-.015.174L1 42.371v8.499C1 53.15 2.85 55 5.13 55h48.74c2.28 0 4.13-1.85 4.13-4.13v-8.499l-3.485-19.697-.015-.174v-5.887l-.004-.193C54.408 14.51 52.83 13 50.91 13L44 12.999V8h5V1z" transform="translate(2 2)"/>
        <path fill="#0A79FA" d="M58.5 42v2H.5v-2h58zm-3-20v2h-52v-2h52zm-10-10v2h-11v-2h11zm0-5v2h-11V7h11z" transform="translate(2 2)"/>
        <path fill="#FFF" fill-opacity="0" stroke="#0A79FA" stroke-width="2" d="M11 8v11h9V8h-9z" transform="translate(2 2)"/>
        <path fill="#0A79FA" d="M13 35c.552 0 1 .448 1 1s-.448 1-1 1h-2.5c-.552 0-1-.448-1-1s.448-1 1-1H13zm7 0c.552 0 1 .448 1 1s-.448 1-1 1h-2.5c-.552 0-1-.448-1-1s.448-1 1-1H20zm14.5 0c.552 0 1 .448 1 1s-.448 1-1 1H32c-.552 0-1-.448-1-1s.448-1 1-1h2.5zm7 0c.552 0 1 .448 1 1s-.448 1-1 1H39c-.552 0-1-.448-1-1s.448-1 1-1h2.5zm7 0c.552 0 1 .448 1 1s-.448 1-1 1H46c-.552 0-1-.448-1-1s.448-1 1-1h2.5zM13 30c.552 0 1 .448 1 1s-.448 1-1 1h-2.5c-.552 0-1-.448-1-1s.448-1 1-1H13zm7 0c.552 0 1 .448 1 1s-.448 1-1 1h-2.5c-.552 0-1-.448-1-1s.448-1 1-1H20zm14.5 0c.552 0 1 .448 1 1s-.448 1-1 1H32c-.552 0-1-.448-1-1s.448-1 1-1h2.5zm7 0c.552 0 1 .448 1 1s-.448 1-1 1H39c-.552 0-1-.448-1-1s.448-1 1-1h2.5zm7 0c.552 0 1 .448 1 1s-.448 1-1 1H46c-.552 0-1-.448-1-1s.448-1 1-1h2.5zM22.5 48h14c.552 0 1 .448 1 1s-.448 1-1 1h-14c-.552 0-1-.448-1-1s.448-1 1-1zM17.5 15c.276 0 .5.224.5.5s-.224.5-.5.5h-4c-.276 0-.5-.224-.5-.5s.224-.5.5-.5h4zm0-2c.276 0 .5.224.5.5s-.224.5-.5.5h-4c-.276 0-.5-.224-.5-.5s.224-.5.5-.5h4zm0-2c.276 0 .5.224.5.5s-.224.5-.5.5h-4c-.276 0-.5-.224-.5-.5s.224-.5.5-.5h4z" transform="translate(2 2)"/>
    </g>
</svg>
