<svg xmlns="http://www.w3.org/2000/svg" width="140" height="60" viewBox="0 0 140 60">
    <g fill="none">
        <path fill="#0087CD" d="M34.045 25.534c0 4.665-3.764 8.43-8.43 8.43H8.84c-4.665 0-8.43-3.765-8.43-8.43V8.757c0-4.665 3.765-8.43 8.43-8.43h16.777c4.665 0 8.43 3.765 8.43 8.43v16.777z" transform="translate(2 13)"/>
        <g fill="#FFF" transform="translate(2 13) translate(4.092 6.547)">
            <path d="M22.424 13.094c.819-2.537 2.292-8.102 2.783-10.148.409-1.718.573-2.373-.246-2.373-.655 0-2.455.736-2.864 2.128-.573 2.291-1.8 7.12-2.292 8.838-.573 1.883-1.718 2.292-3.273 2.292-1.146 0-1.8-.082-1.964-.737-.082-.245-.246-.327-.41-.327h-1.882c-.246 0-.41.164-.41.327-.163.737-.818.737-1.963.737-.982 0-2.456-.164-2.947-1.964-.409-1.228-1.309-4.42-1.8-6.138-.491-1.719-1.964-1.8-2.7-1.8-.82 0-.901.163-.41 1.8.491 1.637 1.637 5.401 2.373 7.856.737 2.456 3.11 3.274 4.665 3.274h2.62c.736 0 1.145-.164 1.39-.327.164-.164.41-.164.573 0 .246.163.737.409 1.473.409h2.537c1.965-.082 3.929-1.391 4.747-3.847z"/>
            <circle cx="9.248" cy="5.729" r="1.228"/>
            <circle cx="13.258" cy="5.729" r="1.228"/>
            <circle cx="17.35" cy="5.729" r="1.228"/>
            <circle cx="9.248" cy="10.148" r="1.228"/>
            <circle cx="13.258" cy="10.148" r="1.228"/>
            <circle cx="17.35" cy="10.148" r="1.228"/>
            <path d="M2.946 17.596c-1.391 0-2.455 1.145-2.455 2.455s1.146 2.455 2.455 2.455c1.31 0 2.455-1.146 2.455-2.455 0-1.31-1.145-2.455-2.455-2.455zm0 3.437c-.49 0-.9-.41-.9-.9 0-.491.41-.9.9-.9.491 0 .9.409.9.9-.081.49-.409.9-.9.9zm20.46-3.437c-1.391 0-2.455 1.145-2.455 2.455s1.146 2.455 2.455 2.455c1.31 0 2.455-1.146 2.455-2.455 0-1.31-1.063-2.455-2.455-2.455zm0 3.437c-.49 0-.9-.41-.9-.9 0-.491.41-.9.9-.9.491 0 .9.409.9.9 0 .49-.409.9-.9.9z"/>
        </g>
        <g fill="#0087CD" transform="translate(2 13) translate(43.375 2.455)">
            <path d="M36.255 20.46c-.573 0-1.31 0-1.555.491-.9 1.637-3.028 2.21-4.747 2.21-3.437 0-6.056-2.783-6.056-6.302 0-3.437 2.62-6.302 6.056-6.302 1.555 0 3.52.328 4.747 2.128.328.491.982.41 1.637.41.818 0 .655-.983.327-1.556-1.718-2.618-4.583-3.191-6.629-3.191-4.665 0-8.511 3.846-8.511 8.511 0 4.665 3.846 8.511 8.511 8.511 3.028 0 5.647-1.309 6.793-3.437.082-.573.327-1.473-.573-1.473zM69.073 8.839c-.573 0-1.146.245-1.146.9v14.24c0 .573.491.819 1.146.819.573 0 1.146-.164 1.146-.819V9.74c-.082-.655-.573-.9-1.146-.9z"/>
            <circle cx="69.073" cy="4.01" r="1.637"/>
            <path d="M90.433.491c-.573 0-.573.246-.573.818v9.821c-1.227-2.046-3.682-2.782-5.81-2.782-4.665 0-8.512 3.764-8.512 8.511 0 4.665 3.765 8.511 8.512 8.511 1.8 0 4.665-.9 5.81-2.946v1.391c0 .573-.082.819.573.819.655 0 1.637-.819 1.637-2.7V2.782c0-1.72-.982-2.292-1.637-2.292zm-.573 16.777c0 4.42-4.01 5.893-5.81 5.893-3.438 0-6.056-2.783-6.056-6.302 0-3.52 2.618-6.302 6.056-6.302 2.046 0 5.81 1.228 5.81 5.73v.981zM61.953 8.921c-.082 0-1.146 0-1.391.818-.328.737-1.883 5.647-3.683 10.803-.082.164-.164.327-.164.49l-3.765-9.247c-.163-.41-.409-.737-.736-.9-.164-.082-.41-.164-.655-.164-.245 0-.49.082-.655.164-.327.163-.572.49-.736.9l-3.765 9.248c-.082-.164-.163-.327-.163-.491-1.883-5.156-3.438-10.066-3.683-10.803-.328-.818-1.391-.818-1.391-.818-.573 0-.819.163-.737.49v.246c.082.327 2.373 8.102 4.91 14.24.164.41.41.982 1.146.982.491 0 .819-.327.982-.654l4.01-9.985c.082-.082.164-.164.246-.164.082 0 .164.082.245.164l4.01 9.985c.164.327.492.654.983.654.736 0 .982-.573 1.145-.982 2.456-6.056 4.829-13.913 4.91-14.24v-.245c-.327-.328-.572-.491-1.063-.491zm-52.95-.573c-4.665 0-8.676 3.846-8.676 8.511 0 4.665 3.929 8.511 8.675 8.511 3.028 0 5.811-1.309 6.957-3.437.327-.573.49-1.473-.41-1.473-.572 0-1.309 0-1.554.491-.9 1.637-3.274 2.21-4.993 2.21-3.11 0-5.647-2.292-6.138-5.238h13.75c.572 0 1.063-.491 1.063-1.146 0-4.747-4.092-8.43-8.675-8.43zm-6.139 7.365c.491-2.946 3.11-5.156 6.22-5.156 2.946 0 5.647 2.128 6.138 5.156H2.864z"/>
        </g>
    </g>
</svg>
