<svg xmlns="http://www.w3.org/2000/svg" xmlns:xlink="http://www.w3.org/1999/xlink" width="140" height="60" viewBox="0 0 140 60">
    <defs>
        <path id="prefix__a" d="M6.412 17.469c1.707 0 3.206-.382 4.496-1.145 1.29-.763 1.935-2.03 1.935-3.804 0-1.424-.509-2.51-1.526-3.259-.589-.429-1.425-.766-2.507-1.013l-2.246-.513c-1.511-.349-2.481-.64-2.91-.872-.654-.363-.98-.937-.98-1.722 0-.712.279-1.337.838-1.875.56-.537 1.48-.806 2.758-.806 1.584 0 2.707.418 3.368 1.253.356.458.589 1.116.698 1.973h2.038c0-1.78-.587-3.075-1.76-3.886C9.44.99 8.014.585 6.335.585c-1.823 0-3.233.461-4.229 1.384C1.111 2.892.613 4.073.613 5.512c0 1.33.509 2.329 1.526 2.997.589.385 1.591.738 3.008 1.057l2.17.49c1.177.27 2.041.586 2.594.95.545.37.817.991.817 1.863 0 1.163-.647 1.97-1.94 2.42-.669.232-1.41.349-2.224.349-1.816 0-3.084-.53-3.804-1.592-.377-.567-.592-1.304-.643-2.212H.08c-.022 1.729.53 3.099 1.657 4.109 1.126 1.017 2.685 1.526 4.676 1.526zM18.27 17V.988H16.08V17h2.19zm10.234 0c2.108 0 3.645-.625 4.611-1.875.647-.835.97-1.77.97-2.801 0-1.228-.36-2.19-1.079-2.888-.407-.393-1.02-.745-1.842-1.058.56-.283.988-.596 1.286-.937.574-.647.861-1.475.861-2.485 0-.865-.232-1.628-.697-2.29-.792-1.118-2.126-1.678-4-1.678h-6.878V17h6.768zm-.697-9.243h-3.946v-4.96h3.87c.944 0 1.656.102 2.136.306.85.363 1.275 1.068 1.275 2.114 0 1.04-.4 1.759-1.199 2.159-.508.254-1.22.381-2.136.381zm.73 7.39h-4.676V9.512h4.306c.908 0 1.638.113 2.19.338 1.04.421 1.56 1.213 1.56 2.376 0 .69-.179 1.279-.535 1.766-.567.77-1.515 1.155-2.845 1.155zM48.724 17v-1.907h-9.722V9.665h8.84V7.812h-8.84V2.95h9.559V.988H36.887V17h11.837zM54 17v-6.867h4.937c.887 0 1.537.098 1.951.294.727.357 1.116 1.058 1.167 2.104l.13 2.67c.03.625.066 1.047.11 1.265.043.218.101.396.174.534h2.66v-.36c-.335-.145-.567-.472-.698-.98-.08-.299-.13-.753-.153-1.363l-.076-2.147c-.036-.93-.213-1.603-.529-2.017-.316-.414-.786-.748-1.411-1.003.712-.37 1.266-.86 1.662-1.471.396-.61.594-1.395.594-2.354 0-1.839-.752-3.1-2.256-3.783-.792-.356-1.799-.534-3.02-.534h-7.411V17H54zm5.014-8.676H54V2.852h5.297c.741 0 1.334.11 1.777.327.828.414 1.242 1.192 1.242 2.333 0 1.06-.296 1.795-.888 2.201-.592.407-1.397.61-2.414.61z"/>
        <path id="prefix__b" d="M69.582 17V.988h-2.19V17h2.19zm4.37 0l1.734-4.796h6.333L83.643 17h2.376L80.209.988h-2.452L71.729 17h2.224zm7.37-6.562h-5.015l2.584-7.074 2.43 7.074zM90.061 17V4.04L98.27 17h2.43V.988h-2.06V13.96L90.554.989h-2.561V17h2.07z"/>
    </defs>
    <g fill="none">
        <path fill="#0099C7" stroke="#FFF" stroke-width=".5" d="M13.861 24.443L13.861 32.491.134 24.347.149 24.38.149 24.314.136 24.307.149 24.299.149 16.32.081 16.279.149 16.312.149 16.282.149 16.246.136 16.239.149 16.232.149 8.214 7.02 12.223 7.005 12.19 7.005 12.256 7.017 12.264 7.005 12.27 7.005 20.269 7.005 20.313 13.861 24.443 13.861 24.443M13.861 32.413L13.861 24.387 21.015 20.375 21.015 20.288 21.015 20.257 20.948 20.29 21.015 20.251 21.015 12.274 20.995 12.264 21.015 12.252 21.015 12.19 21.005 12.22 27.87 8.214 27.87 16.222 27.9 16.239 27.87 16.255 27.87 16.282 27.87 16.312 27.936 16.285 27.87 16.324 27.87 24.387z" transform="translate(2 14)"/>
        <path fill="#0099C7" stroke="#FFF" stroke-width=".5" d="M13.893 0.093L0.114 8.229 7.005 12.158 13.935 8.205 20.937 12.158 20.941 12.153 27.752 8.217z" transform="translate(2 14)"/>
        <path fill="#FF9019" d="M18.055 13.842L13.954 11.474 13.954 11.474 13.954 11.474 13.954 11.474 13.954 11.474 9.852 13.842 9.852 15.237 20.024 15.237 20.024 19.715 13.954 23.22 13.954 23.22 7.881 19.715 9.827 18.592 13.954 20.946 18.055 18.579 18.055 17.184 7.883 17.184 7.883 12.705 13.954 9.201 13.954 9.201 20.024 12.705 20.025 12.705 18.078 13.829 18.078 13.829 18.055 13.842" transform="translate(2 14)"/>
        <g transform="translate(2 14) translate(32.6 6.556)">
            <use fill="#000" xlink:href="#prefix__a"/>
            <use fill="#0099C7" xlink:href="#prefix__a"/>
            <g>
                <use fill="#000" xlink:href="#prefix__b"/>
                <use fill="#FF9019" xlink:href="#prefix__b"/>
            </g>
        </g>
    </g>
</svg>
