<svg xmlns="http://www.w3.org/2000/svg" width="132" height="60" viewBox="0 0 132 60">
    <g fill="none" fill-rule="evenodd">
        <path fill="#176B97" d="M130.2 9.216c-.398-3.873-2.344-7.048-5.34-8.71L123.95 0l-.685.791c-.087.1-.68.846-.829 2.633-1.76-.55-3.997-.55-5.756 0-.15-1.786-.742-2.533-.83-2.633L115.165 0l-.912.506c-2.996 1.662-4.942 4.837-5.34 8.71-.252 2.446.495 4.783 2.102 6.584 4.335 4.853 12.749 4.853 17.083 0 1.61-1.8 2.355-4.138 2.103-6.584zm-4.024 4.835c-3.302 3.698-9.937 3.698-13.238 0-1.127-1.262-1.629-2.841-1.452-4.565.24-2.328 1.176-4.307 2.621-5.662.023.39.022.861-.035 1.445l-.235 2.442 2.14-1.167c2.252-1.227 4.908-1.227 7.16 0l2.138 1.167-.234-2.442c-.057-.583-.058-1.055-.036-1.445 1.447 1.355 2.381 3.334 2.621 5.662.177 1.724-.323 3.303-1.45 4.565z" transform="translate(0 20)"/>
        <path fill="#000" fill-rule="nonzero" d="M105.926 15.375H103.3c-3.47 0-6.09-2.453-6.09-5.708V7.054h3.202c.841 0 1.523-.682 1.523-1.522 0-.841-.682-1.523-1.523-1.523H97.21V2.054c0-.84-.682-1.522-1.522-1.522-.841 0-1.523.681-1.523 1.522v7.613c0 4.908 4.013 8.753 9.134 8.753h2.627c.84 0 1.522-.681 1.522-1.522 0-.842-.682-1.523-1.522-1.523zM89.05.532c-.73 0-1.34.515-1.487 1.201C86.195.953 84.638.532 83.049.532c-5.037 0-9.135 4.098-9.135 9.135 0 5.036 4.099 9.133 9.135 9.133 1.595 0 3.13-.423 4.483-1.19.026.818.694 1.473 1.518 1.473.842 0 1.522-.681 1.522-1.522V2.054c0-.84-.68-1.522-1.522-1.522zM87.528 13.78c-1.154 1.253-2.769 1.975-4.478 1.975-3.359 0-6.09-2.732-6.09-6.087 0-3.359 2.731-6.091 6.09-6.091 1.045 0 2.07.272 2.975.777l.039.022c.276.157.538.337.79.536.268.23.483.464.674.687v8.181zm-16.633-.715c-.466 0-.876.213-1.156.542l-.006-.005c-1.16 1.368-2.854 2.152-4.645 2.152-3.358 0-6.09-2.731-6.09-6.087 0-3.359 2.732-6.091 6.09-6.091 1.402 0 2.77.488 3.852 1.373l.005-.004c.263.214.593.348.96.348.84 0 1.521-.682 1.521-1.523 0-.475-.222-.894-.562-1.174l.004-.005c-1.626-1.328-3.678-2.06-5.78-2.06-5.037 0-9.136 4.099-9.136 9.136 0 5.035 4.1 9.132 9.136 9.132 2.642 0 5.136-1.14 6.875-3.128l.022-.023c.023-.026.049-.048.07-.075l-.005-.004c.225-.266.367-.606.367-.981 0-.842-.681-1.523-1.522-1.523zM54.3 15.375h-2.626c-3.472 0-6.09-2.453-6.09-5.708V7.054h3.202c.84 0 1.523-.682 1.523-1.522 0-.841-.683-1.523-1.523-1.523h-3.202V2.054c0-.84-.682-1.522-1.523-1.522-.84 0-1.522.681-1.522 1.522v7.613c0 4.908 4.012 8.753 9.134 8.753h2.627c.84 0 1.522-.681 1.522-1.522 0-.842-.681-1.523-1.522-1.523zM30.739.532c-5.037 0-9.135 4.098-9.135 9.135 0 5.036 4.098 9.133 9.135 9.133 2.838 0 5.466-1.285 7.212-3.527l-.005-.004c.201-.258.326-.578.326-.931 0-.84-.682-1.522-1.522-1.522-.488 0-.917.233-1.196.59l-.005-.004c-1.165 1.495-2.917 2.352-4.809 2.352-3.358 0-6.091-2.731-6.091-6.087 0-3.359 2.732-6.091 6.091-6.091 1.807 0 3.416 1.008 4.514 2.26L27.47 9.715l.002.005c-.5.25-.847.76-.847 1.357 0 .84.682 1.522 1.523 1.522.244 0 .47-.062.676-.165l.002.005 9.36-4.661c.37-.185.65-.511.774-.906s.082-.821-.115-1.185C37.141 2.554 33.96.532 30.739.532zm-21.117 0C5.848.532.486 6.005.486 11.114v6.164c0 .84.682 1.522 1.522 1.522s1.523-.682 1.523-1.522v-6.164c0-3.468 4.025-7.537 6.09-7.537 2.065 0 6.091 4.068 6.091 7.537v6.164c0 .84.683 1.522 1.523 1.522.84 0 1.523-.682 1.523-1.522v-6.164C18.757 6.004 13.395.532 9.622.532z" transform="translate(0 20)"/>
    </g>
</svg>
