<svg width="96" height="60" xmlns="http://www.w3.org/2000/svg">
    <g fill-rule="nonzero" fill="none">
        <path d="M32.585 21.345A11.47 11.47 0 0 1 39.96 24L37 26.91a7.465 7.465 0 0 0-4.27-1.465c-1.235 0-2.115.18-2.625.535-.477.288-.77.803-.775 1.36.004.549.32 1.048.815 1.285a7.415 7.415 0 0 0 2.65.61c2.617.247 4.652.967 6.105 2.16a5.85 5.85 0 0 1 2.175 4.755h.03c0 2.123-.798 3.72-2.395 4.79a10.5 10.5 0 0 1-6 1.605 12.73 12.73 0 0 1-8.5-3.365l3-2.97a10.355 10.355 0 0 0 5.73 2.24 6.28 6.28 0 0 0 2.97-.6A1.81 1.81 0 0 0 37 36.215a1.91 1.91 0 0 0-1-1.715c-.7-.45-1.887-.783-3.56-1-2.47-.293-4.283-.98-5.44-2.06a5 5 0 0 1-1.68-3.82 5.89 5.89 0 0 1 1.87-4.47c1.247-1.183 3.045-1.785 5.395-1.805zm4.95-8.44 1.54 2.41-2.46 2c-5.29-1-10.275.59-12.455 4.44a8.56 8.56 0 0 0-1.035 5l-.005.02A10.92 10.92 0 0 1 24 18.11c2.615-4.635 8.245-6.61 13.535-5.205z" fill="#C01F3C"/>
        <path d="M72.805 26.84a6.135 6.135 0 0 1 3.5 1.1 7 7 0 0 1 2.46 2.925c.557 1.213.835 2.922.835 5.125l-.025.01H69.68a3.45 3.45 0 0 0 1.175 2c.6.5 1.365.759 2.145.725a3.43 3.43 0 0 0 2.5-1.07l2.75 2.14a6.4 6.4 0 0 1-5.26 2.66 6.875 6.875 0 0 1-5.26-2.185 7.93 7.93 0 0 1-2.035-5.615 8.7 8.7 0 0 1 .93-4 6.565 6.565 0 0 1 2.625-2.815 7.035 7.035 0 0 1 3.555-1zm14.755.015c2.31.043 4.578.628 6.62 1.71l-1.735 3.395a13.615 13.615 0 0 0-4.73-1.225A4.345 4.345 0 0 0 86 31a.79.79 0 0 0-.54.73.81.81 0 0 0 .54.57c.712.261 1.44.475 2.18.64 1.648.318 3.231.907 4.685 1.745a3.5 3.5 0 0 1 1.635 3.18 4.095 4.095 0 0 1-1.655 3.21c-1.103.92-2.862 1.378-5.275 1.375a17.36 17.36 0 0 1-7-1.71l1.82-3.58a11.5 11.5 0 0 0 5.355 1.685c1.295-.04 2.075-.17 2.325-.385a.9.9 0 0 0 .365-.655.87.87 0 0 0-.435-.655c-.28-.213-1.14-.463-2.58-.75a13.025 13.025 0 0 1-4.35-1.56 3.37 3.37 0 0 1-1.75-2.875 4.395 4.395 0 0 1 1.68-3.69c1.143-.95 2.663-1.423 4.56-1.42zm-37.56 0c1.98 0 3.578.458 4.795 1.375s1.825 2.315 1.825 4.195l.025 9.755h-3.93v-.5a11.1 11.1 0 0 1-4 .7A6 6 0 0 1 44.58 41a4.58 4.58 0 0 1-1.605-3.61 4.905 4.905 0 0 1 1.775-3.89 6.565 6.565 0 0 1 4.47-1.545 16 16 0 0 1 3.555.395 1.41 1.41 0 0 0-.62-1.315A3.845 3.845 0 0 0 50 30.5a8.735 8.735 0 0 0-4.205 1.1l-1.605-3.18A12.745 12.745 0 0 1 50 26.855zM6.14 21.62v20.56H2V21.62h4.14zm10.36 5.23c1.56-.02 3.05.638 4.085 1.805a6.43 6.43 0 0 1 1.665 4.53l.005 8.995h-4.08v-9a2.5 2.5 0 0 0-.82-1.745 2.745 2.745 0 0 0-3.77-.03 2.59 2.59 0 0 0-.855 1.715v9.06H8.59V27.22h4.14v.915a5.645 5.645 0 0 1 3.77-1.285zm46.86-5.505V42.18h-4.145V23.395l4.145-2.05zM49.215 35.48a2.725 2.725 0 0 0-1.655.5 1.345 1.345 0 0 0 .125 2.385 3.36 3.36 0 0 0 1.9.5 6.285 6.285 0 0 0 3.12-.795l.01.01v-2.23a17.935 17.935 0 0 0-3.5-.37zM72.77 30.5a3.17 3.17 0 0 0-1.77.57 2.45 2.45 0 0 0-1 1.53l5.5.005a2.465 2.465 0 0 0-1-1.53 3.11 3.11 0 0 0-1.73-.575z" fill="#4A4644"/>
    </g>
</svg>
