<svg xmlns="http://www.w3.org/2000/svg" width="152" height="60" viewBox="0 0 152 60">
    <g fill="none">
        <path fill="#86BE3C" d="M5.625 15.193l-.574-.573c-1.78-1.78-2.331-4.323-1.657-6.578C1.614 7.64.286 6.05.286 4.148.286 1.944 2.073.156 4.277.156c1.985.001 3.63 1.449 3.94 3.346 2.153-.506 4.51.082 6.19 1.761l.229.23-2.946 2.944-.229-.23c-.955-.955-2.505-.955-3.461.001-.96.96-.958 2.514-.006 3.467l.577.575 2.946 2.943 3.116 3.114-2.943 2.946-3.12-3.115-2.945-2.945" transform="translate(2 15)"/>
        <path fill="#E4B645" d="M8.92 11.9l3.118-3.116 2.946-2.943.575-.573c1.773-1.773 4.3-2.33 6.546-1.671.268-1.944 1.937-3.44 3.954-3.44 2.205 0 3.993 1.786 3.992 3.991 0 2.026-1.51 3.7-3.466 3.958.643 2.237.083 4.746-1.678 6.509l-.23.23-2.944-2.946.228-.228c.956-.957.956-2.507 0-3.463-.952-.952-2.498-.954-3.458.005l-.575.574-2.946 2.945-3.116 3.113-2.946-2.944" transform="translate(2 15)"/>
        <path fill="#C33734" d="M22.184 26.763c-2.265.697-4.832.149-6.625-1.644l-.225-.225 2.943-2.947.226.227c.956.956 2.507.956 3.463 0 .952-.953.954-2.498-.005-3.458l-.576-.576-2.944-2.947-3.11-3.113 2.946-2.944 3.108 3.112 2.943 2.945.579.58c1.693 1.693 2.278 4.075 1.751 6.242 1.939.273 3.43 1.939 3.43 3.953 0 2.205-1.788 3.99-3.991 3.99-1.933 0-3.544-1.37-3.913-3.195" transform="translate(2 15)"/>
        <path fill="#748EC4" d="M21.036 18.489l-3.108 3.11-2.944 2.947-.577.577c-1.7 1.702-4.099 2.28-6.276 1.74-.406 1.774-1.994 3.095-3.89 3.096-2.206 0-3.993-1.787-3.993-3.991 0-1.888 1.31-3.47 3.07-3.886-.557-2.187.02-4.603 1.733-6.315l.225-.224 2.946 2.944-.228.226c-.955.956-.955 2.504.001 3.462.96.96 2.514.957 3.466.004l.577-.578 2.944-2.945 3.11-3.113 2.944 2.946" transform="translate(2 15)"/>
        <path fill="#000" d="M45.048 6.046v12.489c0 1.104-.336 2.04-.996 2.78-.807.902-2.012 1.36-3.581 1.36l-1.407-.104-4.238-.696-.704 1.594 4.306.665c.804.123 1.553.186 2.226.186 2.33 0 4.088-.655 5.228-1.944.917-1.054 1.382-2.43 1.382-4.093V6.046h-2.216M62.343 21.701c-1.302.741-2.883 1.116-4.7 1.116-1.859 0-3.45-.368-4.737-1.092-1.566-.876-2.326-2.11-2.326-3.771 0-1.637.782-2.906 2.326-3.77 1.287-.725 2.878-1.093 4.737-1.093 1.843 0 3.429.368 4.726 1.093 1.53.871 2.302 2.14 2.302 3.77 0 1.614-.783 2.875-2.328 3.747zm1.303-8.759c-1.689-.922-3.707-1.389-6.003-1.389-2.276 0-4.3.467-6.002 1.388-2.151 1.17-3.243 2.86-3.243 5.02 0 2.16 1.092 3.845 3.243 5.006 1.703.922 3.721 1.388 6.002 1.388 2.286 0 4.304-.463 5.993-1.376 2.131-1.162 3.217-2.85 3.217-5.019 0-2.167-1.08-3.855-3.207-5.018M81.949 21.701c-1.303.741-2.883 1.116-4.7 1.116-1.86 0-3.45-.368-4.737-1.092-1.566-.876-2.327-2.11-2.327-3.771 0-1.637.782-2.906 2.327-3.77 1.287-.725 2.878-1.093 4.736-1.093 1.838 0 3.429.368 4.726 1.093 1.524.871 2.302 2.14 2.302 3.77 0 1.614-.783 2.875-2.327 3.747zm1.302-8.759c-1.688-.922-3.707-1.389-6.003-1.389-2.275 0-4.299.467-6.003 1.388-2.152 1.17-3.243 2.86-3.243 5.02 0 2.16 1.091 3.845 3.243 5.006 1.704.922 3.722 1.388 6.003 1.388 2.286 0 4.3-.463 5.988-1.376 2.136-1.162 3.218-2.85 3.218-5.019 0-2.168-1.076-3.855-3.203-5.018M110.301 12.63c-1.205-.713-2.75-1.077-4.587-1.077-2.337 0-4.232.735-5.648 2.163-1.37-1.428-3.259-2.163-5.632-2.163-1.916 0-3.476.404-4.68 1.172v-.993h-2.111V24.14h2.11V15.65c.145-.612.546-1.175 1.2-1.64.865-.61 2.008-.919 3.403-.919 1.226 0 2.286.253 3.141.751 1.025.585 1.519 1.402 1.519 2.5v7.799h2.075v-7.798c0-1.1.494-1.923 1.513-2.513.865-.49 1.936-.739 3.177-.739 1.24 0 2.306.253 3.166.752 1.02.584 1.514 1.401 1.514 2.5v7.798h2.105v-7.508c0-1.766-.761-3.114-2.265-4.003M114.271 6.046L114.271 24.141 116.376 24.141 116.376 6.046 114.271 6.046M120.263 17.954c0-1.645.783-2.917 2.317-3.783 1.292-.716 2.894-1.08 4.763-1.08 2.311 0 4.118.564 5.374 1.677 1.107.983 1.669 2.265 1.669 3.806v1.47c-.886.978-2.178 1.75-3.846 2.29-.979.321-2.055.483-3.197.483-1.9 0-3.512-.355-4.773-1.056-1.555-.868-2.307-2.113-2.307-3.807zm14.123-6.222v2.124c-1.808-1.514-4.186-2.303-7.11-2.303-2.369 0-4.397.452-6.045 1.34-2.09 1.138-3.15 2.843-3.15 5.067 0 2.194 1.086 3.886 3.228 5.031 1.683.906 3.717 1.364 6.039 1.364 1.168 0 2.296-.139 3.356-.412 1.493-.385 2.724-.966 3.682-1.714v1.912h2.11V11.73h-2.11M140.97 21.816c-1.467 0-1.688.762-1.688 1.216 0 .467.221 1.251 1.688 1.251 1.457 0 1.674-.784 1.674-1.251 0-.454-.217-1.216-1.674-1.216zM142 5.76h-2.106v14.298H142V5.76M145.398 6.053h-.875v1.713h-.417V6.053h-.875V5.76h2.167v.293zm.747.186l.005.134.005.214v1.179h-.397V5.76h.551l.726 1.6.726-1.6h.546v2.006h-.391V6.241l-.685 1.525h-.391l-.695-1.527" transform="translate(2 15)"/>
    </g>
</svg>
