<svg height="37" viewBox="0 0 37 37" width="37" xmlns="http://www.w3.org/2000/svg"><g fill="none" fill-rule="evenodd" transform="translate(2 2)"><circle cx="16.5" cy="16.5" fill="none" r="15.5" stroke="var(--icon-color, #000000)" stroke-width="2"/><path d="m21.252 23v-1.653h-6.82l4.065-3.914c.849-.81 1.425-1.533 1.73-2.166.303-.633.455-1.305.455-2.014 0-1.14-.411-2.043-1.235-2.707-.823-.665-1.931-.998-3.325-.998-1.038 0-1.979.177-2.821.532-.843.355-1.523.849-2.043 1.482l1.292 1.121c.798-.963 1.932-1.444 3.401-1.444.912 0 1.612.193 2.1.58.487.386.731.927.731 1.624 0 .469-.114.934-.342 1.396-.228.463-.671 1.01-1.33 1.644l-5.415 5.225v1.292z" fill="var(--icon-color, #000000)" fill-rule="nonzero"/></g></svg>
