<svg xmlns="http://www.w3.org/2000/svg" width="116" height="116" viewBox="0 0 116 116">
    <g fill="none" fill-rule="evenodd">
        <g>
            <g>
                <g>
                    <g>
                        <g transform="translate(-242 -458) translate(40 458) translate(202) translate(2 2)">
                            <circle cx="56" cy="56" r="55" fill="#FFF" fill-opacity="0" stroke="#50BD5C" stroke-width="2"/>
                            <path fill="#50BD5C" d="M56 104v-2c25.07 0 45.457-20.056 45.99-45h2c-.533 26.049-21.815 47-47.99 47zm0-96v2c-25.405 0-46 20.595-46 46 0 .334.004.668.01 1.001h-2C8.003 56.668 8 56.334 8 56 8 29.49 29.49 8 56 8z"/>
                            <path fill="#50BD5C" fill-rule="nonzero" d="M56.627 62.754c0-1.073.184-2.016.552-2.829.368-.813.813-1.51 1.334-2.093.521-.583 1.257-1.303 2.208-2.162 1.012-.89 1.817-1.679 2.415-2.369.598-.69 1.104-1.518 1.518-2.484.414-.966.621-2.093.621-3.381 0-2.392-.935-4.301-2.806-5.727-1.87-1.426-4.37-2.139-7.498-2.139-4.845 0-8.54 1.518-11.086 4.554l1.702 1.334c1.104-1.288 2.407-2.246 3.91-2.875 1.503-.629 3.281-.943 5.336-.943 2.545 0 4.523.567 5.934 1.702 1.41 1.135 2.116 2.607 2.116 4.416 0 1.441-.33 2.63-.989 3.565-.66.935-1.679 2.016-3.059 3.243-1.012.89-1.817 1.671-2.415 2.346-.598.675-1.112 1.495-1.541 2.461-.43.966-.644 2.093-.644 3.381h2.392zm-1.196 9.43c.552 0 1.012-.184 1.38-.552.368-.368.552-.813.552-1.334 0-.521-.184-.966-.552-1.334-.368-.368-.828-.552-1.38-.552-.521 0-.966.184-1.334.552-.368.368-.552.813-.552 1.334 0 .521.184.966.552 1.334.368.368.813.552 1.334.552z"/>
                        </g>
                    </g>
                </g>
            </g>
        </g>
    </g>
</svg>
