<svg xmlns="http://www.w3.org/2000/svg" width="52" height="52" viewBox="0 0 52 52">
    <g fill="#AF53FF" fill-rule="evenodd">
        <path d="M24 0c13.255 0 24 10.745 24 24S37.255 48 24 48 0 37.255 0 24 10.745 0 24 0zm0 2C11.85 2 2 11.85 2 24s9.85 22 22 22 22-9.85 22-22S36.15 2 24 2z" transform="translate(2 2)"/>
        <path d="M20.707 17.636c.39.39.39 1.024 0 1.414L15.757 24l4.95 4.95c.39.39.39 1.023 0 1.414-.39.39-1.024.39-1.414 0l-5.657-5.657c-.39-.39-.39-1.024 0-1.414l5.657-5.657c.39-.39 1.024-.39 1.414 0zM33 23c.552 0 1 .448 1 1s-.448 1-1 1H22c-.552 0-1-.448-1-1s.448-1 1-1h11z" transform="translate(2 2)"/>
    </g>
</svg>
