<svg xmlns="http://www.w3.org/2000/svg" width="62" height="62" viewBox="0 0 62 62">
    <g fill="none" fill-rule="evenodd">
        <g>
            <g>
                <g>
                    <g>
                        <g>
                            <g>
                                <g>
                                    <g>
                                        <path fill="#FFF" fill-opacity="0" d="M0 0H62V62H0z" transform="translate(-755 -729) translate(165 555) translate(40 40) translate(530 120) translate(20 14)"/>
                                        <path fill="#AF53FF" d="M50.154 15c1.337 0 1.822.14 2.311.4.49.262.873.646 1.134 1.135.262.489.401.974.401 2.31v22.31c0 1.336-.14 1.821-.4 2.31-.262.49-.646.873-1.135 1.134-.489.262-.974.401-2.31.401H22.661c-1.729 2.989-4.96 5-8.662 5-5.523 0-10-4.477-10-10 0-3.701 2.011-6.933 5-8.662V18.846c0-1.337.14-1.822.4-2.311.262-.49.646-.873 1.135-1.134.489-.262.974-.401 2.31-.401h37.31zM14 32c-4.418 0-8 3.582-8 8s3.582 8 8 8 8-3.582 8-8-3.582-8-8-8zm4.964 5.31c.39.39.39 1.021 0 1.41l-.002.003-6.382 6.346-3.516-3.516c-.39-.39-.39-1.023 0-1.414.39-.39 1.024-.39 1.414 0L12.6 42.26l4.95-4.95c.39-.39 1.023-.39 1.414 0zM52 27H11v3.458c.947-.298 1.955-.458 3-.458 5.523 0 10 4.477 10 10 0 1.046-.16 2.054-.458 3h26.535c.669 0 .911-.07 1.156-.2.244-.131.436-.323.567-.567.118-.223.187-.443.198-.984l.002-.172V27zm-4 11c.552 0 1 .448 1 1s-.448 1-1 1h-6c-.552 0-1-.448-1-1s.448-1 1-1h6zm2.077-21H12.923c-.669 0-.911.07-1.156.2-.244.131-.436.323-.567.567-.118.223-.187.443-.198.984l-.002.172V22h41v-3.077c0-.669-.07-.911-.2-1.156-.131-.244-.323-.436-.567-.567-.245-.13-.487-.2-1.156-.2z" transform="translate(-755 -729) translate(165 555) translate(40 40) translate(530 120) translate(20 14)"/>
                                    </g>
                                </g>
                            </g>
                        </g>
                    </g>
                </g>
            </g>
        </g>
    </g>
</svg>
