<svg xmlns="http://www.w3.org/2000/svg" width="62" height="62" viewBox="0 0 62 62">
    <g fill="none" fill-rule="evenodd">
        <g>
            <g>
                <g>
                    <g>
                        <g>
                            <g>
                                <g>
                                    <path fill="#FFF" fill-opacity="0" d="M0 0H62V62H0z" transform="translate(-465 -609) translate(405 555) translate(40 40) translate(20 14)"/>
                                    <g transform="translate(-465 -609) translate(405 555) translate(40 40) translate(20 14) translate(8 8)">
                                        <circle cx="23" cy="23" r="22" fill="#FFF" fill-opacity="0" stroke="#36B661" stroke-width="2"/>
                                        <path fill="#36B661" d="M16 24h2v3h-2v2h2v4h2v-4h10v-2H20v-3h3c3.447 0 8-.525 8-5s-4.553-5-8-5h-5v8h-2v2zm6-2h-2v-6h2c3.6 0 7 .362 7 3s-3.4 3-7 3z"/>
                                    </g>
                                </g>
                            </g>
                        </g>
                    </g>
                </g>
            </g>
        </g>
    </g>
</svg>
