<svg width="62" height="46" viewBox="0 0 62 46" xmlns="http://www.w3.org/2000/svg">
    <path d="M56.154 2c1.337 0 1.822.14 2.311.4.49.262.873.646 1.134 1.135.262.489.401.974.401 2.31v25.31c0 1.336-.14 1.821-.4 2.31a2.726 2.726 0 0 1-1.135 1.134c-.489.262-.974.401-2.31.401H25.621c-1.333 5.176-6.03 9-11.622 9-6.627 0-12-5.373-12-12 0-4.843 2.869-9.016 7-10.912V5.846c0-1.337.14-1.822.4-2.311A2.726 2.726 0 0 1 10.536 2.4c.489-.262.974-.401 2.31-.401h43.31zM14 22C8.477 22 4 26.477 4 32s4.477 10 10 10 10-4.477 10-10-4.477-10-10-10zm5.92 6.707a.997.997 0 0 1 0 1.41l-.001.002-7.09 7.053-4.222-4.222a1 1 0 0 1 1.414-1.414l2.829 2.828 5.657-5.657a1 1 0 0 1 1.414 0zM58 15H11v5.378A12.022 12.022 0 0 1 14 20c6.627 0 12 5.373 12 12 0 .337-.014.67-.041 1h30.118c.669 0 .911-.07 1.156-.2.244-.131.436-.323.567-.567.118-.223.187-.443.198-.984l.002-.172V15zm-4 13a1 1 0 0 1 0 2h-6a1 1 0 0 1 0-2h6zm2.077-24H12.923c-.669 0-.911.07-1.156.2-.244.131-.436.323-.567.567-.118.223-.187.443-.198.984L11 5.923V10h47V5.923c0-.669-.07-.911-.2-1.156a1.363 1.363 0 0 0-.567-.567c-.245-.13-.487-.2-1.156-.2z" fill="#AF53FF" fill-rule="evenodd"/>
</svg>
