<?xml version="1.0" encoding="UTF-8"?>
<svg width="74px" height="62px" viewBox="0 0 74 62" version="1.1" xmlns="http://www.w3.org/2000/svg" xmlns:xlink="http://www.w3.org/1999/xlink">
    <!-- Generator: Sketch 61.2 (89653) - https://sketch.com -->
    <title>icon-settings-medium</title>
    <desc>Created with Sketch.</desc>
    <g id="icon-settings-medium" stroke="none" stroke-width="1" fill="none" fill-rule="evenodd" fill-opacity="0">
        <g id="Group-40" transform="translate(2.000000, 2.000000)" fill="#D8D8D8" stroke="#AF53FF" stroke-width="1.60000002">
            <path d="M16.8416667,2.47210534 L16.8416667,5.81250042 L16.218811,5.95393047 C14.7152345,6.29534329 13.2880188,6.88965941 11.9903759,7.70790725 L11.4496537,8.04886757 L9.08779848,5.68539798 C8.43550433,5.03265796 7.37815311,5.03265796 6.72585895,5.68539798 L5.6822873,6.72968294 C5.02969135,7.38272496 5.02969135,8.44174154 5.6822873,9.09478356 L8.0435407,11.4576509 L7.7033674,11.9978627 C6.8856224,13.2964817 6.29166158,14.7247948 5.95044866,16.2295459 L5.80915959,16.8526316 L2.47041674,16.8526316 C1.54799347,16.8526316 0.800000012,17.6011363 0.800000012,18.5247369 L0.800000012,20.0015789 C0.800000012,20.9251795 1.54799347,21.6736842 2.47041674,21.6736842 L5.80915959,21.6736842 L5.95044866,22.2967699 C6.29166158,23.801521 6.8856224,25.2298341 7.7033674,26.528453 L8.0435407,27.0686648 L5.6822873,29.4315322 C5.02969135,30.0845742 5.02969135,31.1435908 5.6822873,31.7966329 L6.72585895,32.8409178 C7.37815311,33.4936578 8.43550433,33.4936578 9.08779848,32.8409178 L11.4496537,30.4774482 L11.9903759,30.8184085 C13.2880188,31.6366564 14.7152345,32.2309725 16.218811,32.5723853 L16.8416667,32.7138154 L16.8416667,36.0542105 C16.8416667,36.977811 17.5896601,37.7263158 18.5120834,37.7263158 L19.9879166,37.7263158 C20.9103399,37.7263158 21.6583333,36.977811 21.6583333,36.0542105 L21.6583333,32.7138154 L22.281189,32.5723853 C23.7847655,32.2309725 25.2119812,31.6366564 26.5096241,30.8184085 L27.0503463,30.4774482 L29.4122015,32.8409178 C30.0644957,33.4936578 31.1218469,33.4936578 31.774141,32.8409178 L32.8177127,31.7966329 C33.4703087,31.1435908 33.4703087,30.0845742 32.8177127,29.4315322 L30.4564593,27.0686648 L30.7966326,26.528453 C31.6143776,25.2298341 32.2083384,23.801521 32.5495513,22.2967699 L32.6908404,21.6736842 L36.0295833,21.6736842 C36.9520065,21.6736842 37.7,20.9251795 37.7,20.0015789 L37.7,18.5247369 C37.7,17.6011363 36.9520065,16.8526316 36.0295833,16.8526316 L32.6908404,16.8526316 L32.5495513,16.2295459 C32.2083384,14.7247948 31.6143776,13.2964817 30.7966326,11.9978627 L30.4564593,11.4576509 L32.8177127,9.09478356 C33.4703087,8.44174154 33.4703087,7.38272496 32.8177127,6.72968294 L31.774141,5.68539798 C31.1218469,5.03265796 30.0644957,5.03265796 29.4122015,5.68539798 L27.0503463,8.04886757 L26.5096241,7.70790725 C25.2119812,6.88965941 23.7847655,6.29534329 22.281189,5.95393047 L21.6583333,5.81250042 L21.6583333,2.47210534 C21.6583333,1.54850474 20.9103399,0.800000012 19.9879166,0.800000012 L18.5120834,0.800000012 C17.5896601,0.800000012 16.8416667,1.54850474 16.8416667,2.47210534 Z M19.25,26.4842105 C15.2642226,26.4842105 12.0333333,23.2511128 12.0333333,19.2631579 C12.0333333,15.275203 15.2642226,12.0421053 19.25,12.0421053 C23.2357774,12.0421053 26.4666667,15.275203 26.4666667,19.2631579 C26.4666667,23.2511128 23.2357774,26.4842105 19.25,26.4842105 Z" id="Combined-Shape-Copy"></path>
            <path d="M47.8416667,21.4721053 L47.8416667,24.8125004 L47.218811,24.9539305 C45.7152345,25.2953433 44.2880188,25.8896594 42.9903759,26.7079072 L42.4496537,27.0488676 L40.0877985,24.685398 C39.4355043,24.032658 38.3781531,24.032658 37.725859,24.685398 L36.6822873,25.7296829 C36.0296913,26.382725 36.0296913,27.4417415 36.6822873,28.0947836 L39.0435407,30.4576509 L38.7033674,30.9978627 C37.8856224,32.2964817 37.2916616,33.7247948 36.9504487,35.2295459 L36.8091596,35.8526316 L33.4704167,35.8526316 C32.5479935,35.8526316 31.8,36.6011363 31.8,37.5247369 L31.8,39.0015789 C31.8,39.9251795 32.5479935,40.6736842 33.4704167,40.6736842 L36.8091596,40.6736842 L36.9504487,41.2967699 C37.2916616,42.801521 37.8856224,44.2298341 38.7033674,45.528453 L39.0435407,46.0686648 L36.6822873,48.4315322 C36.0296913,49.0845742 36.0296913,50.1435908 36.6822873,50.7966329 L37.725859,51.8409178 C38.3781531,52.4936578 39.4355043,52.4936578 40.0877985,51.8409178 L42.4496537,49.4774482 L42.9903759,49.8184085 C44.2880188,50.6366564 45.7152345,51.2309725 47.218811,51.5723853 L47.8416667,51.7138154 L47.8416667,55.0542105 C47.8416667,55.977811 48.5896601,56.7263158 49.5120834,56.7263158 L50.9879166,56.7263158 C51.9103399,56.7263158 52.6583333,55.977811 52.6583333,55.0542105 L52.6583333,51.7138154 L53.281189,51.5723853 C54.7847655,51.2309725 56.2119812,50.6366564 57.5096241,49.8184085 L58.0503463,49.4774482 L60.4122015,51.8409178 C61.0644957,52.4936578 62.1218469,52.4936578 62.774141,51.8409178 L63.8177127,50.7966329 C64.4703087,50.1435908 64.4703087,49.0845742 63.8177127,48.4315322 L61.4564593,46.0686648 L61.7966326,45.528453 C62.6143776,44.2298341 63.2083384,42.801521 63.5495513,41.2967699 L63.6908404,40.6736842 L67.0295833,40.6736842 C67.9520065,40.6736842 68.7,39.9251795 68.7,39.0015789 L68.7,37.5247369 C68.7,36.6011363 67.9520065,35.8526316 67.0295833,35.8526316 L63.6908404,35.8526316 L63.5495513,35.2295459 C63.2083384,33.7247948 62.6143776,32.2964817 61.7966326,30.9978627 L61.4564593,30.4576509 L63.8177127,28.0947836 C64.4703087,27.4417415 64.4703087,26.382725 63.8177127,25.7296829 L62.774141,24.685398 C62.1218469,24.032658 61.0644957,24.032658 60.4122015,24.685398 L58.0503463,27.0488676 L57.5096241,26.7079072 C56.2119812,25.8896594 54.7847655,25.2953433 53.281189,24.9539305 L52.6583333,24.8125004 L52.6583333,21.4721053 C52.6583333,20.5485047 51.9103399,19.8 50.9879166,19.8 L49.5120834,19.8 C48.5896601,19.8 47.8416667,20.5485047 47.8416667,21.4721053 Z M50.25,45.4842105 C46.2642226,45.4842105 43.0333333,42.2511128 43.0333333,38.2631579 C43.0333333,34.275203 46.2642226,31.0421053 50.25,31.0421053 C54.2357774,31.0421053 57.4666667,34.275203 57.4666667,38.2631579 C57.4666667,42.2511128 54.2357774,45.4842105 50.25,45.4842105 Z" id="Combined-Shape-Copy"></path>
        </g>
    </g>
</svg>