<svg xmlns="http://www.w3.org/2000/svg" width="126" height="92" viewBox="0 0 126 92">
    <g fill="#D8D8D8" fill-opacity="0" fill-rule="evenodd" stroke="#0A79FA" stroke-width="2">
        <path d="M27.667 4v6.299l-.77.182c-2.306.544-4.498 1.456-6.503 2.695l-.674.416-4.455-4.455c-1.171-1.172-3.07-1.172-4.243 0l-1.885 1.885c-1.172 1.172-1.172 3.072 0 4.243l4.455 4.455-.416.674c-1.239 2.005-2.15 4.197-2.695 6.503l-.182.77H4c-1.657 0-3 1.343-3 3v2.666c0 1.657 1.343 3 3 3h6.299l.182.77c.544 2.306 1.456 4.498 2.695 6.503l.416.674-4.455 4.455c-1.172 1.171-1.172 3.07 0 4.243l1.885 1.885c1.172 1.172 3.072 1.172 4.243 0l4.455-4.455.674.416c2.005 1.239 4.197 2.15 6.503 2.695l.77.182V60c0 1.657 1.343 3 3 3h2.666c1.657 0 3-1.343 3-3v-6.299l.77-.182c2.306-.544 4.498-1.456 6.503-2.695l.674-.416 4.455 4.455c1.171 1.172 3.07 1.172 4.243 0l1.885-1.885c1.172-1.172 1.172-3.072 0-4.243l-4.455-4.455.416-.674c1.239-2.005 2.15-4.197 2.695-6.503l.182-.77H60c1.657 0 3-1.343 3-3v-2.666c0-1.657-1.343-3-3-3h-6.299l-.182-.77c-.544-2.306-1.456-4.498-2.695-6.503l-.416-.674 4.455-4.455c1.172-1.171 1.172-3.07 0-4.243l-1.885-1.885c-1.172-1.172-3.072-1.172-4.243 0l-4.455 4.455-.674-.416c-2.005-1.239-4.197-2.15-6.503-2.695l-.77-.182V4c0-1.657-1.343-3-3-3h-2.666c-1.657 0-3 1.343-3 3zM32 45.444c-7.425 0-13.444-6.019-13.444-13.444 0-7.425 6.019-13.444 13.444-13.444 7.425 0 13.444 6.019 13.444 13.444 0 7.425-6.019 13.444-13.444 13.444z" transform="translate(4 4)"/>
        <path d="M91.526 24.57l-1.944 5.983-.788-.065c-2.358-.194-4.721-.004-7.008.554l-.769.187-2.857-5.607c-.75-1.473-2.554-2.06-4.027-1.308l-2.373 1.208c-1.474.751-2.06 2.555-1.309 4.028l2.857 5.607-.603.512c-1.796 1.522-3.338 3.323-4.567 5.344l-.411.676-5.983-1.944c-1.573-.51-3.262.35-3.773 1.923l-.823 2.532c-.511 1.573.35 3.263 1.922 3.774l5.983 1.944-.065.788c-.194 2.358-.004 4.721.554 7.008l.187.769-5.607 2.857c-1.473.75-2.06 2.554-1.308 4.027l1.208 2.373c.751 1.474 2.555 2.06 4.028 1.309l5.607-2.857.512.603c1.522 1.796 3.323 3.338 5.344 4.567l.676.411-1.944 5.983c-.51 1.573.35 3.262 1.923 3.773l2.532.823c1.573.511 3.263-.35 3.774-1.922l1.944-5.983.788.065c2.358.194 4.721.004 7.008-.554l.769-.187 2.857 5.607c.75 1.473 2.554 2.06 4.027 1.308l2.373-1.208c1.474-.751 2.06-2.555 1.309-4.028l-2.857-5.607.603-.512c1.796-1.522 3.338-3.323 4.567-5.344l.411-.676 5.983 1.944c1.573.51 3.262-.35 3.773-1.923l.823-2.532c.511-1.573-.35-3.263-1.922-3.774l-5.983-1.944.065-.788c.194-2.358.004-4.721-.554-7.008l-.187-.769 5.607-2.857c1.473-.75 2.06-2.554 1.308-4.027l-1.208-2.373c-.751-1.474-2.555-2.06-4.028-1.309l-5.607 2.857-.512-.603c-1.522-1.796-3.323-3.338-5.344-4.567l-.676-.411 1.944-5.983c.51-1.573-.35-3.262-1.923-3.773l-2.532-.823c-1.573-.511-3.263.35-3.774 1.922zm-8.675 40.7c-7.053-2.291-10.913-9.867-8.621-16.92 2.291-7.052 9.867-10.912 16.92-8.62 7.052 2.291 10.912 9.867 8.62 16.92-2.291 7.052-9.867 10.912-16.92 8.62z" transform="translate(4 4)"/>
    </g>
</svg>
