<svg width="321" height="482" viewBox="0 0 321 482" xmlns="http://www.w3.org/2000/svg" xmlns:xlink="http://www.w3.org/1999/xlink">
    <defs>
        <filter x="-96.1%" y="-73.4%" width="292.1%" height="331.7%" filterUnits="objectBoundingBox" id="2r5key6q1a">
            <feOffset dy="6" in="SourceAlpha" result="shadowOffsetOuter1"/>
            <feGaussianBlur stdDeviation="8" in="shadowOffsetOuter1" result="shadowBlurOuter1"/>
            <feColorMatrix values="0 0 0 0 0 0 0 0 0 0 0 0 0 0 0 0 0 0 0.26 0" in="shadowBlurOuter1" result="shadowMatrixOuter1"/>
            <feOffset dy="35" in="SourceAlpha" result="shadowOffsetOuter2"/>
            <feGaussianBlur stdDeviation="8" in="shadowOffsetOuter2" result="shadowBlurOuter2"/>
            <feColorMatrix values="0 0 0 0 0 0 0 0 0 0 0 0 0 0 0 0 0 0 0.0503283514 0" in="shadowBlurOuter2" result="shadowMatrixOuter2"/>
            <feMerge>
                <feMergeNode in="shadowMatrixOuter1"/>
                <feMergeNode in="shadowMatrixOuter2"/>
            </feMerge>
        </filter>
        <filter x="-112%" y="-83.6%" width="324.1%" height="379.8%" filterUnits="objectBoundingBox" id="ql3qfvy19c">
            <feOffset dy="25" in="SourceAlpha" result="shadowOffsetOuter1"/>
            <feGaussianBlur stdDeviation="20.5" in="shadowOffsetOuter1" result="shadowBlurOuter1"/>
            <feColorMatrix values="0 0 0 0 0 0 0 0 0 0 0 0 0 0 0 0 0 0 0.23 0" in="shadowBlurOuter1" result="shadowMatrixOuter1"/>
            <feOffset dy="74" in="SourceAlpha" result="shadowOffsetOuter2"/>
            <feGaussianBlur stdDeviation="20.5" in="shadowOffsetOuter2" result="shadowBlurOuter2"/>
            <feColorMatrix values="0 0 0 0 0 0 0 0 0 0 0 0 0 0 0 0 0 0 0.0503283514 0" in="shadowBlurOuter2" result="shadowMatrixOuter2"/>
            <feMerge>
                <feMergeNode in="shadowMatrixOuter1"/>
                <feMergeNode in="shadowMatrixOuter2"/>
            </feMerge>
        </filter>
        <filter x="-97.7%" y="-75.8%" width="295.4%" height="347%" filterUnits="objectBoundingBox" id="ja7y1w63ye">
            <feOffset dy="14" in="SourceAlpha" result="shadowOffsetOuter1"/>
            <feGaussianBlur stdDeviation="13" in="shadowOffsetOuter1" result="shadowBlurOuter1"/>
            <feColorMatrix values="0 0 0 0 0 0 0 0 0 0 0 0 0 0 0 0 0 0 0.23 0" in="shadowBlurOuter1" result="shadowMatrixOuter1"/>
            <feOffset dy="47" in="SourceAlpha" result="shadowOffsetOuter2"/>
            <feGaussianBlur stdDeviation="13" in="shadowOffsetOuter2" result="shadowBlurOuter2"/>
            <feColorMatrix values="0 0 0 0 0 0 0 0 0 0 0 0 0 0 0 0 0 0 0.0503283514 0" in="shadowBlurOuter2" result="shadowMatrixOuter2"/>
            <feMerge>
                <feMergeNode in="shadowMatrixOuter1"/>
                <feMergeNode in="shadowMatrixOuter2"/>
            </feMerge>
        </filter>
        <circle id="eh0ai4u52f" cx="31.981" cy="31.981" r="31.981"/>
        <rect id="a3ysvjspid" x="0" y="0" width="87.926" height="87.926" rx="19.595"/>
        <path d="M15.483 0h12.234C36.268 0 43.2 6.932 43.2 15.483v10.5c0 7.248-5.876 13.124-13.124 13.124l-7.425.575-9.316 8.506a.58.58 0 0 1-.972-.43v-8.651C5.535 39.107 0 33.572 0 26.744V15.483C0 6.932 6.932 0 15.483 0z" id="qmrcq3u4ib"/>
    </defs>
    <g fill="none" fill-rule="evenodd">
        <g transform="translate(262 117)">
            <use fill="#000" filter="url(#2r5key6q1a)" xlink:href="#qmrcq3u4ib"/>
            <use fill="#844DC8" xlink:href="#qmrcq3u4ib"/>
        </g>
        <path d="M276.483 127.967c1.064 1.202 2.042 2.466 2.834 3.86.486.857.353 1.904-.53 2.488-.214.142-.41.308-.61.468-.174.14-.34.282-.46.472-.219.348-.23.758-.088 1.136 1.088 2.91 2.922 5.172 5.931 6.39.482.196.965.423 1.52.36.93-.106 1.23-1.098 1.882-1.616.636-.506 1.45-.513 2.135-.09.685.422 1.35.875 2.01 1.333.65.45 1.295.89 1.893 1.402.575.493.773 1.14.45 1.81-.593 1.224-1.456 2.243-2.7 2.894-.282.147-.607.214-.928.296l-.24.066c.396-.12-.456-.135 0 0-.456-.135-.89-.226-1.294-.388-4.18-1.688-8.027-3.865-11.075-7.203-1.733-1.898-3.089-4.04-4.235-6.308-.544-1.076-1.002-2.193-1.47-3.303-.425-1.013.202-2.059.862-2.822.62-.716 1.418-1.263 2.282-1.667.674-.316 1.339-.134 1.831.422zm6.502-1.825.159.002c5.467.149 9.958 3.68 10.92 8.94.165.897.223 1.813.296 2.723.03.382-.192.746-.616.751-.438.005-.636-.352-.664-.734-.056-.757-.096-1.518-.203-2.269-.566-3.963-3.814-7.243-7.868-7.946-.61-.106-1.234-.134-1.852-.197-.391-.04-.903-.063-.99-.536-.072-.396.272-.711.66-.732l.158-.002zm.833 2.845c1.255.07 2.467.333 3.583.908 2.268 1.17 3.564 3.015 3.942 5.479.017.111.045.222.054.334.017.221.029.442.044.709l.006.122-.002-.035.008.122c-.009.067-.014.223-.054.37-.145.534-.977.6-1.169.062a1.563 1.563 0 0 1-.065-.514c-.002-1.127-.254-2.253-.838-3.234a6.12 6.12 0 0 0-2.593-2.367 7.605 7.605 0 0 0-2.067-.617c-.312-.05-.627-.08-.94-.123-.38-.052-.582-.287-.564-.65.017-.342.273-.587.655-.566zm.878 2.915c2.12.149 3.635 1.216 3.85 3.644.016.171.034.352-.005.517a.543.543 0 0 1-.41.423l-.052.006-.047.001-.036.001h-.063c-.381-.035-.587-.272-.63-.643-.033-.285-.06-.573-.129-.85-.137-.545-.435-1.05-.907-1.385a2.404 2.404 0 0 0-.738-.347c-.336-.094-.685-.068-1.019-.148-.364-.087-.565-.373-.507-.705.052-.302.353-.538.693-.514z" fill="#FFF" fill-rule="nonzero"/>
        <g opacity=".2">
            <path d="M49.322 449h8.156c5.7 0 10.322 4.621 10.322 10.322v7a8.749 8.749 0 0 1-8.749 8.75l-4.95.383-6.21 5.67a.387.387 0 0 1-.649-.286v-5.768A8.242 8.242 0 0 1 39 466.83v-7.507c0-5.7 4.621-10.322 10.322-10.322z" fill="#844DC8"/>
            <path d="M48.655 456.311c.71.802 1.362 1.644 1.89 2.573.324.572.235 1.27-.353 1.66-.143.094-.274.205-.407.311a1.312 1.312 0 0 0-.307.315.842.842 0 0 0-.059.757c.726 1.94 1.948 3.448 3.955 4.26l.276.113c.233.089.473.157.737.127.62-.07.82-.731 1.254-1.077.424-.337.967-.342 1.423-.06.458.281.9.583 1.341.889.433.3.863.593 1.262.935.383.328.515.76.3 1.205-.396.817-.971 1.497-1.8 1.93-.177.092-.378.137-.579.188l-.2.053c.264-.079-.304-.09 0 0-.304-.09-.593-.15-.863-.258-2.787-1.125-5.351-2.577-7.383-4.802-1.155-1.265-2.06-2.694-2.824-4.205-.362-.717-.668-1.462-.979-2.203-.284-.674.134-1.372.575-1.88.413-.478.945-.843 1.52-1.112.45-.21.893-.09 1.221.281zm4.335-1.217.106.002h.021-.009.027-.016l.236.01c3.527.202 6.395 2.527 7.022 5.95.109.598.148 1.209.196 1.815.02.255-.128.498-.41.501-.293.003-.424-.235-.443-.49-.038-.504-.064-1.011-.135-1.512-.377-2.642-2.543-4.828-5.246-5.297-.406-.071-.822-.09-1.235-.132-.26-.026-.601-.042-.659-.357-.048-.264.181-.474.44-.488l.105-.002zm.555 1.897c.837.046 1.645.223 2.389.606 1.512.78 2.376 2.01 2.628 3.652.012.075.03.148.036.223.01.138.018.276.027.44l.006.11-.002-.031.006.093c-.006.044-.009.149-.036.247-.096.356-.651.4-.779.04a1.042 1.042 0 0 1-.044-.342c0-.751-.169-1.502-.558-2.155a4.08 4.08 0 0 0-1.729-1.579 5.07 5.07 0 0 0-1.378-.411c-.207-.034-.417-.054-.626-.082-.253-.035-.388-.191-.376-.434.011-.227.182-.39.436-.377zm.585 1.944c1.414.099 2.424.81 2.568 2.43.01.113.022.234-.004.343a.364.364 0 0 1-.257.279l-.05.007-.035.001h-.032l-.048-.001c-.243-.028-.375-.185-.404-.427-.021-.19-.039-.382-.085-.566a1.59 1.59 0 0 0-.605-.924 1.603 1.603 0 0 0-.492-.231c-.224-.063-.456-.046-.68-.099-.242-.058-.376-.249-.338-.47a.436.436 0 0 1 .462-.342z" fill="#FFF" fill-rule="nonzero"/>
        </g>
        <g transform="translate(78 215)">
            <use fill="#000" filter="url(#ql3qfvy19c)" xlink:href="#a3ysvjspid"/>
            <use fill="#3480D5" xlink:href="#a3ysvjspid"/>
        </g>
        <path d="M122.395 278.358s1.058-.119 1.6-.714c.496-.547.48-1.574.48-1.574s-.068-4.807 2.114-5.515c2.15-.697 4.913 4.646 7.84 6.701 2.214 1.554 3.896 1.214 3.896 1.214l7.828-.112s4.095-.258 2.153-3.55c-.159-.269-1.13-2.435-5.82-6.886-4.91-4.658-4.251-3.905 1.662-11.962 3.6-4.908 5.04-7.903 4.59-9.186-.429-1.223-3.077-.9-3.077-.9l-8.814.056s-.654-.091-1.138.205c-.474.29-.778.967-.778.967s-1.395 3.797-3.255 7.027c-3.925 6.814-5.494 7.175-6.136 6.75-1.492-.985-1.12-3.96-1.12-6.075 0-6.603.98-9.357-1.907-10.07-.958-.236-1.664-.392-4.114-.418-3.145-.033-5.806.01-7.313.765-1.003.502-1.777 1.62-1.305 1.685.582.08 1.901.364 2.6 1.337.904 1.257.872 4.078.872 4.078s.52 7.774-1.212 8.74c-1.187.662-2.817-.69-6.316-6.873-1.793-3.166-3.147-6.667-3.147-6.667s-.26-.654-.726-1.004c-.565-.424-1.354-.559-1.354-.559l-8.376.056s-1.257.036-1.719.595c-.41.498-.032 1.526-.032 1.526s6.556 15.686 13.981 23.59c6.81 7.249 14.54 6.773 14.54 6.773h3.503z" fill="#FFF"/>
        <g fill-rule="nonzero">
            <g transform="translate(51 11)">
                <use fill="#000" filter="url(#ja7y1w63ye)" xlink:href="#eh0ai4u52f"/>
                <use fill="#327EF9" xlink:href="#eh0ai4u52f"/>
            </g>
            <path d="M81.782 52.488c-1.536 1.487-3.048 2.961-4.56 4.435-.524.513-1.112.8-1.874.762-.512-.025-.8-.25-.962-.737-1.149-3.573-2.323-7.145-3.473-10.73-.112-.35-.274-.513-.624-.626a612.474 612.474 0 0 1-8.133-2.536c-.412-.137-.837-.3-1.2-.55-.561-.374-.636-.986-.137-1.436a5.367 5.367 0 0 1 1.587-.987c3.323-1.312 6.659-2.586 9.994-3.873 8.458-3.26 16.915-6.533 25.373-9.794 1.611-.625 2.848.25 2.673 1.999-.112 1.112-.4 2.211-.624 3.31-1.837 8.67-3.673 17.353-5.522 26.023-.437 2.061-1.887 2.598-3.573 1.35a3710.698 3710.698 0 0 1-8.508-6.285 6.635 6.635 0 0 0-.437-.325zm-6.371 2.636c.037-.012.062-.012.1-.025.012-.087.037-.162.05-.237.187-1.961.375-3.935.537-5.897.037-.437.187-.75.512-1.049 2.611-2.336 5.222-4.697 7.82-7.046 2.886-2.598 5.772-5.197 8.646-7.808.175-.162.25-.437.374-.662-.274-.025-.562-.137-.812-.075-.337.088-.65.287-.95.475-6.358 4.01-12.73 8.02-19.088 12.03-.362.225-.425.413-.287.812.474 1.35.9 2.711 1.336 4.073.588 1.799 1.175 3.61 1.762 5.41z" fill="#FFF"/>
        </g>
        <g opacity=".2" transform="translate(0 132)" fill-rule="nonzero">
            <circle fill="#327EF9" cx="16.783" cy="16.783" r="16.783"/>
            <path d="M16.154 21.772c-.807.78-1.6 1.554-2.393 2.328-.275.268-.584.42-.983.4-.27-.014-.42-.132-.505-.387-.603-1.875-1.22-3.75-1.823-5.632a.44.44 0 0 0-.328-.328 321.412 321.412 0 0 1-4.268-1.33 2.487 2.487 0 0 1-.629-.289c-.295-.197-.334-.518-.072-.754.243-.216.531-.4.833-.518 1.743-.688 3.494-1.357 5.244-2.032 4.439-1.711 8.877-3.429 13.315-5.14.846-.328 1.495.131 1.403 1.049-.059.583-.21 1.16-.327 1.737-.964 4.55-1.928 9.106-2.898 13.656-.23 1.082-.99 1.364-1.875.708-1.488-1.094-2.977-2.196-4.465-3.297a3.482 3.482 0 0 0-.23-.17zm-3.344 1.384c.02-.007.033-.007.053-.014.006-.045.02-.085.026-.124.098-1.03.197-2.065.282-3.095a.78.78 0 0 1 .269-.55c1.37-1.226 2.74-2.465 4.104-3.698 1.514-1.363 3.029-2.727 4.536-4.097.092-.085.132-.23.197-.348-.144-.013-.295-.072-.426-.039-.177.046-.341.15-.498.25-3.337 2.104-6.68 4.208-10.018 6.312-.19.118-.223.217-.15.427.249.708.471 1.422.7 2.137.309.944.617 1.895.925 2.839z" fill="#FFF"/>
        </g>
        <g opacity=".2" transform="translate(222 363)" fill-rule="nonzero">
            <circle fill="#327EF9" cx="16.783" cy="16.783" r="16.783"/>
            <path d="M16.154 21.772c-.807.78-1.6 1.554-2.393 2.328-.275.268-.584.42-.983.4-.27-.014-.42-.132-.505-.387-.603-1.875-1.22-3.75-1.823-5.632a.44.44 0 0 0-.328-.328 321.412 321.412 0 0 1-4.268-1.33 2.487 2.487 0 0 1-.629-.289c-.295-.197-.334-.518-.072-.754.243-.216.531-.4.833-.518 1.743-.688 3.494-1.357 5.244-2.032 4.439-1.711 8.877-3.429 13.315-5.14.846-.328 1.495.131 1.403 1.049-.059.583-.21 1.16-.327 1.737-.964 4.55-1.928 9.106-2.898 13.656-.23 1.082-.99 1.364-1.875.708-1.488-1.094-2.977-2.196-4.465-3.297a3.482 3.482 0 0 0-.23-.17zm-3.344 1.384c.02-.007.033-.007.053-.014.006-.045.02-.085.026-.124.098-1.03.197-2.065.282-3.095a.78.78 0 0 1 .269-.55c1.37-1.226 2.74-2.465 4.104-3.698 1.514-1.363 3.029-2.727 4.536-4.097.092-.085.132-.23.197-.348-.144-.013-.295-.072-.426-.039-.177.046-.341.15-.498.25-3.337 2.104-6.68 4.208-10.018 6.312-.19.118-.223.217-.15.427.249.708.471 1.422.7 2.137.309.944.617 1.895.925 2.839z" fill="#FFF"/>
        </g>
        <g opacity=".2" transform="translate(208 25)">
            <rect fill="#3480D5" width="25.82" height="25.82" rx="5.754"/>
            <path d="M13.037 18.606s.31-.035.47-.21c.145-.16.14-.462.14-.462s-.02-1.412.621-1.62c.632-.205 1.443 1.364 2.303 1.968.65.456 1.144.356 1.144.356l2.299-.032s1.202-.076.632-1.043c-.047-.079-.332-.715-1.71-2.022-1.44-1.368-1.248-1.147.489-3.513 1.057-1.441 1.48-2.32 1.348-2.697-.126-.36-.904-.265-.904-.265l-2.588.017s-.192-.027-.334.06c-.14.085-.229.284-.229.284s-.41 1.115-.956 2.063c-1.152 2.001-1.613 2.107-1.802 1.983-.438-.29-.328-1.163-.328-1.784 0-1.94.287-2.748-.56-2.957-.282-.07-.489-.116-1.209-.123-.923-.01-1.705.003-2.147.224-.295.148-.522.476-.383.495.17.024.558.107.763.393.266.369.256 1.197.256 1.197s.153 2.283-.356 2.567c-.348.194-.827-.203-1.854-2.018a17.062 17.062 0 0 1-.924-1.958s-.077-.192-.214-.295c-.166-.125-.397-.164-.397-.164l-2.46.016s-.369.01-.505.175c-.12.146-.01.448-.01.448s1.926 4.606 4.107 6.928c1.999 2.128 4.269 1.989 4.269 1.989h1.029z" fill="#FFF"/>
        </g>
    </g>
</svg>
