<svg xmlns="http://www.w3.org/2000/svg" xmlns:xlink="http://www.w3.org/1999/xlink" width="400" height="560" viewBox="0 0 400 560">
    <defs>
        <filter id="1cw8kas23a" width="292.1%" height="331.7%" x="-96.1%" y="-73.4%" filterUnits="objectBoundingBox">
            <feOffset dy="6" in="SourceAlpha" result="shadowOffsetOuter1"/>
            <feGaussianBlur in="shadowOffsetOuter1" result="shadowBlurOuter1" stdDeviation="8"/>
            <feColorMatrix in="shadowBlurOuter1" result="shadowMatrixOuter1" values="0 0 0 0 0 0 0 0 0 0 0 0 0 0 0 0 0 0 0.26 0"/>
            <feOffset dy="35" in="SourceAlpha" result="shadowOffsetOuter2"/>
            <feGaussianBlur in="shadowOffsetOuter2" result="shadowBlurOuter2" stdDeviation="8"/>
            <feColorMatrix in="shadowBlurOuter2" result="shadowMatrixOuter2" values="0 0 0 0 0 0 0 0 0 0 0 0 0 0 0 0 0 0 0.0503283514 0"/>
            <feMerge>
                <feMergeNode in="shadowMatrixOuter1"/>
                <feMergeNode in="shadowMatrixOuter2"/>
            </feMerge>
        </filter>
        <filter id="yrq292kmic" width="294.8%" height="345.8%" x="-97.4%" y="-74.6%" filterUnits="objectBoundingBox">
            <feOffset dy="13" in="SourceAlpha" result="shadowOffsetOuter1"/>
            <feGaussianBlur in="shadowOffsetOuter1" result="shadowBlurOuter1" stdDeviation="11.5"/>
            <feColorMatrix in="shadowBlurOuter1" result="shadowMatrixOuter1" values="0 0 0 0 0 0 0 0 0 0 0 0 0 0 0 0 0 0 0.23 0"/>
            <feOffset dy="42" in="SourceAlpha" result="shadowOffsetOuter2"/>
            <feGaussianBlur in="shadowOffsetOuter2" result="shadowBlurOuter2" stdDeviation="11.5"/>
            <feColorMatrix in="shadowBlurOuter2" result="shadowMatrixOuter2" values="0 0 0 0 0 0 0 0 0 0 0 0 0 0 0 0 0 0 0.0503283514 0"/>
            <feMerge>
                <feMergeNode in="shadowMatrixOuter1"/>
                <feMergeNode in="shadowMatrixOuter2"/>
            </feMerge>
        </filter>
        <filter id="icd4evnvhe" width="316.3%" height="371%" x="-108.2%" y="-81.4%" filterUnits="objectBoundingBox">
            <feOffset dy="22" in="SourceAlpha" result="shadowOffsetOuter1"/>
            <feGaussianBlur in="shadowOffsetOuter1" result="shadowBlurOuter1" stdDeviation="18.5"/>
            <feColorMatrix in="shadowBlurOuter1" result="shadowMatrixOuter1" values="0 0 0 0 0 0 0 0 0 0 0 0 0 0 0 0 0 0 0.23 0"/>
            <feOffset dy="67" in="SourceAlpha" result="shadowOffsetOuter2"/>
            <feGaussianBlur in="shadowOffsetOuter2" result="shadowBlurOuter2" stdDeviation="18.5"/>
            <feColorMatrix in="shadowBlurOuter2" result="shadowMatrixOuter2" values="0 0 0 0 0 0 0 0 0 0 0 0 0 0 0 0 0 0 0.0503283514 0"/>
            <feMerge>
                <feMergeNode in="shadowMatrixOuter1"/>
                <feMergeNode in="shadowMatrixOuter2"/>
            </feMerge>
        </filter>
        <circle id="s3m3is9mud" cx="28.483" cy="28.483" r="28.483"/>
        <circle id="syguiey0nf" cx="41.146" cy="41.146" r="41.146"/>
        <path id="59c80tuwfb" d="M15.483 0h12.234C36.268 0 43.2 6.932 43.2 15.483v10.5c0 7.248-5.876 13.124-13.124 13.124l-7.425.575-9.316 8.506c-.236.216-.604.2-.82-.038-.098-.107-.152-.246-.152-.391v-8.652C5.535 39.107 0 33.572 0 26.744V15.483C0 6.932 6.932 0 15.483 0z"/>
    </defs>
    <g fill="none" fill-rule="evenodd">
        <g>
            <g>
                <g>
                    <g>
                        <g>
                            <g>
                                <g transform="translate(-766 -7252) translate(114 3402) translate(0 3702) translate(652 148) translate(54 24) translate(261 127)">
                                    <use fill="#000" filter="url(#1cw8kas23a)" xlink:href="#59c80tuwfb"/>
                                    <use fill="#844DC8" xlink:href="#59c80tuwfb"/>
                                </g>
                                <path fill="#FFF" fill-rule="nonzero" d="M14.483 10.967c1.064 1.202 2.042 2.466 2.834 3.86.486.857.353 1.904-.53 2.488-.214.142-.41.308-.61.468-.174.14-.34.282-.46.472-.219.348-.23.758-.088 1.136 1.088 2.91 2.922 5.172 5.931 6.39.482.196.965.423 1.52.36.93-.106 1.23-1.098 1.882-1.616.636-.506 1.45-.513 2.135-.09.685.422 1.35.875 2.01 1.333.65.45 1.295.89 1.893 1.402.575.493.773 1.14.45 1.81-.593 1.224-1.456 2.243-2.7 2.894-.282.147-.607.214-.928.296l-.24.066c.396-.12-.456-.135 0 0-.456-.135-.89-.226-1.294-.388-4.18-1.688-8.027-3.865-11.075-7.203-1.733-1.898-3.089-4.04-4.235-6.308-.544-1.076-1.002-2.193-1.47-3.303-.425-1.013.202-2.059.862-2.822.62-.716 1.418-1.263 2.282-1.667.674-.316 1.339-.134 1.831.422zm6.502-1.825l.159.002c5.467.149 9.958 3.68 10.92 8.94.165.897.223 1.813.296 2.723.03.382-.192.746-.616.751-.438.005-.636-.352-.664-.734-.056-.757-.096-1.518-.203-2.269-.566-3.963-3.814-7.243-7.868-7.946-.61-.106-1.234-.134-1.852-.197-.391-.04-.903-.063-.99-.536-.072-.396.272-.711.66-.732l.158-.002zm.833 2.845c1.255.07 2.467.333 3.583.908 2.268 1.17 3.564 3.015 3.942 5.479.017.111.045.222.054.334.017.221.029.442.044.709l.006.122-.002-.035.008.122c-.009.067-.014.223-.054.37-.145.534-.977.6-1.169.062-.057-.16-.065-.342-.065-.514-.002-1.127-.254-2.253-.838-3.234-.6-1.007-1.518-1.854-2.593-2.367-.65-.31-1.354-.503-2.067-.617-.312-.05-.627-.08-.94-.123-.38-.052-.582-.287-.564-.65.017-.342.273-.587.655-.566zm.878 2.915c2.12.149 3.635 1.216 3.85 3.644.016.171.034.352-.005.517-.059.245-.23.383-.41.423l-.052.006-.047.001-.036.001h-.063c-.381-.035-.587-.272-.63-.643-.033-.285-.06-.573-.129-.85-.137-.545-.435-1.05-.907-1.385-.222-.158-.474-.273-.738-.347-.336-.094-.685-.068-1.019-.148-.364-.087-.565-.373-.507-.705.052-.302.353-.538.693-.514z" transform="translate(-766 -7252) translate(114 3402) translate(0 3702) translate(652 148) translate(54 24) translate(261 127)"/>
                            </g>
                            <g opacity=".2">
                                <path fill="#844DC8" d="M10.322 0h8.156C24.178 0 28.8 4.621 28.8 10.322v7c0 4.832-3.917 8.75-8.749 8.75l-4.95.383-6.21 5.67c-.159.144-.403.133-.548-.025-.065-.071-.1-.164-.1-.26V26.07C3.69 26.071 0 22.381 0 17.83v-7.507C0 4.622 4.621 0 10.322 0z" transform="translate(-766 -7252) translate(114 3402) translate(0 3702) translate(652 148) translate(54 24) translate(39 454)"/>
                                <path fill="#FFF" fill-rule="nonzero" d="M9.655 7.311c.71.802 1.362 1.644 1.89 2.573.324.572.235 1.27-.353 1.66-.143.094-.274.205-.407.311-.117.094-.226.188-.307.315-.146.232-.153.505-.059.757.726 1.94 1.948 3.448 3.955 4.26l.276.113c.233.089.473.157.737.127.62-.07.82-.731 1.254-1.077.424-.337.967-.342 1.423-.06.458.281.9.583 1.341.889.433.3.863.593 1.262.935.383.328.515.76.3 1.205-.396.817-.971 1.497-1.8 1.93-.177.092-.378.137-.579.188l-.2.053c.264-.079-.304-.09 0 0-.304-.09-.593-.15-.863-.258-2.787-1.125-5.351-2.577-7.383-4.802-1.155-1.265-2.06-2.694-2.824-4.205-.362-.717-.668-1.462-.979-2.203-.284-.674.134-1.372.575-1.88.413-.478.945-.843 1.52-1.112.45-.21.893-.09 1.221.281zm4.335-1.217l.106.002h.021-.009.027-.016l.236.01c3.527.202 6.395 2.527 7.022 5.95.109.598.148 1.209.196 1.815.02.255-.128.498-.41.501-.293.003-.424-.235-.443-.49-.038-.504-.064-1.011-.135-1.512-.377-2.642-2.543-4.828-5.246-5.297-.406-.071-.822-.09-1.235-.132-.26-.026-.601-.042-.659-.357-.048-.264.181-.474.44-.488l.105-.002zm.555 1.897c.837.046 1.645.223 2.389.606 1.512.78 2.376 2.01 2.628 3.652.012.075.03.148.036.223.01.138.018.276.027.44l.006.11-.002-.031.006.093c-.006.044-.009.149-.036.247-.096.356-.651.4-.779.04-.038-.106-.043-.227-.044-.342 0-.751-.169-1.502-.558-2.155-.4-.672-1.012-1.237-1.729-1.579-.434-.206-.902-.335-1.378-.411-.207-.034-.417-.054-.626-.082-.253-.035-.388-.191-.376-.434.011-.227.182-.39.436-.377zm.585 1.944c1.414.099 2.424.81 2.568 2.43.01.113.022.234-.004.343-.037.156-.142.247-.257.279l-.05.007-.035.001h-.032l-.048-.001c-.243-.028-.375-.185-.404-.427-.021-.19-.039-.382-.085-.566-.092-.364-.29-.7-.605-.924-.148-.105-.316-.181-.492-.231-.224-.063-.456-.046-.68-.099-.242-.058-.376-.249-.338-.47.035-.201.236-.358.462-.342z" transform="translate(-766 -7252) translate(114 3402) translate(0 3702) translate(652 148) translate(54 24) translate(39 454)"/>
                            </g>
                            <g fill-rule="nonzero">
                                <g transform="translate(-766 -7252) translate(114 3402) translate(0 3702) translate(652 148) translate(54 24) translate(53)">
                                    <use fill="#000" filter="url(#yrq292kmic)" xlink:href="#s3m3is9mud"/>
                                    <use fill="#327EF9" xlink:href="#s3m3is9mud"/>
                                </g>
                                <path fill="#FFF" d="M27.415 36.95c-1.368 1.325-2.714 2.638-4.06 3.95-.468.457-.991.713-1.67.68-.456-.023-.712-.223-.856-.657-1.024-3.182-2.07-6.365-3.094-9.558-.1-.311-.244-.456-.556-.556-2.414-.734-4.84-1.491-7.243-2.259-.367-.122-.746-.267-1.068-.49-.501-.333-.568-.878-.123-1.279.412-.367.902-.679 1.413-.879 2.96-1.168 5.93-2.303 8.901-3.449 7.533-2.904 15.066-5.82 22.598-8.723 1.435-.556 2.537.222 2.381 1.78-.1.99-.356 1.97-.556 2.949-1.636 7.721-3.271 15.454-4.918 23.176-.39 1.836-1.68 2.314-3.182 1.201-2.526-1.858-5.052-3.727-7.577-5.596-.123-.1-.245-.19-.39-.29zm-5.674 2.348c.033-.01.056-.01.089-.022.011-.078.033-.145.044-.211.167-1.747.334-3.505.479-5.252.033-.39.167-.668.456-.935 2.325-2.08 4.65-4.183 6.965-6.275 2.57-2.314 5.14-4.628 7.7-6.954.155-.144.222-.39.333-.59-.244-.022-.5-.122-.723-.066-.3.078-.578.256-.845.423-5.664 3.571-11.338 7.143-17.002 10.714-.322.2-.378.367-.255.723.422 1.202.8 2.415 1.19 3.628.523 1.602 1.046 3.215 1.569 4.817z" transform="translate(-766 -7252) translate(114 3402) translate(0 3702) translate(652 148) translate(54 24) translate(53)"/>
                            </g>
                            <g fill-rule="nonzero" opacity=".2" transform="translate(-766 -7252) translate(114 3402) translate(0 3702) translate(652 148) translate(54 24) translate(0 137)">
                                <circle cx="16.783" cy="16.783" r="16.783" fill="#327EF9"/>
                                <path fill="#FFF" d="M16.154 21.772c-.807.78-1.6 1.554-2.393 2.328-.275.268-.584.42-.983.4-.27-.014-.42-.132-.505-.387-.603-1.875-1.22-3.75-1.823-5.632-.059-.183-.144-.269-.328-.328-1.422-.432-2.851-.878-4.268-1.33-.216-.073-.439-.158-.629-.289-.295-.197-.334-.518-.072-.754.243-.216.531-.4.833-.518 1.743-.688 3.494-1.357 5.244-2.032 4.439-1.711 8.877-3.429 13.315-5.14.846-.328 1.495.131 1.403 1.049-.059.583-.21 1.16-.327 1.737-.964 4.55-1.928 9.106-2.898 13.656-.23 1.082-.99 1.364-1.875.708-1.488-1.094-2.977-2.196-4.465-3.297-.072-.06-.144-.112-.23-.17zm-3.344 1.384c.02-.007.033-.007.053-.014.006-.045.02-.085.026-.124.098-1.03.197-2.065.282-3.095.02-.229.098-.393.269-.55 1.37-1.226 2.74-2.465 4.104-3.698 1.514-1.363 3.029-2.727 4.536-4.097.092-.085.132-.23.197-.348-.144-.013-.295-.072-.426-.039-.177.046-.341.15-.498.25-3.337 2.104-6.68 4.208-10.018 6.312-.19.118-.223.217-.15.427.249.708.471 1.422.7 2.137.309.944.617 1.895.925 2.839z"/>
                            </g>
                            <g fill-rule="nonzero" opacity=".2" transform="translate(-766 -7252) translate(114 3402) translate(0 3702) translate(652 148) translate(54 24) translate(222 368)">
                                <circle cx="16.783" cy="16.783" r="16.783" fill="#327EF9"/>
                                <path fill="#FFF" d="M16.154 21.772c-.807.78-1.6 1.554-2.393 2.328-.275.268-.584.42-.983.4-.27-.014-.42-.132-.505-.387-.603-1.875-1.22-3.75-1.823-5.632-.059-.183-.144-.269-.328-.328-1.422-.432-2.851-.878-4.268-1.33-.216-.073-.439-.158-.629-.289-.295-.197-.334-.518-.072-.754.243-.216.531-.4.833-.518 1.743-.688 3.494-1.357 5.244-2.032 4.439-1.711 8.877-3.429 13.315-5.14.846-.328 1.495.131 1.403 1.049-.059.583-.21 1.16-.327 1.737-.964 4.55-1.928 9.106-2.898 13.656-.23 1.082-.99 1.364-1.875.708-1.488-1.094-2.977-2.196-4.465-3.297-.072-.06-.144-.112-.23-.17zm-3.344 1.384c.02-.007.033-.007.053-.014.006-.045.02-.085.026-.124.098-1.03.197-2.065.282-3.095.02-.229.098-.393.269-.55 1.37-1.226 2.74-2.465 4.104-3.698 1.514-1.363 3.029-2.727 4.536-4.097.092-.085.132-.23.197-.348-.144-.013-.295-.072-.426-.039-.177.046-.341.15-.498.25-3.337 2.104-6.68 4.208-10.018 6.312-.19.118-.223.217-.15.427.249.708.471 1.422.7 2.137.309.944.617 1.895.925 2.839z"/>
                            </g>
                            <g fill-rule="nonzero">
                                <g transform="translate(-766 -7252) translate(114 3402) translate(0 3702) translate(652 148) translate(54 24) translate(80 202)">
                                    <use fill="#000" filter="url(#icd4evnvhe)" xlink:href="#syguiey0nf"/>
                                    <use fill="#3558D9" xlink:href="#syguiey0nf"/>
                                </g>
                                <path fill="#FFF" d="M50.806 42.238h-7.771v27.096h-10.36V42.238h-5.58V33.47h5.58v-6.37c0-4.35 1.775-11.162 10.902-11.162h8.224v9.165h-5.967c-.979 0-2.8.481-2.8 2.556v5.811h8.742l-.97 8.767z" transform="translate(-766 -7252) translate(114 3402) translate(0 3702) translate(652 148) translate(54 24) translate(80 202)"/>
                            </g>
                            <g fill-rule="nonzero" opacity=".2" transform="translate(-766 -7252) translate(114 3402) translate(0 3702) translate(652 148) translate(54 24) translate(203 31)">
                                <circle cx="12.623" cy="12.623" r="12.623" fill="#3558D9"/>
                                <path fill="#FFF" d="M15.587 12.958h-2.385v8.313h-3.178v-8.313H8.313v-2.69h1.711V8.315c0-1.334.545-3.424 3.345-3.424h2.523V7.7h-1.83c-.301 0-.86.148-.86.785v1.783h2.682l-.297 2.689z"/>
                            </g>
                        </g>
                    </g>
                </g>
            </g>
        </g>
    </g>
</svg>
