<svg width="18" height="18" viewBox="0 0 18 18" xmlns="http://www.w3.org/2000/svg">
    <g transform="translate(-15 -10)" fill="none" fill-rule="evenodd">
        <path fill="none" d="M0 0h48v38H0z"/>
        <circle fill="#327EF9" fill-rule="nonzero" cx="24" cy="19" r="9"/>
        <path d="M23.663 21.675c-.433.419-.858.834-1.284 1.248a.673.673 0 0 1-.527.215c-.144-.007-.225-.07-.27-.208-.324-1.005-.655-2.01-.978-3.02a.236.236 0 0 0-.176-.175c-.763-.232-1.53-.471-2.289-.714a1.334 1.334 0 0 1-.337-.155c-.158-.105-.18-.277-.039-.404a1.51 1.51 0 0 1 .447-.278c.935-.369 1.874-.727 2.812-1.09 2.38-.917 4.76-1.838 7.14-2.756.454-.175.802.07.753.563-.032.313-.113.622-.176.931-.517 2.44-1.034 4.884-1.554 7.323-.123.58-.53.732-1.005.38a1044.234 1044.234 0 0 1-2.517-1.86zm-1.793.742c.01-.003.017-.003.028-.007.003-.024.01-.046.014-.067.052-.552.105-1.107.15-1.659a.418.418 0 0 1 .145-.295c.735-.658 1.47-1.322 2.2-1.983.813-.731 1.625-1.463 2.434-2.197.049-.046.07-.123.105-.187-.077-.007-.158-.038-.228-.02-.095.024-.183.08-.268.133L21.08 19.52c-.102.064-.12.116-.081.229.133.38.253.763.376 1.146.165.506.33 1.016.496 1.522z" fill="#FFF" fill-rule="nonzero"/>
    </g>
</svg>
