<?xml version="1.0" encoding="UTF-8"?>
<svg width="18px" height="18px" viewBox="0 0 18 18" version="1.1" xmlns="http://www.w3.org/2000/svg" xmlns:xlink="http://www.w3.org/1999/xlink">
    <!-- Generator: Sketch 51.2 (57519) - http://www.bohemiancoding.com/sketch -->
    <title>Group</title>
    <desc>Created with Sketch.</desc>
    <defs></defs>
    <g id="Page-1" stroke="none" stroke-width="1" fill="none" fill-rule="evenodd">
        <g id="telegram" transform="translate(-15.000000, -10.000000)" fill-rule="nonzero">
            <g id="Group" transform="translate(15.000000, 10.000000)">
                <circle id="Oval" fill="#327EF9" cx="9" cy="9" r="9"></circle>
                <path d="M8.663,11.675 C8.23,12.094 7.805,12.509 7.379,12.923 C7.232,13.068 7.066,13.148 6.852,13.138 C6.708,13.131 6.627,13.068 6.582,12.93 C6.258,11.925 5.927,10.92 5.604,9.91 C5.572,9.812 5.527,9.766 5.428,9.735 C4.665,9.503 3.898,9.264 3.139,9.021 C3.023,8.982 2.904,8.937 2.802,8.866 C2.644,8.761 2.622,8.589 2.763,8.462 C2.893,8.346 3.048,8.248 3.21,8.184 C4.145,7.815 5.084,7.457 6.022,7.094 C8.402,6.177 10.782,5.256 13.162,4.338 C13.616,4.163 13.964,4.408 13.915,4.901 C13.883,5.214 13.802,5.523 13.739,5.832 C13.222,8.272 12.705,10.716 12.185,13.155 C12.062,13.735 11.655,13.887 11.18,13.535 C10.382,12.948 9.584,12.357 8.786,11.767 C8.746,11.735 8.708,11.707 8.663,11.675 Z M6.87,12.417 C6.88,12.414 6.887,12.414 6.898,12.41 C6.901,12.386 6.908,12.364 6.912,12.343 C6.964,11.791 7.017,11.236 7.062,10.684 C7.073,10.561 7.116,10.473 7.207,10.389 C7.942,9.731 8.677,9.067 9.407,8.406 C10.22,7.675 11.032,6.943 11.841,6.209 C11.89,6.163 11.911,6.086 11.946,6.022 C11.869,6.015 11.788,5.984 11.718,6.002 C11.623,6.026 11.535,6.082 11.45,6.135 L6.08,9.52 C5.978,9.584 5.96,9.636 5.999,9.749 C6.132,10.129 6.252,10.512 6.375,10.895 C6.54,11.401 6.705,11.911 6.871,12.417 L6.87,12.417 Z" id="Shape" fill="#FFFFFF"></path>
            </g>
        </g>
    </g>
</svg>