<svg width="18" height="18" viewBox="0 0 18 18" xmlns="http://www.w3.org/2000/svg">
    <g transform="translate(-15 -10)" fill="none" fill-rule="evenodd">
        <path fill="none" d="M0 0h48v38H0z"/>
        <rect fill="#000" x="15" y="10" width="18" height="18" rx="4"/>
        <path d="M29.145 17.853a3.21 3.21 0 0 1-2.982-1.437v4.944a3.654 3.654 0 1 1-3.654-3.654c.076 0 .15.007.225.011v1.801c-.075-.009-.148-.023-.225-.023a1.865 1.865 0 0 0 0 3.73c1.03 0 1.94-.811 1.94-1.841l.018-8.398h1.723a3.21 3.21 0 0 0 2.957 2.865v2.002" fill="#FFF" fill-rule="nonzero"/>
    </g>
</svg>
