<svg width="18" height="18" viewBox="0 0 18 18" xmlns="http://www.w3.org/2000/svg">
    <g transform="translate(-15 -10)" fill="none" fill-rule="evenodd">
        <path fill="none" d="M0 0h48v38H0z"/>
        <rect fill="#4283CB" x="15" y="10" width="18" height="18" rx="4"/>
        <path d="M24.089 22.97s.216-.024.327-.146c.102-.112.098-.322.098-.322s-.014-.984.433-1.129c.44-.143 1.006.951 1.605 1.372.453.318.798.249.798.249l1.602-.023s.839-.053.441-.727c-.033-.055-.232-.499-1.192-1.41-1.004-.954-.87-.8.34-2.449.738-1.004 1.032-1.618.94-1.88-.087-.25-.63-.184-.63-.184l-1.804.01s-.134-.018-.233.043c-.097.06-.16.198-.16.198s-.285.777-.666 1.438c-.803 1.395-1.124 1.47-1.256 1.382-.305-.201-.229-.81-.229-1.243 0-1.352.2-1.916-.39-2.062-.196-.048-.34-.08-.843-.085-.643-.007-1.188.002-1.497.156-.205.103-.363.332-.267.345.12.016.39.075.533.274.185.257.178.835.178.835s.106 1.591-.248 1.789c-.243.135-.577-.141-1.293-1.407-.367-.648-.644-1.365-.644-1.365s-.054-.134-.15-.206a.735.735 0 0 0-.276-.114l-1.715.011s-.257.008-.352.122c-.084.102-.007.313-.007.313s1.343 3.21 2.863 4.83c1.394 1.483 2.976 1.386 2.976 1.386h.718z" fill="#FFF" fill-rule="nonzero"/>
    </g>
</svg>
