<?xml version="1.0" encoding="UTF-8"?>
<svg width="48px" height="38px" viewBox="0 0 48 38" version="1.1" xmlns="http://www.w3.org/2000/svg" xmlns:xlink="http://www.w3.org/1999/xlink">
    <!-- Generator: Sketch 61.2 (89653) - https://sketch.com -->
    <title>icon/input/success</title>
    <desc>Created with Sketch.</desc>
    <g id="icon/input/success" stroke="none" stroke-width="1" fill="none" fill-rule="evenodd">
        <g id="icon/input/-none" fill="#FFFFFF" fill-opacity="0">
            <rect id="Rectangle" x="0" y="0" width="48" height="38"></rect>
        </g>
        <path d="M24,10 C28.9705627,10 33,14.0294373 33,19 C33,23.9705627 28.9705627,28 24,28 C19.0294373,28 15,23.9705627 15,19 C15,14.0294373 19.0294373,10 24,10 Z M24,11 C19.581722,11 16,14.581722 16,19 C16,23.418278 19.581722,27 24,27 C28.418278,27 32,23.418278 32,19 C32,14.581722 28.418278,11 24,11 Z M28.6639603,16.1071064 C29.0544846,16.4976307 29.0544846,17.1307957 28.6639603,17.52132 L24.443,21.741 L24.4447222,21.7426407 L23.7376154,22.4497475 L23.728,22.457 L23.7142128,22.4710674 L23.713,22.47 L23.6434081,22.5329361 C23.2511169,22.837961 22.6838858,22.8102314 22.3234019,22.4497475 L19.4949747,19.6213203 C19.1044504,19.2307961 19.1044504,18.5976311 19.4949747,18.2071068 C19.885499,17.8165825 20.518664,17.8165825 20.9091883,18.2071068 L23.029,20.327 L27.2497467,16.1071064 C27.640271,15.7165821 28.273436,15.7165821 28.6639603,16.1071064 Z" id="Combined-Shape" fill="var(--icon-color, #000000)"></path>
    </g>
</svg>
