<svg xmlns="http://www.w3.org/2000/svg" xmlns:xlink="http://www.w3.org/1999/xlink" width="48" height="38" viewBox="0 0 48 38">
    <defs>
        <path id="ecvhh43asa" d="M24 7.5c6.351 0 11.5 5.149 11.5 11.5S30.351 30.5 24 30.5 12.5 25.351 12.5 19 17.649 7.5 24 7.5zm0 1c-5.799 0-10.5 4.701-10.5 10.5S18.201 29.5 24 29.5 34.5 24.799 34.5 19 29.799 8.5 24 8.5zm5.607 7.093c.39.39.39 1.024 0 1.414l-7.071 7.071-4.243-4.242c-.39-.391-.39-1.024 0-1.415.39-.39 1.024-.39 1.414 0l2.829 2.829 5.656-5.657c.39-.39 1.024-.39 1.415 0z"/>
    </defs>
    <g fill="none" fill-rule="evenodd">
        <g>
            <g>
                <g>
                    <g>
                        <g>
                            <g>
                                <g transform="translate(-336 -9560) translate(190 4958) translate(40 4412) translate(0 190) translate(106)">
                                    <g fill="#FFF" fill-opacity="0">
                                        <path d="M0 0H48V38H0z"/>
                                    </g>
                                    <mask id="6cju23bygb" fill="#fff">
                                        <use xlink:href="#ecvhh43asa"/>
                                    </mask>
                                    <use fill="#FFF" fill-opacity="0" xlink:href="#ecvhh43asa"/>
                                    <g fill="#F20C92" mask="url(#6cju23bygb)">
                                        <path d="M0 0H48V38H0z"/>
                                    </g>
                                </g>
                            </g>
                        </g>
                    </g>
                </g>
            </g>
        </g>
    </g>
</svg>
