<?xml version="1.0" encoding="UTF-8"?>
<svg width="116px" height="17px" viewBox="0 0 116 17" version="1.1" xmlns="http://www.w3.org/2000/svg" xmlns:xlink="http://www.w3.org/1999/xlink">
    <!-- Generator: Sketch 51.2 (57519) - http://www.bohemiancoding.com/sketch -->
    <title>Group 2</title>
    <desc>Created with Sketch.</desc>
    <defs>
        <path d="M16.005,0 C17.107,0 18,0.897 18,2.006 L18,11.994 C18,13.102 17.107,14 16.005,14 L9.762,14 L6.05,17 L2.262,14 L1.995,14 C0.893,14 -8.8817842e-16,13.103 -8.8817842e-16,11.994 L-8.8817842e-16,2.006 C-8.8817842e-16,0.898 0.893,4.4408921e-16 1.995,4.4408921e-16 L16.005,0 Z M15.999,1 L2.001,1 C1.445,1 1,1.449 1,2.002 L1,11.998 C1,12.544 1.448,13 2,13 L2.8,13 L6.05,15.6 L9.2,13 L16,13 C16.555,13 17,12.551 17,11.998 L17,2.002 C17,1.456 16.552,1 16,1 L15.999,1 Z M5.3,5.8 C6.018,5.8 6.6,6.382 6.6,7.1 C6.6,7.818 6.018,8.4 5.3,8.4 C4.582,8.4 4,7.818 4,7.1 C4,6.382 4.582,5.8 5.3,5.8 Z M9,5.8 C9.718,5.8 10.3,6.382 10.3,7.1 C10.3,7.818 9.718,8.4 9,8.4 C8.282,8.4 7.7,7.818 7.7,7.1 C7.7,6.382 8.282,5.8 9,5.8 Z M12.7,5.8 C13.418,5.8 14,6.382 14,7.1 C14,7.818 13.418,8.4 12.7,8.4 C11.982,8.4 11.4,7.818 11.4,7.1 C11.4,6.382 11.982,5.8 12.7,5.8 Z" id="path-1"></path>
    </defs>
    <g id="Page-1" stroke="none" stroke-width="1" fill="none" fill-rule="evenodd">
        <g id="img-fields" transform="translate(-199.000000, -65.000000)">
            <g id="Group" transform="translate(176.000000, 46.000000)">
                <g id="Group-2" transform="translate(23.000000, 17.000000)">
                    <g id="Group" transform="translate(33.000000, -0.000000)" fill="#000000" fill-opacity="0.6" font-family="Helvetica" font-size="13" font-weight="normal">
                        <text id="Комментарий">
                            <tspan x="0" y="13">Комментарий</tspan>
                        </text>
                    </g>
                    <g id="Group" transform="translate(0.000000, 2.000000)">
                        <path d="M16.005,0 C17.107,0 18,0.897 18,2.006 L18,11.994 C18,13.102 17.107,14 16.005,14 L9.762,14 L6.05,17 L2.262,14 L1.995,14 C0.893,14 -8.8817842e-16,13.103 -8.8817842e-16,11.994 L-8.8817842e-16,2.006 C-8.8817842e-16,0.898 0.893,4.4408921e-16 1.995,4.4408921e-16 L16.005,0 Z M15.999,1 L2.001,1 C1.445,1 1,1.449 1,2.002 L1,11.998 C1,12.544 1.448,13 2,13 L2.8,13 L6.05,15.6 L9.2,13 L16,13 C16.555,13 17,12.551 17,11.998 L17,2.002 C17,1.456 16.552,1 16,1 L15.999,1 Z M5.3,5.8 C6.018,5.8 6.6,6.382 6.6,7.1 C6.6,7.818 6.018,8.4 5.3,8.4 C4.582,8.4 4,7.818 4,7.1 C4,6.382 4.582,5.8 5.3,5.8 Z M9,5.8 C9.718,5.8 10.3,6.382 10.3,7.1 C10.3,7.818 9.718,8.4 9,8.4 C8.282,8.4 7.7,7.818 7.7,7.1 C7.7,6.382 8.282,5.8 9,5.8 Z M12.7,5.8 C13.418,5.8 14,6.382 14,7.1 C14,7.818 13.418,8.4 12.7,8.4 C11.982,8.4 11.4,7.818 11.4,7.1 C11.4,6.382 11.982,5.8 12.7,5.8 Z" id="Shape"></path>
                        <g id="Clipped">
                            <mask id="mask-2" fill="white">
                                <use xlink:href="#path-1"></use>
                            </mask>
                            <g id="Shape"></g>
                            <g id="Group" mask="url(#mask-2)" fill="#B063F5" fill-rule="nonzero">
                                <g transform="translate(-15.000000, -11.000000)" id="Shape">
                                    <polygon points="0 0 48 0 48 38 0 38"></polygon>
                                </g>
                            </g>
                        </g>
                    </g>
                </g>
            </g>
        </g>
    </g>
</svg>