<?xml version="1.0" encoding="UTF-8"?>
<svg width="12px" height="12px" viewBox="0 0 12 12" version="1.1" xmlns="http://www.w3.org/2000/svg" xmlns:xlink="http://www.w3.org/1999/xlink">
    <!-- Generator: Sketch 51.2 (57519) - http://www.bohemiancoding.com/sketch -->
    <title>cross</title>
    <desc>Created with Sketch.</desc>
    <defs>
        <polygon id="path-1" points="6.707 6 11.657 10.95 10.95 11.657 6 6.707 1.05 11.657 0.343 10.95 5.293 6 0.343 1.05 1.05 0.343 6 5.293 10.95 0.343 11.657 1.05"></polygon>
    </defs>
    <g id="Page-1" stroke="none" stroke-width="1" fill="none" fill-rule="evenodd">
        <g id="cross">
            <g id="e5u325zvta-link" fill="#FFFFFF" fill-opacity="0" fill-rule="nonzero">
                <polygon id="e5u325zvta" points="6.707 6 11.657 10.95 10.95 11.657 6 6.707 1.05 11.657 0.343 10.95 5.293 6 0.343 1.05 1.05 0.343 6 5.293 10.95 0.343 11.657 1.05"></polygon>
            </g>
            <g id="Clipped">
                <mask id="mask-2" fill="white">
                    <use xlink:href="#path-1"></use>
                </mask>
                <g id="e5u325zvta"></g>
                <g id="Group" mask="url(#mask-2)" fill="#000000" fill-opacity="0.9" fill-rule="nonzero">
                    <g transform="translate(-18.000000, -13.000000)" id="Shape">
                        <polygon points="0 0 48 0 48 38 0 38"></polygon>
                    </g>
                </g>
            </g>
        </g>
    </g>
</svg>