<?xml version="1.0" encoding="UTF-8"?>
<svg width="124px" height="14px" viewBox="0 0 124 14" version="1.1" xmlns="http://www.w3.org/2000/svg" xmlns:xlink="http://www.w3.org/1999/xlink">
    <!-- Generator: Sketch 51.2 (57519) - http://www.bohemiancoding.com/sketch -->
    <title>Group 2</title>
    <desc>Created with Sketch.</desc>
    <defs>
        <path d="M14,0 C15.105,0 16,0.895 16,2 L16,12 C16,13.105 15.105,14 14,14 L2,14 C0.895,14 0,13.105 0,12 L0,2 C0,0.895 0.895,0 2,0 L14,0 Z M14.983,2 L8.329,7.71189774 C8.14,7.87315634 7.859,7.87315634 7.671,7.71189774 L1.017,2 C1.006,2.05899705 1,2.12094395 1,2.18387414 L1,12.0167158 C1,12.5594887 1.448,13 2,13 L14,13 C14.552,13 15,12.5594887 15,12.0167158 L15,2.18387414 C15,2.12094395 14.994,2.05998033 14.983,2 Z" id="path-1"></path>
    </defs>
    <g id="Page-1" stroke="none" stroke-width="1" fill="none" fill-rule="evenodd">
        <g id="img-fields" transform="translate(-23.000000, -20.000000)">
            <g id="Group-2" transform="translate(23.000000, 17.000000)">
                <g id="Group" transform="translate(33.000000, 0.000000)" fill="#000000" fill-opacity="0.6" font-family="Helvetica" font-size="13" font-weight="normal">
                    <text id="Email-для-чека">
                        <tspan x="0" y="13">Email для чека</tspan>
                    </text>
                </g>
                <g id="Clipped" transform="translate(0.000000, 3.000000)">
                    <mask id="mask-2" fill="white">
                        <use xlink:href="#path-1"></use>
                    </mask>
                    <use id="Shape" fill="#AF53FF" xlink:href="#path-1"></use>
                    <g id="Group" mask="url(#mask-2)" fill="#B063F5" fill-rule="nonzero">
                        <g transform="translate(8.000000, 8.000000)" id="Shape">
                            <polygon points="0 0 48 0 48 38 0 38"></polygon>
                        </g>
                    </g>
                </g>
            </g>
        </g>
    </g>
</svg>