<?xml version="1.0" encoding="UTF-8"?>
<svg width="116px" height="116px" viewBox="0 0 116 116" version="1.1" xmlns="http://www.w3.org/2000/svg" xmlns:xlink="http://www.w3.org/1999/xlink">
    <!-- Generator: Sketch 61.2 (89653) - https://sketch.com -->
    <title>icon-email-big</title>
    <desc>Created with Sketch.</desc>
    <g id="icon-email-big" stroke="none" stroke-width="1" fill="none" fill-rule="evenodd">
        <g id="Group-15" transform="translate(2.000000, 2.000000)">
            <circle id="Oval" stroke="#50BD5C" stroke-width="2" fill-opacity="0" fill="#FFFFFF" cx="56" cy="56" r="55"></circle>
            <path d="M55.9897701,104 L55.9897701,102 C30.9191609,102 10.5329183,81.9438427 10.0004444,57.0009303 L8,57.0009303 C8.53285362,83.0485315 29.814573,104 55.9897701,104 Z M55.9897701,8 L55.9897701,10 C81.3948686,10 101.98977,30.5949015 101.98977,56 C101.98977,56.3344893 101.9862,56.6681447 101.979096,57.0009826 L103.97954,57.0009826 C103.986349,56.6681428 103.98977,56.3344709 103.98977,56 C103.98977,29.490332 82.4994381,8 55.9897701,8 Z" id="Shape" fill="#50BD5C"></path>
            <path d="M34.7545484,67 L34.7545484,65.272 L23.3875484,65.272 L23.3875484,58.252 L33.1615484,58.252 L33.1615484,56.551 L23.3875484,56.551 L23.3875484,49.828 L34.3495484,49.828 L34.3495484,48.1 L21.3895484,48.1 L21.3895484,67 L34.7545484,67 Z M39.192129,67 L39.192129,51.961 L46.617129,64.597 L47.562129,64.597 L54.987129,51.88 L54.987129,67 L56.904129,67 L56.904129,48.1 L55.257129,48.1 L47.130129,62.113 L38.922129,48.1 L37.275129,48.1 L37.275129,67 L39.192129,67 Z M59.9377097,67 L62.2057097,61.951 L72.7357097,61.951 L75.0037097,67 L77.1097097,67 L68.4697097,48.1 L66.4987097,48.1 L57.8587097,67 L59.9377097,67 Z M72.0067097,60.331 L62.9347097,60.331 L67.4707097,50.179 L72.0067097,60.331 Z M80.0622903,67 L80.0622903,48.1 L78.0642903,48.1 L78.0642903,67 L80.0622903,67 Z M96.622871,67 L96.622871,65.272 L86.038871,65.272 L86.038871,48.1 L84.040871,48.1 L84.040871,67 L96.622871,67 Z" id="EMAIL" fill="#50BD5C" fill-rule="nonzero"></path>
        </g>
    </g>
</svg>