<svg xmlns="http://www.w3.org/2000/svg" width="48" height="38" viewBox="0 0 48 38">
    <g fill="none" fill-rule="evenodd">
        <g>
            <g>
                <g>
                    <g>
                        <g>
                            <g>
                                <g>
                                    <g>
                                        <g>
                                            <g transform="translate(-331 -11178) translate(190 2311) translate(0 7047) translate(0 912) translate(0 574) translate(25 76) translate(0 228) translate(0 30) translate(116) translate(15 10)">
                                                <path fill="#FFF" fill-opacity="0" d="M4.846 5.712H13.154V12.289H4.846z"/>
                                                <circle cx="9" cy="9" r="1.558" fill="#327EF9" fill-rule="nonzero"/>
                                                <path fill="#FFF" fill-rule="nonzero" d="M8.942 9.463l-.223.216c-.025.025-.054.039-.09.037-.026-.001-.04-.012-.048-.036l-.169-.522c-.005-.017-.013-.025-.03-.03l-.396-.124c-.02-.007-.041-.015-.059-.027-.027-.018-.03-.048-.006-.07.022-.02.049-.037.077-.048.162-.064.324-.126.487-.189l1.235-.477c.079-.03.14.012.13.098-.005.054-.019.107-.03.16L9.551 9.72c-.021.1-.092.127-.174.066l-.414-.306-.021-.016zm-.31.128h.004c0-.005.002-.009.003-.012l.026-.288c.002-.02.009-.036.025-.05l.38-.344.422-.38c.008-.008.012-.021.018-.032-.013-.002-.027-.007-.04-.004-.016.004-.031.014-.046.023l-.93.586c-.017.011-.02.02-.014.04.023.065.044.132.065.198.03.088.058.176.086.263z"/>
                                                <g fill-rule="nonzero">
                                                    <circle cx="8.936" cy="8.936" r="8.936" fill="#3558D9"/>
                                                    <path fill="#FFF" d="M11.034 9.173H9.346v5.885h-2.25V9.173H5.885V7.27h1.211V5.886c0-.945.386-2.424 2.368-2.424h1.786v1.99H9.954c-.212 0-.608.105-.608.555V7.27h1.899l-.211 1.904z"/>
                                                </g>
                                            </g>
                                        </g>
                                    </g>
                                </g>
                            </g>
                        </g>
                    </g>
                </g>
            </g>
        </g>
    </g>
</svg>
