<?xml version="1.0" encoding="UTF-8"?>
<svg width="116px" height="116px" viewBox="0 0 116 116" version="1.1" xmlns="http://www.w3.org/2000/svg" xmlns:xlink="http://www.w3.org/1999/xlink">
    <!-- Generator: Sketch 61.2 (89653) - https://sketch.com -->
    <title>icon-http-big</title>
    <desc>Created with Sketch.</desc>
    <g id="icon-http-big" stroke="none" stroke-width="1" fill="none" fill-rule="evenodd">
        <g id="Group-15" transform="translate(2.000000, 2.000000)">
            <circle id="Oval" stroke="#AF53FF" stroke-width="2" fill-opacity="0" fill="#FFFFFF" cx="56" cy="56" r="55"></circle>
            <path d="M56,104 L56,102 C81.0706092,102 101.456852,81.9438427 101.989326,57.0009303 L103.98977,57.0009303 C103.456917,83.0485315 82.1751971,104 56,104 Z M56,8 L56,10 C30.5949015,10 10,30.5949015 10,56 C10,56.3344893 10.0035701,56.6681447 10.0106743,57.0009826 L8.01022988,57.0009826 C8.00342099,56.6681428 8,56.3344709 8,56 C8,29.490332 29.490332,8 56,8 Z" id="Shape" fill="#AF53FF"></path>
            <path d="M23.6175,68 L23.6175,58.31 L36.7575,58.31 L36.7575,68 L38.9475,68 L38.9475,47 L36.7575,47 L36.7575,56.36 L23.6175,56.36 L23.6175,47 L21.3975,47 L21.3975,68 L23.6175,68 Z M50.68125,68 L50.68125,48.92 L58.06125,48.92 L58.06125,47 L41.08125,47 L41.08125,48.92 L48.46125,48.92 L48.46125,68 L50.68125,68 Z M66.795,68 L66.795,48.92 L74.175,48.92 L74.175,47 L57.195,47 L57.195,48.92 L64.575,48.92 L64.575,68 L66.795,68 Z M78.52875,68 L78.52875,61.37 L84.16875,61.37 C86.84875,61.37 88.94875,60.735 90.46875,59.465 C91.98875,58.195 92.74875,56.44 92.74875,54.2 C92.74875,51.96 91.98875,50.2 90.46875,48.92 C88.94875,47.64 86.84875,47 84.16875,47 L76.30875,47 L76.30875,68 L78.52875,68 Z M78.52875,59.42 L78.52875,48.92 L84.10875,48.92 C86.18875,48.92 87.77875,49.375 88.87875,50.285 C89.97875,51.195 90.52875,52.5 90.52875,54.2 C90.52875,55.86 89.97875,57.145 88.87875,58.055 C87.77875,58.965 86.18875,59.42 84.10875,59.42 L78.52875,59.42 Z" id="HTTP" fill="#AF53FF" fill-rule="nonzero"></path>
        </g>
    </g>
</svg>