<svg height="210" viewBox="0 0 386 210" width="386" xmlns="http://www.w3.org/2000/svg" xmlns:xlink="http://www.w3.org/1999/xlink"><mask id="a" fill="#fff"><path d="m2.133 12c-1.178 0-2.133-.895-2.133-2v-8c0-1.105.955-2 2.133-2h11.734c1.178 0 2.133.895 2.133 2v8c0 1.105-.955 2-2.133 2zm12.8-10c0-.552-.478-1-1.066-1h-11.734c-.588 0-1.066.448-1.066 1v1h13.866zm-13.866 4v4c0 .552.478 1 1.066 1h11.734c.588 0 1.066-.448 1.066-1v-4z" fill="#fff" fill-rule="evenodd"/></mask><mask id="b" fill="#fff"><path d="m5.128 0h313.744c1.783 0 2.43.186 3.082.534.652.349 1.163.86 1.512 1.512.348.652.534 1.299.534 3.082v31.744c0 1.783-.186 2.43-.534 3.082-.349.652-.86 1.163-1.512 1.512-.652.348-1.299.534-3.082.534h-313.744c-1.783 0-2.43-.186-3.082-.534-.652-.349-1.163-.86-1.512-1.512-.348-.652-.534-1.299-.534-3.082v-31.744c0-1.783.186-2.43.534-3.082.349-.652.86-1.163 1.512-1.512.652-.348 1.299-.534 3.082-.534z" fill="#fff" fill-rule="evenodd"/></mask><mask id="c" fill="#fff"><path d="m5.128 0h313.744c1.783 0 2.43.186 3.082.534.652.349 1.163.86 1.512 1.512.348.652.534 1.299.534 3.082v31.744c0 1.783-.186 2.43-.534 3.082-.349.652-.86 1.163-1.512 1.512-.652.348-1.299.534-3.082.534h-313.744c-1.783 0-2.43-.186-3.082-.534-.652-.349-1.163-.86-1.512-1.512-.348-.652-.534-1.299-.534-3.082v-31.744c0-1.783.186-2.43.534-3.082.349-.652.86-1.163 1.512-1.512.652-.348 1.299-.534 3.082-.534z" fill="#fff" fill-rule="evenodd"/></mask><mask id="d" fill="#fff"><path d="m9 0c4.97 0 9 4.03 9 9s-4.03 9-9 9-9-4.03-9-9 4.03-9 9-9zm0 1c-4.418 0-8 3.582-8 8s3.582 8 8 8 8-3.582 8-8-3.582-8-8-8zm.004 11c.584 0 .996.416.996 1.004 0 .58-.412.996-.996.996-.585 0-1.004-.416-1.004-.996 0-.588.419-1.004 1.004-1.004zm.496-8-.085 6.5h-.83l-.085-6.5z" fill="#fff" fill-rule="evenodd"/></mask><g fill="none" fill-rule="evenodd"><path d="m50 0h286c27.614 0 50 22.386 50 50v110c0 27.614-22.386 50-50 50h-286c-27.614 0-50-22.386-50-50v-110c0-27.614 22.386-50 50-50z" fill="#000" fill-rule="nonzero"/><path d="m50 .5c-27.338 0-49.5 22.162-49.5 49.5v110c0 27.338 22.162 49.5 49.5 49.5h286c27.338 0 49.5-22.162 49.5-49.5v-110c0-27.338-22.162-49.5-49.5-49.5z" fill="#fff" fill-rule="nonzero" stroke="#d9d9d9"/><g transform="translate(23 26)"><path d="m0 0h340v92h-340z"/><g transform="translate(8 46)"><rect fill="none" height="37" rx="4" stroke="#000" stroke-opacity=".2" width="323" x=".5" y=".5"/><path d="m294.3 13-2.74 12h-3.312l2.74-12h3.313zm18.025 0 2.675 12h-3.064l-.4-1.793h-4.25l-.693 1.793h-3.478l4.971-11.12c.238-.534.775-.88 1.41-.88h2.828zm-2.342 3.488-1.744 4.54h2.748zm-6.695 4.675c.015-3.19-4.673-3.366-4.64-4.792.01-.433.447-.894 1.404-1.012.474-.059 1.783-.104 3.266.54l.583-2.563c-.798-.273-1.823-.536-3.1-.536-3.274 0-5.58 1.644-5.598 3.996-.022 1.742 1.645 2.712 2.9 3.29 1.291.593 1.724.973 1.719 1.503-.01.812-1.03 1.17-1.983 1.183-1.666.025-2.632-.425-3.403-.764l-.6 2.65c.774.335 2.203.628 3.685.642 3.48 0 5.757-1.622 5.767-4.137zm-13.721-8.163-5.368 12h-3.502l-2.642-9.577c-.16-.59-.3-.806-.787-1.054-.796-.405-2.111-.785-3.268-1.021l.078-.348h5.638c.718 0 1.364.448 1.527 1.223l1.395 6.944 3.449-8.167z" fill="#1a6bc8" fill-rule="nonzero"/><path d="m284 1h40v36h-40z"/><path d="m284 1h40v36h-40z"/><text fill="#000" fill-opacity=".8" font-family="Helvetica" font-size="16" transform="translate(48 10)"><tspan x="0" y="15">4242 4242 4242 4240</tspan></text><g transform="translate(16 13)"><path d="m2.133 12c-1.178 0-2.133-.895-2.133-2v-8c0-1.105.955-2 2.133-2h11.734c1.178 0 2.133.895 2.133 2v8c0 1.105-.955 2-2.133 2zm12.8-10c0-.552-.478-1-1.066-1h-11.734c-.588 0-1.066.448-1.066 1v1h13.866zm-13.866 4v4c0 .552.478 1 1.066 1h11.734c.588 0 1.066-.448 1.066-1v-4z" fill="none"/><g fill="#b063f5" fill-rule="nonzero" mask="url(#a)"><path d="m0 0h48v38h-48z" transform="translate(-16 -13)"/></g></g></g><text fill="#000" fill-opacity=".6" font-family="Helvetica" font-size="14" transform="translate(10 23)"><tspan x="0" y="14">Номер карты</tspan></text><g transform="translate(0 84)"><path d="m0 0h340v58h-340z"/><g fill="#000" fill-opacity=".06" fill-rule="nonzero" mask="url(#b)" transform="translate(8 8)"><path d="m0 0h324v42h-324z"/></g><g fill="#fff" fill-opacity="0" fill-rule="nonzero" mask="url(#c)" transform="translate(8 8)"><path d="m0 0h324v42h-324z"/></g><text fill="#000" fill-opacity=".6" font-family="Helvetica" font-size="14" transform="translate(56 20)"><tspan x="0" y="14">Неверный номер карты</tspan></text><g transform="translate(23 20)"><path d="m9 0c4.97 0 9 4.03 9 9s-4.03 9-9 9-9-4.03-9-9 4.03-9 9-9zm0 1c-4.418 0-8 3.582-8 8s3.582 8 8 8 8-3.582 8-8-3.582-8-8-8zm.004 11c.584 0 .996.416.996 1.004 0 .58-.412.996-.996.996-.585 0-1.004-.416-1.004-.996 0-.588.419-1.004 1.004-1.004zm.496-8-.085 6.5h-.83l-.085-6.5z" fill="none"/><g fill="#000" fill-opacity=".5" fill-rule="nonzero" mask="url(#d)"><path d="m0 0h48v38h-48z" transform="translate(-15 -10)"/></g></g></g></g></g></svg>