<svg xmlns="http://www.w3.org/2000/svg" width="144" height="60" viewBox="0 0 144 60">
    <g fill="none">
        <path fill="#333" d="M8.99 21.855l3.379-8.928c.062-.351.134-.708.217-1.07.083-.361.155-.718.217-1.069h.558l.434 2.108c.558 1.426 1.157 2.92 1.798 4.48.64 1.56 1.24 3.053 1.798 4.479h3.131l5.549-16.43h-3.968c-.372 1.385-.754 2.754-1.147 4.108-.393 1.353-.775 2.722-1.147 4.107l-.465 2.759h-.465l-.62-2.728c-.558-1.364-1.106-2.738-1.643-4.123-.537-1.385-1.085-2.759-1.643-4.123H11.78l-2.945 7.998-.62 3.038H7.75l-.434-3.007-2.604-8.029H0l5.704 16.43H8.99zm26.164.31c1.385 0 2.681-.191 3.89-.573 1.21-.383 2.165-.843 2.868-1.38l-1.488-2.728c-.413.29-1.008.573-1.782.852-.776.28-1.649.419-2.62.419-1.612 0-2.774-.336-3.487-1.008-.713-.671-1.122-1.71-1.225-3.115h10.85c.124-.558.212-1.095.264-1.612.051-.517.077-.992.077-1.426 0-1.26-.201-2.32-.604-3.178-.404-.857-.936-1.54-1.597-2.046-.661-.506-1.416-.867-2.263-1.085-.847-.216-1.705-.325-2.573-.325-2.666 0-4.733.729-6.2 2.186-1.467 1.456-2.201 3.6-2.201 6.432 0 2.666.651 4.764 1.953 6.293 1.302 1.53 3.348 2.294 6.138 2.294zm3.317-10.106h-7.006c.103-1.075.465-1.958 1.085-2.65.62-.693 1.57-1.039 2.852-1.039 1.137 0 1.953.33 2.449.992.496.661.703 1.56.62 2.697zm14.911 10.044c1.343 0 2.552-.202 3.627-.605 1.075-.402 1.984-.986 2.728-1.751.744-.765 1.317-1.705 1.72-2.821.404-1.116.605-2.387.605-3.813 0-2.645-.553-4.655-1.658-6.03-1.106-1.374-2.713-2.061-4.821-2.061-.93 0-1.782.16-2.557.48-.776.32-1.411.76-1.907 1.318h-.372V0h-4.34v21.049c.661.269 1.602.512 2.821.729 1.22.216 2.604.325 4.154.325zm.186-3.627c-.537 0-1.038-.026-1.503-.078-.465-.051-.905-.18-1.318-.387v-6.789c.29-.847.718-1.488 1.286-1.922.569-.434 1.318-.651 2.248-.651 1.095 0 1.922.388 2.48 1.163.558.774.837 1.906.837 3.394 0 3.513-1.343 5.27-4.03 5.27z" transform="translate(1.814 18.3)"/>
        <path fill="#1684CD" d="M69.595 21.948c1.302 0 2.366-.258 3.193-.775s1.509-1.137 2.046-1.86h.372l.713 2.418h3.534c-.227-.682-.393-1.395-.496-2.139-.103-.744-.155-1.509-.155-2.294 0-1.157.041-2.253.124-3.286.083-1.033.124-2.077.124-3.131 0-.868-.098-1.659-.294-2.372-.197-.713-.522-1.322-.977-1.829-.455-.506-1.07-.893-1.844-1.162-.776-.269-1.731-.403-2.868-.403-1.447 0-2.847.134-4.2.403-1.354.269-2.496.61-3.426 1.023l1.147 3.286c.723-.351 1.555-.646 2.496-.883.94-.238 1.906-.357 2.898-.357 1.075 0 1.808.186 2.201.558.393.372.589.95.589 1.736 0 .31-.031.682-.093 1.116-.227-.041-.63-.108-1.209-.201-.579-.093-1.157-.14-1.736-.14-2.5 0-4.366.47-5.596 1.41-1.23.94-1.844 2.33-1.844 4.17 0 .682.13 1.312.388 1.891s.62 1.08 1.084 1.504c.465.423 1.023.749 1.674.976.651.227 1.37.341 2.155.341zm1.519-3.472c-.723 0-1.297-.186-1.72-.558-.424-.372-.636-.93-.636-1.674 0-.6.269-1.1.806-1.503.537-.403 1.364-.605 2.48-.605.207 0 .44.01.698.031.258.02.516.052.774.093.259.041.496.083.713.124.218.041.378.083.481.124v1.86c-.269.496-.692.971-1.271 1.426-.579.455-1.354.682-2.325.682z" transform="translate(1.814 18.3)"/>
        <path fill="#30B308" d="M88.412 22.165c2.253 0 3.942-.475 5.069-1.426 1.126-.95 1.689-2.294 1.689-4.03 0-.889-.17-1.627-.511-2.216-.342-.59-.77-1.07-1.287-1.442-.517-.372-1.09-.667-1.72-.883-.63-.217-1.235-.409-1.814-.574-.785-.227-1.452-.46-2-.697-.547-.238-.821-.595-.821-1.07 0-.537.176-.915.527-1.132.351-.216.889-.325 1.612-.325.868 0 1.72.109 2.557.325.838.217 1.525.43 2.062.636l.899-3.286c-.661-.29-1.535-.542-2.62-.76-1.085-.216-2.247-.325-3.487-.325-1.901 0-3.358.429-4.371 1.287-1.013.857-1.519 2.102-1.519 3.735 0 .95.17 1.736.511 2.356.341.62.775 1.121 1.302 1.504.528.382 1.106.687 1.737.914.63.227 1.234.424 1.813.589.785.227 1.447.46 1.984.697.537.238.806.605.806 1.101 0 .62-.201 1.044-.605 1.271-.402.227-.966.341-1.689.341-.475 0-.945-.041-1.41-.124-.466-.083-.92-.186-1.365-.31-.444-.124-.857-.258-1.24-.403-.382-.145-.718-.29-1.007-.434l-1.085 3.41c.661.413 1.519.729 2.573.946 1.054.216 2.19.325 3.41.325z" transform="translate(1.814 18.3)"/>
        <path fill="#F86E00" d="M101.556 28.024c.806 0 1.504-.18 2.093-.543.588-.361 1.12-.883 1.596-1.565.475-.682.914-1.509 1.317-2.48.404-.971.832-2.067 1.287-3.286l5.394-14.725h-4.433l-2.759 9.021-.589 2.604h-.31l-.682-2.604-3.317-9.021h-5.239l7.44 16.368c-.145.537-.315.966-.511 1.287-.197.32-.409.568-.636.744-.227.175-.475.294-.744.356s-.548.093-.837.093c-.33 0-.651-.052-.961-.155l-.899 3.348c.351.186.77.325 1.255.418.486.093.998.14 1.535.14z" transform="translate(1.814 18.3)"/>
        <path fill="#EECD00" d="M120.156 22.165c2.253 0 3.942-.475 5.069-1.426 1.126-.95 1.689-2.294 1.689-4.03 0-.889-.17-1.627-.511-2.216-.342-.59-.77-1.07-1.287-1.442-.517-.372-1.09-.667-1.72-.883-.63-.217-1.235-.409-1.814-.574-.785-.227-1.452-.46-2-.697-.547-.238-.821-.595-.821-1.07 0-.537.176-.915.527-1.132.351-.216.889-.325 1.612-.325.868 0 1.72.109 2.557.325.838.217 1.525.43 2.062.636l.899-3.286c-.661-.29-1.535-.542-2.62-.76-1.085-.216-2.247-.325-3.487-.325-1.901 0-3.358.429-4.371 1.287-1.013.857-1.519 2.102-1.519 3.735 0 .95.17 1.736.511 2.356.341.62.775 1.121 1.302 1.504.528.382 1.106.687 1.737.914.63.227 1.234.424 1.813.589.785.227 1.447.46 1.984.697.537.238.806.605.806 1.101 0 .62-.201 1.044-.605 1.271-.402.227-.966.341-1.689.341-.475 0-.945-.041-1.41-.124-.466-.083-.92-.186-1.365-.31-.444-.124-.857-.258-1.24-.403-.382-.145-.718-.29-1.007-.434l-1.085 3.41c.661.413 1.519.729 2.573.946 1.054.216 2.19.325 3.41.325z" transform="translate(1.814 18.3)"/>
        <path fill="#48D4FF" d="M135.408 22.196c.806 0 1.638-.103 2.496-.31.857-.207 1.617-.455 2.278-.744l-.899-3.255c-.372.165-.723.284-1.054.357-.33.072-.734.108-1.209.108-.765 0-1.276-.284-1.535-.852-.258-.569-.387-1.504-.387-2.806V9.052h4.371V5.425h-4.371V2.046l-4.34 1.147v2.232h-2.48v3.627h2.48v8.122c0 1.757.372 3.033 1.116 3.829.744.795 1.922 1.193 3.534 1.193z" transform="translate(1.814 18.3)"/>
    </g>
</svg>
