<svg xmlns="http://www.w3.org/2000/svg" width="126" height="60" viewBox="0 0 126 60">
    <defs>
        <linearGradient id="prefix__a" x1="49.942%" x2="49.942%" y1="102.878%" y2="-3.573%">
            <stop offset="0%" stop-color="#0E6AA5"/>
            <stop offset="100%" stop-color="#009BDE"/>
        </linearGradient>
    </defs>
    <g fill="none">
        <path fill="url(#prefix__a)" d="M32.817 7.37c-9.346 0-11.18 2.828-15.498 6.068 0 0 .118-1.178-1.006-1.355-1.124-.235-1.36.825-1.36.825s-.355-.59-.533-1.178c-.65-2.593-3.786-5.362-7.098-8.662C4.009-.232.638.004.638.004L.342 1.182c-.77 2.357 0 2.946 0 3.653 0 .708.177 1.356.769 2.475.591 1.061.887 4.655 1.065 6.364.236 1.768 1.538 2.887 1.774 3.123.237.236-1.656 1.06-1.656 1.297v1.001c0 .118-.592.707-.77.884-.177.177-.177.884 0 3.771.237 2.829 5.029 5.775 6.39 6.07 1.3.294 2.425-2.299 3.253-2.593.769-.295 2.78-2.416 2.78-2.416s.592 5.48.592 3.418c0-2.063 1.242-2.593 1.242-2.593l.177-1.473s1.36 4.42 2.958 6.01C20.513 31.764 23.53 32 23.826 32c.295 0 2.307.118 4.081-4.302 1.775-4.42-1.005-5.48-.414-5.48.592 0 2.721-1.709 2.425-3.182-.295-1.473 1.124-4.478 2.485-5.833C33.763 11.848 34 8.194 34 8.076c-.06-.059-.355-.707-1.183-.707z" transform="translate(2 13)"/>
        <g fill="#008ACF">
            <path d="M0 .368v12.99c0 3.224 1.75 5.158 5.62 5.158 3.96 0 5.619-1.934 5.619-5.159V.368H7.83v12.529c0 2.026-.553 2.948-2.21 2.948-1.567 0-2.304-.922-2.304-2.948V.368H0zM13.45.368L13.45 18.148 16.674 18.148 16.674 2.027 16.674 2.027 20.082 18.148 22.477 18.148 25.886 2.027 25.886 2.027 25.886 18.148 29.11 18.148 29.11.368 23.675.368 21.28 11.883 18.885.368zM31.229.368H34.637V18.238999999999997H31.229zM36.111 15.016H39.242999999999995V18.148H36.111zM51.403 6.172v-.921C51.403 1.935 49.561 0 46.06 0c-3.685 0-5.527 1.935-5.527 6.08v6.448c0 3.132 1.013 5.988 5.527 5.988 4.238 0 5.435-2.763 5.435-5.988v-.737h-3.5v.922c0 2.303-.645 3.132-2.027 3.132-1.474 0-2.027-.737-2.027-3.132V5.71c0-2.21.645-3.04 2.027-3.04 1.474 0 2.027.737 2.027 3.04v.369h3.408v.092zM53.43.368L53.43 18.148 56.562 18.148 56.562 2.027 56.654 2.027 59.97 18.148 62.457 18.148 65.774 2.027 65.866 2.027 65.866 18.148 68.998 18.148 68.998.368 63.563.368 61.26 11.883 58.865.368zM81.618 5.988v-.553c0-3.593-1.934-5.435-5.25-5.435-3.04 0-5.251 1.658-5.251 4.606 0 1.935.92 3.408 2.671 4.606l3.04 1.935c1.29.829 1.842 1.473 1.842 2.671 0 1.105-.736 2.027-2.026 2.027-1.29 0-2.487-.645-2.487-3.132v-.645h-3.225v.645c0 3.684 1.935 5.895 5.712 5.895 3.593 0 5.527-1.842 5.527-5.066 0-2.672-1.105-3.777-3.04-5.067l-3.5-2.303c-.737-.46-1.106-.921-1.106-2.027 0-1.013.83-1.474 1.842-1.474 1.29 0 2.12.922 2.12 3.04v.185h3.131v.092z" transform="translate(2 13) translate(39 10)"/>
        </g>
    </g>
</svg>
