<svg xmlns="http://www.w3.org/2000/svg" width="164" height="60" viewBox="0 0 164 60">
    <g>
        <path d="M19.698 16.668L19.698 29.692 17.269 29.692 17.269 15.754zM9.995 15.453c0-3.33 1.815-5.146 3.943-5.146 2.129 0 2.43.307 4.846 1.515 2.416 1.209 3.03 1.515 4.244 1.515 1.215 0 1.816-.92 1.816-2.73h2.116c.306 3.632-1.816 5.147-3.944 5.147s-2.73-.307-4.846-1.515-2.729-1.515-3.943-1.515c-1.215 0-1.816.92-2.116 3.03l-2.116-.3z" transform="translate(2 11)"/>
        <path d="M18.784 37.568C8.41 37.568 0 29.158 0 18.784 0 8.41 8.41 0 18.784 0c10.374 0 18.784 8.41 18.784 18.784-.012 10.369-8.415 18.772-18.784 18.784zm0-36.341c-7.106 0-13.513 4.28-16.232 10.846-2.72 6.565-1.216 14.122 3.808 19.146 5.025 5.025 12.582 6.528 19.147 3.81 6.566-2.72 10.846-9.127 10.846-16.233-.007-9.7-7.869-17.563-17.57-17.57z" transform="translate(2 11)"/>
        <g>
            <path d="M4.445 2.488L4.445 13.723 3.049 13.723 3.049 2.488 0 2.488 0 1.171 7.494 1.171 7.494 2.488zM9.955 1.995c.39-.002.743.232.893.592.15.36.069.775-.206 1.051-.276.277-.69.36-1.05.21-.361-.148-.597-.5-.597-.89.003-.53.43-.96.96-.963zm.678 3.918v7.81H9.278v-7.81h1.355zM14.792 0L14.792 13.723 13.437 13.723 13.437 0zM23.58 0h1.355v13.723H23.58V12.63c-.63.84-1.622 1.33-2.672 1.318-1.976 0-3.802-1.393-3.802-4.14 0-2.748 1.807-4.084 3.802-4.084 1.049-.027 2.045.457 2.672 1.298V0zM18.5 9.808c0 1.675.94 2.936 2.558 2.936 1.619 0 2.597-1.374 2.597-2.917 0-2.013-1.392-2.898-2.597-2.898-1.317 0-2.559.979-2.559 2.88zM33.724 5.913h1.355v7.81h-1.355V12.63c-.63.84-1.623 1.33-2.673 1.318-1.976 0-3.801-1.393-3.801-4.14 0-2.748 1.807-4.084 3.801-4.084 1.05-.027 2.046.457 2.673 1.298v-1.11zm-5.081 3.895c0 1.675.94 2.936 2.559 2.936 1.618 0 2.597-1.374 2.597-2.917 0-2.013-1.393-2.898-2.597-2.898-1.336 0-2.56.979-2.56 2.88zM45.128 1.17c1.26 0 2.315.147 3.162.885.75.69 1.163 1.672 1.129 2.691 0 1.77-1.11 3.52-3.971 3.52h-1.205v5.457h-1.392V1.17h2.277zm-.885 5.778h1.13c1.656 0 2.653-.828 2.653-2.258 0-1.995-1.863-2.183-2.766-2.183h-1.017v4.441zM52.693 10.463c0 .546 0 1.186.377 1.675.355.38.853.596 1.373.596.521 0 1.018-.216 1.374-.596.377-.489.377-1.129.377-1.675v-4.55h1.354v4.705c0 .96-.094 1.675-.715 2.352-1.325 1.306-3.454 1.306-4.78 0-.62-.677-.715-1.393-.715-2.352V5.913h1.355v4.55zM61.707 13.723h-1.354V0h1.354v7.004c.645-.817 1.632-1.29 2.673-1.28 2.446 0 3.801 2.033 3.801 4.14 0 2.109-1.374 4.085-3.745 4.085-1.069.026-2.084-.464-2.729-1.318v1.092zm5.082-3.858c0-1.92-1.299-2.936-2.56-2.936-1.26 0-2.597 1.035-2.597 2.917 0 1.6 1.016 2.898 2.616 2.898s2.54-1.317 2.54-2.88zM71.851 0L71.851 13.723 70.496 13.723 70.496 0zM75.332 1.995c.39-.002.743.232.893.592.15.36.07.775-.206 1.051-.275.277-.69.36-1.05.21-.361-.148-.596-.5-.596-.89.002-.53.43-.96.96-.963zm.678 3.918v7.81h-1.355v-7.81h1.355zM82.032 7.72c-.167-.463-.6-.777-1.091-.79-.25-.024-.496.062-.676.234-.18.173-.277.415-.265.665 0 .564.376.752 1.26 1.129 1.13.47 1.657.828 1.958 1.204.289.355.437.804.414 1.261 0 1.637-1.186 2.56-2.691 2.56-1.255.023-2.371-.793-2.73-1.995l1.168-.49c.15.414.602 1.28 1.58 1.28.339.02.67-.104.913-.34.243-.236.376-.563.367-.902 0-.753-.527-.979-1.26-1.298-.942-.414-1.544-.716-1.902-1.13-.255-.326-.382-.734-.357-1.148 0-1.373.96-2.183 2.277-2.183.939-.021 1.793.541 2.145 1.412l-1.11.53zM85.683 0h1.355v6.816c.53-.7 1.362-1.105 2.24-1.091.878-.039 1.718.363 2.239 1.072.395.584.451 1.224.451 2.09v4.836h-1.355V8.924c.042-.503-.084-1.006-.357-1.43-.31-.384-.787-.594-1.28-.565-.526-.022-1.033.2-1.374.602-.526.621-.564 1.544-.564 2.108v4.084h-1.355V0zM95.45 1.995c.39-.002.743.232.893.592.15.36.069.775-.207 1.051-.275.277-.69.36-1.05.21-.36-.148-.596-.5-.596-.89.002-.53.43-.96.96-.963zm.696 3.918v7.81h-1.355v-7.81h1.355zM98.931 5.913h1.355v.903c.53-.7 1.362-1.105 2.24-1.091.879-.039 1.719.363 2.24 1.072.395.584.451 1.224.451 2.09v4.836h-1.355V8.924c.041-.503-.084-1.006-.358-1.43-.31-.384-.787-.594-1.28-.565-.525-.022-1.032.2-1.373.602-.527.621-.565 1.544-.565 2.108v4.084h-1.355v-7.81zM114.005 5.913h1.355v7.622c0 .846 0 2.05-.752 3.067-.75.955-1.911 1.493-3.124 1.45-1.032.034-2.035-.346-2.785-1.055-.663-.67-1.03-1.579-1.017-2.521h1.336c-.001.594.213 1.17.603 1.618.487.514 1.174.79 1.882.753.842.066 1.648-.359 2.07-1.092.332-.61.482-1.302.432-1.995v-1.129c-.63.84-1.622 1.33-2.672 1.318-.995.018-1.957-.361-2.672-1.054-.777-.835-1.184-1.948-1.13-3.087-.054-1.122.354-2.217 1.13-3.03.721-.682 1.679-1.06 2.672-1.053 1.048-.024 2.043.46 2.672 1.298v-1.11zm-4.29 1.75c-.54.581-.824 1.354-.79 2.145-.046.857.276 1.692.884 2.296.452.425 1.054.655 1.675.64.637.026 1.257-.212 1.712-.658.583-.606.901-1.418.885-2.259.025-.814-.272-1.606-.828-2.202-.475-.455-1.111-.705-1.77-.696-.665-.009-1.305.257-1.768.734z" transform="translate(2 11) translate(44 13)"/>
        </g>
    </g>
</svg>
