<svg xmlns="http://www.w3.org/2000/svg" width="170" height="60" viewBox="0 0 170 60">
    <g fill="none" fill-rule="evenodd">
        <path fill="#945C87" d="M.468 3.25C1.24 1.405 3.168.083 5.178.083h45.55c1.323-.028 2.645.468 3.608 1.35 1.102.99 1.735 2.478 1.708 3.965v17.46c-.028 2.616-2.313 4.985-4.93 5.04-5.535.028-11.07 0-16.606 0 .743 1.845 1.487 3.663 2.23 5.508-3.304-1.818-6.554-3.69-9.887-5.48-7.27-.056-14.568 0-21.866-.028-2.617-.083-4.902-2.424-4.93-5.04-.027-5.7 0-11.401-.027-17.075 0-.853.082-1.735.44-2.533" transform="translate(2 16)"/>
        <path fill="#FFF" d="M22.72 3.663c.827-.881 2.424-.606 3.057.413.33.523.358 1.24.083 1.79-1.157 2.313-1.652 4.875-2.093 7.38-.523 3.278-.964 6.61-.799 9.943.055.853-.358 1.872-1.266 2.093-.854.192-1.653-.386-2.204-.992-2.478-2.671-3.883-6.114-4.902-9.556-1.019 2.01-2.038 4.048-3.03 6.059-.688 1.377-1.431 2.781-2.533 3.883-.468.468-1.267.881-1.873.413-.908-.799-1.129-2.066-1.514-3.14-1.46-5.04-2.286-10.245-3.14-15.422-.193-.854.165-1.9 1.02-2.23.688-.249 1.596-.304 2.175.22.413.358.523.936.606 1.46.606 4.02 1.294 8.013 2.285 11.952 1.653-3.14 3.305-6.28 4.958-9.447.248-.468.55-.936.991-1.211.606-.386 1.487-.358 2.01.192.414.441.579 1.074.689 1.653.496 2.588 1.157 5.177 2.12 7.628.414-3.718.937-7.49 2.286-10.988.303-.744.579-1.487 1.074-2.093m9.337 2.01c1.79-.22 3.717.386 4.93 1.735.99 1.13 1.541 2.589 1.734 4.049.303 2.506-.165 5.15-1.377 7.38-.688 1.267-1.57 2.506-2.836 3.25-1.846 1.13-4.324.992-6.114-.193-1.432-.991-2.231-2.644-2.561-4.296-.661-3.773.468-7.959 3.304-10.575.827-.744 1.845-1.212 2.92-1.35m.358 3.856c-.854.275-1.405 1.074-1.873 1.79-1.157 1.873-1.487 4.324-.55 6.334.247.523.632 1.102 1.266 1.212.66.11 1.267-.276 1.735-.689 1.046-.908 1.57-2.258 1.845-3.607.275-1.515.138-3.195-.743-4.517-.359-.496-1.075-.716-1.68-.523M46.35 5.673c1.735-.22 3.635.33 4.847 1.625 1.101 1.184 1.68 2.754 1.845 4.351.248 2.424-.193 4.958-1.35 7.106-.688 1.294-1.597 2.561-2.919 3.332-1.762 1.074-4.13.964-5.893-.083-1.184-.716-1.983-1.927-2.451-3.222-1.24-3.938-.193-8.565 2.671-11.539.936-.826 2.066-1.432 3.25-1.57m.385 3.856c-.936.33-1.487 1.24-1.983 2.038-1.046 1.845-1.321 4.241-.358 6.196.248.551.717 1.074 1.35 1.102.688.027 1.294-.413 1.79-.881 1.074-1.047 1.542-2.534 1.708-3.994.165-1.35-.056-2.809-.854-3.965-.33-.469-1.047-.689-1.653-.496" transform="translate(2 16)"/>
        <path fill="#000" fill-rule="nonzero" d="M65.463 6.196c1.514-.33 3.112-.302 4.626.056v3.717c-1.239-.302-2.644-.578-3.828 0-1.432.717-2.23 2.341-2.23 3.884-.083 1.542.44 3.277 1.817 4.158 1.267.826 2.892.661 4.269.276v3.717c-1.845.524-3.856.469-5.646-.192-2.148-.799-3.855-2.672-4.516-4.875-.496-1.68-.551-3.47-.166-5.177.634-2.727 2.947-4.958 5.674-5.564m11.18-.192c1.874-.22 3.911.082 5.426 1.267 1.46 1.129 2.176 2.974 2.451 4.736.248 1.956.193 3.994-.413 5.866-.523 1.598-1.597 3.085-3.14 3.829-1.57.743-3.414.798-5.094.413-1.543-.358-2.92-1.377-3.69-2.782-1.075-1.873-1.268-4.103-1.185-6.224.083-1.818.55-3.718 1.763-5.122.991-1.13 2.423-1.818 3.883-1.983m.578 3.552c-.799.193-1.267.992-1.46 1.735-.385 1.488-.33 3.03-.22 4.544.11.827.193 1.708.771 2.369.771.881 2.341.771 3.03-.138.468-.578.606-1.322.688-2.038.165-1.267.193-2.56 0-3.828-.137-.77-.358-1.57-.909-2.148-.495-.496-1.239-.66-1.9-.496m73.45-3.304c1.597-.414 3.277-.358 4.874-.028.027 1.24 0 2.479.027 3.745-1.211-.302-2.56-.578-3.745-.055-1.377.634-2.203 2.093-2.313 3.553-.166 1.652.275 3.525 1.735 4.49 1.267.88 2.919.715 4.323.302-.027 1.24.028 2.506-.027 3.745-1.955.496-4.104.441-5.949-.358-2.038-.88-3.635-2.754-4.213-4.902-.441-1.652-.496-3.415-.083-5.095.606-2.588 2.782-4.709 5.37-5.397m-63.7.11h5.316c.633 2.864 1.239 5.756 1.79 8.647.495-2.919 1.184-5.783 1.872-8.647h5.453c.716 5.205 1.405 10.41 2.093 15.587h-4.158c-.386-3.552-.716-7.132-1.13-10.685-.853 3.553-1.734 7.133-2.588 10.685h-2.837c-.909-3.552-1.79-7.132-2.726-10.713-.358 3.553-.716 7.133-1.074 10.713h-3.994c.661-5.177 1.322-10.382 1.983-15.587m19.058 0h5.315c.634 2.864 1.24 5.756 1.79 8.647.524-2.891 1.185-5.783 1.873-8.647h5.425c.716 5.205 1.405 10.41 2.093 15.587h-4.158c-.386-3.552-.744-7.132-1.13-10.685-.853 3.553-1.707 7.133-2.588 10.685h-2.837c-.908-3.58-1.817-7.132-2.726-10.713l-1.074 10.713h-3.993c.688-5.177 1.349-10.382 2.01-15.587m17.708.055c2.837-.055 5.701 0 8.538-.028v3.333c-1.432.027-2.865 0-4.297 0v2.864h3.718v3.222h-3.718v2.864h4.324v3.332h-8.537c-.028-5.205.027-10.382-.028-15.587m9.75-.055c1.79 0 3.552-.028 5.342 0 1.68.055 3.47.468 4.71 1.652 1.129 1.047 1.514 2.782 1.074 4.241-.358 1.185-1.24 2.148-2.341 2.672 1.101 2.34 2.23 4.681 3.36 7.022h-4.434c-1.157-2.396-2.286-4.792-3.47-7.16-.028 2.396 0 4.792 0 7.16h-4.214c-.028-5.177-.028-10.382-.028-15.587m4.214 3.002v3.717c.771-.055 1.597-.082 2.23-.55.744-.551.662-1.68.194-2.396-.579-.689-1.598-.689-2.424-.771m19.058-2.975h8.51v3.333h-4.324v2.864h3.718v3.222h-3.718v2.864h4.351v3.332h-8.537c-.028-5.232 0-10.437 0-15.615" transform="translate(2 16)"/>
    </g>
</svg>
