<svg xmlns="http://www.w3.org/2000/svg" width="140" height="60" viewBox="0 0 140 60">
    <g fill="none" fill-rule="evenodd">
        <path fill="#5875AA" fill-rule="nonzero" d="M12.33 37.76H9.775L0 16.2h5.109l6.042 14.36C20.435 10.92 41.509 2.6 60.863 0l.59.72c-12.674 2.44-24.414 6.4-33.65 14.12l-.294-.04-.344-.04h-.688l-.344.04-.344.08-.343.08-.295.12-.295.16-.295.16-.245.2-.246.2-.196.24-.197.24-.147.24-.098.28-.099.28-.049.28v.56l.05.28.098.28.098.28.049.04c-.246.28-.491.52-.737.8h-1.326v1.52c-3.734 4.56-6.828 10-9.186 16.64z" transform="translate(2.456 7)"/>
        <path fill="#5875AA" d="M79.235 28H68.182c.05 1 .492 1.8 1.278 2.32.786.56 1.817.84 3.144.84 1.62 0 2.898-.36 3.733-1.04l1.375 2.24c-1.277.84-3.144 1.24-5.698 1.24-2.358 0-4.225-.56-5.6-1.68-1.375-1.12-2.063-2.68-2.063-4.72 0-2 .737-3.6 2.26-4.8 1.522-1.24 3.29-1.84 5.403-1.84 2.26 0 4.028.56 5.404 1.64 1.375 1.08 2.014 2.48 2.014 4.16.098.4 0 .92-.197 1.64zM26.821 15.96c.59 0 1.08.16 1.474.52.393.32.638.72.638 1.2s-.196.88-.638 1.2c-.393.32-.884.48-1.474.48s-1.08-.16-1.474-.48c-.393-.32-.59-.72-.59-1.2s.197-.88.59-1.2c.393-.36.934-.52 1.474-.52zM24.954 33.4V23.24H22.99v-2.4h5.65V33.4h-3.685zm12.33-10.16c-.835 0-1.572.08-2.21.72-.639.64-.983 1.36-.983 2.28v7.16h-3.635V20.84h3.586V22c1.032-.92 2.358-1.16 4.028-1.16.884 0 1.621-.12 2.21 0h.394v-2.56l3.586-1.08v3.64h4.224v2.36H44.26v5.52c0 .92.196 1.52.54 1.92.344.36.933.56 1.818.56.884 0 1.67-.2 2.407-.56v2.72c-.836.24-2.014.36-3.586.36-1.523 0-2.702-.36-3.537-1.08-.835-.72-1.228-1.72-1.228-3.04v-6.4c-1.376 0-1.867.04-3.39.04zM60.028 33.4v-1.04c-.491.36-1.228.64-2.112.92-.884.24-1.72.36-2.456.36-3.586 0-5.355-1.56-5.355-4.64v-8.16h3.586v7.96c0 1.6.884 2.4 2.653 2.4.835 0 1.572-.16 2.26-.52.687-.36 1.178-.76 1.375-1.2v-8.64h3.586v12.6h-3.537v-.04zm8.302-7.6h7.565c-.246-1.84-1.474-2.76-3.734-2.76-2.063 0-3.34.92-3.831 2.76z" transform="translate(2.456 7)"/>
        <path fill="#3EB4F0" fill-rule="nonzero" d="M101.144 33.4L97.509 33.4 95.298 24.12 91.074 33.64 89.747 33.64 85.474 24.12 83.214 33.4 79.579 33.4 83.804 16.2 85.818 16.2 90.386 27.8 94.856 16.2 96.821 16.2zM111.853 32.16c-.344.44-.885.8-1.72 1.08s-1.67.4-2.554.4c-1.67 0-2.947-.36-3.93-1-.933-.68-1.424-1.64-1.424-2.88 0-1.44.687-2.6 2.014-3.4 1.326-.84 3.242-1.24 5.698-1.24.442 0 .933.04 1.474.16 0-1.48-1.13-2.24-3.44-2.24-1.375 0-2.504.2-3.389.56l-.786-2.28c1.229-.48 2.702-.72 4.422-.72 2.357 0 4.077.44 5.157 1.32 1.081.88 1.621 2.52 1.621 4.96v2.68c0 1.68.393 2.72 1.229 3.16-.295.44-.639.68-.983.8-.393.08-.786.16-1.277.16-.54 0-.983-.16-1.376-.48-.343-.36-.589-.68-.736-1.04zm-.344-4.68c-.639-.12-1.08-.16-1.376-.16-2.849 0-4.273.76-4.273 2.28 0 1.12.786 1.68 2.407 1.68 2.161 0 3.242-.88 3.242-2.64v-1.16z" transform="translate(2.456 7)"/>
        <path fill="#3EB4F0" d="M123.986 23.2c-.835 0-1.572.16-2.21.8-.64.64-.983 1.36-.983 2.28v7.16h-3.586v-12.6h3.586V22c1.032-.92 2.358-1.24 4.028-1.24.884 0 1.621-.08 2.21.08h.688v-2.56l3.586-1.08v3.64h4.225v2.36h-4.225v5.52c0 .92.197 1.52.54 1.92.344.36.934.56 1.818.56s1.67-.2 2.407-.56v2.72c-.835.24-2.014.36-3.586.36-1.523 0-2.702-.36-3.537-1.08-.835-.72-1.228-1.72-1.228-3.04v-6.4h-3.733z" transform="translate(2.456 7)"/>
    </g>
</svg>
