<svg xmlns="http://www.w3.org/2000/svg" width="190" height="60" viewBox="0 0 190 60">
    <g fill="none">
        <path fill="#231F20" d="M72.873 17.033c-1.477 0-2.677 1.198-2.677 2.675 0 1.48 1.2 2.677 2.677 2.677 1.479 0 2.676-1.198 2.676-2.677 0-1.477-1.197-2.675-2.676-2.675zm108.911-1.964c1.755 0 3.039.982 3.88 1.964V12.29c-1.379-.934-3.04-1.309-4.484-1.309-4.437 0-8.292 3.177-8.292 8.643 0 5.233 3.504 8.644 8.36 8.644 1.402 0 2.943-.212 4.416-1.215V22.4c-.841.867-2.17 1.779-3.88 1.779-2.614 0-4.18-1.938-4.18-4.416 0-2.687 1.659-4.695 4.18-4.695zm-8.394-3.62h-5.373l-4.93 6.867V11.45h-4.576l.001 16.35h4.576v-7.032l4.74 7.032h5.726l-6.378-8.433 6.214-7.917zm-28.398 9.811v-9.81h-4.414V27.8h4.484l6.33-9.811V27.8h4.415V11.45h-4.485l-6.33 9.81zm-13.265-2.454h-1.306v-3.759h1.306c1.962 0 2.241 1.05 2.241 1.868 0 .7-.21 1.891-2.241 1.891zm1.003-7.356h-6.89V27.8h4.58v-5.399h2.31c4.626 0 5.958-3.22 5.958-5.486 0-2.243-1.309-5.465-5.958-5.465zM112.2 15.372h3.595V27.8h4.58V15.372h3.596V11.45h-11.77v3.922zM99.516 21.26v-9.81h-4.413V27.8h4.485l6.328-9.811V27.8h4.415V11.45h-4.483l-6.332 9.81zm-13.64 3.268h-1.961v-3.432h1.961c1.45 0 2.29.42 2.29 1.707 0 1.306-.864 1.725-2.29 1.725zm.445-6.703h-2.406v-2.453h7.497V11.45H79.337V27.8h6.984c1.19 0 6.423.046 6.423-5.068 0-4.93-5.185-4.907-6.423-4.907zm-32.607 1.799c0 5.233 3.504 8.644 8.362 8.644 1.403 0 2.944-.212 4.416-1.215V22.4c-.844.867-2.175 1.779-3.879 1.779-2.617 0-4.18-1.938-4.18-4.416 0-2.687 1.657-4.695 4.18-4.695 1.751 0 3.035.982 3.879 1.964V12.29c-1.381-.934-3.038-1.309-4.486-1.309-4.439 0-8.292 3.177-8.292 8.643zM44.13 15.21h2.501V27.8h4.228V11.45H44.13v3.76z" transform="translate(2 12)"/>
        <path fill="#D91935" d="M17.976 0c-1.34 0-2.642.15-3.897.43v17.56c0 2.152 1.755 3.907 3.907 3.907s3.906-1.755 3.906-3.906c0-2.067-1.616-3.764-3.646-3.9v-3.126c3.752.136 6.771 3.24 6.771 7.026 0 3.871-3.158 7.032-7.03 7.032-3.875 0-7.033-3.16-7.033-7.033V1.423c-.443.188-.877.397-1.302.622V17.99c0 4.59 3.745 8.332 8.334 8.332 4.59 0 8.333-3.743 8.333-8.331 0-4.503-3.602-8.191-8.073-8.33V6.535c6.192.14 11.197 5.232 11.197 11.456 0 6.311-5.147 11.457-11.457 11.457-6.311 0-11.46-5.146-11.46-11.458V4.119C2.541 7.414 0 12.398 0 17.976c0 9.928 8.048 17.978 17.977 17.978 9.93 0 17.976-8.05 17.976-17.978S27.907 0 17.976 0" transform="translate(2 12)"/>
    </g>
</svg>
