<svg xmlns="http://www.w3.org/2000/svg" width="166" height="60" viewBox="0 0 166 60">
    <defs>
        <linearGradient id="prefix__a" x1="50%" x2="50%" y1="79.104%" y2="0%">
            <stop offset="0%" stop-color="#04B6F0"/>
            <stop offset="100%" stop-color="#3ECAF0"/>
        </linearGradient>
    </defs>
    <path fill="url(#prefix__a)" d="M16.095 16.538c0 2.416-.719 4.451-2.162 6.099-1.506 1.726-3.463 2.592-5.859 2.592-2.402 0-4.353-.866-5.859-2.592C.771 20.989.047 18.954.047 16.538c0-2.422.724-4.457 2.168-6.098 1.523-1.71 3.48-2.565 5.859-2.565 2.396 0 4.353.855 5.859 2.565 1.443 1.641 2.162 3.676 2.162 6.098zm-4.77 0c0-1.094-.262-2.018-.787-2.764-.587-.85-1.409-1.271-2.464-1.271-1.056 0-1.877.422-2.465 1.27-.53.747-.793 1.671-.793 2.765 0 1.089.263 2.023.793 2.793.588.848 1.41 1.27 2.465 1.27s1.877-.422 2.464-1.27c.525-.77.787-1.704.787-2.793zm22.017 0c0 2.257-.65 4.229-1.957 5.916-1.398 1.846-3.2 2.775-5.392 2.775-1.546 0-2.858-.45-3.93-1.339 0 .205.023.7.068 1.494.046.797.068 1.447.068 1.96 0 2.833-.844 4.246-2.532 4.246-.69 0-1.255-.245-1.706-.73-.445-.49-.668-1.078-.668-1.772V10.662c0-.672.229-1.254.685-1.744.456-.484 1.021-.729 1.694-.729 1.016 0 1.757.506 2.225 1.516.999-1.22 2.362-1.83 4.09-1.83 2.197 0 3.994.912 5.398 2.742 1.3 1.693 1.957 3.665 1.957 5.921zm-4.77 0c0-1.094-.268-2.018-.792-2.764-.589-.85-1.41-1.271-2.465-1.271-1.056 0-1.877.422-2.465 1.27-.525.747-.787 1.671-.787 2.765 0 1.089.262 2.023.787 2.793.588.848 1.41 1.27 2.465 1.27s1.876-.422 2.465-1.27c.524-.77.792-1.704.792-2.793zm22.125-.512c0 .797-.189 1.344-.566 1.652-.376.302-.963.456-1.756.456h-8.61c0 .912.428 1.613 1.284 2.102.69.383 1.535.577 2.533.577.777 0 1.706-.257 2.796-.764 1.09-.513 1.791-.764 2.094-.764.553 0 1.02.2 1.409.61.382.405.576.895.576 1.46 0 1.304-.975 2.32-2.927 3.048-1.489.547-3 .826-4.546.826-2.488 0-4.496-.826-6.03-2.472-1.536-1.648-2.306-3.717-2.306-6.219 0-2.383.799-4.417 2.396-6.115 1.592-1.699 3.572-2.548 5.934-2.548 2.196 0 4.033.804 5.505 2.411 1.472 1.608 2.214 3.522 2.214 5.74zm-4.77-1.198c-.023-.73-.36-1.39-1.01-1.99-.65-.597-1.34-.893-2.07-.893-.754 0-1.456.296-2.106.894-.65.599-.976 1.26-.976 1.99h6.162zm20.795 7.585c0 .696-.222 1.283-.667 1.773-.45.485-1.016.73-1.706.73-1.666 0-2.5-1.322-2.5-3.96 0-.508.035-1.306.104-2.406.074-1.094.108-1.898.108-2.405 0-2.799-.907-4.2-2.715-4.2-1.81 0-2.71 1.401-2.71 4.2 0 .507.028 1.31.08 2.405.057 1.1.085 1.898.085 2.405 0 2.639-.822 3.961-2.464 3.961-.691 0-1.255-.245-1.7-.73-.451-.49-.674-1.077-.674-1.773V10.657c0-.69.223-1.277.673-1.75.446-.479 1.016-.718 1.706-.718 1.141 0 1.934.506 2.379 1.516.77-1.22 2.134-1.83 4.085-1.83 1.808 0 3.246.479 4.302 1.43 1.078 1.021 1.614 2.423 1.614 4.207v8.901zm14.964-.506c0 1.077-.7 1.931-2.104 2.56-1.112.506-2.321.766-3.543.762-2.403 0-4.353-.866-5.86-2.592-1.443-1.648-2.168-3.683-2.168-6.099 0-2.422.737-4.468 2.214-6.144 1.477-1.68 3.411-2.519 5.814-2.519 1.386 0 2.578.205 3.572.61 1.385.548 2.075 1.402 2.075 2.565 0 .587-.182 1.105-.547 1.556-.365.444-.834.672-1.403.672-.389 0-.948-.13-1.678-.387-.73-.263-1.311-.388-1.74-.388-1.135 0-2.02.405-2.653 1.214-.587.73-.884 1.664-.884 2.821 0 1.089.262 2.012.794 2.759.586.872 1.414 1.305 2.47 1.305.468 0 1.106-.137 1.922-.417.816-.273 1.404-.415 1.769-.415.53 0 .986.227 1.375.672.382.45.575.934.575 1.465zm17.338.506c0 .696-.222 1.283-.667 1.773-.45.485-1.02.73-1.712.73-1.038 0-1.78-.507-2.225-1.516-.998 1.22-2.362 1.83-4.09 1.83-2.213 0-4.027-.93-5.432-2.776-1.277-1.687-1.921-3.659-1.921-5.916 0-2.256.644-4.228 1.921-5.921 1.427-1.83 3.235-2.742 5.432-2.742 1.728 0 3.092.61 4.09 1.83.445-1.01 1.187-1.516 2.225-1.516.674 0 1.239.245 1.695.73.456.49.684 1.065.684 1.738v11.756zm-4.77-5.875c0-1.094-.261-2.018-.786-2.764-.61-.85-1.433-1.271-2.465-1.271-1.055 0-1.876.422-2.465 1.27-.53.747-.792 1.671-.792 2.765 0 1.089.256 2.023.763 2.793.606.848 1.439 1.27 2.494 1.27 1.055 0 1.877-.422 2.465-1.27.525-.77.787-1.704.787-2.793zm16.94-6.195c0 1.02-.497 1.72-1.49 2.102-.918.309-1.831.623-2.744.947-.999.57-1.495 1.63-1.495 3.17v5.851c0 .696-.229 1.283-.672 1.773-.452.485-1.022.73-1.712.73-.696 0-1.267-.245-1.711-.73-.452-.49-.674-1.077-.674-1.773V10.657c0-.69.222-1.277.667-1.75.45-.479 1.022-.718 1.712-.718 1.14 0 1.933.506 2.38 1.516 1.02-1.22 2.116-1.83 3.297-1.83.673 0 1.25.245 1.728.73.473.49.714 1.071.714 1.738zm12.442.217c0 1.06-.416 1.726-1.242 2.012-.407.142-1.258.216-2.552.216v9.625c0 .696-.228 1.283-.672 1.773-.452.485-1.022.73-1.712.73-.673 0-1.244-.245-1.701-.73-.456-.49-.684-1.077-.684-1.773v-9.625c-.982 0-1.694-.125-2.145-.37-.615-.342-.92-.963-.92-1.858 0-.895.314-1.505.947-1.83.429-.24 1.136-.364 2.118-.364v-2.04c0-2.4.792-3.597 2.385-3.597 1.585 0 2.384 1.197 2.384 3.596v2.04c1.294 0 2.145.075 2.552.217.826.285 1.242.946 1.242 1.978zm38.317-2.894c-.013-1.463-2.719-2.127-9.724-2.127-16.435 0-20.605-.702-25.067-5.392 1.877 2.816 2.904 8.099 20.276 7.836 18.125-.279 7.068 4.669 3.85 10.259 5.803-5.174 10.648-8.583 10.665-10.555v-.021zm-23.096 15.022c0 1.36-1.12 2.478-2.482 2.478-1.375 0-2.487-1.11-2.487-2.478v-.002c0-1.362 1.122-2.483 2.486-2.483h.001c1.371 0 2.482 1.11 2.482 2.485zm11.319 0c0 1.36-1.12 2.478-2.482 2.478-1.374 0-2.486-1.11-2.486-2.478v-.002c0-1.362 1.121-2.483 2.485-2.483h.001c1.37 0 2.482 1.11 2.482 2.485z" transform="translate(2 14)"/>
</svg>
