<svg xmlns="http://www.w3.org/2000/svg" width="180" height="60" viewBox="0 0 180 60">
    <g fill="none" fill-rule="evenodd">
        <g fill-rule="nonzero">
            <path fill="#27245D" d="M27.426 12.946c-.028-.112-.028-.28-.028-.503 0-1.422.474-2.538 1.423-3.32.948-.809 1.98-1.2 3.125-1.2 1.506 0 2.566.559 3.152 1.703l-7.672 3.32zm10.992-2.01c-.028-1.673-.641-3.04-1.897-4.1-1.255-1.06-2.818-1.563-4.715-1.563-1.2 0-2.344.251-3.404.781-1.088.53-1.98 1.34-2.706 2.483-.725 1.116-1.088 2.4-1.088 3.879 0 2.12.697 3.85 2.092 5.133 1.395 1.311 3.097 1.953 5.05 1.953 2.232 0 4.185-.837 5.831-2.539l-1.702-1.897c-1.004 1.2-2.287 1.814-3.822 1.814-1.562 0-2.79-.558-3.683-1.674l10.072-4.241-.028-.028zM21.26 6.11c-.81.558-1.451 1.256-1.897 2.12V5.44h-2.93V19.28h2.902v-5.915c0-1.562.362-2.846 1.088-3.766.725-.949 1.813-1.395 3.236-1.395h.168l-.028-2.93c-.865 0-1.73.28-2.54.837M48.825 12.248c-.474-.307-.893-.558-1.311-.725-.419-.168-.837-.335-1.256-.475-.446-.14-.92-.279-1.506-.418-.558-.14-1.005-.28-1.312-.446-.446-.196-.67-.53-.67-.977 0-.502.224-.893.642-1.144.447-.251 1.005-.39 1.702-.39 1.312 0 2.54.362 3.655 1.116l1.088-2.149c-1.423-.948-2.93-1.395-4.52-1.395-1.59 0-2.901.39-3.878 1.144-1.004.781-1.506 1.786-1.506 3.07 0 1.813 1.45 3.124 4.324 3.905.056.028.168.056.307.112 1.842.558 2.762 1.172 2.762 1.869 0 .474-.195.865-.558 1.144-.39.307-.892.446-1.562.446-1.507 0-3.07-.613-4.687-1.813l-1.395 2.26c.837.67 1.785 1.172 2.873 1.534 1.089.363 2.12.558 3.125.558 1.479 0 2.707-.39 3.655-1.172.949-.78 1.423-1.841 1.423-3.152.028-1.312-.446-2.26-1.395-2.902M10.323 10.211c-.614.642-1.786.977-3.46.977h-3.57V3.906h3.124c1.674 0 2.874.251 3.655.781.781.53 1.172 1.395 1.172 2.65 0 1.284-.307 2.233-.921 2.874m2.176-7.505c-1.255-1.06-3.264-1.59-6.026-1.59H.223v18.163h3.07V13.95h3.236c2.678 0 4.659-.502 5.942-1.534 1.284-1.033 1.925-2.623 1.925-4.827 0-2.176-.641-3.822-1.897-4.883M57.056 16.991c-.614 0-1.116-.195-1.451-.586-.335-.39-.53-.92-.53-1.562V7.812h3.627V5.468h-3.627V1.116h-2.902v13.615c0 1.451.446 2.623 1.311 3.46.865.865 1.925 1.283 3.18 1.283 1.229 0 2.372-.446 3.405-1.367l-1.2-2.064c-.586.641-1.2.948-1.813.948M70.364 15.68c-.81.837-1.758 1.255-2.902 1.255-1.144 0-2.148-.418-2.985-1.255-.837-.837-1.283-1.897-1.283-3.237 0-1.339.418-2.427 1.255-3.32.837-.892 1.814-1.339 2.985-1.339 1.172 0 2.149.447 2.93 1.34.809.892 1.2 1.98 1.2 3.292 0 1.339-.391 2.427-1.2 3.264m1.144-7.812c-1.172-1.73-2.679-2.595-4.492-2.595-1.814 0-3.404.642-4.743 1.925-1.34 1.284-2.009 2.986-2.009 5.134s.642 3.878 1.953 5.19c1.311 1.31 2.818 1.98 4.576 1.98.865 0 1.73-.223 2.594-.642.865-.418 1.563-1.032 2.12-1.841v2.26h2.902V5.44h-2.901v2.427z" transform="translate(2 12) translate(39 8)"/>
            <path fill="#E2066F" d="M117.57 15.652c-.836.837-1.869 1.255-3.124 1.255-1.256 0-2.316-.418-3.125-1.255-.837-.837-1.228-1.925-1.228-3.264 0-1.34.419-2.428 1.228-3.265.81-.837 1.87-1.255 3.125-1.255s2.316.418 3.125 1.255c.809.837 1.227 1.925 1.227 3.265 0 1.339-.39 2.427-1.227 3.264m-3.125-10.379c-2.093 0-3.822.698-5.19 2.065-1.395 1.367-2.092 3.069-2.092 5.05 0 1.98.697 3.682 2.092 5.05 1.395 1.367 3.125 2.064 5.19 2.064 2.064 0 3.822-.697 5.19-2.064 1.394-1.368 2.092-3.07 2.092-5.05 0-1.981-.698-3.683-2.093-5.05-1.395-1.395-3.125-2.065-5.19-2.065M133.39 15.652c-.837.837-1.841 1.255-2.985 1.255s-2.12-.418-2.902-1.255c-.81-.837-1.2-1.925-1.2-3.236 0-1.312.39-2.4 1.2-3.293.81-.865 1.786-1.311 2.93-1.311 1.171 0 2.148.446 2.985 1.311.837.865 1.255 1.981 1.255 3.293-.028 1.339-.446 2.399-1.283 3.236m2.204-8.454c-1.311-1.283-2.902-1.925-4.743-1.925-1.841 0-3.348.865-4.492 2.623V5.468h-2.901v18.86h2.901v-7.114c1.395 1.535 2.958 2.288 4.687 2.288 1.73 0 3.265-.67 4.576-2.009 1.311-1.339 1.953-3.069 1.953-5.19 0-2.12-.67-3.85-1.981-5.105M100.384 5.273c-.976 0-1.87.251-2.706.726-.837.474-1.479 1.143-1.897 2.008V.056h-2.902v19.25h2.902V11.83c0-1.284.362-2.26 1.116-2.93.753-.67 1.618-1.004 2.622-1.004 2.12 0 3.18 1.283 3.18 3.822v7.589h2.903v-8.482c0-1.813-.475-3.18-1.451-4.129-.949-.949-2.204-1.423-3.767-1.423M89.392 10.574c-.949-.809-2.344-1.45-4.213-1.897-1.87-.446-3.07-.865-3.655-1.256-.558-.39-.865-.948-.865-1.701 0-.726.279-1.284.865-1.647.558-.362 1.311-.558 2.204-.558.893 0 1.786.168 2.706.475.92.307 1.646.697 2.176 1.2l1.647-2.316c-.837-.698-1.814-1.228-2.958-1.618-1.144-.391-2.288-.558-3.46-.558-1.813 0-3.32.446-4.547 1.367-1.228.92-1.842 2.204-1.842 3.878s.53 2.93 1.619 3.738c.53.447 1.144.782 1.841 1.06.698.28 1.702.559 3.041.893 1.34.307 2.26.67 2.818 1.06.558.391.81.95.81 1.647 0 .697-.28 1.255-.866 1.702-.586.418-1.367.641-2.343.641-1.981 0-3.878-.809-5.72-2.4l-1.925 2.317c2.204 1.953 4.715 2.929 7.56 2.929 1.954 0 3.516-.502 4.716-1.479 1.2-.976 1.786-2.26 1.786-3.85 0-1.59-.447-2.818-1.395-3.627" transform="translate(2 12) translate(39 8)"/>
        </g>
        <path fill="#A0DBE8" fill-rule="nonzero" d="M11.478 26.992c.28-.129.561-.234.854-.351.327-.117.655-.234.983-.34.41-.128.83-.233 1.251-.327.574-.117 1.147-.21 1.72-.27-.327 1.019-.678 2.037-1.076 3.043l.035.585c.784-.152 1.591-.234 2.422-.234.83 0 1.638.082 2.422.234 0-.199.012-.398.035-.585-.386-1.006-.749-2.024-1.076-3.042.573.058 1.158.14 1.72.269.42.094.83.199 1.251.328.328.105.656.21.983.339.293.105.573.222.854.35 1.99.89 3.803 2.2 5.289 3.909 3.732-3.218 6.095-7.98 6.095-13.303 0-9.7-7.862-17.574-17.573-17.574C7.967.023.094 7.886.094 17.597c0 5.312 2.363 10.073 6.095 13.303 1.486-1.709 3.3-3.019 5.289-3.908z" transform="translate(2 12)"/>
        <path fill="#525353" fill-rule="nonzero" d="M12.636 30.174c.819-.362 1.696-.643 2.597-.819 0-.199-.011-.398-.035-.585.386-1.006.75-2.024 1.077-3.042-.574.059-1.159.14-1.72.27-.421.093-.83.198-1.252.327-.328.105-.655.21-.983.34l1.275.315-.959 3.194zM9.617 32.058c.035-.328.047-.655.047-.995 0-.198.164-.362.363-.362h.316l1.123-3.72c-1.989.888-3.803 2.199-5.288 3.907.819.714 1.708 1.345 2.644 1.895.269-.245.526-.491.795-.725zM23.845 26.992l1.123 3.72h.316c.199 0 .362.164.362.363 0 .34.024.667.047.995.27.234.538.468.784.725.948-.55 1.825-1.182 2.644-1.895-1.474-1.709-3.287-3.019-5.276-3.908zM21.703 26.957l1.276-.316c-.328-.117-.655-.234-.983-.34-.41-.128-.83-.233-1.252-.327-.573-.117-1.147-.21-1.72-.27.328 1.019.679 2.037 1.077 3.043l-.036.585c.913.175 1.779.456 2.598.819l-.96-3.194z" transform="translate(2 12)"/>
        <path fill="#000" fill-rule="nonzero" d="M17.655 30.712h2.48c-.046-.456-.07-.912-.058-1.357-.784-.152-1.591-.234-2.422-.234-.83 0-1.638.082-2.422.234.012.457-.011.901-.058 1.357h2.48zM8.833 32.783c.2.117.41.234.62.351.07-.35.13-.713.164-1.076-.269.234-.526.48-.784.725z" transform="translate(2 12)"/>
        <path fill="#000" fill-rule="nonzero" d="M12.472 30.712h2.715c.046-.456.07-.912.058-1.357-.913.176-1.778.457-2.597.82l-.176.537zM25.705 32.058c.035.363.093.725.164 1.076.21-.105.41-.222.62-.35-.258-.246-.515-.492-.784-.726zM22.85 30.712l-.164-.538c-.819-.362-1.696-.643-2.597-.819-.012.457.012.901.058 1.357h2.703z" transform="translate(2 12)"/>
        <path fill="#AA9678" fill-rule="nonzero" d="M12.472 30.712l.164-.538.971-3.217-1.275-.316c-.293.105-.574.222-.854.35l-1.124 3.721h2.118zM22.686 30.174l.164.538H24.968l-1.123-3.72c-.281-.129-.562-.234-.855-.351l-1.275.316.971 3.217z" transform="translate(2 12)"/>
        <path fill="#C0B098" fill-rule="nonzero" d="M10.39 31.461c.011-.011.023-.011.035-.023h-.035v.023z" transform="translate(2 12)"/>
        <path fill="#C0B098" fill-rule="nonzero" d="M17.655 31.438H10.425c-.012.012-.024.012-.035.023-.024.69-.117 1.357-.27 2.013 2.282 1.088 4.833 1.696 7.535 1.696v-3.732z" transform="translate(2 12)"/>
        <path fill="#AA9678" fill-rule="nonzero" d="M24.933 31.438h-.035c.011.012.023.012.035.023v-.023z" transform="translate(2 12)"/>
        <path fill="#AA9678" fill-rule="nonzero" d="M24.898 31.438h-7.243v3.732c2.691 0 5.254-.608 7.535-1.696-.152-.656-.246-1.334-.269-2.013 0-.011-.012-.023-.023-.023z" transform="translate(2 12)"/>
        <path fill="#786453" fill-rule="nonzero" d="M17.655 31.075H18.655V32.075H17.655z" transform="translate(2 12)"/>
        <path fill="#8B7460" fill-rule="nonzero" d="M25.705 32.058c-.035-.328-.047-.655-.047-.995 0-.198-.164-.362-.363-.362H10.015c-.199 0-.363.164-.363.362 0 .34-.023.667-.046.995-.035.363-.094.725-.164 1.076.222.117.444.234.667.34.152-.656.245-1.334.269-2.013v-.023H24.92v.023c.023.69.117 1.357.27 2.013.221-.106.444-.223.666-.34-.07-.35-.117-.713-.152-1.076z" transform="translate(2 12)"/>
        <g transform="translate(2 12) translate(5.265 5.265)">
            <path d="M18.31 9.664c.223.632.468 1.275.597 1.93 0 .047-.012.094-.012.141-.011.07-.023.129-.035.187.024-.082.035-.187.059-.304-.129-.667-.386-1.31-.609-1.954zM23.423 13.642c-.011 0-.023.012-.035.012.012-.012.024-.012.035-.012zM23.54 13.549l-.035.035.035-.035zM17.784 9.208c-.41-.34-.83-.655-1.275-.924.444.269.865.573 1.275.924zM21.856 13.408c0 .012 0 .012 0 0 0 .012 0 .012 0 0zM22.593 14.344c.011.012.023.035.035.047 0-.023-.024-.035-.035-.047zM18.849 11.957c-.012.059-.024.106-.035.14l.035-.14zM17.129 18.369c-.27.445-.445.877-.538 1.275.093-.41.269-.83.538-1.275.093-.152.175-.293.257-.433-.082.129-.164.28-.257.433 0-.012 0-.012 0 0z"/>
            <path d="M18.31 9.664c.012-.035.036-.058.047-.093-.023.035-.035.058-.047.093l.316.281-.316-.28zM15.877 7.92c-.024-.01-.047-.023-.059-.034.024.011.035.023.059.035zM15.97 7.968c-.023-.012-.046-.035-.07-.047.012.023.047.035.07.047zM16.544 9.383v0zM23.318 15.268c.023.024.047.059.07.082-.023-.023-.047-.058-.07-.082zM16.544 9.933c0 .187-.012.375-.024.55.012-.175.024-.363.024-.55zM16.474 8.26c-.059-.035-.234-.129-.387-.222.153.082.316.175.387.222zM16.076 8.026c-.035-.023-.07-.047-.106-.058.036.023.07.046.106.058zM23.903 12.542v-.035-.035.07zM21.025 12.437c.012.023.035.035.047.059 0-.012-.024-.036-.047-.059zM18.626 9.945c.234.21.468.433.69.655-.233-.222-.456-.444-.69-.655zM23.201 11.279c.047 0 .082.011.129.023-.047-.012-.094-.023-.129-.023zM22.522 12.156c0 .024-.011.035-.011.059 0-.024.011-.035.011-.059zM23.365 11.314c.023.012.058.023.082.047-.024-.012-.059-.035-.082-.047zM23.634 11.548c.012.012.023.023.023.035-.011-.012-.011-.023-.023-.035zM23.891 12.238v-.023.023zM23.891 12.753c0-.012 0-.012 0 0v0zM22.733 11.583c.012-.012.023-.023.023-.035 0 .012-.011.023-.023.035z"/>
            <path d="M23.072 11.302c.035-.012.082-.023.13-.023-.048 0-.095.011-.13.023zM19.948 11.255c-.105-.117-.222-.222-.327-.339.117.105.222.222.327.34zM23.201 7.441v1.626l-.62 2.867v.012l.62-2.867V7.441zM20.533 11.875c-.058-.058-.117-.128-.175-.187.07.07.117.129.175.187zM23.821 11.946c.012.023.012.046.024.07 0-.035-.012-.047-.024-.07zM22.487 12.484v-.035c.012.023 0 .023 0 .035zM22.955 11.36c.024-.023.059-.034.082-.046-.035.012-.058.035-.082.047zM22.827 11.466c.023-.035.058-.059.093-.082-.035.023-.07.059-.093.082zM23.845 12.975c-.012.059-.036.117-.059.176.023-.047.047-.106.059-.176zM2.434 11.946c.023-.035.058-.082.081-.117-.023.046-.058.082-.081.117zM23.482 11.384c.035.023.058.059.093.082-.035-.023-.058-.059-.093-.082zM2.937 11.22c.011-.011.023-.035.035-.047-.012.012-.024.024-.035.047zM14.906 12.484v-.012.012zM1.673 13.35c-.035.058-.058.128-.094.187.036-.059.059-.117.094-.187zM1.287 14.25c0 .012-.012.024-.012.036 0-.012.012-.024.012-.035zM4.072 9.886l.105-.105-.105.105zM3.451 10.565c.036-.047.07-.082.106-.129-.035.047-.07.082-.106.13zM23.821 11.946L23.201 9.079zM12.917 14.11c-.012 0-.024-.012-.035-.012.011.012.023.012.035.012zM13.08 14.134c-.011 0-.023 0-.035-.012.012.012.024.012.036.012zM2.06 12.59c-.036.07-.083.14-.118.221.035-.07.07-.14.117-.222zM12.753 14.063c-.012 0-.012 0-.023-.011.011.011.011.011.023.011zM11.641 12.11c0 .011-.011.023-.011.035.011-.012.011-.024.011-.036zM11.688 11.957c0 .012-.011.012-.011.024 0 0 .011-.012.011-.024zM11.747 11.817s0 .012-.012.012l.012-.012zM13.584 10.87c-.012 0-.012 0 0 0-.012 0-.012 0 0 0zM12.94 10.87s-.012 0 0 0c-.012 0 0 0 0 0zM13.268 7.16v-.07.07zM13.268 7.055v-.047.047zM13.268 6.985c0-.012 0-.012 0 0 0-.012 0-.012 0 0zM13.268 7.383v-.094-.07.164zM23.68 13.373c-.023.023-.034.059-.058.082.024-.023.047-.059.059-.082zM11.618 12.285c0 .012 0 .023-.012.035 0-.012 0-.023.012-.035zM23.774 13.198c-.011.035-.035.081-.058.117.023-.036.035-.07.058-.117z"/>
            <path fill="#525353" fill-rule="nonzero" d="M17.421 22.932c-.058-.059-.105-.129-.164-.199.059.082.117.14.164.199z"/>
            <path fill="#AA9678" fill-rule="nonzero" d="M17.83 23.341s-.175-.14-.409-.397c.234.257.41.397.41.397z"/>
            <circle cx="23.25" cy="7.491" r="1" fill="#FFF" fill-rule="nonzero" transform="rotate(-4.571 23.25 7.49)"/>
            <path fill="#BBBCBD" fill-rule="nonzero" d="M24.09 8.424s0-.012 0 0c-.152-.21-.304-.398-.456-.562-.07-.082-.14-.152-.21-.222-.024-.023-.06-.047-.083-.07-.046-.047-.093-.082-.14-.117V9.09l.62 2.866c.012.024.012.047.024.07l.432.492h.457v-.129c0-1.357-.223-2.656-.62-3.872-.012-.047-.012-.07-.024-.094z"/>
            <path fill="#676A6A" fill-rule="nonzero" d="M23.891 12.226v.024c.012.07.012.14.012.21V12.531c0 .07 0 .14-.012.199v.023l-.035.21.433-.48-.433-.49c.012.081.024.152.035.233z"/>
            <path fill="#000" fill-rule="nonzero" d="M23.88 12.776v-.023c.011-.07.011-.14.011-.199v-.047-.047c0-.07 0-.14-.011-.21v-.024l-.035-.21c-.012-.024-.012-.047-.024-.07-.047-.14-.093-.258-.164-.363-.011-.012-.023-.023-.023-.035-.023-.024-.035-.047-.059-.07-.023-.035-.058-.059-.093-.082-.012-.012-.024-.012-.035-.024-.024-.023-.059-.035-.082-.046-.012 0-.024-.012-.035-.012-.035-.012-.082-.024-.129-.024s-.082.012-.129.024c-.011 0-.023.012-.035.012-.023.011-.058.023-.082.046-.011.012-.023.012-.035.024-.035.023-.058.058-.093.082-.024.023-.035.046-.059.07-.012.012-.023.023-.023.035-.07.105-.129.222-.164.363v.011c-.023.059-.035.13-.047.2 0 .023-.012.034-.012.058-.011.082-.011.152-.023.234v.035c0 .667.316 1.217.702 1.217.07 0 .129-.024.199-.047.012 0 .023-.012.035-.012.023-.012.047-.035.07-.047l.035-.035c.035-.023.059-.058.094-.093.023-.024.035-.047.058-.082.012-.024.024-.035.036-.059.023-.035.035-.07.058-.117.012-.011.012-.023.023-.047.024-.058.036-.117.059-.175 0-.07.012-.14.012-.21zm-.656-.444c-.152 0-.269-.2-.269-.457 0-.245.117-.456.27-.456.152 0 .269.2.269.456 0 .258-.13.457-.27.457z"/>
            <circle cx="23.224" cy="11.875" r="1" fill="#FFF" fill-rule="nonzero"/>
            <path fill="#909393" fill-rule="nonzero" d="M22.57 11.946c.046-.14.093-.258.163-.363.012-.012.023-.023.023-.035.024-.024.036-.047.059-.07.023-.035.058-.059.094-.082.011-.012.023-.012.035-.024.023-.023.058-.035.082-.046.011 0 .023-.012.035-.012.035-.012.082-.024.128-.024.047 0 .082.012.13.024.01 0 .022.012.034.012.024.011.059.023.082.046.012.012.023.012.035.024.035.023.059.058.094.082.023.023.035.046.058.07.012.012.024.023.024.035.07.105.128.222.163.363l-.62-2.867-.62 2.867z"/>
            <path fill="#000" fill-rule="nonzero" d="M14.906 12.472c0-.058 0-.117-.012-.175-.012-.059-.012-.106-.023-.164-.012-.059-.024-.105-.047-.152-.012-.047-.035-.106-.059-.152l-.07-.14c-.082-.141-.175-.27-.292-.375-.152-.14-.328-.258-.515-.34-.094-.035-.199-.07-.293-.093h-.011c-.106-.023-.21-.035-.316-.035-.106 0-.21.012-.316.035h-.012c-.105.023-.199.047-.292.082h-.012c-.094.035-.187.082-.27.14-.081.059-.163.117-.233.187h-.012c-.117.117-.222.246-.304.387l-.07.14s0 .012-.012.012c-.023.046-.035.082-.047.128 0 .012-.011.012-.011.024-.012.047-.024.082-.036.128 0 .012-.011.024-.011.036-.012.046-.012.081-.024.128 0 .012 0 .024-.011.035 0 .059-.012.117-.012.176 0 .105.012.21.035.316v.011c.023.106.047.2.094.305.082.187.199.362.339.514.117.117.246.223.386.305l.14.07h.012c.047.023.094.035.129.047.012 0 .012 0 .023.011.047.012.082.024.129.035.012 0 .023.012.035.012.047.012.082.012.129.024.011 0 .023 0 .035.011.058 0 .117.012.175.012.234 0 .445-.047.644-.129.093-.047.187-.093.28-.152.176-.117.328-.269.445-.444.059-.094.106-.188.152-.281.082-.2.13-.421.13-.644v-.011l.01-.024zm-1.65-.199c-.34 0-.62-.28-.62-.62 0-.34.28-.62.62-.62.34 0 .62.28.62.62 0 .34-.28.62-.62.62z"/>
            <circle cx="13.256" cy="11.653" r="1" fill="#FFF" fill-rule="nonzero"/>
            <path fill="#BBBCBD" fill-rule="nonzero" d="M12.11 11.29l1.146-3.498v-.41-.163-.047-.07-.047-.047-.023-.012c-.632-.129-1.287-.199-1.954-.199-.222 0-.444.012-.667.024-.035 0-.058 0-.093.011-1.147.082-2.27.386-3.311.866-.89.41-1.732.948-2.47 1.58-.198.175-.397.35-.584.538l-.105.105c-.176.176-.351.363-.515.55-.035.047-.07.082-.106.129-.163.199-.327.398-.48.596-.01.012-.023.036-.034.047-.14.2-.281.398-.422.609-.023.035-.058.082-.081.117-.106.175-.211.35-.305.526H7.324l4.785-1.182z"/>
            <path fill="#E2DDDB" fill-rule="nonzero" d="M16.497 10.904c.012-.14.023-.269.023-.41.012-.186.012-.362.024-.549v-.433-.129c0-.374-.024-.737-.035-1.111 0 0-.012 0-.012-.012 0 0-.012 0-.012-.012-.07-.035-.234-.128-.386-.222h-.012c-.035-.023-.07-.047-.105-.058-.023-.012-.047-.035-.07-.047l-.012-.012c-.023-.012-.047-.023-.058-.035-.234-.129-.48-.234-.726-.34-.585-.245-1.38-.467-1.837-.573V7.781l1.135 3.486c.117.105.223.234.293.374l.07.14c.023.048.047.094.059.153.011.047.035.105.046.152.012.059.024.105.024.164.011.058.011.117.011.175v.012h1.381c.094-.503.164-1.018.199-1.533 0 .024 0 .012 0 0z"/>
            <path fill="#FBB040" fill-rule="nonzero" d="M14.917 17.456c.316-.316.609-.608.89-.9.163-.176.327-.352.491-.515 1.158-1.252 2-2.434 2.516-3.943.011-.035.023-.082.035-.14v-.024c.011-.059.023-.117.035-.187 0-.047.011-.094.011-.14-.128-.656-.374-1.3-.596-1.931v.012l-.012-.012c-.047-.035-.082-.082-.129-.117-.128-.117-.257-.234-.397-.351-.41-.34-.831-.655-1.276-.924.024.374.035.737.035 1.111v.562c0 .187-.011.374-.023.55-.012.14-.012.269-.023.41v.046c-.047.515-.106 1.03-.2 1.533l-.163.772c-.34 1.38-1.03 2.62-1.591 3.908-.152.339-.293.69-.422 1.04l-.035.106c.176-.187.34-.35.457-.468.152-.152.269-.28.397-.398z"/>
            <path fill="#909393" fill-rule="nonzero" d="M12.121 11.29c.07-.07.152-.128.234-.187.082-.058.176-.105.27-.14h.011c.094-.035.187-.07.292-.082h.012c.105-.023.21-.035.316-.035.105 0 .21.012.316.035h.012c.105.023.199.047.292.094.187.081.363.187.515.339l-1.135-3.487-1.135 3.463z"/>
            <path fill="#676A6A" fill-rule="nonzero" d="M11.723 13.116c-.035-.094-.07-.2-.093-.305V12.8c-.024-.106-.035-.21-.035-.316 0-.059 0-.117.011-.176 0-.011 0-.023.012-.035 0-.047.012-.082.023-.128 0-.012.012-.024.012-.036.012-.046.024-.081.035-.128 0-.012.012-.012.012-.024.012-.046.035-.093.047-.128 0 0 0-.012.011-.012l.07-.14c.083-.14.188-.27.305-.387l-4.797 1.182h-.012l4.75 1.158c-.152-.14-.269-.315-.35-.514z"/>
            <path fill="#E2DDDB" fill-rule="nonzero" d="M22.51 12.215c0-.024.012-.047.012-.059.012-.07.024-.14.047-.199v-.023l.62-2.867V7.43c-.514-.42-1.053-.655-1.626-.655-.725 0-1.392.398-1.895.89-.55.538-.971 1.216-1.322 1.895-.012.035-.036.058-.047.093l.316.281c.234.21.468.433.69.655l.316.316c.105.117.222.223.327.34.14.152.281.292.41.444.058.059.117.129.175.187.164.188.328.363.492.55l.058.059H22.5v-.035c0-.07 0-.152.012-.234zM18.31 9.664c0 .012 0 .012 0 0 0 .012 0 .012 0 0z"/>
            <path fill="#525353" fill-rule="nonzero" d="M1.275 14.286c0-.012.012-.024.012-.035.094-.234.187-.468.292-.702.024-.07.059-.13.094-.188.082-.187.176-.362.27-.538.034-.07.07-.14.116-.222.024-.035.047-.082.07-.117.106-.176.2-.351.305-.527.023-.035.058-.082.081-.117.13-.21.27-.41.422-.608.011-.012.023-.035.035-.047.152-.21.316-.41.48-.597.035-.046.07-.081.105-.128.164-.187.34-.375.515-.55l.105-.105c.187-.188.374-.363.585-.539.784-2.644 3.206-4.574 6.06-4.574 1.147 0 2.294.327 3.276.936 1.007.62 1.826 1.52 2.352 2.562 0 0 0 .012.012.012.012.023.023.046.047.082.444.269.865.585 1.275.924.14.117.27.234.398.35.047.036.082.083.128.118.012-.035.024-.059.047-.094.398-2.539 1.521-4.376 2.843-4.376.995 0 1.884 1.042 2.422 2.645v.011c.152.164.304.351.457.55 0 0 0 .012.011.012.012.023.012.047.024.07l-.024-.082C22.44 3.545 17.842.035 12.414.035c-6.81 0-12.32 5.51-12.32 12.32 0 1.346.21 2.633.608 3.838v-.012c.082-.363.175-.725.28-1.076.094-.281.188-.55.293-.82z"/>
            <path fill="#FFF" fill-rule="nonzero" d="M24.277 12.496l-.432.48c-.012.058-.036.116-.059.175 0 .011-.012.023-.023.047-.012.035-.035.081-.059.117-.012.023-.023.035-.035.058-.023.023-.035.059-.058.082-.024.035-.059.07-.094.094l-.035.035c-.024.023-.047.035-.07.046-.012 0-.024.012-.035.012-.059.035-.13.047-.2.047-.385 0-.701-.538-.701-1.217H21.06c.27.304.526.609.772.924l.012.012.737.913c.012.011.023.035.035.047.234.292.456.585.679.877.023.023.046.059.07.082.234.316.468.632.702.936v.012c.41-1.205.632-2.48.643-3.815l-.433.036z"/>
            <path fill="#000" fill-rule="nonzero" d="M10.542 6.798c.035 0 .058 0 .093-.012.223-.012.445-.023.667-.023.667 0 1.322.07 1.954.198v.316-.316c.445.106 1.24.328 1.837.574.246.105.491.222.725.34.012 0 .035.01.059.034 0 0 .012 0 .012.012.023.012.046.023.07.047.035.023.07.035.105.058h.012c.152.082.316.187.386.222.012 0 .012.012.012.012l.011.012c-.011-.024-.023-.047-.047-.082 0 0 0-.012-.011-.012-.527-1.053-1.357-1.954-2.352-2.562-.983-.597-2.13-.936-3.276-.936-2.855 0-5.277 1.93-6.06 4.575.748-.644 1.579-1.182 2.468-1.58 1.065-.491 2.2-.784 3.335-.877z"/>
            <path d="M13.268 7.289L13.268 7.359"/>
            <path fill="#000" fill-rule="nonzero" d="M19.68 7.675c.502-.491 1.17-.889 1.895-.889.573 0 1.123.234 1.626.655.047.035.094.082.14.117.024.024.059.047.082.07.07.07.14.14.211.223v-.012c-.55-1.603-1.427-2.644-2.422-2.644-1.322 0-2.445 1.825-2.843 4.376.328-.679.76-1.358 1.31-1.896z"/>
            <path fill="#FFF" fill-rule="nonzero" d="M8.003 23.856c.117.047.222.082.34.117 1.274.445 2.643.69 4.07.69 1.627 0 3.183-.315 4.599-.889.07-.035.152-.058.222-.093.117-.047.246-.106.363-.164.105-.047.21-.094.316-.152-.024 0-.047.012-.07.012-.445.046-.878.058-1.31-.012-2.54-.363-3.101-1.591-3.02-2.855-.187-.105-.362-.222-.561-.363-1.954-1.415-3.112-2.925-3.112-2.925s1.509 1.159 3.755 2.036c.047.024.094.035.14.059.106-.363.235-.714.34-1.018l.035-.106c.129-.35.27-.702.421-1.04.562-1.288 1.252-2.54 1.592-3.909l.163-.772h-1.38v.012c0 .234-.047.444-.129.643-.047.094-.094.2-.152.281-.117.176-.27.328-.445.445-.093.058-.187.105-.28.152-.2.082-.422.129-.644.129-.058 0-.117 0-.175-.012-.012 0-.024 0-.036-.012-.046 0-.081-.012-.128-.023-.012 0-.024-.012-.035-.012l-.129-.035c-.012 0-.012 0-.023-.012-.047-.011-.094-.035-.13-.047h-.01l-.141-.07c-.14-.082-.27-.175-.386-.304l-4.75-1.158H2.128c-.023.035-.046.082-.07.117-.035.07-.082.14-.117.222-.093.176-.187.363-.269.538-.035.059-.058.129-.094.187-.105.234-.198.468-.292.702 0 .012-.012.024-.012.036-.105.269-.199.55-.28.83-.106.351-.2.714-.281 1.077.819 2.492 2.398 4.633 4.48 6.13.06.047.13.082.188.13.351.245.714.479 1.088.678.491.304 1.006.55 1.533.76z"/>
            <path fill="#9F2255" fill-rule="nonzero" d="M16.509 20.019c-.024.128-.035.257-.035.386-.012.222.011.444.046.643.024.14.047.27.082.398.059.187.117.363.2.527.081.163.163.315.245.444.023.047.058.094.082.129.047.058.082.117.128.175.059.07.117.14.164.2.223.257.41.397.41.397v.012c0 .011 0 .023.011.035.024 0 .047-.012.07-.012.55-.07 1.1-.222 1.65-.41.281-.105.562-.21.831-.327.082-.035.164-.082.246-.117 2.82-1.369 5.183-3.779 5.183-3.779-3.534 1.743-7.008 1.673-9.313 1.299z"/>
            <path fill="#E2066F" fill-rule="nonzero" d="M23.318 15.268c-.222-.292-.456-.585-.679-.877-.011-.012-.023-.035-.035-.047l-.737-.912-.011-.012c-.258-.316-.515-.62-.773-.924-.011-.024-.035-.036-.046-.059-.164-.187-.328-.363-.492-.55-.058-.058-.117-.129-.175-.187l-.41-.445c-.105-.117-.222-.222-.327-.339l-.316-.316c-.223-.222-.457-.444-.69-.655l-.317-.28c.223.643.48 1.286.609 1.953.035.176.058.34.082.503.316 2.305-.433 3.814-1.603 5.803-.082.14-.176.293-.258.433-.269.445-.444.878-.538 1.276-.035.128-.058.257-.082.386 2.305.374 5.768.444 9.314-1.299 0 0-.69-1.018-1.744-2.422-.234-.316-.468-.632-.702-.936-.023-.035-.047-.07-.07-.094z"/>
            <path fill="#000" fill-rule="nonzero" d="M17.83 23.341s-.175-.14-.409-.397c-.058-.059-.105-.129-.164-.2-.046-.058-.081-.116-.128-.175-.024-.047-.059-.082-.082-.128-.082-.14-.164-.281-.246-.445-.07-.164-.14-.34-.199-.527-.035-.128-.07-.257-.082-.397-.035-.2-.046-.422-.046-.644 0-.129.011-.257.035-.386.023-.129.046-.257.082-.386.105-.398.269-.819.538-1.275.082-.152.175-.293.257-.433 1.17-1.99 1.919-3.487 1.603-5.803-.023-.164-.047-.34-.082-.504-.012.117-.035.223-.058.305v.023c-.012.059-.024.105-.035.14-.515 1.51-1.358 2.691-2.516 3.943-.152.176-.316.34-.491.515-.281.293-.585.597-.89.901-.128.129-.257.246-.386.374-.117.117-.28.281-.456.468-.105.305-.234.656-.34 1.018-.046-.023-.093-.035-.14-.058-2.246-.866-3.755-2.036-3.755-2.036s1.158 1.51 3.112 2.925c.187.14.374.257.561.363-.081 1.275.48 2.492 3.02 2.855.432.058.865.058 1.31.011 0-.023-.012-.035-.012-.047z"/>
        </g>
    </g>
</svg>
