<svg xmlns="http://www.w3.org/2000/svg" width="75" height="42" viewBox="0 0 75 42">
    <g fill="none" fill-rule="evenodd">
        <path fill="#FFF" fill-opacity="0" d="M0 0H74V42H0z" transform="translate(.253)"/>
        <path fill="#000" fill-opacity=".7" fill-rule="nonzero" d="M66.848 17.936l1.547 4.028.098.268c.283.782.46 1.356.534 1.724h.051l.024-.09c.063-.225.172-.57.328-1.035.178-.53.761-2.162 1.75-4.895h1.147L69.29 25.98l-.102.256c-.277.661-.595 1.14-.952 1.436-.401.333-.894.5-1.479.5-.326 0-.649-.037-.967-.11v-.858l.183.034c.188.03.391.044.61.044.735 0 1.26-.413 1.573-1.238l.393-1.005-2.849-7.103h1.147zm-46.694-.129c.76 0 1.504.155 2.23.464l-.38.87-.263-.103c-.605-.223-1.16-.335-1.664-.335-.507 0-.89.08-1.147.238-.258.16-.387.379-.387.658 0 .189.048.35.145.483.097.133.252.26.467.38.215.12.628.295 1.238.523.838.305 1.404.612 1.698.921.294.31.442.698.442 1.167 0 .657-.245 1.164-.735 1.52-.49.358-1.177.536-2.063.536-.936 0-1.667-.148-2.191-.445v-.992l.26.122c.263.115.54.21.832.284.39.098.764.148 1.125.148.559 0 .988-.09 1.29-.268.3-.178.45-.45.45-.815 0-.275-.119-.51-.357-.706-.239-.195-.704-.426-1.396-.693-.657-.244-1.124-.458-1.402-.64-.277-.183-.483-.39-.618-.623-.136-.232-.203-.509-.203-.831 0-.576.234-1.03.702-1.363.469-.333 1.11-.5 1.927-.5zm7.376 0c.885 0 1.585.291 2.101.873.516.583.773 1.35.773 2.305v.676h-4.866l.012.243c.054.71.259 1.26.617 1.646.397.43.957.644 1.679.644.76 0 1.512-.159 2.256-.477v.954l-.28.114c-.276.105-.54.184-.794.238-.337.07-.744.106-1.221.106-1.044 0-1.868-.318-2.472-.954-.603-.636-.905-1.519-.905-2.649 0-1.139.28-2.043.84-2.713.562-.67 1.315-1.006 2.26-1.006zm16.556.013c.842 0 1.466.187 1.872.56.406.374.61.974.61 1.799V25h-.794l-.212-1.005h-.052l-.15.18c-.303.345-.603.584-.904.719-.35.156-.787.235-1.311.235-.7 0-1.25-.18-1.647-.542-.398-.36-.596-.874-.596-1.54 0-1.426 1.14-2.174 3.422-2.243l1.199-.039v-.438l-.006-.2c-.026-.454-.143-.796-.352-1.028-.238-.264-.62-.396-1.144-.396-.588 0-1.254.18-1.998.541l-.328-.818.267-.134c.273-.127.566-.23.877-.31.414-.108.83-.162 1.247-.162zm18.7 0c.843 0 1.467.187 1.873.56.406.374.61.974.61 1.799V25h-.793l-.213-1.005h-.052l-.15.18c-.302.345-.603.584-.904.719-.35.156-.787.235-1.311.235-.7 0-1.25-.18-1.647-.542-.397-.36-.596-.874-.596-1.54 0-1.426 1.14-2.174 3.422-2.243l1.2-.039v-.438l-.006-.2c-.027-.454-.144-.796-.353-1.028-.238-.264-.62-.396-1.144-.396-.588 0-1.254.18-1.998.541l-.328-.818.267-.134c.273-.127.566-.23.877-.31.414-.108.83-.162 1.247-.162zM6.648 15.538L10.353 25H9.22l-1.173-2.997H4.269L3.109 25H2l3.725-9.462h.922zm8.613 2.269c.314 0 .595.026.844.077l-.148.993-.212-.042c-.207-.037-.394-.055-.561-.055-.572 0-1.06.232-1.466.696-.407.464-.61 1.042-.61 1.734V25h-1.07v-7.064h.884l.122 1.308h.052l.115-.19c.238-.369.515-.66.832-.873.37-.25.776-.374 1.218-.374zm20.857 0c.851 0 1.491.205 1.92.616.43.41.645 1.066.645 1.969V25h-1.07v-4.57l-.004-.186c-.026-.483-.156-.85-.389-1.103-.262-.283-.672-.425-1.23-.425-.74 0-1.281.2-1.625.6-.344.399-.516 1.058-.516 1.978V25h-1.07v-7.064h.87l.175.967h.051l.1-.145c.209-.279.483-.5.822-.664.395-.191.836-.287 1.321-.287zm14.274-2.836V25h-1.07V14.971h1.07zm5.047.606l.24.003c2.195.061 3.292.975 3.292 2.743 0 .954-.325 1.687-.976 2.2-.651.514-1.583.77-2.794.77H54.09V25h-1.096v-9.423h2.443zm-9.94 5.949l-1.07.045-.249.012c-.723.046-1.253.174-1.592.384-.376.235-.564.599-.564 1.093 0 .387.117.681.352.883.234.202.561.303.982.303.666 0 1.19-.183 1.57-.548.38-.365.57-.877.57-1.534v-.638zm18.7 0l-1.07.045-.248.012c-.723.046-1.253.174-1.592.384-.376.235-.564.599-.564 1.093 0 .387.117.681.352.883.234.202.561.303.983.303.666 0 1.189-.183 1.569-.548.38-.365.57-.877.57-1.534v-.638zM6.17 16.737c-.094.413-.23.866-.406 1.36l-1.109 2.92h3.05l-1.097-2.92-.085-.232c-.115-.322-.233-.698-.353-1.128zm21.347 1.966c-.567 0-1.02.185-1.357.554-.337.37-.536.881-.596 1.534h3.693c0-.674-.15-1.191-.45-1.55-.302-.359-.731-.538-1.29-.538zm27.799-2.179H54.09v3.829h.986c.971 0 1.674-.157 2.108-.47.434-.314.65-.817.65-1.509 0-.623-.203-1.087-.611-1.392-.409-.305-1.045-.458-1.908-.458z" transform="translate(.253)"/>
        <path fill="#000" fill-opacity=".3" d="M47.266 39.005c.343-.292.744-.37.896-.172.152.197-.003.594-.346.886-.343.292-.745.369-.897.172-.152-.197.003-.594.347-.886zm.69-3.264c.481-.41 1.076-.475 1.33-.146.252.329.068.927-.412 1.336-.481.409-1.076.474-1.33.145-.253-.328-.068-.926.413-1.335zm9.115-1.989c.22-.402.57-.625.778-.498.21.127.2.555-.021.958-.221.402-.57.625-.778.498-.21-.127-.2-.556.02-.958zm-9.238-2.045c.47-.894 1.31-1.352 1.872-1.024.563.328.638 1.318.167 2.212-.471.893-1.31 1.351-1.873 1.023-.563-.328-.638-1.318-.166-2.211zm-9.073 1.145c.44-.04.814.131.835.384.02.253-.319.49-.76.531-.44.04-.813-.132-.834-.384-.021-.253.319-.49.759-.531zm16.601-.598c.31-.563.843-.848 1.191-.636.349.211.38.839.071 1.402-.31.563-.842.848-1.19.636-.35-.211-.381-.839-.072-1.402zm-14.248-.984c.56-.274 1.152-.186 1.323.197.17.383-.147.917-.707 1.191-.56.275-1.153.187-1.323-.196-.17-.384.146-.917.707-1.192zm11.101-1.263c.486-.884 1.332-1.327 1.89-.989.557.338.615 1.33.13 2.214-.487.885-1.333 1.327-1.89.99-.558-.34-.616-1.33-.13-2.215zm-8.322-1.2c.638-.77 1.549-1.036 2.035-.592.485.444.362 1.429-.275 2.2-.638.77-1.548 1.035-2.034.592-.486-.444-.363-1.43.274-2.2zm1.76-17.222c.637.771.76 1.756.275 2.2-.486.444-1.397.179-2.035-.592-.637-.77-.76-1.756-.274-2.2.486-.443 1.396-.178 2.034.592zm8.581-.817c.486.884.428 1.876-.13 2.214-.557.338-1.403-.105-1.889-.99-.486-.883-.428-1.875.13-2.213.557-.338 1.403.104 1.89.989zm-4.361-1.663c.47.894.396 1.884-.167 2.212-.563.328-1.401-.13-1.872-1.024-.472-.893-.397-1.883.166-2.211.563-.328 1.402.13 1.873 1.023zm-8.143.237c.56.274.877.808.707 1.19-.17.384-.763.472-1.323.198-.56-.275-.877-.809-.707-1.192.17-.383.762-.471 1.323-.196zm14.894-.362c.31.563.278 1.19-.07 1.402-.35.212-.883-.073-1.192-.636-.309-.563-.277-1.19.071-1.402.349-.212.882.073 1.191.636zm-17.787-.747c.44.04.78.278.759.53-.021.254-.395.426-.835.385-.44-.04-.78-.278-.76-.53.022-.253.396-.426.836-.385zm18.992-.445c.22.403.23.831.021.958-.209.127-.557-.096-.778-.498-.221-.402-.23-.831-.021-.958.208-.127.557.096.778.498zM48.874 5.07c.48.41.664 1.007.411 1.336-.253.329-.848.263-1.328-.146-.481-.409-.666-1.007-.412-1.335.253-.329.848-.264 1.329.145zm-1.058-2.788c.343.292.498.69.346.886-.152.197-.553.12-.896-.172-.344-.292-.499-.689-.347-.886.152-.197.554-.12.897.172z" transform="translate(.253)"/>
    </g>
</svg>
