<svg xmlns="http://www.w3.org/2000/svg" xmlns:xlink="http://www.w3.org/1999/xlink" width="600" height="220" viewBox="0 0 600 220">
    <defs>
        <filter id="tsfi1f9m0a" width="278.3%" height="316.1%" x="-89.1%" y="-70.7%" filterUnits="objectBoundingBox">
            <feOffset dy="13" in="SourceAlpha" result="shadowOffsetOuter1"/>
            <feGaussianBlur in="shadowOffsetOuter1" result="shadowBlurOuter1" stdDeviation="14.5"/>
            <feColorMatrix in="shadowBlurOuter1" result="shadowMatrixOuter1" values="0 0 0 0 0 0 0 0 0 0 0 0 0 0 0 0 0 0 0.23 0"/>
            <feOffset dy="41" in="SourceAlpha" result="shadowOffsetOuter2"/>
            <feGaussianBlur in="shadowOffsetOuter2" result="shadowBlurOuter2" stdDeviation="14.5"/>
            <feColorMatrix in="shadowBlurOuter2" result="shadowMatrixOuter2" values="0 0 0 0 0 0 0 0 0 0 0 0 0 0 0 0 0 0 0.0503283514 0"/>
            <feMerge>
                <feMergeNode in="shadowMatrixOuter1"/>
                <feMergeNode in="shadowMatrixOuter2"/>
            </feMerge>
        </filter>
        <filter id="38t9chqa1c" width="297.3%" height="345.6%" x="-98.6%" y="-77.1%" filterUnits="objectBoundingBox">
            <feOffset dy="14" in="SourceAlpha" result="shadowOffsetOuter1"/>
            <feGaussianBlur in="shadowOffsetOuter1" result="shadowBlurOuter1" stdDeviation="14"/>
            <feColorMatrix in="shadowBlurOuter1" result="shadowMatrixOuter1" values="0 0 0 0 0 0 0 0 0 0 0 0 0 0 0 0 0 0 0.23 0"/>
            <feOffset dy="47" in="SourceAlpha" result="shadowOffsetOuter2"/>
            <feGaussianBlur in="shadowOffsetOuter2" result="shadowBlurOuter2" stdDeviation="14"/>
            <feColorMatrix in="shadowBlurOuter2" result="shadowMatrixOuter2" values="0 0 0 0 0 0 0 0 0 0 0 0 0 0 0 0 0 0 0.0503283514 0"/>
            <feMerge>
                <feMergeNode in="shadowMatrixOuter1"/>
                <feMergeNode in="shadowMatrixOuter2"/>
            </feMerge>
        </filter>
        <filter id="6vkd8p1wqe" width="331.2%" height="389.6%" x="-115.6%" y="-90.6%" filterUnits="objectBoundingBox">
            <feOffset dy="11" in="SourceAlpha" result="shadowOffsetOuter1"/>
            <feGaussianBlur in="shadowOffsetOuter1" result="shadowBlurOuter1" stdDeviation="11"/>
            <feColorMatrix in="shadowBlurOuter1" result="shadowMatrixOuter1" values="0 0 0 0 0 0 0 0 0 0 0 0 0 0 0 0 0 0 0.23 0"/>
            <feOffset dy="38" in="SourceAlpha" result="shadowOffsetOuter2"/>
            <feGaussianBlur in="shadowOffsetOuter2" result="shadowBlurOuter2" stdDeviation="11"/>
            <feColorMatrix in="shadowBlurOuter2" result="shadowMatrixOuter2" values="0 0 0 0 0 0 0 0 0 0 0 0 0 0 0 0 0 0 0.0503283514 0"/>
            <feMerge>
                <feMergeNode in="shadowMatrixOuter1"/>
                <feMergeNode in="shadowMatrixOuter2"/>
            </feMerge>
        </filter>
        <filter id="hjrl9kbhth" width="267.8%" height="303.4%" x="-83.9%" y="-66.5%" filterUnits="objectBoundingBox">
            <feOffset dy="13" in="SourceAlpha" result="shadowOffsetOuter1"/>
            <feGaussianBlur in="shadowOffsetOuter1" result="shadowBlurOuter1" stdDeviation="14.5"/>
            <feColorMatrix in="shadowBlurOuter1" result="shadowMatrixOuter1" values="0 0 0 0 0 0 0 0 0 0 0 0 0 0 0 0 0 0 0.21 0"/>
            <feOffset dy="41" in="SourceAlpha" result="shadowOffsetOuter2"/>
            <feGaussianBlur in="shadowOffsetOuter2" result="shadowBlurOuter2" stdDeviation="14.5"/>
            <feColorMatrix in="shadowBlurOuter2" result="shadowMatrixOuter2" values="0 0 0 0 0 0 0 0 0 0 0 0 0 0 0 0 0 0 0.0503283514 0"/>
            <feMerge>
                <feMergeNode in="shadowMatrixOuter1"/>
                <feMergeNode in="shadowMatrixOuter2"/>
            </feMerge>
        </filter>
        <filter id="5qext693vk" width="153.1%" height="152.8%" x="-26.5%" y="-26.4%" filterUnits="objectBoundingBox">
            <feGaussianBlur in="SourceGraphic" stdDeviation="7.288"/>
        </filter>
        <filter id="ii2fovgnsl" width="164.1%" height="163.7%" x="-32%" y="-31.9%" filterUnits="objectBoundingBox">
            <feGaussianBlur in="SourceGraphic" stdDeviation="7.288"/>
        </filter>
        <filter id="7bji5fp7zm" width="165.2%" height="164.9%" x="-32.6%" y="-32.4%" filterUnits="objectBoundingBox">
            <feGaussianBlur in="SourceGraphic" stdDeviation="7.288"/>
        </filter>
        <filter id="nln8ri0sfn" width="183.9%" height="183.4%" x="-41.9%" y="-41.7%" filterUnits="objectBoundingBox">
            <feGaussianBlur in="SourceGraphic" stdDeviation="7.288"/>
        </filter>
        <filter id="5d79r18g6o" width="187.2%" height="186.7%" x="-43.6%" y="-43.4%" filterUnits="objectBoundingBox">
            <feGaussianBlur in="SourceGraphic" stdDeviation="5.717"/>
        </filter>
        <filter id="2megayj6tp" width="235.4%" height="234.7%" x="-67.7%" y="-67.4%" filterUnits="objectBoundingBox">
            <feGaussianBlur in="SourceGraphic" stdDeviation="5.717"/>
        </filter>
        <filter id="odcxdpjhnq" width="242.4%" height="277.8%" x="-71.2%" y="-58%" filterUnits="objectBoundingBox">
            <feOffset dy="10" in="SourceAlpha" result="shadowOffsetOuter1"/>
            <feGaussianBlur in="shadowOffsetOuter1" result="shadowBlurOuter1" stdDeviation="12"/>
            <feColorMatrix in="shadowBlurOuter1" result="shadowMatrixOuter1" values="0 0 0 0 0 0 0 0 0 0 0 0 0 0 0 0 0 0 0.21 0"/>
            <feOffset dy="38" in="SourceAlpha" result="shadowOffsetOuter2"/>
            <feGaussianBlur in="shadowOffsetOuter2" result="shadowBlurOuter2" stdDeviation="12"/>
            <feColorMatrix in="shadowBlurOuter2" result="shadowMatrixOuter2" values="0 0 0 0 0 0 0 0 0 0 0 0 0 0 0 0 0 0 0.0503283514 0"/>
            <feMerge>
                <feMergeNode in="shadowMatrixOuter1"/>
                <feMergeNode in="shadowMatrixOuter2"/>
            </feMerge>
        </filter>
        <filter id="mhf99ytyys" width="281.9%" height="321.1%" x="-90.9%" y="-71.3%" filterUnits="objectBoundingBox">
            <feOffset dy="4" in="SourceAlpha" result="shadowOffsetOuter1"/>
            <feGaussianBlur in="shadowOffsetOuter1" result="shadowBlurOuter1" stdDeviation="6.5"/>
            <feColorMatrix in="shadowBlurOuter1" result="shadowMatrixOuter1" values="0 0 0 0 0 0 0 0 0 0 0 0 0 0 0 0 0 0 0.26 0"/>
            <feOffset dy="29" in="SourceAlpha" result="shadowOffsetOuter2"/>
            <feGaussianBlur in="shadowOffsetOuter2" result="shadowBlurOuter2" stdDeviation="6.5"/>
            <feColorMatrix in="shadowBlurOuter2" result="shadowMatrixOuter2" values="0 0 0 0 0 0 0 0 0 0 0 0 0 0 0 0 0 0 0.0503283514 0"/>
            <feMerge>
                <feMergeNode in="shadowMatrixOuter1"/>
                <feMergeNode in="shadowMatrixOuter2"/>
            </feMerge>
        </filter>
        <path id="89kwzme34b" d="M35.896 0C16.072 0 0 16.161 0 36.095c0 7.293 2.157 14.097 5.865 19.77L1.24 71.612l16.264-4.53c5.377 3.238 11.67 5.094 18.391 5.094 19.825 0 35.897-16.16 35.897-36.095C71.793 16.161 55.72 0 35.896 0z"/>
        <path id="3vmamkz80g" d="M49.685 0c7.658 0 11.486 0 15.609 1.31 4.5 1.647 8.045 5.21 9.683 9.735 1.303 4.143 1.303 7.993 1.303 15.691V49.95c0 7.699 0 11.547-1.303 15.692-1.638 4.524-5.183 8.087-9.683 9.734-4.123 1.31-7.95 1.31-15.609 1.31h-23.09c-7.659 0-11.487 0-15.609-1.31-4.5-1.647-8.045-5.21-9.683-9.734C0 61.497 0 57.649 0 49.95V26.736c0-7.698 0-11.548 1.303-15.691C2.941 6.52 6.486 2.957 10.986 1.31 15.108 0 18.936 0 26.594 0h23.091z"/>
        <path id="i5loj2lwft" d="M13.357 0h10.678c7.377 0 13.357 5.98 13.357 13.357v9.313c0 6.274-5.086 11.36-11.36 11.36l-6.427.5-8.064 7.403c-.204.187-.52.174-.708-.03-.085-.093-.132-.213-.132-.339V34.03C4.791 34.03 0 29.239 0 23.328v-9.971C0 5.98 5.98 0 13.357 0z"/>
        <ellipse id="xy32xgufid" cx="33.204" cy="33.381" rx="33.204" ry="33.381"/>
        <ellipse id="o0gntr0elr" cx="38.611" cy="38.817" rx="38.611" ry="38.817"/>
        <linearGradient id="kuz8x0vqqi" x1="52.763%" x2="90.301%" y1="-8.824%" y2="100%">
            <stop offset="0%" stop-color="#2B4AF4"/>
            <stop offset="41.094%" stop-color="#C928DD"/>
            <stop offset="100%" stop-color="#F61372"/>
        </linearGradient>
        <rect id="m85rw3tzmf" width="44.99" height="45.23" x="0" y="0" rx="9.993"/>
    </defs>
    <g fill="none" fill-rule="evenodd">
        <g>
            <g>
                <g>
                    <g>
                        <g>
                            <path fill="#FFF" fill-opacity="0" d="M0 0H440V190H0z" transform="translate(0 -6289) translate(-340 6131) translate(340) translate(0 158) translate(0 10)"/>
                            <g>
                                <g fill-rule="nonzero" transform="translate(0 -6289) translate(-340 6131) translate(340) translate(0 158) translate(0 10) translate(164 77)">
                                    <use fill="#000" filter="url(#tsfi1f9m0a)" xlink:href="#89kwzme34b"/>
                                    <use fill="#50BD5C" xlink:href="#89kwzme34b"/>
                                </g>
                                <path fill="#FFF" d="M55.617 46.003c-.044-.476-.325-.892-.753-1.085-2.895-1.336-5.806-2.673-8.701-4.01-.325-.149-.724-.074-.96.208l-3.93 4.456c-.31.356-.797.475-1.226.297-2.038-.847-4.786-2.273-7.563-4.679-3.324-2.867-5.274-5.942-6.367-7.947.547-.371 2.039-1.485 2.704-3.55 0-.015.014-.03.014-.03.414-1.277.325-2.658-.133-3.921-.783-2.094-2.348-6.15-2.954-6.773-.104-.104-.222-.208-.222-.208-.443-.401-1.019-.624-1.625-.654-.206-.015-.428-.015-.664-.015-.68-.015-1.286-.015-1.729.045-1.255.178-2.171 1.025-2.747 1.738-.695.846-1.522 2.109-2.068 3.773-.045.148-.09.282-.133.43-.606 2.11-.488 4.367.236 6.447.68 1.946 1.67 4.263 3.161 6.714 2.526 4.174 5.274 6.758 7.135 8.467 2.098 1.946 4.698 4.337 8.82 6.327 3.81 1.842 7.267 2.526 9.586 2.808.946.089 2.689.104 4.683-.654.916-.356 1.684-.787 2.305-1.247 1.64-1.174 2.791-2.942 3.087-4.932v-.045c.103-.757.089-1.41.044-1.96z" transform="translate(0 -6289) translate(-340 6131) translate(340) translate(0 158) translate(0 10) translate(164 77)"/>
                            </g>
                            <g fill-rule="nonzero">
                                <g transform="translate(0 -6289) translate(-340 6131) translate(340) translate(0 158) translate(0 10) translate(322 61)">
                                    <use fill="#000" filter="url(#38t9chqa1c)" xlink:href="#xy32xgufid"/>
                                    <use fill="#327EF9" xlink:href="#xy32xgufid"/>
                                </g>
                                <path fill="#FFF" d="M31.959 43.304c-1.595 1.552-3.165 3.09-4.734 4.63-.545.534-1.155.834-1.946.795-.532-.026-.83-.261-.998-.77-1.194-3.729-2.413-7.458-3.606-11.2-.117-.366-.286-.535-.649-.653-2.814-.86-5.642-1.747-8.443-2.647-.428-.143-.87-.313-1.246-.573-.583-.392-.661-1.03-.142-1.5.48-.43 1.05-.795 1.647-1.03 3.45-1.37 6.913-2.7 10.376-4.042C31 22.91 39.78 19.494 48.561 16.09c1.673-.652 2.957.26 2.776 2.086-.117 1.16-.415 2.308-.649 3.456-1.906 9.049-3.813 18.111-5.733 27.16-.454 2.152-1.958 2.713-3.71 1.41-2.943-2.179-5.888-4.37-8.832-6.56-.143-.117-.285-.221-.454-.339zm-6.615 2.752c.039-.014.065-.014.104-.027.013-.09.039-.17.052-.247.194-2.047.389-4.108.557-6.155.04-.456.195-.782.532-1.095 2.711-2.439 5.422-4.903 8.12-7.355 2.996-2.712 5.992-5.424 8.975-8.15.182-.169.26-.456.39-.69-.286-.026-.584-.144-.844-.079-.35.092-.674.3-.985.496-6.602 4.186-13.217 8.371-19.82 12.557-.375.235-.44.43-.298.848.493 1.408.934 2.83 1.388 4.25.61 1.878 1.22 3.769 1.83 5.647z" transform="translate(0 -6289) translate(-340 6131) translate(340) translate(0 158) translate(0 10) translate(322 61)"/>
                            </g>
                            <g>
                                <g transform="translate(0 -6289) translate(-340 6131) translate(340) translate(0 158) translate(0 10) translate(422 27)">
                                    <use fill="#000" filter="url(#6vkd8p1wqe)" xlink:href="#m85rw3tzmf"/>
                                    <use fill="#3480D5" xlink:href="#m85rw3tzmf"/>
                                </g>
                                <path fill="#FFF" d="M22.716 32.592s.542-.061.819-.367c.254-.282.246-.81.246-.81s-.035-2.472 1.081-2.837c1.1-.359 2.514 2.39 4.012 3.447 1.133.8 1.993.625 1.993.625l4.006-.058s2.095-.133 1.102-1.826c-.082-.138-.58-1.253-2.979-3.542-2.511-2.397-2.175-2.009.85-6.154 1.843-2.524 2.58-4.065 2.35-4.725-.22-.63-1.575-.463-1.575-.463l-4.51.029s-.334-.047-.582.105c-.243.15-.398.498-.398.498s-.714 1.953-1.666 3.614c-2.008 3.506-2.811 3.691-3.14 3.473-.763-.507-.572-2.038-.572-3.125 0-3.397.501-4.814-.976-5.18-.49-.122-.852-.202-2.105-.215-1.61-.017-2.971.005-3.743.393-.513.258-.909.834-.667.867.298.04.973.187 1.33.688.463.646.447 2.097.447 2.097s.265 4-.62 4.496c-.608.34-1.442-.355-3.233-3.535-.917-1.629-1.61-3.43-1.61-3.43s-.133-.336-.371-.516c-.29-.219-.693-.288-.693-.288l-4.286.029s-.643.018-.88.306c-.21.256-.016.785-.016.785s3.355 8.069 7.154 12.135c3.484 3.729 7.44 3.484 7.44 3.484h1.792z" transform="translate(0 -6289) translate(-340 6131) translate(340) translate(0 158) translate(0 10) translate(422 27)"/>
                            </g>
                            <g>
                                <g transform="translate(0 -6289) translate(-340 6131) translate(340) translate(0 158) translate(0 10) translate(40 36)">
                                    <mask id="sslafyr6hj" fill="#fff">
                                        <use xlink:href="#3vmamkz80g"/>
                                    </mask>
                                    <g>
                                        <use fill="#000" filter="url(#hjrl9kbhth)" xlink:href="#3vmamkz80g"/>
                                        <use fill="#FFF" xlink:href="#3vmamkz80g"/>
                                    </g>
                                    <path fill="url(#kuz8x0vqqi)" d="M0 0H76.28V76.686H0z" mask="url(#sslafyr6hj)"/>
                                    <ellipse cx="25.253" cy="73.167" fill="#FF1E48" filter="url(#5qext693vk)" mask="url(#sslafyr6hj)" rx="41.194" ry="41.414"/>
                                    <ellipse cx="34.117" cy="48.521" fill="#D71C92" filter="url(#ii2fovgnsl)" mask="url(#sslafyr6hj)" rx="34.117" ry="34.299"/>
                                    <ellipse cx="31.585" cy="68.898" fill="#FE6127" filter="url(#7bji5fp7zm)" mask="url(#sslafyr6hj)" rx="33.521" ry="33.7"/>
                                    <ellipse cx="24.518" cy="81.649" fill="#FEE990" filter="url(#nln8ri0sfn)" mask="url(#sslafyr6hj)" opacity=".655" rx="26.072" ry="26.211"/>
                                    <ellipse cx="24.88" cy="84.774" fill="#FEE990" filter="url(#5d79r18g6o)" mask="url(#sslafyr6hj)" rx="19.666" ry="19.771"/>
                                    <ellipse cx="41.418" cy="46.731" fill="#FE2746" filter="url(#2megayj6tp)" mask="url(#sslafyr6hj)" rx="12.664" ry="12.731"/>
                                </g>
                                <g transform="translate(0 -6289) translate(-340 6131) translate(340) translate(0 158) translate(0 10) translate(40 36) translate(10.402 10.457)">
                                    <path fill="#FFF" d="M21.994.072h11.184c5.55 0 12.607-.316 17.659 4.73 4.954 4.948 4.575 11.755 4.559 17.277v11.234c0 5.579.44 13.171-4.56 18.192-4.999 5.02-12.107 4.138-17.658 4.138H22.323c-5.55 0-12.953.887-17.953-4.138C-.629 46.48.106 38.892.106 33.313v-10.91c0-5.579-.736-12.576 4.264-17.601C9.273-.125 16.483.062 21.994.072zm24.876 8.5c-3.647-3.67-7.298-3.224-11.8-3.224H20.12c-4.367-.018-8.16-.352-11.716 3.224-3.65 3.662-3.067 7.433-3.067 11.957v14.71c0 4.524-.576 8.347 3.067 12.01 3.646 3.659 7.534 3.17 12.036 3.17h15.717c4.073-.012 7.767-.203 10.713-3.17 3.206-3.223 3.303-7.486 3.303-12.01V20.162c-.006-4.383-.162-8.422-3.303-11.591z"/>
                                    <ellipse cx="27.738" cy="27.886" stroke="#FFF" stroke-width="4.956" rx="11.834" ry="11.91"/>
                                    <ellipse cx="42.64" cy="12.905" fill="#FFF" rx="3.393" ry="3.412"/>
                                </g>
                            </g>
                            <g fill-rule="nonzero">
                                <g transform="translate(0 -6289) translate(-340 6131) translate(340) translate(0 158) translate(0 10) translate(482 75)">
                                    <use fill="#000" filter="url(#odcxdpjhnq)" xlink:href="#o0gntr0elr"/>
                                    <use fill="#3558D9" xlink:href="#o0gntr0elr"/>
                                </g>
                                <path fill="#FFF" d="M47.676 39.847h-7.293v25.562h-9.722V39.847h-5.234v-8.27h5.234v-6.01c0-4.104 1.667-10.53 10.232-10.53h7.717v8.646h-5.6c-.918 0-2.627.454-2.627 2.412v5.482h8.203l-.91 8.27z" transform="translate(0 -6289) translate(-340 6131) translate(340) translate(0 158) translate(0 10) translate(482 75)"/>
                            </g>
                            <g>
                                <g transform="translate(0 -6289) translate(-340 6131) translate(340) translate(0 158) translate(0 10) translate(242 33)">
                                    <use fill="#000" filter="url(#mhf99ytyys)" xlink:href="#i5loj2lwft"/>
                                    <use fill="#844DC8" xlink:href="#i5loj2lwft"/>
                                </g>
                                <path fill="#FFF" fill-rule="nonzero" d="M12.536 9.543c.921 1.046 1.767 2.146 2.452 3.359.422.746.306 1.657-.458 2.165-.185.123-.354.268-.527.407-.152.122-.295.246-.399.411-.19.303-.199.66-.076.988.941 2.532 2.529 4.501 5.134 5.562.417.17.835.367 1.315.312.805-.092 1.065-.955 1.629-1.406.55-.44 1.254-.446 1.848-.079.593.368 1.169.762 1.74 1.16.562.392 1.12.775 1.638 1.221.498.429.67.992.39 1.574-.514 1.066-1.26 1.953-2.338 2.519-.243.128-.524.186-.803.257l-.207.058c.343-.104-.395-.118 0 0-.395-.118-.77-.196-1.12-.338-3.618-1.469-6.948-3.363-9.586-6.268-1.5-1.651-2.674-3.516-3.666-5.489-.471-.936-.868-1.908-1.272-2.874-.368-.881.175-1.791.746-2.455.537-.623 1.227-1.1 1.975-1.451.583-.275 1.159-.116 1.585.367zM18.3 7.956l.071.003h.003l.215.01c4.601.243 8.348 3.283 9.164 7.767.142.78.192 1.578.256 2.37.026.332-.167.649-.534.653-.38.005-.55-.306-.575-.639-.048-.659-.082-1.32-.175-1.974-.49-3.449-3.301-6.302-6.81-6.915-.528-.092-1.069-.116-1.604-.17-.338-.035-.78-.055-.856-.467-.062-.345.235-.62.57-.637.092-.005.183 0 .275 0zm.584 2.475c1.086.06 2.135.29 3.1.79 1.964 1.017 3.086 2.623 3.413 4.767.015.098.039.194.046.291.014.18.024.361.036.574l.008.14-.002-.026.007.111c-.008.058-.012.194-.046.322-.126.465-.846.523-1.012.054-.05-.14-.057-.298-.057-.448-.002-.98-.22-1.96-.725-2.813-.52-.877-1.314-1.614-2.244-2.06-.564-.27-1.172-.438-1.79-.538-.27-.043-.542-.07-.813-.107-.328-.044-.504-.249-.488-.565.015-.297.236-.51.567-.492zm.76 2.536c1.834.13 3.146 1.058 3.333 3.171.013.15.029.307-.005.45-.05.209-.193.329-.346.366l-.052.008h-.139c-.323-.033-.498-.24-.535-.559-.028-.247-.05-.498-.111-.74-.12-.474-.377-.913-.785-1.204-.193-.137-.411-.237-.64-.302-.29-.082-.592-.06-.881-.129-.315-.075-.49-.325-.44-.614.045-.262.307-.468.6-.447z" transform="translate(0 -6289) translate(-340 6131) translate(340) translate(0 158) translate(0 10) translate(242 33)"/>
                            </g>
                        </g>
                    </g>
                </g>
            </g>
        </g>
    </g>
</svg>
