<?xml version="1.0" encoding="UTF-8"?>
<svg width="92px" height="16px" viewBox="0 0 92 16" version="1.1" xmlns="http://www.w3.org/2000/svg" xmlns:xlink="http://www.w3.org/1999/xlink">
    <!-- Generator: Sketch 51.2 (57519) - http://www.bohemiancoding.com/sketch -->
    <title>Group 3</title>
    <desc>Created with Sketch.</desc>
    <defs>
        <path d="M9,9 L14.992,12.424 C15.615,12.78 16,13.443 16,14.161 L16,14.5 C16,15.328 15.328,16 14.5,16 L1.5,16 C0.672,16 0,15.328 0,14.5 L0,14.16 C0,13.443 0.385,12.78 1.008,12.424 L7,9 L9,9 Z M8.8,10 L7.2,10 L1.667,13.057 C1.278,13.194 1,13.565 1,14 C1,14.552 1.448,15 2,15 L14,15 C14.552,15 15,14.552 15,14 C15,13.564 14.72,13.193 14.331,13.056 L8.8,10 Z M8,0 C10.21,0 12,1.79 12,4 C12,6.21 10.21,8 8,8 C5.79,8 4,6.21 4,4 C4,1.79 5.79,0 8,0 Z M8,1 C6.343,1 5,2.343 5,4 C5,5.657 6.343,7 8,7 C9.657,7 11,5.657 11,4 C11,2.343 9.657,1 8,1 Z" id="path-1"></path>
    </defs>
    <g id="Page-1" stroke="none" stroke-width="1" fill="none" fill-rule="evenodd">
        <g id="img-fields" transform="translate(-24.000000, -111.000000)">
            <g id="Group" transform="translate(0.000000, 92.000000)">
                <g id="Group-3" transform="translate(24.000000, 17.000000)">
                    <g id="Group" transform="translate(32.000000, 0.000000)" fill="#000000" fill-opacity="0.6" font-family="Helvetica" font-size="13" font-weight="normal">
                        <text id="Ваше-имя">
                            <tspan x="0" y="13">Ваше имя</tspan>
                        </text>
                    </g>
                    <g id="Group" transform="translate(0.000000, 2.000000)">
                        <path d="M9,9 L14.992,12.424 C15.615,12.78 16,13.443 16,14.161 L16,14.5 C16,15.328 15.328,16 14.5,16 L1.5,16 C0.672,16 0,15.328 0,14.5 L0,14.16 C0,13.443 0.385,12.78 1.008,12.424 L7,9 L9,9 Z M8.8,10 L7.2,10 L1.667,13.057 C1.278,13.194 1,13.565 1,14 C1,14.552 1.448,15 2,15 L14,15 C14.552,15 15,14.552 15,14 C15,13.564 14.72,13.193 14.331,13.056 L8.8,10 Z M8,0 C10.21,0 12,1.79 12,4 C12,6.21 10.21,8 8,8 C5.79,8 4,6.21 4,4 C4,1.79 5.79,0 8,0 Z M8,1 C6.343,1 5,2.343 5,4 C5,5.657 6.343,7 8,7 C9.657,7 11,5.657 11,4 C11,2.343 9.657,1 8,1 Z" id="Shape"></path>
                        <g id="Clipped">
                            <mask id="mask-2" fill="white">
                                <use xlink:href="#path-1"></use>
                            </mask>
                            <g id="Shape"></g>
                            <g id="Group" mask="url(#mask-2)" fill="#B063F5" fill-rule="nonzero">
                                <g transform="translate(-16.000000, -11.000000)" id="Shape">
                                    <polygon points="0 0 48 0 48 38 0 38"></polygon>
                                </g>
                            </g>
                        </g>
                    </g>
                </g>
            </g>
        </g>
    </g>
</svg>