<svg xmlns="http://www.w3.org/2000/svg" width="37" height="37" viewBox="0 0 37 37">
    <g fill="none" fill-rule="evenodd" transform="translate(2 2)">
        <circle cx="16.5" cy="16.5" r="15.5" fill="#FFF" fill-opacity="0" stroke="var(--icon-color, #000000)" stroke-width="2"/>
        <path fill="var(--icon-color, #000000)" fill-rule="nonzero" d="M16.582 23.152c.886 0 1.688-.174 2.403-.523.716-.348 1.28-.839 1.691-1.472.412-.633.618-1.368.618-2.204 0-.798-.197-1.504-.59-2.119-.392-.614-.933-1.086-1.624-1.415-.69-.33-1.472-.494-2.346-.494-.836 0-1.587.149-2.252.446-.665.298-1.187.732-1.567 1.302-.013-.114-.02-.272-.02-.475 0-1.634.393-2.879 1.179-3.734.785-.854 1.868-1.282 3.249-1.282 1.064 0 1.912.209 2.546.627l.722-1.482c-.418-.253-.912-.447-1.482-.58-.57-.133-1.178-.199-1.824-.199-1.254 0-2.353.27-3.297.807-.943.539-1.678 1.33-2.204 2.375-.525 1.045-.788 2.309-.788 3.791 0 2.115.484 3.75 1.453 4.902.97 1.153 2.347 1.729 4.133 1.729zm-.076-1.539c-.659 0-1.226-.117-1.7-.351-.476-.235-.837-.545-1.084-.931-.247-.387-.37-.814-.37-1.283 0-.481.13-.918.39-1.311.259-.393.62-.703 1.082-.931.463-.228.991-.342 1.587-.342.924 0 1.662.231 2.213.694.551.462.827 1.086.827 1.871 0 .785-.273 1.412-.817 1.881-.545.469-1.254.703-2.128.703z"/>
    </g>
</svg>
