<svg height="37" viewBox="0 0 37 37" width="37" xmlns="http://www.w3.org/2000/svg"><g fill="none" fill-rule="evenodd" transform="translate(2 2)"><circle cx="16.5" cy="16.5" fill="none" r="15.5" stroke="var(--icon-color, #000000)" stroke-width="2"/><path d="m15.99 23.152c1.089 0 2.01-.18 2.764-.542.753-.36 1.32-.848 1.7-1.462.38-.615.57-1.302.57-2.062 0-1.051-.342-1.916-1.026-2.593-.684-.678-1.678-1.08-2.983-1.207l3.477-4.294v-1.292h-8.778v1.653h6.403l-3.344 4.104v1.33h1.064c1.102 0 1.926.203 2.47.608.545.405.817.975.817 1.71s-.275 1.311-.826 1.729-1.32.627-2.309.627c-.798 0-1.551-.13-2.26-.39-.71-.26-1.293-.604-1.749-1.035l-.874 1.501c.558.507 1.273.902 2.147 1.188.874.284 1.786.427 2.736.427z" fill="var(--icon-color, #000000)" fill-rule="nonzero"/></g></svg>
