<svg xmlns="http://www.w3.org/2000/svg" width="37" height="37" viewBox="0 0 37 37">
    <g fill="none" fill-rule="evenodd" transform="translate(2 2)">
        <circle cx="16.5" cy="16.5" r="15.5" fill="#FFF" fill-opacity="0" stroke="var(--icon-color, #000000)" stroke-width="2"/>
        <path fill="var(--icon-color, #000000)" fill-rule="nonzero" d="M16.198 23.152c1.102 0 2.03-.18 2.784-.542.753-.36 1.317-.854 1.69-1.482.374-.627.561-1.333.561-2.118 0-1.241-.446-2.22-1.34-2.936-.892-.715-2.289-1.073-4.189-1.073h-1.482l.361-3.648h5.91V9.7h-7.506l-.703 6.954h3.021c1.47 0 2.508.206 3.116.617.608.412.912 1.017.912 1.815 0 .735-.275 1.314-.826 1.739-.551.424-1.327.636-2.328.636-.785 0-1.532-.13-2.242-.39-.709-.26-1.292-.604-1.748-1.035l-.874 1.501c.57.507 1.292.902 2.166 1.188.874.284 1.78.427 2.717.427z"/>
    </g>
</svg>
