<svg xmlns="http://www.w3.org/2000/svg" xmlns:xlink="http://www.w3.org/1999/xlink" width="62" height="62" viewBox="0 0 62 62">
    <defs>
        <path id="oekx6y906a" d="M23 0c12.703 0 23 10.297 23 23S35.703 46 23 46 0 35.703 0 23 10.297 0 23 0zm0 1C10.85 1 1 10.85 1 23s9.85 22 22 22 22-9.85 22-22S35.15 1 23 1z"/>
        <path id="qv0jtitnfc" d="M27.307 11C28.794 11 30 12.203 30 13.696v10.608C30 25.793 28.783 27 27.307 27h-6.614C19.206 27 18 25.797 18 24.304V13.696C18 12.207 19.217 11 20.693 11h6.614zM24 23.8c-.69 0-1.25.56-1.25 1.25s.56 1.25 1.25 1.25 1.25-.56 1.25-1.25-.56-1.25-1.25-1.25zM27 12h-6c-1.113 0-2 .892-2 1.992V23h10v-9.008C29 12.9 28.105 12 27 12z"/>
    </defs>
    <g fill="none" fill-rule="evenodd">
        <g>
            <g>
                <g>
                    <g>
                        <g>
                            <g>
                                <g>
                                    <g>
                                        <g transform="translate(-465 -2496) translate(0 965) translate(405 1141) translate(0 216) translate(40 40) translate(0 120) translate(20 14) translate(8 8)">
                                            <mask id="lqz6s7dmnb" fill="#fff">
                                                <use xlink:href="#oekx6y906a"/>
                                            </mask>
                                            <use fill="#FFF" fill-opacity="0" xlink:href="#oekx6y906a"/>
                                            <g fill="#B063F5" mask="url(#lqz6s7dmnb)">
                                                <path d="M0 0H62V62H0z" transform="translate(-8 -8)"/>
                                            </g>
                                        </g>
                                        <g>
                                            <g fill="#FFF" fill-opacity="0">
                                                <path d="M0 0H48V38H0z" transform="translate(-465 -2496) translate(0 965) translate(405 1141) translate(0 216) translate(40 40) translate(0 120) translate(20 14) translate(7 12)"/>
                                            </g>
                                            <g transform="translate(-465 -2496) translate(0 965) translate(405 1141) translate(0 216) translate(40 40) translate(0 120) translate(20 14) translate(7 12)">
                                                <mask id="wjo4tdnurd" fill="#fff">
                                                    <use xlink:href="#qv0jtitnfc"/>
                                                </mask>
                                                <use fill="#FFF" fill-opacity="0" xlink:href="#qv0jtitnfc"/>
                                                <g fill="#B063F5" mask="url(#wjo4tdnurd)">
                                                    <path d="M0 0H48V38H0z"/>
                                                </g>
                                            </g>
                                        </g>
                                    </g>
                                </g>
                            </g>
                        </g>
                    </g>
                </g>
            </g>
        </g>
    </g>
</svg>
