<?xml version="1.0" encoding="UTF-8"?>
<svg width="26px" height="20px" viewBox="0 0 26 20" version="1.1" xmlns="http://www.w3.org/2000/svg" xmlns:xlink="http://www.w3.org/1999/xlink">
    <!-- Generator: Sketch 51.2 (57519) - http://www.bohemiancoding.com/sketch -->
    <title>Shape</title>
    <desc>Created with Sketch.</desc>
    <defs></defs>
    <g id="Page-1" stroke="none" stroke-width="1" fill="none" fill-rule="evenodd">
        <g id="img-payment-tab" transform="translate(-305.000000, -40.000000)" fill="#0A79FA" fill-rule="nonzero">
            <g id="Group" transform="translate(54.000000, 37.000000)">
                <path d="M272.994,3 C275.207,3 277,4.792 277,7 L277,19 C277,21.21 275.213,23 272.994,23 L255.006,23 C252.793,23 251,21.208 251,19 L251,7 C251,4.79 252.787,3 255.006,3 L272.994,3 Z M273.009,5 L254.99,5 C253.89,5 253,5.893 253,6.994 L253,19.006 C253,20.106 253.891,21 254.991,21 L273.009,21 C274.11,21 275,20.107 275,19.006 L275,17 L269.002,17 C266.792,17 265,15.205 265,13 C265,10.79 266.792,9 269.002,9 L275,9 L275,6.994 C275,5.944 274.188,5.082 273.157,5.005 L273.01,5 L273.009,5 Z M269,11 C267.895,11 267,11.895 267,13 C267,14.105 267.895,15 269,15 C270.105,15 271,14.105 271,13 C271,11.895 270.105,11 269,11 Z" id="Shape"></path>
            </g>
        </g>
    </g>
</svg>