<svg xmlns="http://www.w3.org/2000/svg" width="56" height="42" viewBox="0 0 56 42">
    <path fill="#AF53FF" fill-rule="evenodd" d="M49.99 2C52.205 2 54 3.787 54 6v22c0 2.21-1.785 4-3.995 4L32 31.998 32 38h4.001c.513 0 .935.383.992.883L37 39c0 .552-.447 1-.999 1H25c-.552 0-.999-.444-.999-1 0-.552.447-1 .999-1H29l-.001-6.002L18 31.999v5.01c0 1.59-1.253 2.895-2.833 2.986l-.176.005H5.009c-1.613 0-2.913-1.245-3.004-2.815L2 37.009V18.99c0-1.59 1.253-2.895 2.833-2.986L5.009 16H5V5.993C5 3.788 6.787 2 9.01 2h40.98zM14.998 18H5.002C4.45 18 4 18.455 4 18.992v18.016c0 .548.456.992 1.002.992h9.996c.553 0 1.002-.455 1.002-.992V18.992c0-.548-.456-.992-1.002-.992zM10 34c.828 0 1.5.672 1.5 1.5S10.828 37 10 37s-1.5-.672-1.5-1.5S9.172 34 10 34zM50.008 4H8.992c-1.043 0-1.91.815-1.986 1.848L7 5.997v10.002l7.99.001c1.614 0 2.914 1.245 3.005 2.815l.005.176V30L50.008 30c1.043 0 1.91-.815 1.986-1.848l.006-.149V5.997c0-1.052-.812-1.915-1.843-1.992L50.008 4zM12.5 20c.276 0 .5.224.5.5s-.224.5-.5.5h-5c-.276 0-.5-.224-.5-.5s.224-.5.5-.5h5z"/>
</svg>
