<svg xmlns="http://www.w3.org/2000/svg" width="46" height="64" viewBox="0 0 46 64">
    <g fill="none" fill-rule="evenodd" transform="translate(2 2)">
        <path fill="#AF53FF" d="M24 54H26V60H24zM20 54H22V60H20zM16 54H18V60H16z"/>
        <path fill="#FFF" fill-opacity="0" stroke="#AF53FF" stroke-width="2" d="M21 1.39C13.33 8.84 9 19.077 9 29.773V44.2c0 .994.806 1.8 1.8 1.8h20.4c.994 0 1.8-.806 1.8-1.8V29.773C33 19.077 28.67 8.839 21 1.39zM15.514 46l-1.177 4h13.326l-1.177-4H15.514zM4.467 33.54L1.47 45.283 8.8 42.14V29.644l-4.333 3.897zM37.533 33.54l2.996 11.742L33.2 42.14V29.644l4.333 3.897z"/>
        <circle cx="21" cy="31" r="5" fill="#FFF" fill-opacity="0" stroke="#AF53FF" stroke-width="2"/>
    </g>
</svg>
