<?xml version="1.0" encoding="UTF-8"?>
<svg width="48px" height="38px" viewBox="0 0 48 38" version="1.1" xmlns="http://www.w3.org/2000/svg" xmlns:xlink="http://www.w3.org/1999/xlink">
    <!-- Generator: Sketch 61.2 (89653) - https://sketch.com -->
    <title>icon/input/arrow-back</title>
    <desc>Created with Sketch.</desc>
    <g id="icon/input/arrow-back" stroke="none" stroke-width="1" fill="none" fill-rule="evenodd">
        <path d="M7.77817459,12.6357866 C8.16869888,13.0263109 8.16869888,13.6594759 7.77817459,14.0500002 L2.82842712,18.9997477 L7.77817459,23.9494951 C8.16869888,24.3400194 8.16869888,24.9731844 7.77817459,25.3637087 C7.3876503,25.754233 6.75448532,25.754233 6.36396103,25.3637087 L0,18.9997477 L6.36396103,12.6357866 C6.75448532,12.2452623 7.3876503,12.2452623 7.77817459,12.6357866 Z M16.4142136,18 C16.9664983,18 17.4142136,18.4477153 17.4142136,19 C17.4142136,19.5522847 16.9664983,20 16.4142136,20 L7.41421356,20 C6.86192881,20 6.41421356,19.5522847 6.41421356,19 C6.41421356,18.4477153 6.86192881,18 7.41421356,18 L16.4142136,18 Z" id="Shape" fill="var(--icon-color, #000000)"></path>
    </g>
</svg>
