<svg xmlns="http://www.w3.org/2000/svg" width="48" height="38" viewBox="0 0 48 38">
    <g fill="none" fill-rule="evenodd">
        <g>
            <g>
                <g>
                    <g>
                        <g>
                            <g>
                                <g>
                                    <g>
                                        <g>
                                            <g transform="translate(-273 -11178) translate(190 2311) translate(0 7047) translate(0 912) translate(0 574) translate(25 76) translate(0 228) translate(0 30) translate(58)">
                                                <path fill="#FFF" fill-opacity="0" d="M0 0H48V38H0z"/>
                                                <circle cx="24" cy="19" r="9" fill="#327EF9" fill-rule="nonzero"/>
                                                <path fill="#FFF" fill-rule="nonzero" d="M23.663 21.675c-.433.419-.858.834-1.284 1.248-.147.145-.313.225-.527.215-.144-.007-.225-.07-.27-.208-.324-1.005-.655-2.01-.978-3.02-.032-.098-.077-.144-.176-.175-.763-.232-1.53-.471-2.289-.714-.116-.039-.235-.084-.337-.155-.158-.105-.18-.277-.039-.404.13-.116.285-.214.447-.278.935-.369 1.874-.727 2.812-1.09 2.38-.917 4.76-1.838 7.14-2.756.454-.175.802.07.753.563-.032.313-.113.622-.176.931-.517 2.44-1.034 4.884-1.554 7.323-.123.58-.53.732-1.005.38-.798-.587-1.596-1.178-2.394-1.768-.04-.032-.078-.06-.123-.092zm-1.793.742c.01-.003.017-.003.028-.007.003-.024.01-.046.014-.067.052-.552.105-1.107.15-1.659.011-.123.054-.211.145-.295.735-.658 1.47-1.322 2.2-1.983.813-.731 1.625-1.463 2.434-2.197.049-.046.07-.123.105-.187-.077-.007-.158-.038-.228-.02-.095.024-.183.08-.268.133L21.08 19.52c-.102.064-.12.116-.081.229.133.38.253.763.376 1.146.165.506.33 1.016.496 1.522z"/>
                                            </g>
                                        </g>
                                    </g>
                                </g>
                            </g>
                        </g>
                    </g>
                </g>
            </g>
        </g>
    </g>
</svg>
