<svg xmlns="http://www.w3.org/2000/svg" xmlns:xlink="http://www.w3.org/1999/xlink" width="304" height="394" viewBox="0 0 304 394">
    <defs>
        <path id="prefix__a" d="M16.633 15.208c.084-1.635 1.242-2.908 3.232-2.908 1.86 0 3.163 1.188 3.163 2.762 0 1.142-.57 1.952-1.628 2.63-1.01.649-1.296 1.088-1.296 1.945v.578h-1.026v-.725c-.007-1.026.44-1.674 1.528-2.368.972-.633 1.334-1.165 1.334-2.014 0-1.095-.871-1.89-2.113-1.89-1.235 0-2.091.772-2.191 1.99h-1.003zm3.055 8.433c-.51 0-.864-.363-.864-.864 0-.51.355-.872.864-.872.501 0 .856.363.856.872 0 .501-.355.864-.856.864z"/>
        <path id="prefix__d" d="M156.558 28.321l.687 2.411 1.286-2.41h1.544l-3.946 7.039h-1.458l1.63-2.99-1.287-4.05h1.544zM22.568 17.782c.036.068.065.138.125.265-.957 0-1.874.006-2.79-.009-.09-.001-.192-.118-.26-.203-1.898-2.372-4.366-3.477-7.394-3.303-3.704.214-7.023 3.272-7.65 6.94-.808 4.73 2.401 9.204 7.125 9.846 3.412.464 6.153-.81 8.168-3.6.203-.282.398-.372.728-.372 10.515.008 21.03.007 31.546.007 1.247 0 2.043.769 2.09 2.022.007.205 0 .41 0 .653h-.585c-10.658 0-21.317 0-31.976-.006-.284 0-.476.077-.672.289-2.228 2.408-4.994 3.611-8.273 3.596-5.323-.026-9.999-4.182-10.658-9.45-.733-5.864 2.982-11.056 8.766-12.25 4.583-.945 9.54 1.414 11.71 5.575zm87.181 8.032c1.618 0 2.517 1.393 2.517 3.25 0 3.065-1.258 4.365-3.146 4.365-1.798 0-2.518-1.486-2.518-3.343 0-2.507 1.259-4.272 3.147-4.272zm-10.879-.093c1.349 0 2.248 1.022 2.248 2.6 0 .558-.09 1.022-.18 1.765h-3.236v.185c0 .836.45 1.3 1.438 1.3.63 0 1.079-.185 1.708-.464l-.36 1.95c-.539.186-1.078.279-1.707.279-1.799 0-2.787-1.115-2.787-3.25 0-2.507 1.258-4.365 2.876-4.365zm22.926 0c1.349 0 2.248 1.022 2.248 2.6 0 .558-.09 1.022-.18 1.765h-3.237v.185c0 .836.45 1.3 1.439 1.3.63 0 1.079-.185 1.708-.464l-.36 1.95c-.539.186-1.078.279-1.708.279-1.798 0-2.787-1.115-2.787-3.25 0-2.507 1.259-4.365 2.877-4.365zm-42.435 0c1.349 0 2.248 1.022 2.248 2.6 0 .558-.09 1.022-.18 1.765h-3.237v.185c0 .836.45 1.3 1.439 1.3.63 0 1.079-.185 1.708-.464l-.36 1.95c-.539.186-1.078.279-1.708.279-1.798 0-2.787-1.115-2.787-3.25 0-2.507 1.259-4.365 2.877-4.365zm26.162-1.578c.27 0 .54 0 .72.093l.629.185c.18 0 .18.093.36.093l-.27 1.95c-.63-.371-.989-.464-1.439-.464-1.258 0-2.067 1.393-2.067 3.343 0 1.393.539 2.136 1.528 2.136.45 0 .899-.186 1.438-.465l-.27 2.043c-.629.186-.988.279-1.438.279-1.798 0-2.877-1.486-2.877-3.807 0-3.158 1.529-5.386 3.686-5.386zm-30.927-.186c.81 0 1.529.093 1.888.372l-.45 1.857c-.359-.186-.719-.372-1.348-.372-.63 0-1.169.186-1.169.836 0 1.3 2.428.836 2.428 3.529 0 2.507-1.619 3.157-3.057 3.157-.63 0-1.349-.186-1.888-.465l.36-1.857c.36.279.989.557 1.528.557.54 0 1.349-.185 1.349-1.114 0-1.486-2.428-.928-2.428-3.436 0-2.321 1.439-3.064 2.787-3.064zm10.519 1.857c.45 0 1.079.186 1.528.465l-.36 1.764c-.359-.279-.718-.372-1.078-.372-.9 0-1.528.836-1.528 2.322 0 .836.45 1.578 1.168 1.578.45 0 .72-.092 1.08-.278l-.18 1.764c-.36.186-.81.279-1.44.279-1.438 0-2.337-1.486-2.337-3.25 0-2.322 1.259-4.272 3.147-4.272zm11.238.093c-.27.557-.45 1.207-.63 2.136h-.09c-.808 0-.898.743-1.527 5.2h-1.619l.99-7.243h1.528l-.18 1.114c.54-.928.809-1.207 1.348-1.207zm-7.282 0l-.45 3.343c-.09.371-.09.743-.09 1.114 0 .465.18.836.63.836.719 0 1.169-.929 1.258-1.95l.45-3.343h1.708l-.72 5.386c-.089.65-.179 1.207-.179 1.857H90.06l.09-1.207c-.54.836-.99 1.3-1.888 1.3-.99 0-1.529-1.114-1.529-2.507 0-.465 0-.743.09-1.486l.45-3.343h1.798zm30.028-1.578l-1.349 8.821h-1.528l.09-.743c-.45.557-.899.836-1.528.836-1.17 0-1.978-1.207-1.978-2.972 0-2.414 1.258-4.457 2.697-4.457.63 0 1.169.279 1.618 1.022l.36-2.507h1.618zm43.55 1.1c.429 0 .772.192.772.771l.587 3.047c.067.177.126.355.185.52v-.192l.172.964c.6-1.639 1.2-3.471 1.801-5.11.6 0 1.287 0 1.973.192-.858 2.604-1.887 5.015-2.83 7.618h-1.974l-1.63-6.557c.6.29 1.115.772 1.544 1.35l.051.057c-.938-1.276-2.427-2.192-3.653-2.468v-.192zm-10.122 0l-.43 3.375c.344-.386.773-.675 1.287-.675 1.03 0 1.716 1.157 1.544 2.507-.171 1.35-1.115 2.507-2.144 2.507-.515 0-.858-.29-1.115-.675l-.086.578h-1.287l.944-7.617h1.287zm23.675.096c-.085.579-.171 1.157-.257 1.64-.429-.194-.943-.386-1.63-.386-.429 0-.943.192-.943.675 0 .482.686.771 1.115.964.686.386 1.458.868 1.544 1.928.086.772-.257 1.447-.686 1.833-.944 1.06-3.174 1.157-4.633.482l.258-1.736c.6.29 1.372.675 2.23.482.429-.096.858-.29.858-.771 0-.579-.944-.868-1.373-1.157-.514-.29-1.115-.868-1.2-1.736 0-.579.171-1.06.428-1.447.772-.964 2.66-1.35 4.29-.771zm-50.81 6.046v.279h-.36v1.207h-.269V31.85h-.36v-.279h.99zm.54 0l.27 1.208.18-1.208h.449v1.486h-.27V31.85l-.27 1.207h-.27l-.18-1.207v1.207h-.269v-1.486h.36zm54.989-6.142l1.544 7.617h-1.716l-.257-1.157h-2.317l-.428 1.157h-1.973l2.487-6.46c.086-.29.343-.675.43-.868.076-.26.501-.287.773-.29h1.457zm-10.294 0l-1.116 7.617h-1.801l1.115-7.617h1.802zm-17.843 4.146c-.429 0-.858.482-1.03 1.06-.085.58.172 1.061.687 1.061.514 0 .943-.482 1.03-1.06.085-.579-.172-1.061-.687-1.061zm-43.035-1.996c-.81 0-1.349 1.392-1.349 2.507 0 .928.36 1.578.9 1.578.809 0 1.258-.928 1.258-2.6 0-.743-.27-1.485-.809-1.485zm6.024 0c-.72 0-1.26 1.021-1.26 2.414 0 .928.27 1.393.81 1.393.81 0 1.349-1.022 1.349-2.415 0-.928-.27-1.392-.9-1.392zm63.86-.029l-.943 2.796h1.544l-.6-2.796zm-57.927-.064c-.54 0-.899.464-1.079 1.3h1.888v-.372c0-.557-.27-.928-.809-.928zm-22.925 0c-.54 0-.9.464-1.08 1.3h1.889v-.372c0-.557-.27-.928-.81-.928zm-19.6 0c-.54 0-.899.464-1.079 1.3h1.888v-.372c0-.557-.27-.928-.809-.928zm-23.94-6.03v1.051h-1.522v3.978h-1.253V22.52h-1.539v-1.064h4.313zm-39.387-2.613v7.466h-2.383V21.97l-.118-.02c-.045.124-.095.246-.134.372-.38 1.231-.765 2.46-1.131 3.696-.072.242-.174.337-.431.324-.455-.021-.912-.006-1.388-.006l-1.366-4.4c-.04.01-.081.018-.122.027v4.343H6.39v-7.438c.877 0 1.749-.048 2.612.017.583.043.929.474 1.09 1.039.281.99.569 1.977.856 2.964.035.118.081.233.122.35l.123.003.384-1.296c.2-.687.394-1.377.6-2.063.203-.677.682-1.034 1.385-1.038.755-.004 1.51-.001 2.293-.001zm11.729 3.417c-.194.646-.409.879-1.459 1.582l1.656 2.494c-.931 0-1.772.007-2.612-.011-.09-.002-.209-.134-.263-.233-.311-.571-.621-1.144-.902-1.73-.141-.293-.311-.45-.653-.4-.202.03-.412.006-.66.006v2.343h-2.412V22.26h7.305zm-8.31-3.396v7.452h-2.366v-7.452h2.366zm21.875 3.042c.243.143.344.292.128.548-.132.156-.222.347-.348.548-.471-.34-.972-.567-1.536-.396-.234.07-.476.232-.633.42-.402.481-.326 1.346.114 1.802.507.524 1.212.473 2.131-.172l.56.779c-.61.734-1.744 1.005-2.731.667-.89-.305-1.465-1.115-1.502-2.081-.036-.97.308-1.749 1.175-2.214.883-.473 1.777-.407 2.642.1zm-4.16.27l-.514.836c-.475-.363-.981-.573-1.544-.404-.234.07-.477.233-.63.423-.41.515-.319 1.37.15 1.828.505.492 1.225.431 2.1-.21l.563.793c-.842.968-2.556 1.069-3.48.226-.957-.872-1.032-2.494-.158-3.416.912-.962 2.57-1.013 3.512-.077zm-6.63-.612c.854.011.86-.003 1.137.806.393 1.145.778 2.293 1.165 3.44.033.096.059.195.104.347-.355 0-.677.022-.993-.013-.092-.01-.204-.168-.243-.28-.205-.602-.212-.642-.773-.645h-.12c-.698 0-.698 0-.902.666-.027.086-.065.168-.101.261h-1.146c.196-.586.381-1.149.571-1.71.287-.85.585-1.698.863-2.551.075-.23.179-.324.438-.32zm20.122 2.221c-.163.616-.66.978-1.345.983-.703.006-1.405.002-2.156.002v1.387h-1.104v-2.372h4.605zm-5.494-2.182v.944h-1.68v.817h1.331v.982h-1.334v.83h1.758v.952h-2.918v-4.525h2.843zm-14.354 1.13l-.427 1.551h.84l-.413-1.551zm18.283-1.17c1.063.026 1.843 1.038 1.57 1.97-1.063 0-2.094.067-3.112-.019-1.004-.085-1.758-.903-1.96-1.955h.731c.924 0 1.848-.017 2.771.005zM147.81 10s-4.204 8.871-6.177 13.5h-2.573l-.6-6.268c-.172-1.543-.43-2.218-1.459-2.41v-.386h3.431l.43 5.689c1.886-3.471 5.49-9.932 5.49-9.932l1.458-.193zm6.948 4.725c1.887 0 2.402 1.254 2.23 2.7-.171 1.254-.943 2.121-1.973 2.41l1.887 3.569h-2.487l-1.458-3.375-.515 3.375h-1.973l1.287-8.679h3.002zm20.76 0l-.258 1.929h-2.402l-.172 1.446h2.23l-.257 1.929h-2.23l-.257 1.446h2.402l-.258 1.929h-4.375l1.201-8.679h4.375zm-5.834 0l-1.287 8.679h-1.973l1.287-8.679h1.973zm-19.044 0l-.257 1.929h-2.402l-.171 1.446h2.23l-.257 1.929h-2.317l-.171 1.446h2.402l-.343 1.929h-4.29l1.201-8.679h4.375zm28.566 0c3.088 0 3.774 2.604 3.517 4.34-.343 2.41-2.316 4.339-4.718 4.339h-2.574l1.201-8.679h2.574zm-12.696 0l-.257 1.929h-2.402l-.258 1.446h2.23l-.257 1.929h-2.23l-.429 3.375h-1.973l1.201-8.679h4.375zm-5.919 0l-1.2 8.679h-1.974l1.201-8.679h1.973zm-72.508-.146c.36 0 1.079.092 1.528.185l-.18 1.857c-.449-.092-.899-.092-1.258-.092-.63 0-.9.185-.9.557 0 .278.09.371.81.743.899.464 1.259 1.021 1.259 2.042 0 1.672-.81 2.415-2.698 2.415-.27 0-.539-.093-.989-.093-.18-.093-.36-.093-.449-.093l-.36-.093h-.09l.27-1.671c.54.185.99.278 1.529.278.719 0 .988-.185.988-.65 0-.371-.09-.464-.809-.835-.899-.465-1.348-1.115-1.348-2.043 0-1.393.719-2.507 2.697-2.507zm19.51-1.486l.718.186c.18 0 .27 0 .36.092l-.27 1.95c-.629-.371-1.078-.464-1.618-.464-1.348 0-2.248 1.393-2.248 3.343 0 1.393.63 2.136 1.619 2.136.45 0 .899-.186 1.528-.465l-.27 2.043c-.629.186-1.078.279-1.528.279-1.888 0-3.057-1.486-3.057-3.807 0-3.157 1.619-5.386 3.956-5.386.27 0 .54 0 .81.093zm-15.195.65l-.18 1.114h.9l-.27 1.764h-.9l-.449 3.065v.278c0 .372.18.557.63.557.18 0 .36 0 .45-.092l-.27 1.485c-.45.186-.9.279-1.26.279-.898 0-1.348-.557-1.348-1.579 0-.185 0-.464.09-.65l.09-.743.09-.557.72-4.921h1.707zm32.533 6.21c.55 0 1.1.458 1.1 1.1 0 .64-.458 1.098-1.1 1.098-.641 0-1.1-.458-1.1-1.099s.459-1.1 1.1-1.1zm-.886-6.767l-1.349 8.821h-1.618l.09-.743c-.45.557-.99.836-1.618.836-1.26 0-2.158-1.207-2.158-2.971 0-2.415 1.348-4.458 2.877-4.458.719 0 1.169.279 1.708 1.022l.36-2.507h1.708zm-12.767 1.485c1.529 0 2.338.743 2.338 2.136 0 .372 0 .65-.18 1.393l-.36 2.6-.09.464-.09.372v.278l.09.093h-1.438v-.743c-.45.557-1.079.836-1.798.836-.989 0-1.618-.836-1.618-1.95 0-1.764 1.168-2.786 3.056-2.786.18 0 .45 0 .72.093.09-.278.09-.371.09-.464 0-.464-.27-.65-1.17-.65-.539 0-1.078.093-1.438.186l-.27.092-.18.093.27-1.671c.9-.279 1.439-.372 2.068-.372zm-15.104-.185c1.439 0 2.338 1.021 2.338 2.6 0 .557-.09 1.021-.18 1.764h-3.506v.186c0 .835.54 1.3 1.528 1.3.63 0 1.169-.186 1.798-.465l-.27 1.95c-.629.186-1.168.279-1.798.279-1.977 0-2.966-1.114-2.966-3.25 0-2.507 1.258-4.364 3.056-4.364zm-13.755.185c1.528 0 2.337.743 2.337 2.136 0 .372 0 .65-.18 1.393l-.359 2.6v1.021l-.09.186h-1.438v-.743c-.45.557-1.08.836-1.798.836-.99 0-1.619-.836-1.619-1.95 0-1.764 1.169-2.786 3.057-2.786.18 0 .45 0 .72.093.09-.278.09-.371.09-.464 0-.464-.27-.65-1.17-.65-.539 0-1.078.093-1.438.186l-.27.092-.18.093.27-1.671c.9-.279 1.439-.372 2.068-.372zm-7.192-1.578v5.571l1.708-5.571h2.787l-1.349 8.914h-1.798l.989-6.871-2.248 6.871h-1.168l-.18-6.778-.99 6.778H71.27l1.438-8.914h2.518zm42.704 1.578c-.27.65-.45 1.3-.629 2.136h-.09c-.81 0-.989.743-1.618 5.2h-1.798l1.079-7.243h1.618l-.18 1.115c.54-.929.899-1.208 1.438-1.208zm-15.014 0c-.27.65-.45 1.3-.63 2.136h-.089c-.81 0-.989.743-1.618 5.2H98.78l1.078-7.243h1.619l-.18 1.115c.54-.929.899-1.208 1.438-1.208zm22.014 5.479c-.5 0-.9.4-.9.9s.4.9.9.9.9-.4.9-.9-.4-.9-.9-.9zm-99.686-1.304c1.439.009 2.587 1.235 2.53 2.669-.012.3-.094.432-.432.424-1.392-.032-2.788.017-4.177-.062-1.531-.086-2.904-1.377-3.2-2.881-.008-.036.005-.076.012-.152h.89c1.46 0 2.918-.007 4.377.002zm99.746 1.707c.09 0 .18 0 .27.093.09.092.09.185.09.278 0 .093-.09.186-.18.279l.18.464h-.27l-.18-.371h-.09v.278h-.18v-1.021h.36zm53.786-3.9h-.429l-.6 4.822h.514c1.287 0 2.23-.964 2.488-2.507.172-1.157-.429-2.314-1.973-2.314zm-67.05 2.104h-.359c-.989 0-1.528.372-1.528 1.114 0 .465.27.743.63.743.718 0 1.258-.743 1.258-1.857zm-28.859 0h-.36c-.988 0-1.528.372-1.528 1.114 0 .465.27.743.63.743.719 0 1.258-.743 1.258-1.857zm37.76-2.228c-.809 0-1.348 1.021-1.348 2.414-.09.928.27 1.393.809 1.393.81 0 1.438-1.022 1.438-2.415 0-.928-.36-1.392-.899-1.392zm33.53-.068h-.601l-.343 2.121h.6c.478 0 1.03-.416 1.175-.938l.026-.123c.086-.578-.257-1.06-.858-1.06zm-58.074-.211c-.539 0-.989.464-1.078 1.3h1.888v-.371c0-.558-.27-.929-.81-.929zm47.694-4.129v.097l-2.23 2.893h-.172l-.172-2.122-2.487-.771v-.097h5.06z"/>
        <path id="prefix__f" d="M6.201 17.538L9.727 27H8.09l-.941-2.617H3.546L2.624 27H1l3.526-9.462H6.2zm-.844 1.328c-.116.529-.286 1.106-.51 1.734l-.85 2.455h2.746L5.86 20.49c-.065-.172-.154-.442-.268-.812-.114-.37-.192-.64-.235-.812zm9.619.877c.305 0 .556.021.754.064l-.149 1.412c-.214-.052-.438-.078-.67-.078-.606 0-1.097.198-1.473.593-.376.395-.564.909-.564 1.54V27H11.36v-7.129h1.186l.2 1.257h.077c.236-.425.544-.762.925-1.012.38-.249.79-.373 1.228-.373zm4.53 0c.837 0 1.63.17 2.378.509l-.49 1.14c-.77-.317-1.416-.476-1.94-.476-.8 0-1.199.227-1.199.683 0 .223.104.412.313.567.208.155.663.367 1.363.638.589.228 1.016.436 1.283.625.266.19.464.407.592.654.13.248.194.543.194.887 0 .696-.254 1.23-.76 1.601-.508.372-1.234.558-2.18.558-.949 0-1.712-.144-2.287-.432V25.39c.838.386 1.617.58 2.34.58.932 0 1.398-.282 1.398-.845 0-.18-.052-.33-.155-.45-.103-.121-.273-.246-.509-.375-.236-.128-.565-.275-.986-.438-.82-.318-1.376-.636-1.666-.954-.29-.318-.435-.73-.435-1.237 0-.61.246-1.084.738-1.421.492-.338 1.161-.506 2.008-.506zm7.117 0c.94 0 1.684.285 2.23.857.546.571.819 1.358.819 2.359v.818h-4.75c.02.692.208 1.224.56 1.596.352.371.849.557 1.489.557.421 0 .813-.04 1.176-.12.363-.079.753-.21 1.17-.396v1.232c-.37.176-.743.3-1.121.373-.379.073-.81.11-1.296.11-1.109 0-1.975-.323-2.6-.97-.626-.647-.938-1.537-.938-2.672 0-1.164.29-2.08.87-2.745.58-.666 1.377-1 2.39-1zm0 1.147c-.481 0-.867.152-1.157.457-.29.306-.463.75-.519 1.335h3.236c-.009-.589-.15-1.035-.426-1.338-.275-.303-.653-.454-1.134-.454zm16.246-1.147c.906 0 1.59.197 2.052.593.462.395.693 1.016.693 1.862V27h-1.083l-.302-.993h-.052c-.344.434-.69.73-1.038.887-.348.156-.795.235-1.34.235-.7 0-1.247-.19-1.64-.567-.394-.378-.59-.913-.59-1.605 0-.735.272-1.29.818-1.663.546-.374 1.377-.578 2.494-.612l1.232-.039v-.38c0-.456-.107-.796-.32-1.022-.212-.225-.542-.338-.989-.338-.365 0-.715.053-1.05.16-.336.108-.658.235-.967.381l-.49-1.083c.387-.202.81-.355 1.27-.46.46-.106.893-.158 1.302-.158zm-7.62 0c1.71 0 2.565.87 2.565 2.61V27h-1.521v-4.383c0-.55-.111-.96-.332-1.23-.222-.272-.573-.407-1.054-.407-.64 0-1.109.19-1.405.567-.297.378-.445 1.012-.445 1.902V27h-1.515v-7.129h1.186l.213.935h.077c.215-.34.52-.602.916-.786.395-.185.833-.277 1.314-.277zm8.85 3.854l-.915.039c-.713.025-1.232.145-1.556.357-.325.213-.487.538-.487.977 0 .318.095.564.284.738.189.174.472.26.85.26.55 0 .992-.153 1.325-.46.333-.307.5-.738.5-1.292v-.62zm2.167 16.408c.343-.292.744-.37.896-.172.152.197-.003.594-.346.886-.343.292-.745.369-.897.172-.152-.197.003-.594.347-.886zm.69-3.264c.481-.41 1.076-.475 1.33-.146.252.329.068.927-.412 1.336-.481.409-1.076.474-1.33.145-.253-.328-.068-.926.413-1.335zm9.115-1.989c.22-.402.57-.625.778-.498.21.127.2.555-.021.958-.221.402-.57.625-.778.498-.21-.127-.2-.556.02-.958zm-9.238-2.045c.47-.894 1.31-1.352 1.872-1.024.563.328.638 1.318.167 2.212-.471.893-1.31 1.351-1.873 1.023-.563-.328-.638-1.318-.166-2.211zm-9.073 1.145c.44-.04.814.131.835.384.02.253-.319.49-.76.531-.44.04-.813-.132-.834-.384-.021-.253.319-.49.759-.531zm16.601-.598c.31-.563.843-.848 1.191-.636.349.211.38.839.071 1.402-.31.563-.842.848-1.19.636-.35-.211-.381-.839-.072-1.402zm-14.248-.984c.56-.274 1.152-.186 1.323.197.17.383-.147.917-.707 1.191-.56.275-1.153.187-1.323-.196-.17-.384.146-.917.707-1.192zm11.101-1.263c.486-.884 1.332-1.327 1.89-.989.557.338.615 1.33.13 2.214-.487.885-1.333 1.327-1.89.99-.558-.34-.616-1.33-.13-2.215zm-8.322-1.2c.638-.77 1.549-1.036 2.035-.592.485.444.362 1.429-.275 2.2-.638.77-1.548 1.035-2.034.592-.486-.444-.363-1.43.274-2.2zm24.956-9.936l1.45 4.042c.22.575.366 1.117.439 1.624h.051c.039-.236.11-.523.213-.86.103-.338.649-1.94 1.637-4.806h1.637l-3.049 8.076c-.554 1.483-1.478 2.224-2.771 2.224-.335 0-.662-.036-.98-.11v-1.198c.228.051.488.077.78.077.73 0 1.244-.423 1.54-1.27l.265-.67-2.862-7.129h1.65zm-5.797-.128c.907 0 1.591.197 2.053.593.462.395.693 1.016.693 1.862V27h-1.083l-.303-.993h-.051c-.344.434-.69.73-1.038.887-.348.156-.795.235-1.34.235-.701 0-1.248-.19-1.641-.567-.393-.378-.59-.913-.59-1.605 0-.735.273-1.29.819-1.663.545-.374 1.377-.578 2.494-.612l1.231-.039v-.38c0-.456-.106-.796-.319-1.022-.213-.225-.542-.338-.99-.338-.365 0-.715.053-1.05.16-.335.108-.657.235-.967.381l-.49-1.083c.387-.202.81-.355 1.27-.46.46-.106.894-.158 1.302-.158zM49.393 16.97V27h-1.515V16.971h1.515zm5.264.606c1.178 0 2.06.24 2.646.722.587.481.88 1.19.88 2.127 0 .984-.322 1.738-.967 2.262-.644.524-1.562.786-2.752.786h-.98V27h-1.54v-9.423h2.713zm8.625 6.02l-.915.039c-.713.025-1.232.145-1.557.357-.324.213-.486.538-.486.977 0 .318.094.564.283.738.19.174.473.26.851.26.55 0 .992-.153 1.325-.46.333-.307.5-.738.5-1.292v-.62zm-8.728-4.731h-1.07v3.313h.819c.79 0 1.37-.138 1.74-.413.37-.275.554-.704.554-1.289 0-.541-.165-.945-.496-1.211-.33-.267-.846-.4-1.547-.4zm-9.902-6.28c.637.77.76 1.755.275 2.199-.486.444-1.397.179-2.035-.592-.637-.77-.76-1.756-.274-2.2.486-.443 1.396-.178 2.034.592zm8.581-.818c.486.884.428 1.876-.13 2.214-.557.338-1.403-.105-1.889-.99-.486-.883-.428-1.875.13-2.213.557-.338 1.403.104 1.89.989zm-4.361-1.663c.47.894.396 1.884-.167 2.212-.563.328-1.401-.13-1.872-1.024-.472-.893-.397-1.883.166-2.211.563-.328 1.402.13 1.873 1.023zm-8.143.237c.56.274.877.808.707 1.19-.17.384-.763.472-1.323.198-.56-.275-.877-.809-.707-1.192.17-.383.762-.471 1.323-.196zm14.894-.362c.31.563.278 1.19-.07 1.402-.35.212-.883-.073-1.192-.636-.309-.563-.277-1.19.071-1.402.349-.212.882.073 1.191.636zm-17.787-.747c.44.04.78.278.759.53-.021.254-.395.426-.835.385-.44-.04-.78-.278-.76-.53.022-.253.396-.426.836-.385zm18.992-.445c.22.403.23.831.021.958-.209.127-.557-.096-.778-.498-.221-.402-.23-.831-.021-.958.208-.127.557.096.778.498zM47.874 6.07c.48.41.664 1.007.411 1.336-.253.329-.848.263-1.328-.146-.481-.409-.666-1.007-.412-1.335.253-.329.848-.264 1.329.145zm-1.058-2.788c.343.292.498.69.346.886-.152.197-.553.12-.896-.172-.344-.292-.499-.689-.347-.886.152-.197.554-.12.897.172z"/>
        <rect id="prefix__c" width="296.4" height="42" x="0" y="0" rx="4"/>
    </defs>
    <g fill="none" fill-rule="evenodd">
        <path fill="#AF53FF" d="M6 2H306V392H6z" transform="translate(-4)"/>
        <path fill="#FFF" d="M308 0v394H4V0h304zm-8 274H12c-2.21 0-4 1.79-4 4v34c0 2.21 1.79 4 4 4h288c2.21 0 4-1.79 4-4v-34c0-2.21-1.79-4-4-4zm-116-66c-3.314 0-6 2.686-6 6-1.055 0-1.918.815-1.995 1.85L176 216v7c0 1.055.815 1.918 1.85 1.995l.15.005h12c1.055 0 1.918-.815 1.995-1.85L192 223v-7c0-1.105-.895-2-2-2 0-3.314-2.686-6-6-6zm-156.029 2H26c-1.055 0-1.918.815-1.995 1.85L24 212v10c0 1.055.815 1.918 1.85 1.995L26 224h12c1.055 0 1.918-.815 1.995-1.85L40 222v-10c0-1.055-.815-1.918-1.85-1.995L38 210h-1.971L36 212l-1.005 1h-1.024l-.976-.977-.009-2.023h-1.972L31 212l-.971 1h-1.024l-1.015-.993-.019-2.007zM190 215c.513 0 .935.386.993.883L191 216v7c0 .513-.386.935-.883.993L190 224h-12c-.513 0-.935-.386-.993-.883L177 223v-7c0-.513.386-.935.883-.993L178 215h12zm-151 0v7.003l-.007.116c-.053.458-.42.821-.882.874l-.118.007H26.007l-.118-.007c-.462-.054-.829-.421-.882-.875l-.007-.115V215h14zm145 2c-.513 0-.935.386-.993.883L183 218v3c0 .552.448 1 1 1 .513 0 .935-.386.993-.883L185 221v-3c0-.552-.448-1-1-1zm0-8c2.761 0 5 2.239 5 5 .065-.062-9.967-.006-10 0 0-2.761 2.239-5 5-5zm-149-1h-1v4h1v-4zm-5 0h-1v4h1v-4zm7.867-84H26.133c-1.127 0-2.05.819-2.128 1.857L24 126v8c0 1.057.873 1.922 1.98 1.995l.153.005h11.734c1.127 0 2.05-.819 2.128-1.857L40 134v-8c0-1.105-.955-2-2.133-2zm1.066 6v4c0 .515-.416.94-.95.994l-.116.006H26.133c-.55 0-1.002-.39-1.06-.891l-.006-.109v-4h13.866zm-1.066-5c.55 0 1.002.39 1.06.891l.006.109v1H25.067v-1c0-.515.416-.94.95-.994l.116-.006h11.734zM274 17H33v30h241V17zM106.014 52v2H12.007c-1.48 0-2.772-.804-3.464-1.999L106.014 52z" transform="translate(-4)"/>
        <g transform="translate(-4) translate(0 65)">
            <path d="M0 0H312V92H0z"/>
            <rect width="295" height="37" x=".5" y=".5" fill="#FFF" fill-opacity="0" stroke="#000" stroke-opacity=".2" rx="4" transform="translate(8 46)"/>
            <g>
                <path fill="#FF723A" d="M11.657 17.817L20.298 17.817 20.298 2.133 11.657 2.133z" transform="translate(263 55)"/>
                <path fill="#F53B4A" d="M12.206 9.975c0-3.182 1.475-6.016 3.772-7.842C14.298.797 12.178 0 9.875 0 4.42 0 0 4.466 0 9.975c0 5.509 4.421 9.975 9.875 9.975 2.303 0 4.423-.797 6.103-2.133-2.297-1.827-3.772-4.66-3.772-7.842" transform="translate(263 55)"/>
                <path fill="#FFB32B" d="M22.08 19.945c-2.303 0-4.422-.796-6.102-2.132 2.297-1.825 3.772-4.66 3.772-7.84 0-3.182-1.475-6.015-3.772-7.841C17.658.797 19.777 0 22.081 0c5.454 0 9.875 4.465 9.875 9.972 0 5.509-4.421 9.973-9.875 9.973z" transform="translate(263 55)"/>
            </g>
            <path d="M0 0H40V36H0z" transform="translate(264 47)"/>
            <path d="M0 0H40V36H0z" transform="translate(264 47)"/>
            <text fill="#000" fill-opacity=".8" font-family="OpenSans-Regular, Open Sans" font-size="16" transform="translate(56 54)">
                <tspan x="0" y="17">4242 4242 4242 4242</tspan>
            </text>
            <text fill="#000" fill-opacity=".6" font-family="OpenSans-Regular, Open Sans" font-size="14" transform="translate(10 21)">
                <tspan x="0" y="15">Номер карты</tspan>
            </text>
            <g transform="translate(0 87)">
                <path d="M0 0H160V92H0z"/>
                <rect width="143" height="37" x=".5" y=".5" fill="#FFF" fill-opacity="0" stroke="#000" stroke-opacity=".2" rx="4" transform="translate(8 46)"/>
                <path d="M0 0H40V36H0z" transform="translate(112 47)"/>
                <path d="M0 0H40V36H0z" transform="translate(112 47)"/>
                <text fill="#000" fill-opacity=".8" font-family="OpenSans-Regular, Open Sans" font-size="16" transform="translate(56 54)">
                    <tspan x="0" y="17">08 / 24</tspan>
                </text>
                <text fill="#000" fill-opacity=".6" font-family="OpenSans-Regular, Open Sans" font-size="14" transform="translate(10 21)">
                    <tspan x="0" y="15">Дата</tspan>
                </text>
            </g>
            <g transform="translate(152 87)">
                <path d="M0 0H160V92H0z"/>
                <rect width="143" height="37" x=".5" y=".5" fill="#FFF" fill-opacity="0" stroke="#000" stroke-opacity=".2" rx="4" transform="translate(8 46)"/>
                <path d="M0 0H40V36H0z" transform="translate(112 47)"/>
                <g transform="translate(112 47)">
                    <path d="M0 0H40V36H0z"/>
                    <path fill="#000" fill-opacity=".2" d="M0 0H1V36H0z"/>
                    <mask id="prefix__b" fill="#fff">
                        <use xlink:href="#prefix__a"/>
                    </mask>
                    <use fill="#FFF" fill-opacity="0" xlink:href="#prefix__a"/>
                    <g fill="#000" fill-opacity=".4" mask="url(#prefix__b)">
                        <path d="M0 0H40V36H0z"/>
                    </g>
                </g>
                <text fill="#000" fill-opacity=".8" font-family="OpenSans-Regular, Open Sans" font-size="16" transform="translate(56 54)">
                    <tspan x="0" y="17">***</tspan>
                </text>
                <text fill="#000" fill-opacity=".6" font-family="OpenSans-Regular, Open Sans" font-size="14" transform="translate(10 21)">
                    <tspan x="0" y="15">CVC</tspan>
                </text>
            </g>
            <g transform="translate(0 173)">
                <path d="M0 0H312V86H0z"/>
                <g transform="translate(7.8 36)">
                    <use fill="#FFF" fill-opacity="0" xlink:href="#prefix__c"/>
                </g>
                <rect width="296" height="42" fill="#FFF" fill-opacity="0" rx="4" transform="translate(8 36)"/>
                <g>
                    <path d="M130 0H146V42H130z" transform="translate(82.013 36)"/>
                    <path fill="#FFF" d="M135 21.79h.945v1.635H135v1.452h.945V27.6h1.56v-2.723h6.005v-1.452h-6.005V21.79h2.237c1.606.023 2.569-.306 3.34-.963.626-.534.995-1.301.995-2.137 0-1.055-.514-1.794-1.349-2.287-.706-.425-1.589-.603-2.921-.603h-3.862v4.492H135v1.498zm6.711-1.892c-.601.376-1.416.494-2.89.494H137.6v-3.294h1.493c1.144 0 1.842.082 2.424.317.66.26.97.695.97 1.26 0 .517-.233.893-.776 1.223z" transform="translate(82.013 36)"/>
                    <text fill="#FFF" font-family="OpenSans-SemiBold, Open Sans" font-size="15.7" font-weight="500" transform="translate(82.013 36)">
                        <tspan x=".534" y="27">ОПЛАТИТЬ 1 000</tspan>
                    </text>
                </g>
            </g>
            <g>
                <path fill="#FFF" fill-opacity="0" d="M0 0H312V86H0z" transform="translate(0 247)"/>
                <g transform="translate(0 247) translate(119 34)">
                    <path fill="#FFF" fill-opacity="0" d="M0 0H185V44H0z"/>
                    <mask id="prefix__e" fill="#fff">
                        <use xlink:href="#prefix__d"/>
                    </mask>
                    <use fill="#FFF" fill-opacity="0" xlink:href="#prefix__d"/>
                    <g fill="#000" fill-opacity=".23" mask="url(#prefix__e)">
                        <path d="M0 0H191V50H0z" transform="translate(-6 2)"/>
                    </g>
                </g>
                <g transform="translate(0 247) translate(8 34)">
                    <path fill="#FFF" fill-opacity="0" d="M0 0H76V44H0z"/>
                    <mask id="prefix__g" fill="#fff">
                        <use xlink:href="#prefix__f"/>
                    </mask>
                    <use fill="#FFF" fill-opacity="0" xlink:href="#prefix__f"/>
                    <g fill="#000" fill-opacity=".32" mask="url(#prefix__g)">
                        <path d="M0 0H76V44H0z"/>
                    </g>
                </g>
            </g>
        </g>
        <path fill="#F0F0F0" d="M279 4c13.807 0 25 11.193 25 25v21c0 2.21-1.79 4-4 4H105v-2l-96.464.002C8.196 51.413 8 50.73 8 50V29C8 15.193 19.193 4 33 4h246zM160.99 21h-9.98c-1.614 0-2.914 1.25-3.005 2.825l-.005.176V40c0 1.599 1.253 2.905 2.833 2.996l.176.005h9.982c1.613 0 2.913-1.25 3.004-2.825l.005-.176V24c0-1.658-1.347-3.001-3.01-3.001zM156 39c.828 0 1.5.672 1.5 1.5s-.672 1.5-1.5 1.5-1.5-.672-1.5-1.5.672-1.5 1.5-1.5zm106.999-16H247c-1.599 0-2.905 1.246-2.996 2.817l-.005.176v12.014c0 1.582 1.25 2.896 2.825 2.988l.176.005H263c1.599 0 2.905-1.246 2.996-2.817l.005-.176V25.993c0-1.64-1.344-2.993-3.001-2.993zm-196.99 1H47.99c-1.59 0-2.895 1.253-2.986 2.833l-.005.176v9.982c0 1.613 1.245 2.913 2.815 3.004l.176.005H66.01c1.59 0 2.895-1.253 2.986-2.833l.005-.176v-9.982C69 25.337 67.66 24 66.009 24zm196.998 1l.115.007c.457.053.818.42.871.882l.007.118V28h-5.998c-2.21 0-4.002 1.79-4.002 4 0 2.138 1.685 3.89 3.803 3.995l.2.005H264v1.993l-.007.118c-.053.462-.415.829-.87.882l-.116.007h-16.014l-.115-.007c-.457-.053-.818-.42-.871-.882l-.007-.118V26.007l.007-.118c.053-.462.415-.829.87-.882l.116-.007h16.014zm-102.01-2c.515 0 .938.387.996.89l.007.117V38h-12V24.007l.007-.117c.054-.463.424-.83.88-.883l.115-.007h9.996zM67 32v4.998l-.007.116c-.054.46-.423.826-.871.88l-.114.006H47.992l-.116-.007c-.455-.054-.816-.424-.87-.88L47 36.998V32h20zm-2.7 2h-2.6c-.354 0-.647.263-.694.605L61 34.7v.6c0 .354.263.647.605.694L61.7 36h2.6c.354 0 .647-.263.694-.605L65 35.3v-.6c0-.387-.313-.7-.7-.7zM258 30c1.105 0 2 .895 2 2s-.895 2-2 2-2-.895-2-2 .895-2 2-2zM66.008 26l.116.007c.455.054.816.424.87.88l.006.115V29H47v-1.998l.007-.116c.054-.46.423-.826.871-.88l.114-.006h18.016z" transform="translate(-4)"/>
    </g>
</svg>
