<svg xmlns="http://www.w3.org/2000/svg" xmlns:xlink="http://www.w3.org/1999/xlink" width="458" height="154" viewBox="0 0 458 154">
    <defs>
        <path id="prefix__a" d="M14 0c1.105 0 2 .895 2 2v10c0 1.105-.895 2-2 2H2c-1.105 0-2-.895-2-2V2C0 .895.895 0 2 0h12zm.983 1.813L8.329 7.622c-.189.164-.47.164-.658 0L1.017 1.813C1.006 1.873 1 1.936 1 2v10c0 .552.448 1 1 1h12c.552 0 1-.448 1-1V2c0-.064-.006-.126-.017-.187z"/>
        <path id="prefix__c" d="M16.005 0C17.107 0 18 .897 18 2.006v9.988C18 13.102 17.107 14 16.005 14H9.762L6.05 17l-3.788-3h-.267C.893 14 0 13.103 0 11.994V2.006C0 .898.893 0 1.995 0h14.01zm-.006 1H2.001C1.445 1 1 1.449 1 2.002v9.996C1 12.544 1.448 13 2 13h.8l3.25 2.6L9.2 13H16c.555 0 1-.449 1-1.002V2.002C17 1.456 16.552 1 16 1zM5.3 5.8c.718 0 1.3.582 1.3 1.3 0 .718-.582 1.3-1.3 1.3-.718 0-1.3-.582-1.3-1.3 0-.718.582-1.3 1.3-1.3zm3.7 0c.718 0 1.3.582 1.3 1.3 0 .718-.582 1.3-1.3 1.3-.718 0-1.3-.582-1.3-1.3 0-.718.582-1.3 1.3-1.3zm3.7 0c.718 0 1.3.582 1.3 1.3 0 .718-.582 1.3-1.3 1.3-.718 0-1.3-.582-1.3-1.3 0-.718.582-1.3 1.3-1.3z"/>
        <path id="prefix__e" d="M9 9l5.992 3.424c.623.356 1.008 1.019 1.008 1.737v.339c0 .828-.672 1.5-1.5 1.5h-13C.672 16 0 15.328 0 14.5v-.34c0-.717.385-1.38 1.008-1.736L7 9h2zm-.2 1H7.2l-5.533 3.057C1.278 13.194 1 13.565 1 14c0 .552.448 1 1 1h12c.552 0 1-.448 1-1 0-.436-.28-.807-.669-.944L8.8 10zM8 0c2.21 0 4 1.79 4 4s-1.79 4-4 4-4-1.79-4-4 1.79-4 4-4zm0 1C6.343 1 5 2.343 5 4s1.343 3 3 3 3-1.343 3-3-1.343-3-3-3z"/>
    </defs>
    <g fill="none" fill-rule="evenodd">
        <path d="M0 0L210 0 210 54 0 54z" transform="translate(36 4)"/>
        <g transform="translate(36 4) translate(8 8)">
            <rect width="194" height="38" fill="#000" fill-opacity=".06" rx="19"/>
            <text fill="#000" fill-opacity=".6" font-family="OpenSans-Regular, Open Sans" font-size="13" letter-spacing="-.2" transform="translate(48 8)">
                <tspan x="0" y="14">Email для чека</tspan>
            </text>
            <g transform="translate(16 12)">
                <mask id="prefix__b" fill="#fff">
                    <use xlink:href="#prefix__a"/>
                </mask>
                <use fill="#FFF" fill-opacity="0" xlink:href="#prefix__a"/>
                <g fill="#B063F5" mask="url(#prefix__b)">
                    <path d="M0 0H48V38H0z" transform="translate(-16 -12)"/>
                </g>
            </g>
        </g>
        <g>
            <path d="M0 0L210 0 210 54 0 54z" transform="translate(36 4) translate(176 46)"/>
            <g transform="translate(36 4) translate(176 46) translate(8 8)">
                <rect width="194" height="38" fill="#000" fill-opacity=".06" rx="19"/>
                <text fill="#000" fill-opacity=".6" font-family="OpenSans-Regular, Open Sans" font-size="13" letter-spacing="-.2" transform="translate(48 8)">
                    <tspan x="0" y="14">Комментарий</tspan>
                </text>
                <g transform="translate(15 11)">
                    <mask id="prefix__d" fill="#fff">
                        <use xlink:href="#prefix__c"/>
                    </mask>
                    <use fill="#FFF" fill-opacity="0" xlink:href="#prefix__c"/>
                    <g fill="#B063F5" mask="url(#prefix__d)">
                        <path d="M0 0H48V38H0z" transform="translate(-15 -11)"/>
                    </g>
                </g>
            </g>
        </g>
        <g>
            <path d="M0 0L210 0 210 54 0 54z" transform="translate(36 4) translate(0 92)"/>
            <g transform="translate(36 4) translate(0 92) translate(8 8)">
                <rect width="194" height="38" fill="#000" fill-opacity=".06" rx="19"/>
                <text fill="#000" fill-opacity=".6" font-family="OpenSans-Regular, Open Sans" font-size="13" letter-spacing="-.2" transform="translate(48 8)">
                    <tspan x="0" y="14">Ваше имя</tspan>
                </text>
                <g transform="translate(16 11)">
                    <mask id="prefix__f" fill="#fff">
                        <use xlink:href="#prefix__e"/>
                    </mask>
                    <use fill="#FFF" fill-opacity="0" xlink:href="#prefix__e"/>
                    <g fill="#B063F5" mask="url(#prefix__f)">
                        <path d="M0 0H48V38H0z" transform="translate(-16 -11)"/>
                    </g>
                </g>
            </g>
        </g>
    </g>
</svg>
