<?xml version="1.0" encoding="UTF-8"?>
<svg width="16px" height="16px" viewBox="0 0 16 16" version="1.1" xmlns="http://www.w3.org/2000/svg" xmlns:xlink="http://www.w3.org/1999/xlink">
    <!-- Generator: Sketch 61.2 (89653) - https://sketch.com -->
    <title>website_icon</title>
    <desc>Created with Sketch.</desc>
    <g id="website_icon" stroke="none" stroke-width="1" fill="none" fill-rule="evenodd">
        <path d="M12,0 C14.209139,0 16,1.790861 16,4 L16,12 C16,14.209139 14.209139,16 12,16 L4,16 C1.790861,16 0,14.209139 0,12 L0,4 C0,1.790861 1.790861,0 4,0 L12,0 Z M8,10.25 C6.96446609,10.25 6.125,11.0894661 6.125,12.125 C6.125,13.1605339 6.96446609,14 8,14 C9.03553391,14 9.875,13.1605339 9.875,12.125 C9.875,11.0894661 9.03553391,10.25 8,10.25 Z M5.1875,7.25 C4.46262627,7.25 3.875,7.83762627 3.875,8.5625 C3.875,9.28737373 4.46262627,9.875 5.1875,9.875 C5.91237373,9.875 6.5,9.28737373 6.5,8.5625 C6.5,7.83762627 5.91237373,7.25 5.1875,7.25 Z M10.8125,7.25 C10.0876263,7.25 9.5,7.83762627 9.5,8.5625 C9.5,9.28737373 10.0876263,9.875 10.8125,9.875 C11.5373737,9.875 12.125,9.28737373 12.125,8.5625 C12.125,7.83762627 11.5373737,7.25 10.8125,7.25 Z M8,5 C7.27512627,5 6.6875,5.58762627 6.6875,6.3125 C6.6875,7.03737373 7.27512627,7.625 8,7.625 C8.72487373,7.625 9.3125,7.03737373 9.3125,6.3125 C9.3125,5.58762627 8.72487373,5 8,5 Z M2.9375,5 C2.41973305,5 2,5.41973305 2,5.9375 C2,6.45526695 2.41973305,6.875 2.9375,6.875 C3.45526695,6.875 3.875,6.45526695 3.875,5.9375 C3.875,5.41973305 3.45526695,5 2.9375,5 Z M13.0625,5 C12.544733,5 12.125,5.41973305 12.125,5.9375 C12.125,6.45526695 12.544733,6.875 13.0625,6.875 C13.580267,6.875 14,6.45526695 14,5.9375 C14,5.41973305 13.580267,5 13.0625,5 Z M8,2 C7.48223305,2 7.0625,2.41973305 7.0625,2.9375 C7.0625,3.45526695 7.48223305,3.875 8,3.875 C8.51776695,3.875 8.9375,3.45526695 8.9375,2.9375 C8.9375,2.41973305 8.51776695,2 8,2 Z" id="Shape" fill="#000000"></path>
    </g>
</svg>