<svg xmlns="http://www.w3.org/2000/svg" xmlns:xlink="http://www.w3.org/1999/xlink" width="48" height="38" viewBox="0 0 48 38">
    <defs>
        <path id="a9d8jq1qia" d="M9 0c4.97 0 9 4.03 9 9s-4.03 9-9 9-9-4.03-9-9 4.03-9 9-9zm0 1C4.582 1 1 4.582 1 9s3.582 8 8 8 8-3.582 8-8-3.582-8-8-8zm4.664 5.107c.39.39.39 1.024 0 1.414l-4.221 4.22.002.002-.707.707-.01.007-.014.014-.001-.001-.07.063c-.392.305-.96.277-1.32-.083L4.495 9.62c-.39-.39-.39-1.023 0-1.414.39-.39 1.024-.39 1.414 0l2.12 2.12 4.22-4.22c.391-.39 1.024-.39 1.415 0z"/>
    </defs>
    <g fill="none" fill-rule="evenodd">
        <g>
            <g>
                <g>
                    <g>
                        <g fill="#FFF" fill-opacity="0">
                            <path d="M0 0H48V38H0z" transform="translate(-154 -68) translate(18 66) translate(136 2)"/>
                        </g>
                        <g transform="translate(-154 -68) translate(18 66) translate(136 2) translate(15 10)">
                            <mask id="ngnq3p7jsb" fill="#fff">
                                <use xlink:href="#a9d8jq1qia"/>
                            </mask>
                            <use fill="#FFF" fill-opacity="0" xlink:href="#a9d8jq1qia"/>
                            <g fill="#50BD5C" mask="url(#ngnq3p7jsb)">
                                <path d="M0 0H48V38H0z" transform="translate(-15 -10)"/>
                            </g>
                        </g>
                    </g>
                </g>
            </g>
        </g>
    </g>
</svg>
